<svg height="638pt" viewBox="0 -45 638.74973 638" width="638pt" xmlns="http://www.w3.org/2000/svg"><path d="m593.386719 141.355469v65.976562h-541.914063l-5.953125-146.320312c-1.53125-32.992188 24.890625-60.636719 58.039063-60.636719h125.09375c20.308594 0 39.253906 10.691406 49.789062 28.253906l15.886719 26.582032c10.535156 17.5625 29.324219 28.253906 49.789063 28.253906h191.078124c32.074219-.152344 58.191407 25.8125 58.191407 57.890625zm0 0" fill="#00efd1"/><path d="m608.207031 192.0625c18.480469 0 32.835938 16.34375 30.238281 34.671875l-37.417968 272.175781c-3.972656 28.71875-28.5625 50.105469-57.429688 50.105469h-447.832031c-29.019531 0-53.460937-21.386719-57.425781-50.105469l-38.035156-272.175781c-2.59375-18.328125 11.761718-34.824219 30.242187-34.824219h577.660156zm0 0" fill="#00acea"/><g fill="#083863"><path d="m381.847656 360.226562h-47.199218v-47.195312c0-8.402344-6.871094-15.273438-15.273438-15.273438-8.398438 0-15.277344 6.871094-15.277344 15.273438v47.195312h-47.191406c-8.402344 0-15.273438 6.871094-15.273438 15.273438s6.871094 15.273438 15.273438 15.273438h47.199219v47.199218c0 8.398438 6.871093 15.277344 15.269531 15.277344 8.402344 0 15.273438-6.878906 15.273438-15.277344v-47.199218h47.199218c8.402344 0 15.273438-6.871094 15.273438-15.273438s-6.871094-15.273438-15.273438-15.273438zm0 0"/><path d="m319.375 219.863281c-85.835938 0-155.640625 69.800781-155.640625 155.636719 0 85.839844 69.804687 155.644531 155.640625 155.644531 85.839844 0 155.640625-69.804687 155.640625-155.644531 0-85.835938-69.800781-155.636719-155.640625-155.636719zm0 280.730469c-69.039062 0-125.089844-56.054688-125.089844-125.09375s56.050782-125.089844 125.089844-125.089844c69.042969 0 125.09375 56.050782 125.09375 125.089844s-56.058594 125.09375-125.09375 125.09375zm0 0"/></g></svg>