<svg height="640pt" viewBox="0 -52 640 640" width="640pt" xmlns="http://www.w3.org/2000/svg"><path d="m320.964844 59.28125-61.492188-59.28125h-211.214844l7.855469 219.214844h532.734375v-159.933594zm0 0" fill="#00efd1"/><path d="m536.460938 219.214844v.550781h-432.921876v-105.332031h432.921876zm0 0" fill="#fedb41"/><path d="m640 205.980469-58.042969 329.097656h-523.222656l-58.734375-329.097656zm0 0" fill="#00acea"/><g fill="#083863"><path d="m376.386719 365.359375h-42.601563v-42.742187c0-7.582032-6.203125-13.785157-13.785156-13.785157s-13.789062 6.203125-13.789062 13.785157v42.742187h-42.601563c-7.585937 0-13.785156 6.203125-13.785156 13.785156s6.199219 13.789063 13.785156 13.789063h42.601563v42.324218c0 7.582032 6.207031 13.789063 13.789062 13.789063s13.785156-6.207031 13.785156-13.789063v-42.324218h42.601563c7.582031 0 13.789062-6.207032 13.789062-13.789063s-6.207031-13.785156-13.789062-13.785156zm0 0"/><path d="m320 238.378906c-77.484375 0-140.492188 63.007813-140.492188 140.492188 0 77.480468 63.007813 140.628906 140.492188 140.628906s140.492188-63.148438 140.492188-140.492188c0-77.347656-63.007813-140.628906-140.492188-140.628906zm0 253.542969c-62.320312 0-112.914062-50.59375-112.914062-112.914063 0-62.320312 50.59375-112.914062 112.914062-112.914062s112.914062 50.59375 112.914062 112.914062c0 62.179688-50.59375 112.914063-112.914062 112.914063zm0 0"/></g></svg>