<svg height="638pt" viewBox="-57 0 638 638.75085" width="638pt" xmlns="http://www.w3.org/2000/svg"><path d="m317.5 238.539062-44.925781-121.921874h-214.023438c-32.199219 0-58.175781 26.507812-58.175781 58.707031v404.71875c0 32.203125 25.976562 58.707031 58.175781 58.707031h290.488281c32.203126 0 58.175782-26.503906 58.175782-58.707031v-321.496094zm0 0" fill="#00efd1"/><path d="m377.132812 180.230469-44.925781-121.921875h-214.019531c-32.203125 0-58.175781 26.507812-58.175781 58.707031v404.71875c0 32.203125 25.972656 58.707031 58.175781 58.707031h290.484375c32.203125 0 58.179687-26.503906 58.179687-58.707031v-321.496094zm0 0" fill="#fedb41"/><path d="m435.441406 121.917969-44.925781-121.917969h-214.019531c-32.203125 0-58.175782 26.503906-58.175782 58.707031v404.71875c0 32.203125 25.972657 58.707031 58.175782 58.707031h290.488281c32.199219 0 58.175781-26.503906 58.175781-58.707031v-321.496093zm0 0" fill="#00acea"/><path d="m390.515625.398438 134.777344 141.664062h-89.71875c-24.914063 0-45.058594-20.144531-45.058594-45.054688zm0 0" fill="#00efd1"/><g fill="#083863"><path d="m430.804688 424.066406h-218.128907c-7.292969 0-13.257812 5.960938-13.257812 13.253906 0 7.289063 5.964843 13.25 13.257812 13.25h218.257813c7.292968 0 13.25-5.960937 13.25-13.25 0-7.292968-5.957032-13.253906-13.378906-13.253906zm0 0"/><path d="m249.25 397.5625h144.980469c7.285156 0 12.984375-6.097656 12.984375-13.382812v-61.226563c0-41.476563-33.394532-75.140625-74.875-75.140625h-21.199219c-41.480469 0-74.878906 33.664062-74.878906 75.140625v61.226563c0 7.285156 5.695312 13.382812 12.988281 13.382812zm13.515625-74.609375c0-26.769531 21.601563-48.636719 48.371094-48.636719h21.203125c26.769531 0 48.371094 21.734375 48.371094 48.636719v48.101563h-117.945313zm0 0"/><path d="m321.738281 245.828125c14.707031 0 28.488281-5.703125 38.960938-16.039063 10.46875-10.46875 16.304687-24.378906 16.304687-39.222656s-5.835937-28.757812-16.304687-39.226562c-10.472657-10.335938-24.253907-16.039063-38.960938-16.039063-14.84375 0-28.757812 5.835938-39.222656 16.300781-10.335937 10.472657-16.039063 24.253907-16.039063 38.964844 0 30.480469 24.78125 55.261719 55.261719 55.261719zm-20.410156-75.542969c5.433594-5.425781 12.726563-8.476562 20.410156-8.476562 7.6875 0 14.84375 2.914062 20.273438 8.347656 5.433593 5.433594 8.484375 12.722656 8.484375 20.410156 0 7.683594-3.050782 14.972656-8.484375 20.40625-5.429688 5.433594-12.585938 8.347656-20.273438 8.347656-15.902343 0-28.757812-12.855468-28.757812-28.753906 0-7.6875 2.914062-14.84375 8.347656-20.28125zm0 0"/></g></svg>