<svg height="640pt" viewBox="-30 0 640 640" width="640pt" xmlns="http://www.w3.org/2000/svg"><path d="m300.585938 101.449219-15.308594-101.449219h-224.601563c-33.820312 0-60.675781 27.554688-60.675781 61.371094v424.71875c0 33.816406 26.855469 60.8125 60.675781 60.8125h213.054688l153.492187-232.402344v-165.734375zm0 0" fill="#00acea"/><path d="m285.277344.140625 141.527344 148.625h-94.210938c-26.164062 0-47.316406-21.152344-47.316406-47.316406zm0 0" fill="#00efd1"/><g fill="#083863"><path d="m279.851562 318.675781h-181.324218c-7.652344 0-13.917969 6.265625-13.917969 13.917969 0 7.65625 6.265625 13.914062 13.917969 13.914062h181.324218c7.652344 0 13.917969-6.257812 13.917969-13.914062 0-7.652344-6.121093-13.917969-13.917969-13.917969zm0 0"/><path d="m98.527344 276.929688h140.96875c7.652344 0 13.917968-6.261719 13.917968-13.917969 0-7.652344-6.265624-13.914063-13.917968-13.914063h-140.96875c-7.652344 0-13.917969 6.261719-13.917969 13.914063 0 7.65625 6.265625 13.917969 13.917969 13.917969zm0 0"/><path d="m234.066406 389.648438h-135.539062c-7.652344 0-13.917969 6.265624-13.917969 13.914062 0 7.65625 6.265625 13.917969 13.917969 13.917969h135.539062c7.65625 0 13.917969-6.261719 13.917969-13.917969 0-7.648438-6.261719-13.914062-13.917969-13.914062zm0 0"/></g><path d="m426.804688 286.8125c86.28125 12.101562 152.65625 86.136719 152.65625 175.753906 0 97.96875-79.457032 177.433594-177.425782 177.433594-67.351562 0-126.078125-37.574219-156-92.960938-13.636718-25.1875-21.429687-53.992187-21.429687-84.609374 0-97.96875 79.460937-177.429688 177.429687-177.429688 8.351563.140625 16.558594.699219 24.769532 1.8125zm0 0" fill="#fedb41"/><path d="m412.890625 438.355469h-22.265625c-43.558594 0-78.90625 34.929687-78.90625 78.484375v64.292968c0 7.65625 6.265625 14.472657 13.914062 14.472657h152.242188c7.65625 0 13.359375-6.679688 13.359375-14.472657v-64.292968c0-43.554688-34.789063-78.484375-78.34375-78.484375zm50.511719 129.421875h-123.851563v-50.933594c0-28.109375 22.964844-50.65625 51.074219-50.65625h22.265625c28.109375 0 50.511719 22.40625 50.511719 50.65625zm0 0" fill="#083863"/><path d="m401.757812 435.847656c15.445313 0 29.917969-5.980468 40.914063-16.835937 10.988281-10.996094 17.113281-25.605469 17.113281-41.191407 0-15.585937-6.125-30.199218-17.113281-41.191406-10.996094-10.851562-25.46875-16.839844-40.914063-16.839844-15.585937 0-30.199218 6.125-41.191406 17.121094-10.855468 10.988282-16.839844 25.460938-16.839844 40.910156 0 32.007813 26.023438 58.027344 58.03125 58.027344zm-21.429687-79.320312c5.703125-5.703125 13.359375-8.90625 21.429687-8.90625 8.070313 0 15.585938 3.0625 21.289063 8.769531 5.707031 5.703125 8.90625 13.359375 8.90625 21.429687 0 8.074219-3.199219 15.722657-8.90625 21.433594-5.703125 5.703125-13.21875 8.761719-21.289063 8.761719-16.699218 0-30.199218-13.496094-30.199218-30.195313 0-8.070312 3.203125-15.585937 8.769531-21.292968zm0 0" fill="#083863"/></svg>