<svg height="640pt" viewBox="0 -52 640 640" width="640pt" xmlns="http://www.w3.org/2000/svg"><path d="m253.089844 20.621094 68.394531 86.640625h-174.46875c-31.152344 0-56.371094 25.21875-56.371094 56.371093v371.777344h-34.273437c-31.152344 0-56.371094-25.21875-56.371094-56.378906v-422.660156c0-31.152344 25.21875-56.371094 56.371094-56.371094h153.105468c16.765626 0 32.785157 7.5625 43.613282 20.621094zm0 0" fill="#00efd1"/><path d="m640 160.816406v318.367188c0 31.152344-25.21875 56.371094-56.371094 56.371094h-507.816406v-374.738282c0-31.152344 25.21875-56.371094 56.371094-56.371094h451.445312c31.152344 0 56.371094 25.21875 56.371094 56.371094zm0 0" fill="#00acea"/><g fill="#083863"><path d="m364.953125 294.484375h-23.738281c-46.433594 0-83.371094 37.683594-83.371094 84.113281v68.542969c0 8.15625 5.929688 14.984375 14.089844 14.984375h162.300781c8.15625 0 14.832031-6.828125 14.832031-14.984375v-68.542969c0-46.433594-37.824218-84.113281-84.113281-84.113281zm54.445313 137.96875h-132.035157v-53.855469c0-29.964844 23.734375-54.441406 53.699219-54.441406h23.742188c29.964843 0 54.445312 24.324219 54.445312 54.441406v53.855469zm0 0"/><path d="m353.082031 292.257812c16.46875 0 31.898438-6.378906 43.617188-17.953124 11.71875-11.71875 18.246093-27.292969 18.246093-43.910157 0-16.613281-6.527343-32.191406-18.246093-43.914062-11.71875-11.574219-27.148438-17.949219-43.617188-17.949219-16.613281 0-32.191406 6.527344-43.910156 18.246094-11.574219 11.71875-17.953125 27.148437-17.953125 43.617187 0 34.121094 27.742188 61.863281 61.863281 61.863281zm-22.847656-84.5625c6.085937-6.085937 14.242187-9.492187 22.847656-9.492187s16.613281 3.261719 22.699219 9.34375 9.496094 14.242187 9.496094 22.847656-3.410156 16.761719-9.496094 22.847657c-6.085938 6.078124-14.09375 9.34375-22.699219 9.34375-17.800781 0-32.191406-14.386719-32.191406-32.191407 0-8.601562 3.265625-16.613281 9.34375-22.699219zm0 0"/></g></svg>