<svg height="418pt" viewBox="0 -29 418.19843 418" width="418pt" xmlns="http://www.w3.org/2000/svg"><path d="m388.5 92.398438v43.199218h-354.800781l-3.898438-95.796875c-1-21.601562 16.296875-39.7031248 38-39.7031248h81.898438c13.300781 0 25.699219 6.9999998 32.601562 18.4999998l10.398438 17.402344c6.898437 11.5 19.199219 18.5 32.601562 18.5h125.097657c21-.101562 38.101562 16.898438 38.101562 37.898438zm0 0" fill="#00efd1"/><path d="m398.199219 125.597656c12.101562 0 21.5 10.703125 19.800781 22.703125l-24.5 178.199219c-2.601562 18.800781-18.699219 32.800781-37.601562 32.800781h-293.199219c-19 0-35-14-37.601563-32.800781l-24.898437-178.199219c-1.699219-12 7.699219-22.800781 19.800781-22.800781h378.199219zm0 0" fill="#00acea"/><g fill="#083863"><path d="m217.097656 230.699219h-16c-31.296875 0-57 25.398437-57 56.699219v46.199218c0 5.5 4.800782 10.101563 10.300782 10.101563h109.402343c5.5 0 10.296875-4.601563 10.296875-10.101563v-46.199218c0-31.300782-25.699218-56.699219-57-56.699219zm37 93h-90v-36.300781c0-20.199219 16.800782-36.699219 37-36.699219h16c20.203125 0 37 16.398437 37 36.699219zm0 0"/><path d="m209.097656 229.199219c11.101563 0 21.5-4.300781 29.402344-12.101563 7.898438-7.898437 12.300781-18.398437 12.300781-29.597656s-4.402343-21.699219-12.300781-29.601562c-7.902344-7.800782-18.300781-12.097657-29.402344-12.097657-11.199218 0-21.699218 4.398438-29.597656 12.296875-7.800781 7.902344-12.101562 18.300782-12.101562 29.402344 0 23 18.699218 41.699219 41.699218 41.699219zm-15.398437-57c4.101562-4.101563 9.601562-6.398438 15.398437-6.398438 5.800782 0 11.203125 2.199219 15.300782 6.296875 4.101562 4.101563 6.402343 9.601563 6.402343 15.402344s-2.300781 11.300781-6.402343 15.398438c-4.097657 4.101562-9.5 6.300781-15.300782 6.300781-12 0-21.699218-9.699219-21.699218-21.699219 0-5.800781 2.199218-11.199219 6.300781-15.300781zm0 0"/></g></svg>