<svg height="640pt" viewBox="0 -52 640 640" width="640pt" xmlns="http://www.w3.org/2000/svg"><path d="m320.964844 59.28125-61.492188-59.28125h-211.214844l7.855469 219.214844h532.734375v-159.933594zm0 0" fill="#00efd1"/><path d="m536.460938 219.214844v.550781h-432.921876v-105.332031h432.921876zm0 0" fill="#fedb41"/><path d="m640 205.980469-58.042969 329.097656h-523.222656l-58.734375-329.097656zm0 0" fill="#00acea"/><g fill="#083863"><path d="m331.03125 354.332031h-22.0625c-43.152344 0-78.582031 34.738281-78.582031 77.894531v63.695313c0 7.582031 6.613281 14.0625 14.199219 14.0625h150.828124c7.582032 0 14.203126-6.480469 14.203126-14.0625v-63.695313c-.003907-43.15625-35.433594-77.894531-78.585938-77.894531zm51.007812 128.214844h-124.082031v-50.320313c0-27.851562 23.160157-50.324218 51.011719-50.324218h22.0625c27.84375 0 51.007812 22.472656 51.007812 50.324218zm0 0"/><path d="m320 351.988281c15.300781 0 29.644531-5.929687 40.53125-16.6875 10.894531-10.890625 16.964844-25.363281 16.964844-40.808593 0-15.4375-6.070313-29.917969-16.964844-40.8125-10.886719-10.75-25.230469-16.675782-40.53125-16.675782-15.441406 0-29.917969 6.0625-40.8125 16.957032-10.75 10.886718-16.683594 25.226562-16.683594 40.53125 0 31.707031 25.785156 57.496093 57.496094 57.496093zm-21.230469-78.589843c5.648438-5.648438 13.230469-8.824219 21.230469-8.824219 7.996094 0 15.4375 3.035156 21.09375 8.6875 5.652344 5.652343 8.824219 13.238281 8.824219 21.230469 0 7.996093-3.171875 15.582031-8.824219 21.234374-5.65625 5.648438-13.097656 8.6875-21.09375 8.6875-16.542969 0-29.917969-13.375-29.917969-29.921874 0-7.855469 3.167969-15.4375 8.6875-21.09375zm0 0"/></g></svg>