<svg height="640pt" viewBox="-70 0 640 640" width="640pt" xmlns="http://www.w3.org/2000/svg"><path d="m334.457031 0h-262.332031c-39.472656 0-72.125 32.484375-72.125 71.957031v496.085938c0 39.472656 32.652344 71.957031 72.125 71.957031h356.058594c39.472656 0 72.117187-32.484375 72.117187-71.957031v-394.074219zm0 0" fill="#00acea"/><path d="m335.269531.488281 165.199219 173.640625h-109.972656c-30.535156 0-55.226563-24.6875-55.226563-55.222656zm0 0" fill="#00efd1"/><g fill="#083863"><path d="m383.835938 511.675781h-267.371094c-8.929688 0-16.238282 7.308594-16.238282 16.242188 0 8.9375 7.308594 16.246093 16.238282 16.246093h267.535156c8.933594 0 16.242188-7.308593 16.242188-16.246093 0-8.933594-7.308594-16.242188-16.40625-16.242188zm0 0"/><path d="m161.300781 487.308594h177.703125c8.933594 0 16.734375-7.46875 16.734375-16.40625v-75.042969c0-50.84375-41.75-92.105469-92.589843-92.105469h-25.992188c-50.84375 0-92.585938 41.261719-92.585938 92.105469v75.042969c0 8.9375 7.792969 16.40625 16.730469 16.40625zm15.753907-91.449219c0-32.8125 27.292968-59.613281 60.101562-59.613281h25.992188c32.808593 0 60.097656 26.640625 60.097656 59.613281v58.964844h-146.191406zm0 0"/><path d="m250.152344 301.316406c18.03125 0 34.925781-6.980468 47.757812-19.652344 12.832032-12.832031 19.980469-29.886718 19.980469-48.082031 0-18.191406-7.148437-35.246093-19.980469-48.078125-12.832031-12.671875-29.726562-19.65625-47.757812-19.65625-18.195313 0-35.25 7.144532-48.082032 19.976563-12.671874 12.835937-19.652343 29.726562-19.652343 47.757812 0 37.359375 30.375 67.734375 67.734375 67.734375zm-25.015625-92.585937c6.660156-6.660157 15.597656-10.394531 25.015625-10.394531 9.421875 0 18.191406 3.574218 24.851562 10.234374 6.660156 6.660157 10.394532 15.589844 10.394532 25.011719 0 9.425781-3.734376 18.355469-10.394532 25.015625s-15.429687 10.234375-24.851562 10.234375c-19.492188 0-35.25-15.757812-35.25-35.25 0-9.421875 3.574218-18.191406 10.234375-24.851562zm0 0"/></g></svg>