<svg height="638pt" viewBox="-57 0 638 638.75085" width="638pt" xmlns="http://www.w3.org/2000/svg"><path d="m317.5 238.539062-44.925781-121.921874h-214.023438c-32.199219 0-58.175781 26.507812-58.175781 58.707031v404.71875c0 32.203125 25.976562 58.707031 58.175781 58.707031h290.488281c32.203126 0 58.175782-26.503906 58.175782-58.707031v-321.496094zm0 0" fill="#00efd1"/><path d="m377.132812 180.230469-44.925781-121.921875h-214.019531c-32.203125 0-58.175781 26.507812-58.175781 58.707031v404.71875c0 32.203125 25.972656 58.707031 58.175781 58.707031h290.484375c32.203125 0 58.179687-26.503906 58.179687-58.707031v-321.496094zm0 0" fill="#fedb41"/><path d="m435.441406 121.917969-44.925781-121.917969h-214.019531c-32.203125 0-58.175782 26.503906-58.175782 58.707031v404.71875c0 32.203125 25.972657 58.707031 58.175782 58.707031h290.488281c32.199219 0 58.175781-26.503906 58.175781-58.707031v-321.496093zm0 0" fill="#00acea"/><path d="m390.515625.398438 134.777344 141.664062h-89.71875c-24.914063 0-45.058594-20.144531-45.058594-45.054688zm0 0" fill="#00efd1"/><g fill="#083863"><path d="m430.804688 424.066406h-218.128907c-7.292969 0-13.257812 5.960938-13.257812 13.253906 0 7.289063 5.964843 13.25 13.257812 13.25h218.257813c7.292968 0 13.25-5.960937 13.25-13.25 0-7.292968-5.957032-13.253906-13.378906-13.253906zm0 0"/><path d="m321.738281 136.628906c-74.476562 0-135.039062 60.5625-135.039062 135.035156 0 35.519532 13.652343 69.046876 38.5625 94.488282 25.574219 26.238281 59.902343 40.6875 96.476562 40.6875 74.472657 0 135.039063-60.5625 135.039063-135.039063 0-35.515625-13.648438-69.042969-38.5625-94.488281-25.578125-26.242188-59.769532-40.683594-96.476563-40.683594zm0 26.503906c25.042969 0 48.636719 8.347657 67.71875 23.722657l-153.988281 150.671875c-14.445312-18.816406-22.265625-41.738282-22.265625-65.863282 0-59.894531 48.632813-108.53125 108.535156-108.53125zm0 217.070313c-25.046875 0-48.632812-8.347656-67.71875-23.722656l153.992188-150.675781c14.445312 18.820312 22.261719 41.742187 22.261719 65.859374 0 59.90625-48.636719 108.539063-108.535157 108.539063zm0 0"/></g></svg>