<svg height="431pt" viewBox="0 -35 431.4 431" width="431pt" xmlns="http://www.w3.org/2000/svg"><path d="m170.601562 14.101562 46.097657 58.398438h-117.597657c-21 0-38 17-38 38v250.601562h-23.101562c-21 0-38-17-38-38v-284.902343c0-21 17-38 38-38h103.199219c11.300781 0 22.101562 5.101562 29.402343 13.902343zm0 0" fill="#00efd1"/><path d="m431.398438 108.601562v214.597657c0 21-17 38-38 38h-342.296876v-252.597657c0-21 17-38 38-38h304.296876c21 0 38 17 38 38zm0 0" fill="#00acea"/><path d="m238 114.800781c-56.199219 0-101.898438 45.699219-101.898438 101.898438 0 26.800781 10.296876 52.101562 29.097657 71.300781 19.300781 19.800781 45.199219 30.601562 72.800781 30.601562 56.199219 0 101.898438-45.703124 101.898438-101.902343 0-26.800781-10.296876-52.097657-29.097657-71.300781-19.300781-19.699219-45.199219-30.597657-72.800781-30.597657zm0 20c18.898438 0 36.699219 6.300781 51.101562 17.898438l-116.203124 113.699219c-10.898438-14.199219-16.796876-31.5-16.796876-49.699219 0-45.199219 36.699219-81.898438 81.898438-81.898438zm0 163.800781c-18.898438 0-36.699219-6.300781-51.101562-17.902343l116.203124-113.699219c10.898438 14.199219 16.796876 31.5 16.796876 49.699219 0 45.199219-36.796876 81.902343-81.898438 81.902343zm0 0" fill="#083863"/></svg>