<svg height="418pt" viewBox="0 -29 418.19843 418" width="418pt" xmlns="http://www.w3.org/2000/svg"><path d="m388.5 92.398438v43.199218h-354.800781l-3.898438-95.796875c-1-21.601562 16.296875-39.7031248 38-39.7031248h81.898438c13.300781 0 25.699219 6.9999998 32.601562 18.4999998l10.398438 17.402344c6.898437 11.5 19.199219 18.5 32.601562 18.5h125.097657c21-.101562 38.101562 16.898438 38.101562 37.898438zm0 0" fill="#00efd1"/><path d="m398.199219 125.597656c12.101562 0 21.5 10.703125 19.800781 22.703125l-24.5 178.199219c-2.601562 18.800781-18.699219 32.800781-37.601562 32.800781h-293.199219c-19 0-35-14-37.601563-32.800781l-24.898437-178.199219c-1.699219-12 7.699219-22.800781 19.800781-22.800781h378.199219zm0 0" fill="#00acea"/><path d="m209.097656 140.800781c-56.199218 0-101.898437 45.699219-101.898437 101.898438 0 26.800781 10.300781 52.101562 29.101562 71.300781 19.296875 19.800781 45.199219 30.597656 72.796875 30.597656 56.203125 0 101.902344-45.699218 101.902344-101.898437 0-26.800781-10.300781-52.101563-29.101562-71.300781-19.300782-19.699219-45.097657-30.597657-72.800782-30.597657zm0 20c18.902344 0 36.703125 6.296875 51.101563 17.898438l-116.199219 113.699219c-10.902344-14.199219-16.800781-31.5-16.800781-49.699219 0-45.199219 36.699219-81.898438 81.898437-81.898438zm0 163.796875c-18.898437 0-36.699218-6.296875-51.097656-17.898437l116.199219-113.699219c10.898437 14.199219 16.800781 31.5 16.800781 49.699219 0 45.199219-36.699219 81.898437-81.902344 81.898437zm0 0" fill="#083863"/></svg>