<svg height="640pt" viewBox="0 -52 640 640" width="640pt" xmlns="http://www.w3.org/2000/svg"><path d="m320.964844 59.28125-61.492188-59.28125h-211.214844l7.855469 219.214844h532.734375v-159.933594zm0 0" fill="#00efd1"/><path d="m536.460938 219.214844v.550781h-432.921876v-105.332031h432.921876zm0 0" fill="#fedb41"/><path d="m640 205.980469-58.042969 329.097656h-523.222656l-58.734375-329.097656zm0 0" fill="#00acea"/><path d="m320 230.109375c-77.484375 0-140.492188 63.003906-140.492188 140.484375 0 36.953125 14.203126 71.832031 40.121094 98.308594 26.609375 27.296875 62.320313 42.1875 100.371094 42.1875 77.484375 0 140.492188-63.007813 140.492188-140.488282 0-36.953124-14.203126-71.832031-40.121094-98.304687-26.613282-27.160156-62.183594-42.1875-100.371094-42.1875zm0 27.570313c26.058594 0 50.601562 8.6875 70.453125 24.683593l-160.210937 156.757813c-15.023438-19.582032-23.15625-43.429688-23.15625-68.519532 0-62.183593 50.59375-112.921874 112.914062-112.921874zm0 225.972656c-26.058594 0-50.601562-8.6875-70.453125-24.679688l160.207031-156.761718c15.027344 19.582031 23.160156 43.433593 23.160156 68.527343 0 62.175781-50.59375 112.914063-112.914062 112.914063zm0 0" fill="#083863"/></svg>