<svg height="640pt" viewBox="-70 0 640 640" width="640pt" xmlns="http://www.w3.org/2000/svg"><path d="m334.457031 0h-262.332031c-39.472656 0-72.125 32.484375-72.125 71.957031v496.085938c0 39.472656 32.652344 71.957031 72.125 71.957031h356.058594c39.472656 0 72.117187-32.484375 72.117187-71.957031v-394.074219zm0 0" fill="#00acea"/><path d="m335.269531.488281 165.199219 173.640625h-109.972656c-30.535156 0-55.226563-24.6875-55.226563-55.222656zm0 0" fill="#00efd1"/><g fill="#083863"><path d="m383.835938 511.675781h-267.371094c-8.929688 0-16.238282 7.308594-16.238282 16.242188 0 8.9375 7.308594 16.246093 16.238282 16.246093h267.535156c8.933594 0 16.242188-7.308593 16.242188-16.246093 0-8.933594-7.308594-16.242188-16.40625-16.242188zm0 0"/><path d="m250.152344 167.46875c-91.289063 0-165.523438 74.234375-165.523438 165.523438 0 43.535156 16.734375 84.628906 47.269532 115.820312 31.347656 32.164062 73.425781 49.867188 118.253906 49.867188 91.289062 0 165.519531-74.230469 165.519531-165.519532 0-43.535156-16.726563-84.628906-47.265625-115.820312-31.351562-32.164063-73.261719-49.871094-118.253906-49.871094zm0 32.492188c30.703125 0 59.613281 10.230468 83.007812 29.078124l-188.75 184.6875c-17.710937-23.066406-27.289062-51.167968-27.289062-80.734374 0-73.417969 59.609375-133.03125 133.03125-133.03125zm0 266.070312c-30.699219 0-59.613282-10.234375-83.003906-29.078125l188.75-184.6875c17.703124 23.066406 27.289062 51.167969 27.289062 80.726563 0 73.421874-59.613281 133.039062-133.035156 133.039062zm0 0"/></g></svg>