<svg height="638pt" viewBox="-57 0 638 638.75085" width="638pt" xmlns="http://www.w3.org/2000/svg"><path d="m317.5 238.539062-44.925781-121.921874h-214.023438c-32.199219 0-58.175781 26.507812-58.175781 58.707031v404.71875c0 32.203125 25.976562 58.707031 58.175781 58.707031h290.488281c32.203126 0 58.175782-26.503906 58.175782-58.707031v-321.496094zm0 0" fill="#00efd1"/><path d="m377.132812 180.230469-44.925781-121.921875h-214.019531c-32.203125 0-58.175781 26.507812-58.175781 58.707031v404.71875c0 32.203125 25.972656 58.707031 58.175781 58.707031h290.484375c32.203125 0 58.179687-26.503906 58.179687-58.707031v-321.496094zm0 0" fill="#fedb41"/><path d="m435.441406 121.917969-44.925781-121.917969h-214.019531c-32.203125 0-58.175782 26.503906-58.175782 58.707031v404.71875c0 32.203125 25.972657 58.707031 58.175782 58.707031h290.488281c32.199219 0 58.175781-26.503906 58.175781-58.707031v-321.496093zm0 0" fill="#00acea"/><path d="m390.515625.398438 134.777344 141.664062h-89.71875c-24.914063 0-45.058594-20.144531-45.058594-45.054688zm0 0" fill="#00efd1"/><g fill="#083863"><path d="m430.804688 424.066406h-218.128907c-7.292969 0-13.257812 5.960938-13.257812 13.253906 0 7.289063 5.964843 13.25 13.257812 13.25h218.257813c7.292968 0 13.25-5.960937 13.25-13.25 0-7.292968-5.957032-13.253906-13.378906-13.253906zm0 0"/><path d="m233.609375 380.335938h176.253906c15.769531 0 29.15625-12.855469 29.15625-28.625v-145.777344c0-15.769532-13.386719-28.488282-29.15625-28.488282h-23.851562v-11.929687c0-7.285156-5.964844-13.25-13.253907-13.25-7.285156 0-13.25 5.964844-13.25 13.25v11.929687h-75.535156v-11.929687c0-7.285156-5.964844-13.25-13.257812-13.25-7.285156 0-13.25 5.964844-13.25 13.25v11.929687h-23.855469c-15.769531 0-29.152344 12.71875-29.152344 28.488282v145.777344c0 15.769531 13.382813 28.625 29.152344 28.625zm176.253906-26.507813h-176.253906c-1.1875 0-2.648437-.925781-2.648437-2.117187v-87.992188h181.554687v87.992188c0 1.191406-1.589844 2.117187-2.652344 2.117187zm-176.253906-149.746094h23.855469v9.40625c0 7.289063 5.964844 13.253907 13.25 13.253907 7.292968 0 13.257812-5.964844 13.257812-13.253907v-9.40625h75.535156v9.40625c0 7.289063 5.964844 13.253907 13.25 13.253907 7.289063 0 13.253907-5.964844 13.253907-13.253907v-9.40625h23.851562c1.195313 0 2.652344.796875 2.652344 1.988281v31.140626h-181.554687v-31.140626c0-1.191406 1.59375-1.988281 2.648437-1.988281zm0 0"/></g></svg>