<svg height="640pt" viewBox="-30 0 640 640" width="640pt" xmlns="http://www.w3.org/2000/svg"><path d="m300.585938 101.449219-15.308594-101.449219h-224.601563c-33.820312 0-60.675781 27.554688-60.675781 61.371094v424.71875c0 33.816406 26.855469 60.8125 60.675781 60.8125h213.054688l153.492187-232.402344v-165.734375zm0 0" fill="#00acea"/><path d="m285.277344.140625 141.527344 148.625h-94.210938c-26.164062 0-47.316406-21.152344-47.316406-47.316406zm0 0" fill="#00efd1"/><g fill="#083863"><path d="m98.527344 346.507812h181.324218c7.652344 0 13.917969-6.257812 13.917969-13.914062 0-7.652344-6.265625-13.917969-13.917969-13.917969h-181.324218c-7.652344 0-13.917969 6.265625-13.917969 13.917969 0 7.65625 6.265625 13.914062 13.917969 13.914062zm0 0"/><path d="m98.527344 276.929688h140.96875c7.652344 0 13.917968-6.261719 13.917968-13.917969 0-7.652344-6.265624-13.914063-13.917968-13.914063h-140.96875c-7.652344 0-13.917969 6.261719-13.917969 13.914063 0 7.65625 6.265625 13.917969 13.917969 13.917969zm0 0"/><path d="m234.066406 389.648438h-135.539062c-7.652344 0-13.917969 6.265624-13.917969 13.914062 0 7.65625 6.265625 13.917969 13.917969 13.917969h135.539062c7.65625 0 13.917969-6.261719 13.917969-13.917969 0-7.648438-6.261719-13.914062-13.917969-13.914062zm0 0"/></g><path d="m426.804688 286.8125c86.28125 12.101562 152.65625 86.136719 152.65625 175.753906 0 97.96875-79.457032 177.433594-177.425782 177.433594-67.351562 0-126.078125-37.574219-156-92.960938-13.636718-25.1875-21.429687-53.992187-21.429687-84.609374 0-97.96875 79.460937-177.429688 177.429687-177.429688 8.351563.140625 16.558594.699219 24.769532 1.8125zm0 0" fill="#fedb41"/><path d="m494.296875 364.597656h-25.328125v-12.9375c0-7.65625-6.257812-13.917968-13.914062-13.917968-7.652344 0-13.917969 6.261718-13.917969 13.917968v12.9375h-77.929688v-12.9375c0-7.65625-6.257812-13.917968-13.914062-13.917968-7.652344 0-13.917969 6.261718-13.917969 13.917968v12.9375h-26.160156c-16.558594 0-29.503906 12.945313-29.503906 29.503906v153.082032c0 16.554687 12.945312 30.335937 29.503906 30.335937h185.082031c16.5625 0 30.335937-13.917969 30.335937-30.335937v-153.082032c0-16.558593-13.773437-29.503906-30.335937-29.503906zm-185.082031 27.832032h26.160156v9.605468c0 7.652344 6.265625 13.917969 13.917969 13.917969 7.65625 0 13.914062-6.265625 13.914062-13.917969v-9.605468h77.933594v9.605468c0 7.652344 6.261719 13.917969 13.917969 13.917969 7.652344 0 13.914062-6.265625 13.914062-13.917969v-9.605468h25.328125c1.113281 0 2.5.421874 2.5 1.671874v33.121094h-189.257812v-33.121094c0-1.25.558593-1.671874 1.671875-1.671874zm185.082031 157.253906h-185.082031c-1.25 0-1.671875-1.394532-1.671875-2.507813v-92.121093h189.257812v92.121093c0 1.113281-1.25 2.507813-2.503906 2.507813zm0 0" fill="#083863"/></svg>