<svg height="640pt" viewBox="0 -52 640 640" width="640pt" xmlns="http://www.w3.org/2000/svg"><path d="m253.089844 20.621094 68.394531 86.640625h-174.46875c-31.152344 0-56.371094 25.21875-56.371094 56.371093v371.777344h-34.273437c-31.152344 0-56.371094-25.21875-56.371094-56.378906v-422.660156c0-31.152344 25.21875-56.371094 56.371094-56.371094h153.105468c16.765626 0 32.785157 7.5625 43.613282 20.621094zm0 0" fill="#00efd1"/><path d="m640 160.816406v318.367188c0 31.152344-25.21875 56.371094-56.371094 56.371094h-507.816406v-374.738282c0-31.152344 25.21875-56.371094 56.371094-56.371094h451.445312c31.152344 0 56.371094 25.21875 56.371094 56.371094zm0 0" fill="#00acea"/><path d="m451.738281 215.855469h-27.890625v-13.351563c0-8.160156-6.675781-14.839844-14.832031-14.839844-8.160156 0-14.839844 6.679688-14.839844 14.839844v13.351563h-83.078125v-13.351563c0-8.160156-6.675781-14.839844-14.832031-14.839844-8.160156 0-14.839844 6.679688-14.839844 14.839844v13.351563h-26.996093c-17.65625 0-32.34375 14.242187-32.34375 31.894531v163.191406c0 17.652344 14.6875 32.042969 32.34375 32.042969h197.308593c17.65625 0 31.449219-14.390625 31.449219-32.042969v-163.191406c0-17.652344-13.945312-31.894531-31.449219-31.894531zm-197.308593 29.671875h26.996093v10.53125c0 8.160156 6.679688 14.835937 14.839844 14.835937 8.15625 0 14.832031-6.675781 14.832031-14.835937v-10.53125h83.082032v10.53125c0 8.160156 6.675781 14.835937 14.835937 14.835937 8.15625 0 14.832031-6.675781 14.832031-14.835937v-10.53125h27.890625c1.339844 0 1.78125.886718 1.78125 2.226562v34.859375h-201.761719v-34.863281c0-1.335938 1.332032-2.222656 2.671876-2.222656zm197.308593 167.636718h-197.308593c-1.339844 0-2.671876-1.035156-2.671876-2.375v-98.503906h201.761719v98.503906c0 1.339844-.59375 2.375-1.78125 2.375zm0 0" fill="#083863"/></svg>