<svg height="638pt" viewBox="0 -45 638.74973 638" width="638pt" xmlns="http://www.w3.org/2000/svg"><path d="m593.386719 141.355469v65.976562h-541.914063l-5.953125-146.320312c-1.53125-32.992188 24.890625-60.636719 58.039063-60.636719h125.09375c20.308594 0 39.253906 10.691406 49.789062 28.253906l15.886719 26.582032c10.535156 17.5625 29.324219 28.253906 49.789063 28.253906h191.078124c32.074219-.152344 58.191407 25.8125 58.191407 57.890625zm0 0" fill="#00efd1"/><path d="m608.207031 192.0625c18.480469 0 32.835938 16.34375 30.238281 34.671875l-37.417968 272.175781c-3.972656 28.71875-28.5625 50.105469-57.429688 50.105469h-447.832031c-29.019531 0-53.460937-21.386719-57.425781-50.105469l-38.035156-272.175781c-2.59375-18.328125 11.761718-34.824219 30.242187-34.824219h577.660156zm0 0" fill="#00acea"/><path d="m420.945312 262.476562h-28.253906v-13.75c0-8.402343-6.871094-15.273437-15.273437-15.273437-8.402344 0-15.273438 6.871094-15.273438 15.273437v13.75h-85.535156v-13.75c0-8.402343-6.871094-15.273437-15.273437-15.273437-8.402344 0-15.273438 6.871094-15.273438 15.273437v13.75h-28.257812c-18.175782 0-32.839844 14.660157-32.839844 32.835938v168.015625c0 18.171875 14.664062 32.992187 32.839844 32.992187h203.140624c18.179688 0 32.839844-14.820312 32.839844-32.992187v-168.011719c0-18.179687-14.660156-32.839844-32.839844-32.839844zm-203.140624 30.542969h28.257812v10.847657c0 8.398437 6.871094 15.273437 15.273438 15.273437 8.402343 0 15.273437-6.875 15.273437-15.273437v-10.847657h85.535156v10.847657c0 8.398437 6.871094 15.273437 15.273438 15.273437 8.402343 0 15.273437-6.875 15.273437-15.273437v-10.847657h28.257813c1.375 0 2.292969.917969 2.292969 2.296875v35.890625h-207.730469v-35.890625c0-1.378906 1.074219-2.296875 2.292969-2.296875zm203.140624 172.597657h-203.140624c-1.375 0-2.292969-1.066407-2.292969-2.445313v-101.417969h207.722656v101.421875c0 1.375-1.066406 2.441407-2.289063 2.441407zm0 0" fill="#083863"/></svg>