<svg height="640pt" viewBox="0 -52 640 640" width="640pt" xmlns="http://www.w3.org/2000/svg"><path d="m320.964844 59.28125-61.492188-59.28125h-211.214844l7.855469 219.214844h532.734375v-159.933594zm0 0" fill="#00efd1"/><path d="m536.460938 219.214844v.550781h-432.921876v-105.332031h432.921876zm0 0" fill="#fedb41"/><path d="m640 205.980469-58.042969 329.097656h-523.222656l-58.734375-329.097656zm0 0" fill="#00acea"/><path d="m411.683594 272.984375h-25.507813v-12.546875c0-7.582031-6.199219-13.785156-13.785156-13.785156-7.582031 0-13.789063 6.203125-13.789063 13.785156v12.546875h-77.207031v-12.546875c0-7.582031-6.203125-13.785156-13.789062-13.785156-7.582031 0-13.789063 6.203125-13.789063 13.785156v12.546875h-25.5c-16.40625 0-29.644531 12.960937-29.644531 29.367187v151.65625c0 16.40625 13.238281 29.921876 29.644531 29.921876h183.367188c16.40625 0 29.644531-13.515626 29.644531-29.921876v-151.65625c0-16.40625-13.238281-29.367187-29.644531-29.367187zm-183.367188 27.578125h25.507813v9.648438c0 7.582031 6.199219 13.789062 13.78125 13.789062 7.585937 0 13.789062-6.207031 13.789062-13.789062v-9.648438h77.207031v9.648438c0 7.582031 6.207032 13.789062 13.789063 13.789062 7.585937 0 13.789063-6.207031 13.789063-13.789062v-9.648438h25.503906c1.242187 0 2.070312.6875 2.070312 1.789062v32.675782h-187.507812v-32.675782c0-1.101562.964844-1.789062 2.070312-1.789062zm183.367188 155.789062h-183.367188c-1.242187 0-2.070312-1.238281-2.070312-2.339843v-91.410157h187.503906v91.40625c.003906 1.105469-.960938 2.34375-2.066406 2.34375zm0 0" fill="#083863"/></svg>