<svg height="640pt" viewBox="-70 0 640 640" width="640pt" xmlns="http://www.w3.org/2000/svg"><path d="m334.457031 0h-262.332031c-39.472656 0-72.125 32.484375-72.125 71.957031v496.085938c0 39.472656 32.652344 71.957031 72.125 71.957031h356.058594c39.472656 0 72.117187-32.484375 72.117187-71.957031v-394.074219zm0 0" fill="#00acea"/><path d="m335.269531.488281 165.199219 173.640625h-109.972656c-30.535156 0-55.226563-24.6875-55.226563-55.222656zm0 0" fill="#00efd1"/><g fill="#083863"><path d="m383.835938 511.675781h-267.371094c-8.929688 0-16.238282 7.308594-16.238282 16.242188 0 8.9375 7.308594 16.246093 16.238282 16.246093h267.535156c8.933594 0 16.242188-7.308593 16.242188-16.246093 0-8.933594-7.308594-16.242188-16.40625-16.242188zm0 0"/><path d="m142.132812 466.191406h216.039063c19.332031 0 34.921875-15.753906 34.921875-35.082031v-178.683594c0-19.332031-15.589844-34.921875-34.921875-34.921875h-30.050781v-14.625c0-8.929687-7.3125-16.238281-16.242188-16.238281-8.933594 0-16.246094 7.308594-16.246094 16.238281v14.625h-90.964843v-14.625c0-8.929687-7.308594-16.238281-16.238281-16.238281-8.9375 0-16.246094 7.308594-16.246094 16.238281v14.625h-30.054688c-19.324218 0-34.921875 15.589844-34.921875 34.921875v178.683594c0 19.324219 15.597657 35.082031 34.925781 35.082031zm216.039063-32.484375h-216.039063c-1.464843 0-2.433593-1.140625-2.433593-2.597656v-107.863281h220.910156v107.863281c0 1.457031-1.136719 2.597656-2.4375 2.597656zm-216.039063-183.554687h30.050782v11.53125c0 8.9375 7.308594 16.246094 16.246094 16.246094 8.933593 0 16.242187-7.308594 16.242187-16.246094v-11.53125h90.960937v11.53125c0 8.9375 7.3125 16.246094 16.246094 16.246094 8.9375 0 16.246094-7.308594 16.246094-16.246094v-11.53125h30.046875c1.460937 0 2.4375.976562 2.4375 2.433594v38.175781h-220.910156v-38.175781c0-1.457032 1.136719-2.433594 2.433593-2.433594zm0 0"/></g></svg>