<svg height="638pt" viewBox="-57 0 638 638.75085" width="638pt" xmlns="http://www.w3.org/2000/svg"><path d="m317.5 238.539062-44.925781-121.921874h-214.023438c-32.199219 0-58.175781 26.507812-58.175781 58.707031v404.71875c0 32.203125 25.976562 58.707031 58.175781 58.707031h290.488281c32.203126 0 58.175782-26.503906 58.175782-58.707031v-321.496094zm0 0" fill="#00efd1"/><path d="m377.132812 180.230469-44.925781-121.921875h-214.019531c-32.203125 0-58.175781 26.507812-58.175781 58.707031v404.71875c0 32.203125 25.972656 58.707031 58.175781 58.707031h290.484375c32.203125 0 58.179687-26.503906 58.179687-58.707031v-321.496094zm0 0" fill="#fedb41"/><path d="m435.441406 121.917969-44.925781-121.917969h-214.019531c-32.203125 0-58.175782 26.503906-58.175782 58.707031v404.71875c0 32.203125 25.972657 58.707031 58.175782 58.707031h290.488281c32.199219 0 58.175781-26.503906 58.175781-58.707031v-321.496093zm0 0" fill="#00acea"/><path d="m390.515625.398438 134.777344 141.664062h-89.71875c-24.914063 0-45.058594-20.144531-45.058594-45.054688zm0 0" fill="#00efd1"/><g fill="#083863"><path d="m430.804688 424.066406h-218.128907c-7.292969 0-13.257812 5.960938-13.257812 13.253906 0 7.289063 5.964843 13.25 13.257812 13.25h218.257813c7.292968 0 13.25-5.960937 13.25-13.25 0-7.292968-5.957032-13.253906-13.378906-13.253906zm0 0"/><path d="m236.925781 371.054688h169.757813c17.492187 0 32.46875-13.78125 32.46875-31.402344v-103.898438c0-17.496094-14.84375-31.671875-32.46875-31.671875h-22c-2.382813 0-4.503906-1.722656-5.167969-3.976562l-1.054687-3.976563c-3.582032-14.175781-16.304688-23.847656-30.882813-23.847656h-51.945313c-14.710937 0-27.429687 9.804688-30.882812 23.984375l-.925781 3.839844c-.53125 2.382812-2.648438 3.976562-5.164063 3.976562h-21.867187c-17.496094 0-32.464844 14.175781-32.464844 31.671875v103.898438c.128906 17.621094 14.96875 31.402344 32.597656 31.402344zm-5.964843-135.300782c0-2.914062 3.050781-5.164062 5.964843-5.164062h21.863281c14.710938 0 27.433594-10.074219 30.878907-24.253906l.925781-3.710938c.53125-2.386719 2.652344-3.84375 5.171875-3.84375h51.949219c2.382812 0 4.5 1.457031 5.164062 3.714844l1.0625 4.105468c3.445313 14.175782 16.164063 23.988282 30.742188 23.988282h22c2.914062 0 5.960937 2.25 5.960937 5.164062v103.898438c0 2.914062-3.046875 4.902344-5.960937 4.902344h-169.757813c-2.914062 0-5.964843-1.988282-5.964843-4.902344zm0 0"/><path d="m321.609375 335.410156c30.742187 0 55.65625-24.914062 55.65625-55.660156 0-30.738281-24.917969-55.65625-55.65625-55.65625-30.617187 0-55.660156 24.917969-55.660156 55.65625 0 30.746094 25.042969 55.660156 55.660156 55.660156zm0-84.8125c16.03125 0 29.148437 13.121094 29.148437 29.152344 0 16.039062-13.117187 29.15625-29.148437 29.15625-16.039063 0-29.160156-13.117188-29.160156-29.15625 0-16.03125 13.121093-29.152344 29.160156-29.152344zm0 0"/></g></svg>