<svg height="640pt" viewBox="-30 0 640 640" width="640pt" xmlns="http://www.w3.org/2000/svg"><path d="m300.585938 101.449219-15.308594-101.449219h-224.601563c-33.820312 0-60.675781 27.554688-60.675781 61.371094v424.71875c0 33.816406 26.855469 60.8125 60.675781 60.8125h213.054688l153.492187-232.402344v-165.734375zm0 0" fill="#00acea"/><path d="m285.277344.140625 141.527344 148.625h-94.210938c-26.164062 0-47.316406-21.152344-47.316406-47.316406zm0 0" fill="#00efd1"/><g fill="#083863"><path d="m98.527344 346.507812h181.324218c7.652344 0 13.917969-6.257812 13.917969-13.914062 0-7.652344-6.265625-13.917969-13.917969-13.917969h-181.324218c-7.652344 0-13.917969 6.265625-13.917969 13.917969 0 7.65625 6.265625 13.914062 13.917969 13.914062zm0 0"/><path d="m98.527344 276.929688h140.96875c7.652344 0 13.917968-6.261719 13.917968-13.917969 0-7.652344-6.265624-13.914063-13.917968-13.914063h-140.96875c-7.652344 0-13.917969 6.261719-13.917969 13.914063 0 7.65625 6.265625 13.917969 13.917969 13.917969zm0 0"/><path d="m234.066406 389.648438h-135.539062c-7.652344 0-13.917969 6.265624-13.917969 13.914062 0 7.65625 6.265625 13.917969 13.917969 13.917969h135.539062c7.65625 0 13.917969-6.261719 13.917969-13.917969 0-7.648438-6.261719-13.914062-13.917969-13.914062zm0 0"/></g><path d="m426.804688 286.8125c86.28125 12.101562 152.65625 86.136719 152.65625 175.753906 0 97.96875-79.457032 177.433594-177.425782 177.433594-67.351562 0-126.078125-37.574219-156-92.960938-13.636718-25.1875-21.429687-53.992187-21.429687-84.609374 0-97.96875 79.460937-177.429688 177.429687-177.429688 8.351563.140625 16.558594.699219 24.769532 1.8125zm0 0" fill="#fedb41"/><path d="m490.957031 392.429688h-22.960937c-2.503906 0-4.730469-1.945313-5.429688-4.453126l-1.113281-4.730468c-3.753906-14.886719-17.113281-25.605469-32.421875-25.605469h-54.550781c-15.449219 0-28.808594 10.71875-32.425781 25.746094l-.972657 4.3125c-.554687 2.503906-2.78125 4.59375-5.429687 4.59375h-22.957032c-18.367187 0-32.984374 14.472656-32.984374 32.84375v109.101562c0 18.367188 14.472656 33.257813 32.984374 33.257813h178.261719c18.367188 0 33.675781-14.890625 33.675781-33.257813v-109.101562c0-18.234375-15.308593-32.707031-33.675781-32.707031zm5.84375 142.085937c0 3.0625-2.78125 5.425781-5.84375 5.425781h-178.261719c-3.0625 0-5.152343-2.363281-5.152343-5.425781v-109.101563c0-3.0625 2.089843-5.007812 5.152343-5.007812h22.957032c15.449218 0 28.808594-10.71875 32.429687-25.75l.96875-4.453125c.558594-2.503906 2.785157-4.589844 5.429688-4.589844h54.550781c2.507812 0 4.734375 1.949219 5.425781 4.453125l1.113281 4.734375c3.761719 14.886719 17.121094 25.605469 32.425782 25.605469h22.960937c3.0625 0 5.84375 1.945312 5.84375 5.007812zm0 0" fill="#083863"/><path d="m401.617188 413.167969c-32.144532 0-58.449219 26.164062-58.449219 58.449219 0 32.285156 26.164062 58.445312 58.449219 58.445312 32.285156 0 58.445312-26.160156 58.445312-58.445312 0-32.285157-26.160156-58.449219-58.445312-58.449219zm0 88.921875c-16.835938 0-30.617188-13.773438-30.617188-30.617188 0-16.835937 13.78125-30.613281 30.617188-30.613281 16.839843 0 30.613281 13.777344 30.613281 30.613281 0 16.980469-13.773438 30.617188-30.613281 30.617188zm0 0" fill="#083863"/></svg>