<svg height="640pt" viewBox="0 -52 640 640" width="640pt" xmlns="http://www.w3.org/2000/svg"><path d="m253.089844 20.621094 68.394531 86.640625h-174.46875c-31.152344 0-56.371094 25.21875-56.371094 56.371093v371.777344h-34.273437c-31.152344 0-56.371094-25.21875-56.371094-56.378906v-422.660156c0-31.152344 25.21875-56.371094 56.371094-56.371094h153.105468c16.765626 0 32.785157 7.5625 43.613282 20.621094zm0 0" fill="#00efd1"/><path d="m640 160.816406v318.367188c0 31.152344-25.21875 56.371094-56.371094 56.371094h-507.816406v-374.738282c0-31.152344 25.21875-56.371094 56.371094-56.371094h451.445312c31.152344 0 56.371094 25.21875 56.371094 56.371094zm0 0" fill="#00acea"/><g fill="#083863"><path d="m448.03125 245.527344h-24.628906c-2.667969 0-5.042969-1.929688-5.785156-4.453125l-1.1875-4.449219c-4.003907-15.875-18.246094-26.703125-34.5625-26.703125h-58.15625c-16.46875 0-30.710938 10.976563-34.570313 26.851563l-1.035156 4.300781c-.597657 2.671875-2.96875 4.453125-5.785157 4.453125h-24.476562c-19.585938 0-35.90625 15.875-35.90625 35.453125v116.308593c0 19.585938 16.320312 35.164063 35.90625 35.164063h190.039062c19.582032 0 35.160157-15.429687 35.160157-35.164063v-116.308593c.144531-19.578125-15.429688-35.453125-35.011719-35.453125zm5.488281 151.761718c0 3.265626-2.226562 5.492188-5.492187 5.492188h-190.039063c-3.265625 0-6.230469-2.226562-6.230469-5.492188v-116.308593c0-3.261719 2.964844-5.785157 6.230469-5.785157h24.476563c16.472656 0 30.707031-11.273437 34.566406-27.148437l1.039062-4.148437c.597657-2.671876 2.96875-4.304688 5.789063-4.304688h58.152344c2.671875 0 5.042969 1.632812 5.785156 4.152344l1.1875 4.597656c4.003906 15.875 18.246094 26.851562 34.566406 26.851562h24.628907c3.261718 0 5.488281 2.523438 5.488281 5.785157v116.308593zm0 0"/><path d="m352.933594 267.929688c-34.265625 0-62.308594 27.890624-62.308594 62.304687 0 34.417969 27.890625 62.308594 62.308594 62.308594 34.417968 0 62.308594-27.890625 62.308594-62.308594 0-34.414063-28.039063-62.304687-62.308594-62.304687zm0 94.945312c-17.949219 0-32.636719-14.6875-32.636719-32.640625 0-17.949219 14.6875-32.636719 32.636719-32.636719 17.949218 0 32.636718 14.6875 32.636718 32.636719 0 17.953125-14.6875 32.640625-32.636718 32.640625zm0 0"/></g></svg>