<svg height="638pt" viewBox="0 -45 638.74973 638" width="638pt" xmlns="http://www.w3.org/2000/svg"><path d="m593.386719 141.355469v65.976562h-541.914063l-5.953125-146.320312c-1.53125-32.992188 24.890625-60.636719 58.039063-60.636719h125.09375c20.308594 0 39.253906 10.691406 49.789062 28.253906l15.886719 26.582032c10.535156 17.5625 29.324219 28.253906 49.789063 28.253906h191.078124c32.074219-.152344 58.191407 25.8125 58.191407 57.890625zm0 0" fill="#00efd1"/><path d="m608.207031 192.0625c18.480469 0 32.835938 16.34375 30.238281 34.671875l-37.417968 272.175781c-3.972656 28.71875-28.5625 50.105469-57.429688 50.105469h-447.832031c-29.019531 0-53.460937-21.386719-57.425781-50.105469l-38.035156-272.175781c-2.59375-18.328125 11.761718-34.824219 30.242187-34.824219h577.660156zm0 0" fill="#00acea"/><g fill="#083863"><path d="m417.128906 293.019531h-25.203125c-2.75 0-5.191406-1.984375-5.957031-4.578125l-1.222656-4.582031c-4.121094-16.347656-18.785156-27.492187-35.582032-27.492187h-59.878906c-16.953125 0-31.613281 11.300781-35.585937 27.640624l-1.070313 4.433594c-.609375 2.746094-3.050781 4.578125-5.957031 4.578125h-25.046875c-20.164062 0-36.660156 16.347657-36.660156 36.507813v119.746094c0 20.164062 16.347656 36.199218 36.660156 36.199218h195.503906c20.160156 0 36.65625-15.882812 36.65625-36.199218v-119.746094c0-20.160156-16.34375-36.507813-36.65625-36.507813zm6.105469 156.253907c0 3.363281-2.746094 5.652343-6.105469 5.652343h-195.503906c-3.359375 0-6.113281-2.289062-6.113281-5.652343v-119.746094c0-3.359375 2.753906-5.957032 6.113281-5.957032h25.203125c16.953125 0 31.613281-11.609374 35.585937-27.953124l1.070313-4.273438c.609375-2.75 3.050781-4.429688 5.957031-4.429688h59.871094c2.75 0 5.195312 1.679688 5.957031 4.277344l1.222657 4.734375c4.121093 16.34375 18.785156 27.644531 35.589843 27.644531h25.046875c3.359375 0 6.105469 2.597657 6.105469 5.957032zm0 0"/><path d="m319.226562 316.085938c-35.289062 0-64.152343 28.714843-64.152343 64.152343 0 35.433594 28.714843 64.144531 64.152343 64.144531 35.433594 0 64.144532-28.710937 64.144532-64.144531 0-35.4375-28.710938-64.152343-64.144532-64.152343zm0 97.753906c-18.484374 0-33.605468-15.121094-33.605468-33.601563 0-18.484375 15.121094-33.605469 33.605468-33.605469 18.480469 0 33.601563 15.121094 33.601563 33.605469 0 18.480469-15.121094 33.601563-33.601563 33.601563zm0 0"/></g></svg>