<svg height="640pt" viewBox="0 -52 640 640" width="640pt" xmlns="http://www.w3.org/2000/svg"><path d="m320.964844 59.28125-61.492188-59.28125h-211.214844l7.855469 219.214844h532.734375v-159.933594zm0 0" fill="#00efd1"/><path d="m536.460938 219.214844v.550781h-432.921876v-105.332031h432.921876zm0 0" fill="#fedb41"/><path d="m640 205.980469-58.042969 329.097656h-523.222656l-58.734375-329.097656zm0 0" fill="#00acea"/><g fill="#083863"><path d="m408.238281 300.5625h-22.886719c-2.480468 0-4.6875-1.933594-5.375-4.277344l-1.105468-3.996094c-3.726563-14.753906-16.957032-24.679687-32.125-24.679687h-54.046875c-15.300781 0-28.539063 10.0625-32.125 24.953125l-.960938 4c-.550781 2.480469-2.757812 4.136719-5.378906 4.136719h-22.472656c-18.199219 0-33.089844 14.476562-33.089844 32.8125v108.089843c0 18.199219 14.753906 32.8125 33.089844 32.8125h176.476562c18.195313 0 33.089844-14.613281 33.089844-32.8125v-108.089843c0-18.476563-14.757813-32.949219-33.089844-32.949219zm5.515625 140.902344c0 3.03125-2.484375 5.238281-5.515625 5.238281h-176.476562c-3.03125 0-5.511719-2.207031-5.511719-5.238281v-108.089844c0-3.035156 2.480469-5.242188 5.511719-5.242188h22.75c15.300781 0 28.539062-10.476562 32.125-25.363281l.964843-3.726562c.550782-2.480469 2.753907-4 5.375-4h54.042969c2.480469 0 4.6875 1.382812 5.378907 3.863281l1.101562 4.273438c3.726562 14.75 16.957031 24.953124 32.125 24.953124h22.613281c3.03125 0 5.511719 2.207032 5.511719 5.242188v108.089844zm0 0"/><path d="m319.863281 321.238281c-31.851562 0-57.90625 25.925781-57.90625 57.90625 0 31.851563 25.917969 57.90625 57.90625 57.90625 31.980469 0 57.90625-25.917969 57.90625-57.90625 0-31.980469-25.917969-57.90625-57.90625-57.90625zm0 88.238281c-16.683593 0-30.332031-13.648437-30.332031-30.332031 0-16.679687 13.648438-30.332031 30.332031-30.332031 16.679688 0 30.332031 13.652344 30.332031 30.332031 0 16.683594-13.652343 30.332031-30.332031 30.332031zm0 0"/></g></svg>