<svg height="640pt" viewBox="-70 0 640 640" width="640pt" xmlns="http://www.w3.org/2000/svg"><path d="m334.457031 0h-262.332031c-39.472656 0-72.125 32.484375-72.125 71.957031v496.085938c0 39.472656 32.652344 71.957031 72.125 71.957031h356.058594c39.472656 0 72.117187-32.484375 72.117187-71.957031v-394.074219zm0 0" fill="#00acea"/><path d="m335.269531.488281 165.199219 173.640625h-109.972656c-30.535156 0-55.226563-24.6875-55.226563-55.222656zm0 0" fill="#00efd1"/><g fill="#083863"><path d="m383.835938 511.675781h-267.371094c-8.929688 0-16.238282 7.308594-16.238282 16.242188 0 8.9375 7.308594 16.246093 16.238282 16.246093h267.535156c8.933594 0 16.242188-7.308593 16.242188-16.246093 0-8.933594-7.308594-16.242188-16.40625-16.242188zm0 0"/><path d="m146.191406 454.824219h207.917969c21.445313 0 38.984375-16.894531 38.984375-38.5v-127.351563c0-21.4375-17.375-38.820312-38.984375-38.820312h-26.960937c-2.925782 0-5.523438-2.109375-6.332032-4.875l-1.300781-4.871094c-4.390625-17.378906-19.980469-29.238281-37.851563-29.238281h-63.671874c-18.03125 0-33.625 12.019531-37.851563 29.402343l-1.132813 4.707032c-.652343 2.925781-3.25 4.875-6.335937 4.875h-26.476563c-21.445312 0-38.984374 17.382812-38.984374 38.820312v127.351563c-.003907 21.605469 17.378906 38.5 38.980468 38.5zm-6.492187-165.851563c0-3.574218 2.917969-6.332031 6.492187-6.332031h26.800782c18.035156 0 33.628906-12.347656 37.851562-29.726563l1.132812-4.546874c.65625-2.921876 3.253907-4.710938 6.339844-4.710938h63.671875c2.921875 0 5.527344 1.789062 6.335938 4.546875l1.300781 5.039063c4.382812 17.378906 19.980469 29.398437 37.84375 29.398437h26.640625c3.574219 0 6.5 2.757813 6.5 6.332031v127.351563c0 3.574219-2.925781 6.007812-6.5 6.007812h-207.917969c-3.570312 0-6.492187-2.433593-6.492187-6.007812zm0 0"/><path d="m249.992188 411.128906c37.683593 0 68.21875-30.539062 68.21875-68.222656 0-37.6875-30.535157-68.222656-68.21875-68.222656-37.527344 0-68.222657 30.535156-68.222657 68.222656 0 37.679688 30.695313 68.222656 68.222657 68.222656zm0-103.960937c19.652343 0 35.734374 16.078125 35.734374 35.738281 0 19.652344-16.082031 35.730469-35.734374 35.730469-19.65625 0-35.738282-16.078125-35.738282-35.730469 0-19.660156 16.082032-35.738281 35.738282-35.738281zm0 0"/></g></svg>