<svg height="638pt" viewBox="-57 0 638 638.75085" width="638pt" xmlns="http://www.w3.org/2000/svg"><path d="m317.5 238.539062-44.925781-121.921874h-214.023438c-32.199219 0-58.175781 26.507812-58.175781 58.707031v404.71875c0 32.203125 25.976562 58.707031 58.175781 58.707031h290.488281c32.203126 0 58.175782-26.503906 58.175782-58.707031v-321.496094zm0 0" fill="#00efd1"/><path d="m377.132812 180.230469-44.925781-121.921875h-214.019531c-32.203125 0-58.175781 26.507812-58.175781 58.707031v404.71875c0 32.203125 25.972656 58.707031 58.175781 58.707031h290.484375c32.203125 0 58.179687-26.503906 58.179687-58.707031v-321.496094zm0 0" fill="#fedb41"/><path d="m435.441406 121.917969-44.925781-121.917969h-214.019531c-32.203125 0-58.175782 26.503906-58.175782 58.707031v404.71875c0 32.203125 25.972657 58.707031 58.175782 58.707031h290.488281c32.199219 0 58.175781-26.503906 58.175781-58.707031v-321.496093zm0 0" fill="#00acea"/><path d="m390.515625.398438 134.777344 141.664062h-89.71875c-24.914063 0-45.058594-20.144531-45.058594-45.054688zm0 0" fill="#00efd1"/><g fill="#083863"><path d="m430.804688 424.066406h-218.128907c-7.292969 0-13.257812 5.960938-13.257812 13.253906 0 7.289063 5.964843 13.25 13.257812 13.25h218.257813c7.292968 0 13.25-5.960937 13.25-13.25 0-7.292968-5.957032-13.253906-13.378906-13.253906zm0 0"/><path d="m303.449219 401.671875c29.953125 0 58.046875-11.664063 79.25-32.867187 21.066406-21.464844 32.597656-49.296876 32.597656-78.847657 0-7.289062-5.964844-12.988281-13.25-12.988281h-84.945313v-86.003906c0-7.289063-6.097656-13.253906-13.519531-13.253906-29.953125 0-58.179687 11.660156-79.382812 32.863281-21.066407 21.472656-32.726563 49.566406-32.726563 79.117187 0 61.753906 50.222656 111.980469 111.976563 111.980469zm-60.296875-172.414063c12.988281-12.980468 28.890625-21.199218 47.441406-23.980468v84.414062c0 7.285156 5.566406 13.78125 12.855469 13.78125h84.414062c-2.78125 17.226563-10.996093 33.792969-23.984375 46.910156-16.164062 16.171876-37.636718 24.917969-60.429687 24.917969-47.179688 0-85.339844-38.429687-85.339844-85.476562 0-22.660157 9.011719-44.265625 25.042969-60.566407zm0 0"/><path d="m419.140625 174.394531c-21.464844-21.066406-49.828125-32.726562-79.378906-32.726562-7.292969 0-13.519531 5.957031-13.519531 13.25v98.726562c0 7.289063 6.363281 12.722657 13.648437 12.722657h98.730469c7.289062 0 13.253906-5.699219 13.253906-12.984376 0-29.554687-11.660156-57.515624-32.601562-78.984374 0-.003907 0-.003907-.132813-.003907zm-66.261719 65.46875v-70.632812c18.554688 2.78125 34.191406 10.734375 47.441406 23.722656 12.855469 13.117187 21.339844 29.683594 24.125 46.910156zm0 0"/></g></svg>