<svg height="640pt" viewBox="-30 0 640 640" width="640pt" xmlns="http://www.w3.org/2000/svg"><path d="m300.585938 101.449219-15.308594-101.449219h-224.601563c-33.820312 0-60.675781 27.554688-60.675781 61.371094v424.71875c0 33.816406 26.855469 60.8125 60.675781 60.8125h213.054688l153.492187-232.402344v-165.734375zm0 0" fill="#00acea"/><path d="m285.277344.140625 141.527344 148.625h-94.210938c-26.164062 0-47.316406-21.152344-47.316406-47.316406zm0 0" fill="#00efd1"/><g fill="#083863"><path d="m98.527344 346.507812h181.324218c7.652344 0 13.917969-6.257812 13.917969-13.914062 0-7.652344-6.265625-13.917969-13.917969-13.917969h-181.324218c-7.652344 0-13.917969 6.265625-13.917969 13.917969 0 7.65625 6.265625 13.914062 13.917969 13.914062zm0 0"/><path d="m98.527344 276.929688h140.96875c7.652344 0 13.917968-6.261719 13.917968-13.917969 0-7.652344-6.265624-13.914063-13.917968-13.914063h-140.96875c-7.652344 0-13.917969 6.261719-13.917969 13.914063 0 7.65625 6.265625 13.917969 13.917969 13.917969zm0 0"/><path d="m234.066406 389.648438h-135.539062c-7.652344 0-13.917969 6.265624-13.917969 13.914062 0 7.65625 6.265625 13.917969 13.917969 13.917969h135.539062c7.65625 0 13.917969-6.261719 13.917969-13.917969 0-7.648438-6.261719-13.914062-13.917969-13.914062zm0 0"/></g><path d="m426.804688 286.8125c86.28125 12.101562 152.65625 86.136719 152.65625 175.753906 0 97.96875-79.457032 177.433594-177.425782 177.433594-67.351562 0-126.078125-37.574219-156-92.960938-13.636718-25.1875-21.429687-53.992187-21.429687-84.609374 0-97.96875 79.460937-177.429688 177.429687-177.429688 8.351563.140625 16.558594.699219 24.769532 1.8125zm0 0" fill="#fedb41"/><path d="m486.226562 467.578125h-89.621093v-89.339844c0-7.652343-6.257813-13.917969-14.050781-13.917969-31.453126 0-61.09375 12.246094-83.359376 34.511719-22.125 22.542969-34.371093 52.046875-34.371093 83.082031 0 64.847657 52.738281 117.585938 117.585937 117.585938 31.453125 0 60.953125-12.246094 83.21875-34.511719 22.128906-22.542969 34.234375-52.179687 34.234375-83.351562.277344-7.65625-5.980469-14.058594-13.636719-14.058594zm-40.214843 77.652344c-16.980469 16.976562-39.523438 26.300781-63.457031 26.300781-49.542969 0-89.761719-40.21875-89.761719-89.617188 0-23.800781 9.464843-46.34375 26.304687-63.457031 13.636719-13.636719 30.195313-22.265625 49.675782-25.191406v88.648437c0 7.65625 6.125 13.5 13.78125 13.5h88.640624c-2.917968 19.476563-11.546874 36.039063-25.183593 49.816407zm0 0" fill="#083863"/><path d="m504.179688 360.84375c-22.542969-22.128906-51.632813-34.234375-82.804688-34.234375-7.648438 0-13.636719 6.261719-13.636719 13.917969v103.675781c0 7.652344 5.566407 13.773437 13.222657 13.773437h103.671874c7.65625 0 13.917969-6.121093 13.917969-13.773437 0-31.035156-12.246093-60.535156-34.234375-83.082031-.136718-.140625-.136718-.277344-.136718-.277344zm-68.609376 69.160156v-74.589844c18.089844 2.925782 35.488282 11.554688 49.261719 25.050782 13.503907 13.777344 21.988281 31.449218 24.773438 49.539062zm0 0" fill="#083863"/></svg>