<svg height="640pt" viewBox="0 -52 640 640" width="640pt" xmlns="http://www.w3.org/2000/svg"><path d="m253.089844 20.621094 68.394531 86.640625h-174.46875c-31.152344 0-56.371094 25.21875-56.371094 56.371093v371.777344h-34.273437c-31.152344 0-56.371094-25.21875-56.371094-56.378906v-422.660156c0-31.152344 25.21875-56.371094 56.371094-56.371094h153.105468c16.765626 0 32.785157 7.5625 43.613282 20.621094zm0 0" fill="#00efd1"/><path d="m640 160.816406v318.367188c0 31.152344-25.21875 56.371094-56.371094 56.371094h-507.816406v-374.738282c0-31.152344 25.21875-56.371094 56.371094-56.371094h451.445312c31.152344 0 56.371094 25.21875 56.371094 56.371094zm0 0" fill="#00acea"/><g fill="#083863"><path d="m442.984375 327.117188h-96.28125v-96.277344c0-8.160156-6.375-14.839844-14.535156-14.839844-33.53125 0-64.832031 13.058594-88.570313 36.792969-23.589844 24.035156-36.492187 55.488281-36.492187 88.570312 0 69.128907 56.222656 125.355469 125.355469 125.355469 33.53125 0 65.125-13.050781 88.714843-36.789062 23.589844-24.03125 36.644531-55.1875 36.644531-88.269532 0-8.160156-6.671874-14.542968-14.835937-14.542968zm-42.726563 82.1875c-18.101562 18.101562-42.132812 27.890624-67.644531 27.890624-52.816406 0-95.695312-43.019531-95.695312-95.6875 0-25.367187 9.644531-49.398437 27.597656-67.644531 14.539063-14.542969 33.226563-23.886719 52.515625-26.851562v94.503906c0 8.15625 7.269531 15.421875 15.429688 15.421875h94.5c-2.960938 19.140625-12.3125 37.6875-26.703126 52.367188zm0 0"/><path d="m462.125 212.296875c-24.035156-23.589844-55.484375-36.648437-88.570312-36.648437-8.160157 0-14.835938 6.679687-14.835938 14.839843v110.523438c0 8.160156 6.828125 14.242187 14.988281 14.242187h110.519531c8.160157 0 14.835938-6.382812 14.835938-14.542968 0-33.078126-13.050781-64.382813-36.492188-88.414063-.300781 0-.445312 0-.445312 0zm-73.882812 73.285156v-79.074219c19.289062 3.117188 38.128906 12.015626 52.964843 26.558594 14.386719 14.6875 23.734375 33.226563 26.847657 52.515625zm0 0"/></g></svg>