<svg height="638pt" viewBox="0 -45 638.74973 638" width="638pt" xmlns="http://www.w3.org/2000/svg"><path d="m593.386719 141.355469v65.976562h-541.914063l-5.953125-146.320312c-1.53125-32.992188 24.890625-60.636719 58.039063-60.636719h125.09375c20.308594 0 39.253906 10.691406 49.789062 28.253906l15.886719 26.582032c10.535156 17.5625 29.324219 28.253906 49.789063 28.253906h191.078124c32.074219-.152344 58.191407 25.8125 58.191407 57.890625zm0 0" fill="#00efd1"/><path d="m608.207031 192.0625c18.480469 0 32.835938 16.34375 30.238281 34.671875l-37.417968 272.175781c-3.972656 28.71875-28.5625 50.105469-57.429688 50.105469h-447.832031c-29.019531 0-53.460937-21.386719-57.425781-50.105469l-38.035156-272.175781c-2.59375-18.328125 11.761718-34.824219 30.242187-34.824219h577.660156zm0 0" fill="#00acea"/><g fill="#083863"><path d="m412.085938 377.027344h-98.820313v-99.125c0-8.402344-6.71875-15.277344-15.121094-15.277344-34.519531 0-66.902343 13.441406-91.335937 37.878906-24.289063 24.742188-37.574219 57.125-37.574219 91.1875 0 71.175782 57.886719 129.0625 129.066406 129.0625 34.515625 0 66.894531-13.441406 91.335938-37.878906 24.28125-24.742188 37.722656-56.820312 37.722656-90.878906.003906-8.402344-6.871094-14.96875-15.273437-14.96875zm-44.136719 84.617187c-18.636719 18.636719-43.378907 28.714844-69.648438 28.714844-54.378906 0-98.519531-44.292969-98.519531-98.511719 0-26.121094 10.082031-50.863281 28.714844-69.652344 14.96875-14.96875 34.363281-24.589843 54.222656-27.644531v97.296875c0 8.398438 7.179688 15.886719 15.582031 15.886719h97.292969c-3.210938 19.695313-12.832031 38.789063-27.644531 53.910156zm0 0"/><path d="m431.636719 258.808594c-24.742188-24.285156-56.96875-37.726563-91.03125-37.726563-8.398438 0-15.117188 6.875-15.117188 15.277344v113.785156c0 8.402344 6.5625 14.664063 14.964844 14.664063h113.792969c8.398437 0 15.273437-6.5625 15.273437-14.964844 0-34.066406-13.441406-66.292969-37.574219-91.035156-.152343 0-.152343 0-.308593 0zm-75.601563 75.453125v-81.410157c19.851563 3.210938 39.101563 12.371094 54.21875 27.34375 14.816406 15.121094 24.289063 34.210938 27.496094 54.066407zm0 0"/></g></svg>