<svg height="640pt" viewBox="0 -52 640 640" width="640pt" xmlns="http://www.w3.org/2000/svg"><path d="m320.964844 59.28125-61.492188-59.28125h-211.214844l7.855469 219.214844h532.734375v-159.933594zm0 0" fill="#00efd1"/><path d="m536.460938 219.214844v.550781h-432.921876v-105.332031h432.921876zm0 0" fill="#fedb41"/><path d="m640 205.980469-58.042969 329.097656h-523.222656l-58.734375-329.097656zm0 0" fill="#00acea"/><g fill="#083863"><path d="m403.6875 375.007812h-89.207031v-88.234374c0-7.585938-6.0625-13.789063-13.644531-13.789063-31.160157 0-60.386719 12.132813-82.449219 34.191406-21.921875 22.335938-33.914063 51.5625-33.914063 82.3125 0 64.246094 52.25 116.496094 116.5 116.496094 31.160156 0 60.390625-12.132813 82.445313-34.1875 21.921875-22.335937 33.914062-51.839844 33.914062-82.589844.144531-7.71875-6.0625-14.199219-13.644531-14.199219zm-39.84375 76.933594c-16.824219 16.824219-39.15625 26.199219-62.871094 26.199219-49.082031 0-88.925781-39.84375-88.925781-88.789063 0-23.582031 9.101563-45.914062 25.921875-62.871093 13.511719-13.511719 31.019531-22.0625 48.941406-24.957031v87.828124c0 7.582032 6.476563 13.234376 14.0625 13.234376h87.824219c-2.894531 19.296874-11.582031 35.710937-24.953125 49.355468zm0 0"/><path d="m421.335938 269.398438c-22.335938-21.917969-51.425782-33.914063-82.171876-33.914063-7.582031 0-13.648437 6.207031-13.648437 13.789063v102.714843c0 7.582031 5.929687 13.371094 13.511719 13.371094h102.714844c7.582031 0 13.785156-5.925781 13.785156-13.652344 0-30.742187-12.128906-59.96875-33.917969-82.167969-.136719-.003906-.136719-.003906-.273437-.140624zm-68.246094 68.382812v-73.621094c17.921875 2.894532 35.292968 11.308594 48.941406 24.683594 13.375 13.644531 21.921875 31.019531 24.820312 48.9375zm0 0"/></g></svg>