<svg height="640pt" viewBox="-70 0 640 640" width="640pt" xmlns="http://www.w3.org/2000/svg"><path d="m334.457031 0h-262.332031c-39.472656 0-72.125 32.484375-72.125 71.957031v496.085938c0 39.472656 32.652344 71.957031 72.125 71.957031h356.058594c39.472656 0 72.117187-32.484375 72.117187-71.957031v-394.074219zm0 0" fill="#00acea"/><path d="m335.269531.488281 165.199219 173.640625h-109.972656c-30.535156 0-55.226563-24.6875-55.226563-55.222656zm0 0" fill="#00efd1"/><g fill="#083863"><path d="m383.835938 511.675781h-267.371094c-8.929688 0-16.238282 7.308594-16.238282 16.242188 0 8.9375 7.308594 16.246093 16.238282 16.246093h267.535156c8.933594 0 16.242188-7.308593 16.242188-16.246093 0-8.933594-7.308594-16.242188-16.40625-16.242188zm0 0"/><path d="m227.734375 492.34375c36.714844 0 71.148437-14.292969 97.136719-40.285156 25.828125-26.3125 39.960937-60.421875 39.960937-96.648438 0-8.929687-7.308593-15.917968-16.242187-15.917968h-104.9375v-105.421876c0-8.933593-7.148438-16.242187-16.078125-16.242187-36.710938 0-71.148438 14.296875-97.140625 40.28125-25.824219 26.320313-39.953125 60.753906-39.953125 96.976563 0 75.695312 61.5625 137.257812 137.253906 137.257812zm-74.234375-211.328125c15.917969-15.917969 36.550781-25.992187 57.667969-29.398437v103.46875c0 8.9375 7.636719 16.894531 16.566406 16.894531h103.472656c-3.410156 21.113281-13.484375 41.421875-29.402343 57.5-19.8125 19.820312-46.132813 30.539062-74.066407 30.539062-57.824219 0-104.773437-47.105469-104.773437-104.769531 0-27.78125 10.722656-54.253906 30.535156-74.234375zm0 0"/><path d="m369.539062 213.765625c-26.3125-25.828125-60.585937-40.125-96.808593-40.125-8.933594 0-16.082031 7.316406-16.082031 16.246094v121.015625c0 8.9375 6.984374 15.597656 15.921874 15.597656h121.011719c8.9375 0 16.246094-6.988281 16.246094-15.917969 0-36.226562-14.296875-70.5-39.960937-96.8125-.160157-.003906-.160157-.003906-.328126-.003906zm-80.402343 80.242187v-86.578124c21.117187 3.414062 41.585937 13.160156 57.664062 29.078124 15.757813 16.078126 25.824219 36.386719 29.238281 57.503907h-86.902343zm0 0"/></g></svg>