<svg height="638pt" viewBox="-57 0 638 638.75085" width="638pt" xmlns="http://www.w3.org/2000/svg"><path d="m317.5 238.539062-44.925781-121.921874h-214.023438c-32.199219 0-58.175781 26.507812-58.175781 58.707031v404.71875c0 32.203125 25.976562 58.707031 58.175781 58.707031h290.488281c32.203126 0 58.175782-26.503906 58.175782-58.707031v-321.496094zm0 0" fill="#00efd1"/><path d="m377.132812 180.230469-44.925781-121.921875h-214.019531c-32.203125 0-58.175781 26.507812-58.175781 58.707031v404.71875c0 32.203125 25.972656 58.707031 58.175781 58.707031h290.484375c32.203125 0 58.179687-26.503906 58.179687-58.707031v-321.496094zm0 0" fill="#fedb41"/><path d="m435.441406 121.917969-44.925781-121.917969h-214.019531c-32.203125 0-58.175782 26.503906-58.175782 58.707031v404.71875c0 32.203125 25.972657 58.707031 58.175782 58.707031h290.488281c32.199219 0 58.175781-26.503906 58.175781-58.707031v-321.496093zm0 0" fill="#00acea"/><path d="m390.515625.398438 134.777344 141.664062h-89.71875c-24.914063 0-45.058594-20.144531-45.058594-45.054688zm0 0" fill="#00efd1"/><g fill="#083863"><path d="m430.804688 424.066406h-218.128907c-7.292969 0-13.257812 5.960938-13.257812 13.253906 0 7.289063 5.964843 13.25 13.257812 13.25h218.257813c7.292968 0 13.25-5.960937 13.25-13.25 0-7.292968-5.957032-13.253906-13.378906-13.253906zm0 0"/><path d="m321.871094 136.757812c-70.371094 0-127.617188 57.253907-127.617188 127.621094 0 15.769532 2.914063 31.410156 8.742188 46.25 4.246094 10.734375 9.8125 20.671875 16.433594 29.550782l-16.035157 37.242187c-1.988281 4.503906-1.191406 9.671875 1.726563 13.519531 2.515625 3.175782 6.359375 5.03125 10.335937 5.03125.796875 0 1.589844 0 2.253907-.261718l62.808593-11c12.988281 4.503906 26.640625 6.753906 40.820313 6.753906 70.371094 0 127.617187-57.246094 127.617187-127.617188 0-34.058594-13.25-65.992187-37.238281-89.980468-23.71875-23.851563-55.789062-37.109376-89.847656-37.109376zm-.261719 228.339844c-11.929687 0-23.988281-2.257812-34.855469-6.367187-2.25-.792969-4.640625-1.054688-7.023437-.660157l-42.144531 7.421876 9.542968-22.128907c1.988282-4.640625 1.195313-10.074219-2.121094-13.914062-7.15625-8.351563-12.984374-17.894531-17.09375-28.496094-4.640624-11.792969-6.890624-24.117187-6.890624-36.574219 0-55.660156 45.320312-101.113281 101.109374-101.113281 27.039063 0 52.351563 10.46875 71.296876 29.417969 18.953124 18.953125 29.421874 44.265625 29.421874 71.296875-.265624 55.792969-45.585937 101.117187-101.242187 101.117187zm0 0"/></g></svg>