<svg height="640pt" viewBox="-30 0 640 640" width="640pt" xmlns="http://www.w3.org/2000/svg"><path d="m300.585938 101.449219-15.308594-101.449219h-224.601563c-33.820312 0-60.675781 27.554688-60.675781 61.371094v424.71875c0 33.816406 26.855469 60.8125 60.675781 60.8125h213.054688l153.492187-232.402344v-165.734375zm0 0" fill="#00acea"/><path d="m285.277344.140625 141.527344 148.625h-94.210938c-26.164062 0-47.316406-21.152344-47.316406-47.316406zm0 0" fill="#00efd1"/><g fill="#083863"><path d="m293.90625 332.59375c0-7.652344-6.257812-13.917969-13.914062-13.917969h-181.464844c-7.652344 0-13.917969 6.265625-13.917969 13.917969 0 7.65625 6.265625 13.914062 13.917969 13.914062h181.324218c7.796876 0 14.054688-6.257812 14.054688-13.914062zm0 0"/><path d="m98.527344 276.929688h140.96875c7.652344 0 13.917968-6.261719 13.917968-13.917969 0-7.652344-6.265624-13.914063-13.917968-13.914063h-140.96875c-7.652344 0-13.917969 6.261719-13.917969 13.914063 0 7.65625 6.265625 13.917969 13.917969 13.917969zm0 0"/><path d="m234.066406 389.648438h-135.539062c-7.652344 0-13.917969 6.265624-13.917969 13.914062 0 7.65625 6.265625 13.917969 13.917969 13.917969h135.539062c7.65625 0 13.917969-6.261719 13.917969-13.917969 0-7.648438-6.261719-13.914062-13.917969-13.914062zm0 0"/></g><path d="m426.804688 286.8125c86.28125 12.101562 152.65625 86.136719 152.65625 175.753906 0 97.96875-79.457032 177.433594-177.425782 177.433594-67.351562 0-126.078125-37.574219-156-92.960938-13.636718-25.1875-21.429687-53.992187-21.429687-84.609374 0-97.96875 79.460937-177.429688 177.429687-177.429688 8.351563.140625 16.558594.699219 24.769532 1.8125zm0 0" fill="#fedb41"/><path d="m411.636719 325.914062c-68.328125 0-123.988281 55.664063-123.988281 123.992188 0 15.308594 2.917968 30.472656 8.484374 45.089844 4.039063 10.15625 9.328126 19.617187 15.585938 28.246094l-15.164062 35.347656c-1.949219 4.730468-1.257813 10.160156 1.804687 14.191406 2.648437 3.339844 6.679687 5.289062 10.855469 5.289062.832031 0 1.667968 0 2.367187-.277343l60.117188-10.578125c12.382812 4.316406 25.882812 6.542968 39.378906 6.542968 68.332031 0 123.996094-55.664062 123.996094-123.992187 0-33.121094-12.804688-64.152344-36.183594-87.53125-22.964844-23.519531-54.136719-36.320313-87.253906-36.320313zm-.28125 219.871094c-11.410157 0-22.820313-2.085937-33.117188-5.980468-2.363281-.976563-4.871093-1.113282-7.375-.699219l-38.40625 6.820312 8.347657-19.34375c2.085937-4.867187 1.25-10.578125-2.230469-14.609375-6.816407-7.933594-12.382813-16.976562-16.28125-27.140625-4.453125-11.269531-6.542969-22.957031-6.542969-34.925781 0-53.023438 43.144531-96.160156 96.164062-96.160156 52.878907 0 95.882813 43 95.882813 95.882812-.277344 53.015625-43.417969 96.15625-96.441406 96.15625zm0 0" fill="#083863"/></svg>