<svg height="640pt" viewBox="0 -52 640 640" width="640pt" xmlns="http://www.w3.org/2000/svg"><path d="m253.089844 20.621094 68.394531 86.640625h-174.46875c-31.152344 0-56.371094 25.21875-56.371094 56.371093v371.777344h-34.273437c-31.152344 0-56.371094-25.21875-56.371094-56.378906v-422.660156c0-31.152344 25.21875-56.371094 56.371094-56.371094h153.105468c16.765626 0 32.785157 7.5625 43.613282 20.621094zm0 0" fill="#00efd1"/><path d="m640 160.816406v318.367188c0 31.152344-25.21875 56.371094-56.371094 56.371094h-507.816406v-374.738282c0-31.152344 25.21875-56.371094 56.371094-56.371094h451.445312c31.152344 0 56.371094 25.21875 56.371094 56.371094zm0 0" fill="#00acea"/><path d="m353.234375 176.097656c-78.78125 0-142.867187 64.089844-142.867187 142.863282 0 17.65625 3.261718 35.160156 9.789062 51.777343 4.746094 12.015625 10.976562 23.144531 18.398438 33.085938l-17.953126 41.683593c-2.222656 5.042969-1.335937 10.828126 1.929688 15.132813 2.820312 3.558594 7.121094 5.640625 11.570312 5.640625.890626 0 1.78125 0 2.523438-.300781l70.320312-12.3125c14.539063 5.042969 29.816407 7.566406 45.691407 7.566406 78.777343 0 142.867187-64.089844 142.867187-142.867187 0-38.128907-14.835937-73.878907-41.683594-100.730469-26.859374-26.855469-62.460937-41.539063-100.585937-41.539063zm-.445313 255.613282c-13.355468 0-26.855468-2.523438-39.019531-7.121094-2.519531-.886719-5.191406-1.1875-7.863281-.742188l-47.175781 8.304688 10.679687-24.773438c2.226563-5.191406 1.335938-11.277344-2.375-15.578125-8.011718-9.34375-14.535156-20.027343-19.136718-31.894531-5.195313-13.203125-7.710938-27-7.710938-40.945312 0-62.3125 50.734375-113.195313 113.191406-113.195313 30.261719 0 58.597656 11.71875 79.816406 32.9375 21.214844 21.214844 32.933594 49.546875 32.933594 79.8125-.148437 62.457031-50.886718 113.195313-113.339844 113.195313zm0 0" fill="#083863"/></svg>