<svg height="638pt" viewBox="0 -45 638.74973 638" width="638pt" xmlns="http://www.w3.org/2000/svg"><path d="m593.386719 141.355469v65.976562h-541.914063l-5.953125-146.320312c-1.53125-32.992188 24.890625-60.636719 58.039063-60.636719h125.09375c20.308594 0 39.253906 10.691406 49.789062 28.253906l15.886719 26.582032c10.535156 17.5625 29.324219 28.253906 49.789063 28.253906h191.078124c32.074219-.152344 58.191407 25.8125 58.191407 57.890625zm0 0" fill="#00efd1"/><path d="m608.207031 192.0625c18.480469 0 32.835938 16.34375 30.238281 34.671875l-37.417968 272.175781c-3.972656 28.71875-28.5625 50.105469-57.429688 50.105469h-447.832031c-29.019531 0-53.460937-21.386719-57.425781-50.105469l-38.035156-272.175781c-2.59375-18.328125 11.761718-34.824219 30.242187-34.824219h577.660156zm0 0" fill="#00acea"/><path d="m319.527344 221.539062c-81.101563 0-147.085938 65.984376-147.085938 147.089844 0 18.179688 3.359375 36.199219 10.078125 53.304688 4.890625 12.371094 11.308594 23.832031 18.941407 34.0625l-18.484376 42.921875c-2.289062 5.1875-1.371093 11.148437 1.988282 15.578125 2.902344 3.664062 7.332031 5.804687 11.917968 5.804687.914063 0 1.832032 0 2.589844-.308593l72.402344-12.679688c14.96875 5.195312 30.699219 7.792969 47.042969 7.792969 81.105469 0 147.085937-65.984375 147.085937-147.089844 0-39.25-15.273437-76.0625-42.917968-103.707031-27.339844-27.492188-64.304688-42.769532-103.558594-42.769532zm-.300782 263.171876c-13.75 0-27.648437-2.597657-40.171874-7.335938-2.597657-.914062-5.34375-1.214844-8.097657-.761719l-48.566406 8.554688 10.992187-25.511719c2.289063-5.34375 1.375-11.605469-2.441406-16.03125-8.25-9.625-14.972656-20.625-19.703125-32.839844-5.34375-13.59375-7.941406-27.800781-7.941406-42.15625 0-64.152344 52.234375-116.539062 116.539063-116.539062 31.152343 0 60.332031 12.066406 82.171874 33.90625 21.84375 21.84375 33.910157 51.015625 33.910157 82.175781-.308594 64.300781-52.546875 116.539063-116.691407 116.539063zm0 0" fill="#083863"/></svg>