<svg height="640pt" viewBox="0 -52 640 640" width="640pt" xmlns="http://www.w3.org/2000/svg"><path d="m320.964844 59.28125-61.492188-59.28125h-211.214844l7.855469 219.214844h532.734375v-159.933594zm0 0" fill="#00efd1"/><path d="m536.460938 219.214844v.550781h-432.921876v-105.332031h432.921876zm0 0" fill="#fedb41"/><path d="m640 205.980469-58.042969 329.097656h-523.222656l-58.734375-329.097656zm0 0" fill="#00acea"/><path d="m320.136719 235.898438c-73.207031 0-132.769531 59.558593-132.769531 132.632812 0 16.546875 3.03125 32.675781 9.097656 48.117188 4.414062 11.167968 10.203125 21.503906 17.097656 30.742187l-16.683594 38.746094c-2.066406 4.6875-1.238281 10.0625 1.792969 14.0625 2.621094 3.304687 6.621094 5.238281 10.757813 5.238281.824218 0 1.652343 0 2.34375-.277344l65.34375-11.441406c13.515624 4.6875 27.714843 7.03125 42.46875 7.03125 73.210937 0 132.773437-59.558594 132.773437-132.636719 0-35.429687-13.789063-68.65625-38.746094-93.613281-24.679687-24.953125-58.042969-38.601562-93.476562-38.601562zm-.273438 237.410156c-12.550781 0-24.957031-2.34375-36.261719-6.613282-2.34375-.96875-4.828124-1.105468-7.308593-.691406l-43.84375 7.722656 9.929687-23.027343c2.070313-4.824219 1.238282-10.476563-2.207031-14.472657-7.449219-8.6875-13.511719-18.613281-17.785156-29.644531-4.828125-12.269531-7.171875-25.09375-7.171875-38.050781 0-57.90625 47.152344-105.058594 105.199218-105.058594 28.125 0 54.457032 10.894532 74.175782 30.605469 19.710937 19.714844 30.605468 46.046875 30.605468 74.171875-.273437 57.910156-47.425781 105.058594-105.332031 105.058594zm0 0" fill="#083863"/></svg>