<svg height="640pt" viewBox="-70 0 640 640" width="640pt" xmlns="http://www.w3.org/2000/svg"><path d="m334.457031 0h-262.332031c-39.472656 0-72.125 32.484375-72.125 71.957031v496.085938c0 39.472656 32.652344 71.957031 72.125 71.957031h356.058594c39.472656 0 72.117187-32.484375 72.117187-71.957031v-394.074219zm0 0" fill="#00acea"/><path d="m335.269531.488281 165.199219 173.640625h-109.972656c-30.535156 0-55.226563-24.6875-55.226563-55.222656zm0 0" fill="#00efd1"/><g fill="#083863"><path d="m383.835938 511.675781h-267.371094c-8.929688 0-16.238282 7.308594-16.238282 16.242188 0 8.9375 7.308594 16.246093 16.238282 16.246093h267.535156c8.933594 0 16.242188-7.308593 16.242188-16.246093 0-8.933594-7.308594-16.242188-16.40625-16.242188zm0 0"/><path d="m250.316406 167.636719c-86.253906 0-156.429687 70.171875-156.429687 156.425781 0 19.324219 3.574219 38.496094 10.722656 56.6875 5.199219 13.160156 12.023437 25.34375 20.140625 36.226562l-19.652344 45.644532c-2.4375 5.523437-1.464844 11.855468 2.109375 16.566406 3.085938 3.898438 7.796875 6.171875 12.671875 6.171875.976563 0 1.949219 0 2.761719-.320313l76.992187-13.488281c15.925782 5.527344 32.652344 8.289063 50.035157 8.289063 86.25 0 156.425781-70.171875 156.425781-156.425782 0-41.75-16.246094-80.894531-45.644531-110.300781-29.078125-29.238281-68.390625-45.476562-110.132813-45.476562zm-.324218 279.878906c-14.621094 0-29.402344-2.765625-42.722657-7.800781-2.761719-.976563-5.6875-1.296875-8.605469-.8125l-51.65625 9.09375 11.695313-27.121094c2.433594-5.691406 1.457031-12.351562-2.605469-17.058594-8.769531-10.234375-15.917968-21.925781-20.949218-34.925781-5.683594-14.457031-8.449219-29.558594-8.449219-44.828125 0-68.226562 55.558593-123.941406 123.941406-123.941406 33.132813 0 64.160156 12.832031 87.390625 36.058594 23.226562 23.230468 36.058594 54.253906 36.058594 87.394531-.324219 68.382812-55.878906 123.941406-124.097656 123.941406zm0 0"/></g></svg>