<svg height="638pt" viewBox="-57 0 638 638.75085" width="638pt" xmlns="http://www.w3.org/2000/svg"><path d="m317.5 238.539062-44.925781-121.921874h-214.023438c-32.199219 0-58.175781 26.507812-58.175781 58.707031v404.71875c0 32.203125 25.976562 58.707031 58.175781 58.707031h290.488281c32.203126 0 58.175782-26.503906 58.175782-58.707031v-321.496094zm0 0" fill="#00efd1"/><path d="m377.132812 180.230469-44.925781-121.921875h-214.019531c-32.203125 0-58.175781 26.507812-58.175781 58.707031v404.71875c0 32.203125 25.972656 58.707031 58.175781 58.707031h290.484375c32.203125 0 58.179687-26.503906 58.179687-58.707031v-321.496094zm0 0" fill="#fedb41"/><path d="m435.441406 121.917969-44.925781-121.917969h-214.019531c-32.203125 0-58.175782 26.503906-58.175782 58.707031v404.71875c0 32.203125 25.972657 58.707031 58.175782 58.707031h290.488281c32.199219 0 58.175781-26.503906 58.175781-58.707031v-321.496093zm0 0" fill="#00acea"/><path d="m390.515625.398438 134.777344 141.664062h-89.71875c-24.914063 0-45.058594-20.144531-45.058594-45.054688zm0 0" fill="#00efd1"/><g fill="#083863"><path d="m430.804688 424.066406h-218.128907c-7.292969 0-13.257812 5.960938-13.257812 13.253906 0 7.289063 5.964843 13.25 13.257812 13.25h218.257813c7.292968 0 13.25-5.960937 13.25-13.25 0-7.292968-5.957032-13.253906-13.378906-13.253906zm0 0"/><path d="m366.660156 263.71875h-37.636718v-53.808594c0-7.285156-5.957032-13.25-13.25-13.25-7.289063 0-13.25 5.964844-13.25 13.25v67.457032c0 7.285156 5.429687 12.851562 12.851562 12.851562h51.417969c7.289062 0 13.253906-5.960938 13.253906-13.25 0-7.292969-6.09375-13.25-13.386719-13.25zm0 0"/><path d="m321.738281 132.65625c-74.476562 0-135.039062 60.558594-135.039062 135.03125 0 74.480469 60.5625 135.039062 135.039062 135.039062 74.472657 0 135.039063-60.558593 135.039063-135.03125 0-74.480468-60.566406-135.039062-135.039063-135.039062zm0 243.570312c-59.902343 0-108.535156-48.636718-108.535156-108.539062 0-59.894531 48.632813-108.53125 108.535156-108.53125 59.898438 0 108.535157 48.636719 108.535157 108.53125 0 59.902344-48.636719 108.539062-108.535157 108.539062zm0 0"/></g></svg>