<svg height="638pt" viewBox="0 -45 638.74973 638" width="638pt" xmlns="http://www.w3.org/2000/svg"><path d="m593.386719 141.355469v65.976562h-541.914063l-5.953125-146.320312c-1.53125-32.992188 24.890625-60.636719 58.039063-60.636719h125.09375c20.308594 0 39.253906 10.691406 49.789062 28.253906l15.886719 26.582032c10.535156 17.5625 29.324219 28.253906 49.789063 28.253906h191.078124c32.074219-.152344 58.191407 25.8125 58.191407 57.890625zm0 0" fill="#00efd1"/><path d="m608.207031 192.0625c18.480469 0 32.835938 16.34375 30.238281 34.671875l-37.417968 272.175781c-3.972656 28.71875-28.5625 50.105469-57.429688 50.105469h-447.832031c-29.019531 0-53.460937-21.386719-57.425781-50.105469l-38.035156-272.175781c-2.59375-18.328125 11.761718-34.824219 30.242187-34.824219h577.660156zm0 0" fill="#00acea"/><g fill="#083863"><path d="m371.15625 366.339844h-44.144531v-62.011719c0-8.402344-6.871094-15.28125-15.269531-15.28125-8.402344 0-15.273438 6.878906-15.273438 15.28125v77.742187c0 8.402344 7.019531 14.8125 15.578125 14.8125h59.257813c8.402343 0 15.273437-6.875 15.273437-15.269531 0-8.402343-7.019531-15.273437-15.421875-15.273437zm0 0"/><path d="m319.375 215.277344c-85.835938 0-155.640625 69.804687-155.640625 155.640625 0 85.839843 69.804687 155.640625 155.640625 155.640625 85.839844 0 155.640625-69.800782 155.640625-155.640625 0-85.835938-69.800781-155.640625-155.640625-155.640625zm0 280.734375c-69.039062 0-125.089844-56.050781-125.089844-125.09375 0-69.039063 56.050782-125.089844 125.089844-125.089844 69.042969 0 125.09375 56.050781 125.09375 125.089844 0 69.042969-56.058594 125.09375-125.09375 125.09375zm0 0"/></g></svg>