<svg height="640pt" viewBox="0 -52 640 640" width="640pt" xmlns="http://www.w3.org/2000/svg"><path d="m320.964844 59.28125-61.492188-59.28125h-211.214844l7.855469 219.214844h532.734375v-159.933594zm0 0" fill="#00efd1"/><path d="m536.460938 219.214844v.550781h-432.921876v-105.332031h432.921876zm0 0" fill="#fedb41"/><path d="m640 205.980469-58.042969 329.097656h-523.222656l-58.734375-329.097656zm0 0" fill="#00acea"/><g fill="#083863"><path d="m366.738281 366.738281h-39.84375v-56.253906c0-7.585937-6.207031-13.785156-13.789062-13.785156s-13.785157 6.199219-13.785157 13.785156v70.179687c0 7.582032 6.34375 13.648438 14.0625 13.648438h53.492188c7.582031 0 13.789062-6.207031 13.789062-13.789062 0-7.585938-6.34375-13.785157-13.925781-13.785157zm0 0"/><path d="m320 230.109375c-77.484375 0-140.492188 63.003906-140.492188 140.484375 0 77.488281 63.007813 140.632812 140.492188 140.632812s140.492188-63.144531 140.492188-140.488281c0-77.351562-63.007813-140.628906-140.492188-140.628906zm0 253.542969c-62.320312 0-112.914062-50.597656-112.914062-112.914063 0-62.320312 50.59375-112.921875 112.914062-112.921875s112.914062 50.601563 112.914062 112.921875c0 62.175781-50.59375 112.914063-112.914062 112.914063zm0 0"/></g></svg>