<svg height="638pt" viewBox="0 -45 638.74973 638" width="638pt" xmlns="http://www.w3.org/2000/svg"><path d="m593.386719 141.355469v65.976562h-541.914063l-5.953125-146.320312c-1.53125-32.992188 24.890625-60.636719 58.039063-60.636719h125.09375c20.308594 0 39.253906 10.691406 49.789062 28.253906l15.886719 26.582032c10.535156 17.5625 29.324219 28.253906 49.789063 28.253906h191.078124c32.074219-.152344 58.191407 25.8125 58.191407 57.890625zm0 0" fill="#00efd1"/><path d="m608.207031 192.0625c18.480469 0 32.835938 16.34375 30.238281 34.671875l-37.417968 272.175781c-3.972656 28.71875-28.5625 50.105469-57.429688 50.105469h-447.832031c-29.019531 0-53.460937-21.386719-57.425781-50.105469l-38.035156-272.175781c-2.59375-18.328125 11.761718-34.824219 30.242187-34.824219h577.660156zm0 0" fill="#00acea"/><g fill="#083863"><path d="m374.363281 315.933594c-5.957031-5.960938-15.582031-5.960938-21.535156 0l-33.453125 33.453125-33.296875-33.453125c-5.957031-5.960938-15.582031-5.960938-21.535156 0-5.957031 5.957031-5.957031 15.582031 0 21.535156l33.296875 33.296875-33.449219 33.449219c-5.953125 5.960937-5.953125 15.578125 0 21.539062 3.054687 3.050782 6.871094 4.425782 10.84375 4.425782s7.789063-1.527344 10.84375-4.425782l33.296875-33.300781 33.296875 33.300781c3.054687 3.050782 6.875 4.425782 10.847656 4.425782 3.972657 0 7.785157-1.527344 10.84375-4.425782 5.953125-5.960937 5.953125-15.578125 0-21.539062l-33.453125-33.296875 33.300782-33.296875c6.105468-5.957032 6.105468-15.730469.152343-21.6875zm0 0"/><path d="m319.375 215.277344c-85.835938 0-155.640625 69.804687-155.640625 155.640625 0 85.839843 69.804687 155.640625 155.640625 155.640625 85.839844 0 155.640625-69.800782 155.640625-155.640625 0-85.835938-69.800781-155.640625-155.640625-155.640625zm0 280.734375c-69.039062 0-125.089844-56.050781-125.089844-125.09375 0-69.039063 56.050782-125.089844 125.089844-125.089844 69.042969 0 125.09375 56.050781 125.09375 125.089844 0 69.042969-56.058594 125.09375-125.09375 125.09375zm0 0"/></g></svg>