<svg height="640pt" viewBox="0 -52 640 640" width="640pt" xmlns="http://www.w3.org/2000/svg"><path d="m320.964844 59.28125-61.492188-59.28125h-211.214844l7.855469 219.214844h532.734375v-159.933594zm0 0" fill="#00efd1"/><path d="m536.460938 219.214844v.550781h-432.921876v-105.332031h432.921876zm0 0" fill="#fedb41"/><path d="m640 205.980469-58.042969 329.097656h-523.222656l-58.734375-329.097656zm0 0" fill="#00acea"/><g fill="#083863"><path d="m339.4375 370.738281 30.195312-30.195312c5.375-5.378907 5.375-14.0625 0-19.441407-5.375-5.375-14.0625-5.375-19.4375 0l-30.195312 30.054688-30.054688-30.054688c-5.378906-5.375-14.066406-5.375-19.441406 0-5.378906 5.378907-5.378906 14.0625 0 19.441407l30.058594 30.058593-30.195312 30.1875c-5.378907 5.378907-5.378907 14.0625 0 19.445313 2.757812 2.753906 6.203124 3.992187 9.789062 3.992187 3.582031 0 7.03125-1.375 9.789062-3.992187l30.054688-30.058594 30.054688 30.058594c2.757812 2.753906 6.203124 3.992187 9.789062 3.992187 3.582031 0 7.03125-1.375 9.789062-3.992187 5.375-5.382813 5.375-14.066406 0-19.445313zm0 0"/><path d="m320 230.109375c-77.484375 0-140.492188 63.003906-140.492188 140.484375 0 77.488281 63.007813 140.632812 140.492188 140.632812s140.492188-63.144531 140.492188-140.488281c0-77.351562-63.007813-140.628906-140.492188-140.628906zm0 253.542969c-62.320312 0-112.914062-50.597656-112.914062-112.914063 0-62.320312 50.59375-112.921875 112.914062-112.921875s112.914062 50.601563 112.914062 112.921875c0 62.175781-50.59375 112.914063-112.914062 112.914063zm0 0"/></g></svg>