<svg height="640pt" viewBox="-70 0 640 640" width="640pt" xmlns="http://www.w3.org/2000/svg"><path d="m334.457031 0h-262.332031c-39.472656 0-72.125 32.484375-72.125 71.957031v496.085938c0 39.472656 32.652344 71.957031 72.125 71.957031h356.058594c39.472656 0 72.117187-32.484375 72.117187-71.957031v-394.074219zm0 0" fill="#00acea"/><path d="m335.269531.488281 165.199219 173.640625h-109.972656c-30.535156 0-55.226563-24.6875-55.226563-55.222656zm0 0" fill="#00efd1"/><g fill="#083863"><path d="m383.835938 511.675781h-267.371094c-8.929688 0-16.238282 7.308594-16.238282 16.242188 0 8.9375 7.308594 16.246093 16.238282 16.246093h267.535156c8.933594 0 16.242188-7.308593 16.242188-16.246093 0-8.933594-7.308594-16.242188-16.40625-16.242188zm0 0"/><path d="m308.628906 269.644531c-6.335937-6.335937-16.570312-6.335937-22.902344 0l-35.574218 35.574219-35.410156-35.574219c-6.332032-6.335937-16.566407-6.335937-22.90625 0-6.332032 6.335938-6.332032 16.570313 0 22.902344l35.414062 35.410156-35.574219 35.578125c-6.332031 6.332032-6.332031 16.566406 0 22.898438 3.246094 3.253906 7.308594 4.714844 11.53125 4.714844 4.226563 0 8.289063-1.628907 11.535157-4.714844l35.410156-35.410156 35.410156 35.410156c3.25 3.253906 7.308594 4.714844 11.53125 4.714844s8.285156-1.628907 11.535156-4.714844c6.335938-6.332032 6.335938-16.566406 0-22.898438l-35.574218-35.414062 35.410156-35.410156c6.5-6.335938 6.5-16.730469.164062-23.066407zm0 0"/><path d="m250.152344 162.597656c-91.289063 0-165.523438 74.234375-165.523438 165.523438 0 91.289062 74.234375 165.519531 165.523438 165.519531 91.289062 0 165.519531-74.230469 165.519531-165.519531 0-91.289063-74.230469-165.523438-165.519531-165.523438zm0 298.558594c-73.421875 0-133.03125-59.613281-133.03125-133.035156 0-73.425782 59.609375-133.035156 133.03125-133.035156s133.035156 59.609374 133.035156 133.035156c0 73.421875-59.613281 133.035156-133.035156 133.035156zm0 0"/></g></svg>