<svg height="638pt" viewBox="-57 0 638 638.75085" width="638pt" xmlns="http://www.w3.org/2000/svg"><path d="m317.5 238.539062-44.925781-121.921874h-214.023438c-32.199219 0-58.175781 26.507812-58.175781 58.707031v404.71875c0 32.203125 25.976562 58.707031 58.175781 58.707031h290.488281c32.203126 0 58.175782-26.503906 58.175782-58.707031v-321.496094zm0 0" fill="#00efd1"/><path d="m377.132812 180.230469-44.925781-121.921875h-214.019531c-32.203125 0-58.175781 26.507812-58.175781 58.707031v404.71875c0 32.203125 25.972656 58.707031 58.175781 58.707031h290.484375c32.203125 0 58.179687-26.503906 58.179687-58.707031v-321.496094zm0 0" fill="#fedb41"/><path d="m435.441406 121.917969-44.925781-121.917969h-214.019531c-32.203125 0-58.175782 26.503906-58.175782 58.707031v404.71875c0 32.203125 25.972657 58.707031 58.175782 58.707031h290.488281c32.199219 0 58.175781-26.503906 58.175781-58.707031v-321.496093zm0 0" fill="#00acea"/><path d="m390.515625.398438 134.777344 141.664062h-89.71875c-24.914063 0-45.058594-20.144531-45.058594-45.054688zm0 0" fill="#00efd1"/><g fill="#083863"><path d="m430.804688 424.066406h-218.128907c-7.292969 0-13.257812 5.960938-13.257812 13.253906 0 7.289063 5.964843 13.25 13.257812 13.25h218.257813c7.292968 0 13.25-5.960937 13.25-13.25 0-7.292968-5.957032-13.253906-13.378906-13.253906zm0 0"/><path d="m402.839844 246.089844c-8.617188-36.839844-42.140625-64.273438-81.101563-64.273438-20.941406 0-40.949219 7.824219-56.457031 22.003906-12.457031 11.394532-21.066406 26.105469-24.910156 42.269532-28.226563 3.847656-50.09375 28.226562-50.09375 57.515625 0 31.941406 26.105468 58.046875 58.175781 58.046875h146.832031c31.941406 0 57.914063-26.105469 57.914063-58.046875 0-29.15625-21.996094-53.667969-50.359375-57.515625zm-7.554688 89.1875h-146.832031c-17.492187 0-31.667969-14.445313-31.667969-31.804688 0-17.363281 14.042969-31.808594 31.402344-31.808594h3.582031c6.890625 0 12.585938-5.03125 13.25-11.792968 2.652344-29.019532 27.5625-51.546875 56.851563-51.546875 29.289062 0 54.070312 22.527343 56.453125 51.417969.53125 6.890624 6.363281 11.921874 13.253906 11.921874h3.578125c17.492188 0 31.671875 14.445313 31.671875 31.808594 0 17.359375-14.3125 31.804688-31.542969 31.804688zm0 0"/></g></svg>