<svg height="640pt" viewBox="-30 0 640 640" width="640pt" xmlns="http://www.w3.org/2000/svg"><path d="m300.585938 101.449219-15.308594-101.449219h-224.601563c-33.820312 0-60.675781 27.554688-60.675781 61.371094v424.71875c0 33.816406 26.855469 60.8125 60.675781 60.8125h213.054688l153.492187-232.402344v-165.734375zm0 0" fill="#00acea"/><path d="m285.277344.140625 141.527344 148.625h-94.210938c-26.164062 0-47.316406-21.152344-47.316406-47.316406zm0 0" fill="#00efd1"/><g fill="#083863"><path d="m98.527344 346.507812h181.324218c7.652344 0 13.917969-6.257812 13.917969-13.914062 0-7.652344-6.265625-13.917969-13.917969-13.917969h-181.324218c-7.652344 0-13.917969 6.265625-13.917969 13.917969 0 7.65625 6.265625 13.914062 13.917969 13.914062zm0 0"/><path d="m98.527344 276.929688h140.96875c7.652344 0 13.917968-6.261719 13.917968-13.917969 0-7.652344-6.265624-13.914063-13.917968-13.914063h-140.96875c-7.652344 0-13.917969 6.261719-13.917969 13.914063 0 7.65625 6.265625 13.917969 13.917969 13.917969zm0 0"/><path d="m234.066406 389.648438h-135.539062c-7.652344 0-13.917969 6.265624-13.917969 13.914062 0 7.65625 6.265625 13.917969 13.917969 13.917969h135.539062c7.65625 0 13.917969-6.261719 13.917969-13.917969 0-7.648438-6.261719-13.914062-13.917969-13.914062zm0 0"/></g><path d="m426.804688 286.8125c86.28125 12.101562 152.65625 86.136719 152.65625 175.753906 0 97.96875-79.457032 177.433594-177.425782 177.433594-67.351562 0-126.078125-37.574219-156-92.960938-13.636718-25.1875-21.429687-53.992187-21.429687-84.609374 0-97.96875 79.460937-177.429688 177.429687-177.429688 8.351563.140625 16.558594.699219 24.769532 1.8125zm0 0" fill="#fedb41"/><path d="m486.921875 436.269531c-9.046875-38.6875-44.25-67.496093-85.164063-67.496093-21.988281 0-43.003906 8.214843-59.28125 23.101562-13.082031 11.96875-22.128906 27.417969-26.167968 44.394531-29.636719 4.03125-52.597656 29.222657-52.597656 59.976563 0 33.539062 27.414062 60.535156 61.089843 60.535156h154.1875c33.539063 0 60.816407-26.996094 60.816407-60.535156 0-30.894532-23.101563-56.082032-52.882813-59.976563zm-7.933594 92.539063h-154.046875c-18.371094 0-33.261718-14.472656-33.261718-32.699219 0-18.234375 14.75-32.707031 32.984374-32.707031h3.753907c7.234375 0 13.222656-5.425782 13.914062-12.660156 2.785157-30.480469 28.945313-54.273438 59.703125-54.273438 30.753906 0 56.777344 23.792969 59.28125 54.132812.558594 7.234376 6.679688 12.664063 13.917969 12.664063h3.757813c18.371093 0 33.257812 14.472656 33.257812 32.699219-.277344 18.371094-15.027344 32.84375-33.261719 32.84375zm0 0" fill="#083863"/></svg>