<svg height="640pt" viewBox="0 -52 640 640" width="640pt" xmlns="http://www.w3.org/2000/svg"><path d="m253.089844 20.621094 68.394531 86.640625h-174.46875c-31.152344 0-56.371094 25.21875-56.371094 56.371093v371.777344h-34.273437c-31.152344 0-56.371094-25.21875-56.371094-56.378906v-422.660156c0-31.152344 25.21875-56.371094 56.371094-56.371094h153.105468c16.765626 0 32.785157 7.5625 43.613282 20.621094zm0 0" fill="#00efd1"/><path d="m640 160.816406v318.367188c0 31.152344-25.21875 56.371094-56.371094 56.371094h-507.816406v-374.738282c0-31.152344 25.21875-56.371094 56.371094-56.371094h451.445312c31.152344 0 56.371094 25.21875 56.371094 56.371094zm0 0" fill="#00acea"/><path d="m443.726562 292.554688c-9.644531-41.242188-47.179687-71.949219-90.792968-71.949219-23.441406 0-45.84375 8.75-63.199219 24.625-13.945313 12.757812-23.585937 29.226562-27.890625 47.324219-31.601562 4.300781-56.078125 31.601562-56.078125 64.390624 0 35.75 29.226563 64.972657 65.128906 64.972657h164.375c35.753907 0 64.832031-29.222657 64.832031-64.972657 0-32.644531-24.476562-60.089843-56.375-64.390624zm-8.453124 99.84375h-164.226563c-19.585937 0-35.460937-16.171876-35.460937-35.605469 0-19.433594 15.726562-35.605469 35.160156-35.605469h4.003906c7.714844 0 14.097656-5.640625 14.839844-13.203125 2.964844-32.492187 30.855468-57.710937 63.644531-57.710937 32.785156 0 60.523437 25.21875 63.195313 57.558593.597656 7.714844 7.125 13.355469 14.835937 13.355469h4.007813c19.578124 0 35.453124 16.171875 35.453124 35.605469 0 19.433593-16.019531 35.605469-35.453124 35.605469zm0 0" fill="#083863"/></svg>