<svg height="638pt" viewBox="0 -45 638.74973 638" width="638pt" xmlns="http://www.w3.org/2000/svg"><path d="m593.386719 141.355469v65.976562h-541.914063l-5.953125-146.320312c-1.53125-32.992188 24.890625-60.636719 58.039063-60.636719h125.09375c20.308594 0 39.253906 10.691406 49.789062 28.253906l15.886719 26.582032c10.535156 17.5625 29.324219 28.253906 49.789063 28.253906h191.078124c32.074219-.152344 58.191407 25.8125 58.191407 57.890625zm0 0" fill="#00efd1"/><path d="m608.207031 192.0625c18.480469 0 32.835938 16.34375 30.238281 34.671875l-37.417968 272.175781c-3.972656 28.71875-28.5625 50.105469-57.429688 50.105469h-447.832031c-29.019531 0-53.460937-21.386719-57.425781-50.105469l-38.035156-272.175781c-2.59375-18.328125 11.761718-34.824219 30.242187-34.824219h577.660156zm0 0" fill="#00acea"/><path d="m412.851562 341.441406c-9.925781-42.460937-48.574218-74.078125-93.476562-74.078125-24.128906 0-47.195312 9.011719-65.066406 25.355469-14.355469 13.132812-24.285156 30.085938-28.714844 48.722656-32.53125 4.429688-57.730469 32.535156-57.730469 66.292969 0 36.804687 30.085938 66.894531 67.050781 66.894531h169.234376c36.808593 0 66.742187-30.089844 66.742187-66.894531 0-33.609375-25.355469-61.863281-58.039063-66.292969zm-8.703124 102.792969h-169.234376c-20.160156 0-36.507812-16.648437-36.507812-36.65625 0-20.011719 16.191406-36.660156 36.199219-36.660156h4.125c7.941406 0 14.511719-5.800781 15.277343-13.59375 3.050782-33.449219 31.769532-59.414063 65.519532-59.414063 33.757812 0 62.320312 25.964844 65.070312 59.261719.613282 7.945313 7.332032 13.746094 15.269532 13.746094h4.128906c20.160156 0 36.507812 16.648437 36.507812 36.660156-.007812 20.007813-16.503906 36.65625-36.355468 36.65625zm0 0" fill="#083863"/></svg>