<svg height="640pt" viewBox="0 -52 640 640" width="640pt" xmlns="http://www.w3.org/2000/svg"><path d="m320.964844 59.28125-61.492188-59.28125h-211.214844l7.855469 219.214844h532.734375v-159.933594zm0 0" fill="#00efd1"/><path d="m536.460938 219.214844v.550781h-432.921876v-105.332031h432.921876zm0 0" fill="#fedb41"/><path d="m640 205.980469-58.042969 329.097656h-523.222656l-58.734375-329.097656zm0 0" fill="#00acea"/><path d="m404.378906 344.125c-8.964844-38.324219-43.847656-66.863281-84.378906-66.863281-21.78125 0-42.601562 8.132812-58.734375 22.882812-12.960937 11.855469-21.921875 27.164063-25.917969 43.984375-29.367187 3.996094-52.117187 29.503906-52.117187 59.972656 0 33.226563 27.160156 60.527344 60.523437 60.527344h152.765625c33.226563 0 60.246094-27.300781 60.246094-60.527344 0-30.46875-22.882813-55.976562-52.386719-59.976562zm-7.859375 92.925781h-152.765625c-18.199218 0-32.949218-15.023437-32.949218-33.085937s14.613281-33.089844 32.675781-33.089844h3.722656c7.171875 0 13.097656-5.242188 13.789063-12.410156 2.757812-30.195313 28.675781-53.769532 59.144531-53.769532 30.472656 0 56.253906 23.4375 58.734375 53.632813.550781 7.167969 6.617187 12.546875 13.789062 12.546875h3.722656c18.195313 0 32.953126 15.027344 32.953126 33.089844-.140626 18.0625-14.894532 33.085937-32.816407 33.085937zm0 0" fill="#083863"/></svg>