<svg height="640pt" viewBox="-70 0 640 640" width="640pt" xmlns="http://www.w3.org/2000/svg"><path d="m334.457031 0h-262.332031c-39.472656 0-72.125 32.484375-72.125 71.957031v496.085938c0 39.472656 32.652344 71.957031 72.125 71.957031h356.058594c39.472656 0 72.117187-32.484375 72.117187-71.957031v-394.074219zm0 0" fill="#00acea"/><path d="m335.269531.488281 165.199219 173.640625h-109.972656c-30.535156 0-55.226563-24.6875-55.226563-55.222656zm0 0" fill="#00efd1"/><g fill="#083863"><path d="m383.835938 511.675781h-267.371094c-8.929688 0-16.238282 7.308594-16.238282 16.242188 0 8.9375 7.308594 16.246093 16.238282 16.246093h267.535156c8.933594 0 16.242188-7.308593 16.242188-16.246093 0-8.933594-7.308594-16.242188-16.40625-16.242188zm0 0"/><path d="m349.566406 301.644531c-10.5625-45.15625-51.65625-78.777343-99.414062-78.777343-25.664063 0-50.191406 9.578124-69.195313 26.960937-15.269531 13.96875-25.828125 32.003906-30.542969 51.816406-34.597656 4.710938-61.398437 34.601563-61.398437 70.5 0 39.144531 32 71.144531 71.3125 71.144531h179.972656c39.152344 0 70.988281-32 70.988281-71.144531 0-35.738281-26.964843-65.789062-61.722656-70.5zm-9.265625 109.320313h-179.972656c-21.445313 0-38.824219-17.703125-38.824219-38.984375 0-21.277344 17.21875-38.988281 38.496094-38.988281h4.386719c8.445312 0 15.433593-6.171876 16.242187-14.453126 3.25-35.574218 33.789063-63.1875 69.6875-63.1875 35.898438 0 66.273438 27.613282 69.199219 63.023438.648437 8.445312 7.792969 14.617188 16.242187 14.617188h4.386719c21.441407 0 38.820313 17.710937 38.820313 38.988281 0 21.28125-17.542969 38.984375-38.664063 38.984375zm0 0"/></g></svg>