<svg height="638pt" viewBox="-57 0 638 638.75085" width="638pt" xmlns="http://www.w3.org/2000/svg"><path d="m317.5 238.539062-44.925781-121.921874h-214.023438c-32.199219 0-58.175781 26.507812-58.175781 58.707031v404.71875c0 32.203125 25.976562 58.707031 58.175781 58.707031h290.488281c32.203126 0 58.175782-26.503906 58.175782-58.707031v-321.496094zm0 0" fill="#00efd1"/><path d="m377.132812 180.230469-44.925781-121.921875h-214.019531c-32.203125 0-58.175781 26.507812-58.175781 58.707031v404.71875c0 32.203125 25.972656 58.707031 58.175781 58.707031h290.484375c32.203125 0 58.179687-26.503906 58.179687-58.707031v-321.496094zm0 0" fill="#fedb41"/><path d="m435.441406 121.917969-44.925781-121.917969h-214.019531c-32.203125 0-58.175782 26.503906-58.175782 58.707031v404.71875c0 32.203125 25.972657 58.707031 58.175782 58.707031h290.488281c32.199219 0 58.175781-26.503906 58.175781-58.707031v-321.496093zm0 0" fill="#00acea"/><path d="m390.515625.398438 134.777344 141.664062h-89.71875c-24.914063 0-45.058594-20.144531-45.058594-45.054688zm0 0" fill="#00efd1"/><g fill="#083863"><path d="m430.804688 424.066406h-218.128907c-7.292969 0-13.257812 5.960938-13.257812 13.253906 0 7.289063 5.964843 13.25 13.257812 13.25h218.257813c7.292968 0 13.25-5.960937 13.25-13.25 0-7.292968-5.957032-13.253906-13.378906-13.253906zm0 0"/><path d="m262.898438 335.015625c3.710937 0 7.421874-1.59375 10.074218-4.640625 4.769532-5.566406 4.109375-13.914062-1.460937-18.683594l-47.707031-40.6875 47.707031-40.683594c5.570312-4.769531 6.230469-13.117187 1.460937-18.683593-4.769531-5.566407-13.125-6.226563-18.691406-1.457031l-59.632812 50.753906c-2.914063 2.515625-4.640626 6.230468-4.640626 10.070312 0 3.84375 1.726563 7.554688 4.640626 10.074219l59.632812 50.753906c2.519531 2.121094 5.566406 3.183594 8.617188 3.183594zm0 0"/><path d="m448.691406 260.933594-59.632812-50.753906c-5.566406-4.769532-13.914063-4.109376-18.683594 1.457031-4.769531 5.566406-4.109375 13.914062 1.457031 18.683593l47.710938 40.683594-47.710938 40.6875c-5.566406 4.769532-6.226562 13.117188-1.457031 18.683594 2.652344 3.046875 6.359375 4.640625 10.066406 4.640625 3.050782 0 6.097656-1.0625 8.617188-3.183594l59.632812-50.753906c2.914063-2.519531 4.640625-6.230469 4.640625-10.074219 0-3.839844-1.726562-7.554687-4.640625-10.070312zm0 0"/><path d="m297.882812 372.78125c.925782.132812 1.859376.261719 2.785157.261719 6.09375 0 11.660156-4.238281 12.988281-10.464844l37.101562-176.253906c1.457032-7.15625-3.042968-14.179688-10.203124-15.636719-7.152344-1.457031-14.175782 3.050781-15.636719 10.203125l-37.105469 176.253906c-1.589844 7.019531 2.917969 14.046875 10.070312 15.636719zm0 0"/></g></svg>