<svg height="640pt" viewBox="0 -52 640 640" width="640pt" xmlns="http://www.w3.org/2000/svg"><path d="m253.089844 20.621094 68.394531 86.640625h-174.46875c-31.152344 0-56.371094 25.21875-56.371094 56.371093v371.777344h-34.273437c-31.152344 0-56.371094-25.21875-56.371094-56.378906v-422.660156c0-31.152344 25.21875-56.371094 56.371094-56.371094h153.105468c16.765626 0 32.785157 7.5625 43.613282 20.621094zm0 0" fill="#00efd1"/><path d="m640 160.816406v318.367188c0 31.152344-25.21875 56.371094-56.371094 56.371094h-507.816406v-374.738282c0-31.152344 25.21875-56.371094 56.371094-56.371094h451.445312c31.152344 0 56.371094 25.21875 56.371094 56.371094zm0 0" fill="#00acea"/><g fill="#083863"><path d="m296.855469 365.992188-53.410157-45.546876 53.410157-45.546874c6.230469-5.335938 6.972656-14.6875 1.628906-20.917969-5.335937-6.230469-14.6875-6.972657-20.914063-1.632813l-66.613281 56.824219c-3.261719 2.816406-5.191406 6.96875-5.191406 11.273437 0 4.300782 1.929687 8.457032 5.191406 11.273438l66.613281 56.820312c2.820313 2.375 6.226563 3.5625 9.640626 3.5625 4.15625 0 8.3125-1.785156 11.273437-5.191406 5.34375-6.230468 4.601563-15.582031-1.628906-20.917968zm0 0"/><path d="m495.203125 309.171875-66.609375-56.824219c-6.230469-5.339844-15.578125-4.597656-20.917969 1.632813-5.335937 6.230469-4.59375 15.582031 1.636719 20.917969l53.402344 45.546874-53.402344 45.546876c-6.230469 5.335937-6.972656 14.6875-1.636719 20.917968 2.96875 3.40625 7.125 5.191406 11.273438 5.191406 3.414062 0 6.828125-1.1875 9.644531-3.5625l66.609375-56.820312c3.269531-2.816406 5.195313-6.972656 5.195313-11.273438 0-4.304687-1.925782-8.457031-5.195313-11.273437zm0 0"/><path d="m374 207.992188c-8.007812-1.628907-15.871094 3.414062-17.507812 11.421874l-41.535157 197.3125c-1.632812 8.007813 3.410157 15.875 11.425781 17.507813 1.035157.144531 2.074219.296875 3.113282.296875 6.824218 0 13.050781-4.75 14.535156-11.722656l41.539062-197.308594c1.632813-7.863281-3.558593-15.730469-11.570312-17.507812zm0 0"/></g></svg>