<svg height="638pt" viewBox="0 -45 638.74973 638" width="638pt" xmlns="http://www.w3.org/2000/svg"><path d="m465.703125 358.546875-68.734375-58.5c-6.417969-5.496094-16.039062-4.730469-21.539062 1.683594-5.496094 6.410156-4.730469 16.035156 1.679687 21.535156l54.988281 46.890625-54.988281 46.890625c-6.410156 5.5-7.175781 15.121094-1.679687 21.539063 3.054687 3.507812 7.332031 5.34375 11.609374 5.34375 3.511719 0 7.027344-1.222657 9.929688-3.667969l68.734375-58.5c3.355469-2.898438 5.34375-7.175781 5.34375-11.605469s-1.988281-8.707031-5.34375-11.609375zm0 0" fill="#083863"/><path d="m593.386719 141.355469v65.976562h-541.914063l-5.953125-146.320312c-1.53125-32.992188 24.890625-60.636719 58.039063-60.636719h125.09375c20.308594 0 39.253906 10.691406 49.789062 28.253906l15.886719 26.582032c10.535156 17.5625 29.324219 28.253906 49.789063 28.253906h191.078124c32.074219-.152344 58.191407 25.8125 58.191407 57.890625zm0 0" fill="#00efd1"/><path d="m608.207031 192.0625c18.480469 0 32.835938 16.34375 30.238281 34.671875l-37.417968 272.175781c-3.972656 28.71875-28.5625 50.105469-57.429688 50.105469h-447.832031c-29.019531 0-53.460937-21.386719-57.425781-50.105469l-38.035156-272.175781c-2.59375-18.328125 11.761718-34.824219 30.242187-34.824219h562.6875zm0 0" fill="#00acea"/><g fill="#083863"><path d="m261.488281 417.046875-54.988281-46.890625 54.988281-46.890625c6.417969-5.5 7.175781-15.125 1.679688-21.535156-5.496094-6.417969-15.121094-7.179688-21.535157-1.683594l-68.730468 58.5c-3.363282 2.898437-5.347656 7.179687-5.347656 11.609375s1.984374 8.707031 5.347656 11.605469l68.730468 58.5c2.898438 2.445312 6.414063 3.664062 9.925782 3.664062 4.28125 0 8.554687-1.832031 11.609375-5.34375 5.496093-6.414062 4.738281-16.039062-1.679688-21.535156zm0 0"/><path d="m341.0625 254.378906c-8.246094-1.679687-16.339844 3.515625-18.019531 11.761719l-42.769531 203.140625c-1.675782 8.25 3.515624 16.347656 11.765624 18.023438 1.066407.15625 2.136719.304687 3.207032.304687 7.027344 0 13.4375-4.886719 14.964844-12.066406l42.765624-203.140625c1.53125-8.09375-3.664062-16.191406-11.914062-18.023438zm0 0"/><path d="m465.703125 358.546875-68.734375-58.5c-6.417969-5.496094-16.039062-4.730469-21.539062 1.683594-5.496094 6.410156-4.730469 16.035156 1.679687 21.535156l54.988281 46.890625-54.988281 46.890625c-6.410156 5.5-7.175781 15.121094-1.679687 21.539063 3.054687 3.507812 7.332031 5.34375 11.609374 5.34375 3.511719 0 7.027344-1.222657 9.929688-3.667969l68.734375-58.5c3.355469-2.898438 5.34375-7.175781 5.34375-11.605469s-1.988281-8.707031-5.34375-11.609375zm0 0"/></g></svg>