<svg height="640pt" viewBox="0 -52 640 640" width="640pt" xmlns="http://www.w3.org/2000/svg"><path d="m320.964844 59.28125-61.492188-59.28125h-211.214844l7.855469 219.214844h532.734375v-159.933594zm0 0" fill="#00efd1"/><path d="m536.460938 219.214844v.550781h-432.921876v-105.332031h432.921876zm0 0" fill="#fedb41"/><path d="m640 205.980469-58.042969 329.097656h-523.222656l-58.734375-329.097656zm0 0" fill="#00acea"/><g fill="#083863"><path d="m267.75 412.234375-49.636719-42.328125 49.636719-42.324219c5.785156-4.964843 6.476562-13.652343 1.511719-19.4375-4.960938-5.792969-13.648438-6.484375-19.4375-1.519531l-62.042969 52.804688c-3.035156 2.621093-4.828125 6.484374-4.828125 10.476562 0 4 1.792969 7.863281 4.828125 10.480469l62.042969 52.804687c2.617187 2.207032 5.789062 3.308594 8.960937 3.308594 3.859375 0 7.71875-1.652344 10.476563-4.824219 4.964843-5.792969 4.273437-14.480469-1.511719-19.441406zm0 0"/><path d="m452.078125 359.570312-62.039063-52.808593c-5.792968-4.960938-14.476562-4.273438-19.4375 1.519531-4.96875 5.789062-4.277343 14.476562 1.511719 19.4375l49.632813 42.328125-49.632813 42.324219c-5.789062 4.96875-6.480469 13.648437-1.511719 19.441406 2.753907 3.171875 6.613282 4.828125 10.476563 4.828125 3.167969 0 6.339844-1.105469 8.960937-3.3125l62.039063-52.800781c3.035156-2.621094 4.824219-6.484375 4.824219-10.480469s-1.789063-7.859375-4.824219-10.476563zm0 0"/><path d="m339.578125 265.542969c-7.445313-1.519531-14.753906 3.167969-16.269531 10.613281l-38.601563 183.371094c-1.519531 7.445312 3.167969 14.75 10.613281 16.269531.964844.136719 1.929688.273437 2.898438.273437 6.339844 0 12.132812-4.410156 13.507812-10.890624l38.605469-183.367188c1.375-7.445312-3.3125-14.757812-10.753906-16.269531zm0 0"/></g></svg>