<svg height="640pt" viewBox="-70 0 640 640" width="640pt" xmlns="http://www.w3.org/2000/svg"><path d="m334.457031 0h-262.332031c-39.472656 0-72.125 32.484375-72.125 71.957031v496.085938c0 39.472656 32.652344 71.957031 72.125 71.957031h356.058594c39.472656 0 72.117187-32.484375 72.117187-71.957031v-394.074219zm0 0" fill="#00acea"/><path d="m335.269531.488281 165.199219 173.640625h-109.972656c-30.535156 0-55.226563-24.6875-55.226563-55.222656zm0 0" fill="#00efd1"/><g fill="#083863"><path d="m383.835938 511.675781h-267.371094c-8.929688 0-16.238282 7.308594-16.238282 16.242188 0 8.9375 7.308594 16.246093 16.238282 16.246093h267.535156c8.933594 0 16.242188-7.308593 16.242188-16.246093 0-8.933594-7.308594-16.242188-16.40625-16.242188zm0 0"/><path d="m178.03125 410.640625c4.546875 0 9.097656-1.949219 12.34375-5.683594 5.851562-6.828125 5.035156-17.058593-1.785156-22.90625l-58.476563-49.867187 58.476563-49.871094c6.820312-5.847656 7.636718-16.078125 1.785156-22.902344-5.847656-6.824218-16.078125-7.632812-22.902344-1.789062l-73.097656 62.21875c-3.574219 3.085937-5.683594 7.628906-5.683594 12.34375 0 4.710937 2.109375 9.257812 5.683594 12.34375l73.097656 62.214844c3.085938 2.597656 6.824219 3.898437 10.558594 3.898437zm0 0"/><path d="m405.765625 319.839844-73.09375-62.21875c-6.824219-5.84375-17.058594-5.035156-22.90625 1.789062-5.84375 6.824219-5.035156 17.054688 1.785156 22.902344l58.476563 49.871094-58.476563 49.867187c-6.820312 5.847657-7.628906 16.078125-1.785156 22.90625 3.25 3.734375 7.796875 5.683594 12.347656 5.683594 3.734375 0 7.472657-1.300781 10.558594-3.898437l73.09375-62.214844c3.574219-3.085938 5.683594-7.632813 5.683594-12.34375 0-4.714844-2.109375-9.257813-5.683594-12.34375zm0 0"/><path d="m220.914062 456.933594c1.136719.160156 2.273438.328125 3.414063.328125 7.46875 0 14.289063-5.203125 15.914063-12.832031l45.484374-216.046876c1.789063-8.769531-3.738281-17.378906-12.507812-19.164062-8.769531-1.789062-17.382812 3.734375-19.164062 12.507812l-45.484376 216.042969c-1.949218 8.605469 3.574219 17.214844 12.34375 19.164063zm0 0"/></g></svg>