<svg height="640pt" viewBox="0 -52 640 640" width="640pt" xmlns="http://www.w3.org/2000/svg"><path d="m253.089844 20.621094 68.394531 86.640625h-174.46875c-31.152344 0-56.371094 25.21875-56.371094 56.371093v371.777344h-34.273437c-31.152344 0-56.371094-25.21875-56.371094-56.378906v-422.660156c0-31.152344 25.21875-56.371094 56.371094-56.371094h153.105468c16.765626 0 32.785157 7.5625 43.613282 20.621094zm0 0" fill="#00efd1"/><path d="m640 160.816406v318.367188c0 31.152344-25.21875 56.371094-56.371094 56.371094h-507.816406v-374.738282c0-31.152344 25.21875-56.371094 56.371094-56.371094h451.445312c31.152344 0 56.371094 25.21875 56.371094 56.371094zm0 0" fill="#00acea"/><path d="m469.394531 229.210938h-57.417969v-9.5c0-16.316407-12.90625-29.078126-29.367187-29.078126h-59.347656c-16.316407 0-30.113281 12.613282-30.113281 29.078126v9.5h-56.671876c-8.160156 0-14.835937 6.671874-14.835937 14.832031 0 8.160156 6.675781 14.832031 14.835937 14.832031h17.210938l15.875 179.660156c.742188 7.714844 7.117188 13.203125 14.832031 13.203125h136.929688c7.714843 0 14.097656-5.636719 14.839843-13.203125l16.019532-179.660156h17.210937c8.160157 0 14.832031-6.671875 14.832031-14.832031 0-8.160157-6.671874-14.832031-14.832031-14.832031zm-146.425781-8.902344h59.339844v8.894531h-59.339844zm84.859375 201.757812h-109.785156l-14.535157-163.191406h138.855469zm0 0" fill="#083863"/></svg>