<svg height="638pt" viewBox="0 -45 638.74973 638" width="638pt" xmlns="http://www.w3.org/2000/svg"><path d="m593.386719 141.355469v65.976562h-541.914063l-5.953125-146.320312c-1.53125-32.992188 24.890625-60.636719 58.039063-60.636719h125.09375c20.308594 0 39.253906 10.691406 49.789062 28.253906l15.886719 26.582032c10.535156 17.5625 29.324219 28.253906 49.789063 28.253906h191.078124c32.074219-.152344 58.191407 25.8125 58.191407 57.890625zm0 0" fill="#00efd1"/><path d="m608.207031 192.0625c18.480469 0 32.835938 16.34375 30.238281 34.671875l-37.417968 272.175781c-3.972656 28.71875-28.5625 50.105469-57.429688 50.105469h-447.832031c-29.019531 0-53.460937-21.386719-57.425781-50.105469l-38.035156-272.175781c-2.59375-18.328125 11.761718-34.824219 30.242187-34.824219h577.660156zm0 0" fill="#00acea"/><path d="m439.125 276.222656h-58.652344v-9.777344c0-16.800781-13.746094-29.933593-30.550781-29.933593h-61.097656c-16.796875 0-30.542969 12.980469-30.542969 29.933593v9.777344h-58.652344c-8.398437 0-15.269531 6.871094-15.269531 15.273438s6.871094 15.273437 15.269531 15.273437h17.714844l16.347656 184.96875c.761719 7.9375 7.328125 13.589844 15.269532 13.589844h140.980468c7.945313 0 14.507813-5.800781 15.273438-13.589844l16.1875-184.96875h17.722656c8.398438 0 15.269531-6.871093 15.269531-15.273437s-6.71875-15.273438-15.269531-15.273438zm-150.300781-9.167968h61.097656v9.167968h-61.097656zm87.0625 207.730468h-113.027344l-14.964844-168.015625h142.8125zm0 0" fill="#083863"/></svg>