<svg height="640pt" viewBox="0 -52 640 640" width="640pt" xmlns="http://www.w3.org/2000/svg"><path d="m320.964844 59.28125-61.492188-59.28125h-211.214844l7.855469 219.214844h532.734375v-159.933594zm0 0" fill="#00efd1"/><path d="m536.460938 219.214844v.550781h-432.921876v-105.332031h432.921876zm0 0" fill="#fedb41"/><path d="m640 205.980469-58.042969 329.097656h-523.222656l-58.734375-329.097656zm0 0" fill="#00acea"/><path d="m428.089844 285.394531h-52.945313v-9.101562c0-15.164063-12.40625-28.125-27.570312-28.125h-55.148438c-15.164062 0-27.578125 12.960937-27.578125 28.125v9.101562h-52.9375c-7.585937 0-13.789062 6.203125-13.789062 13.785157 0 7.582031 6.203125 13.789062 13.789062 13.789062h15.988282l14.753906 166.960938c.691406 7.167968 6.621094 12.273437 13.789062 12.273437h127.253906c7.167969 0 13.097657-5.242187 13.789063-12.273437l14.613281-166.960938h15.992188c7.582031 0 13.789062-6.207031 13.789062-13.789062 0-7.582032-6.070312-13.785157-13.789062-13.785157zm-135.664063-9.652343h55.148438v9.652343h-55.148438zm78.585938 188.886718h-102.023438l-13.511719-151.660156h128.90625zm0 0" fill="#083863"/></svg>