<svg height="640pt" viewBox="-30 0 640 640" width="640pt" xmlns="http://www.w3.org/2000/svg"><path d="m300.585938 101.449219-15.308594-101.449219h-224.601563c-33.820312 0-60.675781 27.554688-60.675781 61.371094v424.71875c0 33.816406 26.855469 60.8125 60.675781 60.8125h213.054688l153.492187-232.402344v-165.734375zm0 0" fill="#00acea"/><path d="m285.277344.140625 141.527344 148.625h-94.210938c-26.164062 0-47.316406-21.152344-47.316406-47.316406zm0 0" fill="#00efd1"/><g fill="#083863"><path d="m98.527344 346.507812h181.324218c7.652344 0 13.917969-6.257812 13.917969-13.914062 0-7.652344-6.265625-13.917969-13.917969-13.917969h-181.324218c-7.652344 0-13.917969 6.265625-13.917969 13.917969 0 7.65625 6.265625 13.914062 13.917969 13.914062zm0 0"/><path d="m98.527344 276.929688h140.96875c7.652344 0 13.917968-6.261719 13.917968-13.917969 0-7.652344-6.265624-13.914063-13.917968-13.914063h-140.96875c-7.652344 0-13.917969 6.261719-13.917969 13.914063 0 7.65625 6.265625 13.917969 13.917969 13.917969zm0 0"/><path d="m234.066406 389.648438h-135.539062c-7.652344 0-13.917969 6.265624-13.917969 13.914062 0 7.65625 6.265625 13.917969 13.917969 13.917969h135.539062c7.65625 0 13.917969-6.261719 13.917969-13.917969 0-7.648438-6.261719-13.914062-13.917969-13.914062zm0 0"/></g><path d="m426.804688 286.8125c86.28125 12.101562 152.65625 86.136719 152.65625 175.753906 0 97.96875-79.457032 177.433594-177.425782 177.433594-67.351562 0-126.078125-37.574219-156-92.960938-13.636718-25.1875-21.429687-53.992187-21.429687-84.609374 0-97.96875 79.460937-177.429688 177.429687-177.429688 8.351563.140625 16.558594.699219 24.769532 1.8125zm0 0" fill="#fedb41"/><path d="m491.375 366.96875c-2.503906-4.039062-6.957031-6.542969-11.828125-6.542969h-155.582031c-4.867188 0-9.320313 2.503907-11.828125 6.542969l-41.886719 67.210938c-3.339844 5.429687-2.640625 12.246093 1.667969 16.839843l119.679687 126.914063c2.644532 2.785156 6.261719 4.3125 10.160156 4.3125 3.894532 0 7.515626-1.527344 10.15625-4.3125l119.675782-126.914063c4.316406-4.59375 5.011718-11.550781 1.671875-16.839843zm-159.617188 21.289062h15.726563l-7.792969 38.964844h-32.425781zm-17.394531 66.796876h27.277344l20.039063 50.097656zm87.394531 75.566406-30.199218-75.566406h60.671875zm-33.820312-103.398438 7.792969-38.964844h51.769531l8.347656 38.964844zm74.175781 77.792969 20.175781-49.960937h26.996094zm22.402344-77.792969-8.347656-38.964844h15.863281l24.492188 38.964844zm0 0" fill="#083863"/></svg>