<svg height="640pt" viewBox="0 -52 640 640" width="640pt" xmlns="http://www.w3.org/2000/svg"><path d="m253.089844 20.621094 68.394531 86.640625h-174.46875c-31.152344 0-56.371094 25.21875-56.371094 56.371093v371.777344h-34.273437c-31.152344 0-56.371094-25.21875-56.371094-56.378906v-422.660156c0-31.152344 25.21875-56.371094 56.371094-56.371094h153.105468c16.765626 0 32.785157 7.5625 43.613282 20.621094zm0 0" fill="#00efd1"/><path d="m640 160.816406v318.367188c0 31.152344-25.21875 56.371094-56.371094 56.371094h-507.816406v-374.738282c0-31.152344 25.21875-56.371094 56.371094-56.371094h451.445312c31.152344 0 56.371094 25.21875 56.371094 56.371094zm0 0" fill="#00acea"/><path d="m452.625 233.511719c-2.664062-4.300781-7.414062-7.269531-12.605469-7.269531h-165.859375c-5.195312 0-9.941406 2.816406-12.613281 7.269531l-44.652344 71.800781c-3.558593 5.785156-2.816406 13.203125 1.78125 18.101562l127.582031 135.296876c2.820313 2.96875 6.675782 4.601562 10.832032 4.601562 4.152344 0 8.007812-1.632812 10.832031-4.601562l127.582031-135.296876c4.597656-4.898437 5.339844-12.316406 1.78125-18.101562zm-170.304688 22.394531h16.90625l-8.304687 41.546875h-34.714844zm-18.398437 71.210938h29.078125l21.367188 53.410156zm93.167969 80.558593-32.191406-80.558593h64.679687zm-36.050782-110.222656 8.304688-41.539063h55.191406l8.898438 41.539063zm79.074219 82.929687 21.507813-53.265624h28.785156zm23.886719-82.929687-8.902344-41.539063h16.910156l26.113282 41.539063zm0 0" fill="#083863"/></svg>