<svg height="638pt" viewBox="0 -45 638.74973 638" width="638pt" xmlns="http://www.w3.org/2000/svg"><path d="m593.386719 141.355469v65.976562h-541.914063l-5.953125-146.320312c-1.53125-32.992188 24.890625-60.636719 58.039063-60.636719h125.09375c20.308594 0 39.253906 10.691406 49.789062 28.253906l15.886719 26.582032c10.535156 17.5625 29.324219 28.253906 49.789063 28.253906h191.078124c32.074219-.152344 58.191407 25.8125 58.191407 57.890625zm0 0" fill="#00efd1"/><path d="m608.207031 192.0625c18.480469 0 32.835938 16.34375 30.238281 34.671875l-37.417968 272.175781c-3.972656 28.71875-28.5625 50.105469-57.429688 50.105469h-447.832031c-29.019531 0-53.460937-21.386719-57.425781-50.105469l-38.035156-272.175781c-2.59375-18.328125 11.761718-34.824219 30.242187-34.824219h577.660156zm0 0" fill="#00acea"/><path d="m417.738281 265.222656c-2.746093-4.429687-7.636719-7.328125-12.980469-7.328125h-170.761718c-5.34375 0-10.234375 2.898438-12.980469 7.328125l-45.976563 73.929688c-3.667968 5.953125-2.902343 13.589844 1.832032 18.632812l131.355468 139.300782c2.898438 3.050781 6.871094 4.730468 11.148438 4.730468s8.246094-1.679687 11.152344-4.730468l131.355468-139.300782c4.734376-5.042968 5.496094-12.832031 1.832032-18.632812zm-175.34375 23.21875h17.417969l-8.558594 44.292969h-35.742187zm-18.9375 74.84375h29.933594l22 54.984375zm95.917969 82.9375-33.140625-82.9375h66.59375zm-37.113281-113.488281 8.554687-44.292969h56.816406l9.164063 44.292969zm81.410156 85.382813 22.148437-54.832032h29.476563zm24.589844-85.382813-9.164063-44.292969h17.414063l26.878906 44.292969zm0 0" fill="#083863"/></svg>