<svg height="640pt" viewBox="0 -52 640 640" width="640pt" xmlns="http://www.w3.org/2000/svg"><path d="m320.964844 59.28125-61.492188-59.28125h-211.214844l7.855469 219.214844h532.734375v-159.933594zm0 0" fill="#00efd1"/><path d="m536.460938 219.214844v.550781h-432.921876v-105.332031h432.921876zm0 0" fill="#fedb41"/><path d="m640 205.980469-58.042969 329.097656h-523.222656l-58.734375-329.097656zm0 0" fill="#00acea"/><path d="m408.789062 275.46875c-2.480468-4-6.894531-6.621094-11.71875-6.621094h-154.140624c-4.824219 0-9.238282 2.480469-11.71875 6.621094l-41.5 66.589844c-3.308594 5.378906-2.621094 12.273437 1.65625 16.824218l118.570312 125.734376c2.617188 2.761718 6.199219 4.273437 10.0625 4.273437s7.445312-1.511719 10.0625-4.273437l118.570312-125.734376c4.277344-4.550781 4.964844-11.445312 1.65625-16.6875zm-158.277343 20.957031h15.71875l-7.71875 38.601563h-32.265625zm-17.09375 66.175781h27.019531l19.855469 49.632813zm86.582031 74.863282-29.917969-74.863282h60.113281zm-33.5-102.4375 7.71875-38.601563h51.289062l8.269532 38.601563zm73.480469 77.070312 19.996093-49.496094h26.742188zm22.203125-77.070312-8.277344-38.601563h15.71875l24.265625 38.601563zm0 0" fill="#083863"/></svg>