<svg height="640pt" viewBox="-70 0 640 640" width="640pt" xmlns="http://www.w3.org/2000/svg"><path d="m334.457031 0h-262.332031c-39.472656 0-72.125 32.484375-72.125 71.957031v496.085938c0 39.472656 32.652344 71.957031 72.125 71.957031h356.058594c39.472656 0 72.117187-32.484375 72.117187-71.957031v-394.074219zm0 0" fill="#00acea"/><path d="m335.269531.488281 165.199219 173.640625h-109.972656c-30.535156 0-55.226563-24.6875-55.226563-55.222656zm0 0" fill="#00efd1"/><g fill="#083863"><path d="m383.835938 511.675781h-267.371094c-8.929688 0-16.238282 7.308594-16.238282 16.242188 0 8.9375 7.308594 16.246093 16.238282 16.246093h267.535156c8.933594 0 16.242188-7.308593 16.242188-16.246093 0-8.933594-7.308594-16.242188-16.40625-16.242188zm0 0"/><path d="m354.761719 220.589844c-2.921875-4.710938-8.121094-7.796875-13.804688-7.796875h-181.605469c-5.683593 0-10.882812 3.085937-13.808593 7.796875l-48.890625 78.617187c-3.898438 6.335938-3.085938 14.460938 1.945312 19.816407l139.699219 148.144531c3.085937 3.246093 7.308594 5.035156 11.855469 5.035156 4.542968 0 8.769531-1.789063 11.859375-5.035156l139.691406-148.144531c5.035156-5.355469 5.851563-13.644532 1.949219-19.816407zm-186.476563 24.6875h18.515625l-9.09375 47.105468h-38.007812zm-20.144531 79.59375h31.839844l23.390625 58.476562zm102.011719 88.203125-35.25-88.203125h70.824218zm-39.472656-120.6875 9.09375-47.109375h60.429687l9.746094 47.109375zm86.582031 90.800781 23.546875-58.316406h31.355468zm26.152343-90.800781-9.746093-47.109375h18.515625l28.585937 47.109375zm0 0"/></g></svg>