<svg height="638pt" viewBox="-57 0 638 638.75085" width="638pt" xmlns="http://www.w3.org/2000/svg"><path d="m317.5 238.539062-44.925781-121.921874h-214.023438c-32.199219 0-58.175781 26.507812-58.175781 58.707031v404.71875c0 32.203125 25.976562 58.707031 58.175781 58.707031h290.488281c32.203126 0 58.175782-26.503906 58.175782-58.707031v-321.496094zm0 0" fill="#00efd1"/><path d="m377.132812 180.230469-44.925781-121.921875h-214.019531c-32.203125 0-58.175781 26.507812-58.175781 58.707031v404.71875c0 32.203125 25.972656 58.707031 58.175781 58.707031h290.484375c32.203125 0 58.179687-26.503906 58.179687-58.707031v-321.496094zm0 0" fill="#fedb41"/><path d="m435.441406 121.917969-44.925781-121.917969h-214.019531c-32.203125 0-58.175782 26.503906-58.175782 58.707031v404.71875c0 32.203125 25.972657 58.707031 58.175782 58.707031h290.488281c32.199219 0 58.175781-26.503906 58.175781-58.707031v-321.496093zm0 0" fill="#00acea"/><path d="m390.515625.398438 134.777344 141.664062h-89.71875c-24.914063 0-45.058594-20.144531-45.058594-45.054688zm0 0" fill="#00efd1"/><g fill="#083863"><path d="m430.804688 424.066406h-218.128907c-7.292969 0-13.257812 5.960938-13.257812 13.253906 0 7.289063 5.964843 13.25 13.257812 13.25h218.257813c7.292968 0 13.25-5.960937 13.25-13.25 0-7.292968-5.957032-13.253906-13.378906-13.253906zm0 0"/><path d="m321.738281 349.589844c-18.683593 0-33.925781-15.238282-33.925781-33.929688 0-7.285156-5.960938-13.25-13.25-13.25-7.292969 0-13.253906 5.964844-13.253906 13.25 0 28.101563 19.21875 51.6875 45.191406 58.578125v12.855469c0 7.285156 5.960938 13.25 13.25 13.25 7.292969 0 13.25-5.964844 13.25-13.25v-11.929688c27.964844-5.300781 49.167969-29.945312 49.167969-59.367187 0-33.394531-27.167969-60.433594-60.429688-60.433594-18.683593 0-33.925781-15.238281-33.925781-33.921875 0-18.6875 15.238281-33.925781 33.925781-33.925781 18.683594 0 33.921875 15.238281 33.921875 33.925781 0 7.285156 5.96875 13.25 13.257813 13.25 7.285156 0 13.25-5.964844 13.25-13.25 0-29.550781-21.203125-54.070312-49.167969-59.371094v-9.671874c0-7.292969-5.957031-13.25-13.25-13.25-7.289062 0-13.25 5.957031-13.25 13.25v10.335937c-25.972656 6.757813-45.191406 30.480469-45.191406 58.574219 0 33.394531 27.164062 60.429687 60.429687 60.429687 18.683594 0 33.921875 15.238281 33.921875 33.921875 0 18.691406-15.238281 33.929688-33.921875 33.929688zm0 0"/></g></svg>