<svg height="640pt" viewBox="0 -52 640 640" width="640pt" xmlns="http://www.w3.org/2000/svg"><path d="m253.089844 20.621094 68.394531 86.640625h-174.46875c-31.152344 0-56.371094 25.21875-56.371094 56.371093v371.777344h-34.273437c-31.152344 0-56.371094-25.21875-56.371094-56.378906v-422.660156c0-31.152344 25.21875-56.371094 56.371094-56.371094h153.105468c16.765626 0 32.785157 7.5625 43.613282 20.621094zm0 0" fill="#00efd1"/><path d="m640 160.816406v318.367188c0 31.152344-25.21875 56.371094-56.371094 56.371094h-507.816406v-374.738282c0-31.152344 25.21875-56.371094 56.371094-56.371094h451.445312c31.152344 0 56.371094 25.21875 56.371094 56.371094zm0 0" fill="#00acea"/><path d="m349.222656 229.058594c.597656.152344 1.339844.152344 1.929688.152344 1.039062 0 2.082031-.152344 2.96875-.300782 20.472656.589844 36.9375 17.359375 36.9375 37.980469 0 8.15625 6.679687 14.832031 14.839844 14.832031 8.160156 0 14.835937-6.675781 14.835937-14.832031 0-32.9375-23.589844-60.382813-54.742187-66.464844v-9.792969c0-8.15625-6.675782-14.832031-14.839844-14.832031-8.160156 0-14.832032 6.675781-14.832032 14.832031v10.6875c-29.523437 7.414063-51.039062 33.96875-51.039062 65.570313 0 37.382813 30.417969 67.644531 67.652344 67.644531 20.917968 0 37.980468 17.0625 37.980468 37.980469s-17.0625 37.984375-37.980468 37.984375c-20.917969 0-37.976563-17.0625-37.976563-37.984375 0-8.160156-6.675781-14.835937-14.835937-14.835937s-14.839844 6.675781-14.839844 14.835937c0 31.601563 21.664062 58.15625 51.039062 65.574219v15.132812c0 8.160156 6.671876 14.832032 14.832032 14.832032s14.839844-6.671876 14.839844-14.832032v-14.242187c31.152343-6.085938 54.742187-33.527344 54.742187-66.464844 0-37.382813-30.417969-67.648437-67.652344-67.648437-20.917969 0-37.980469-17.058594-37.980469-37.976563-.144531-19.734375 14.839844-35.90625 34.121094-37.832031zm0 0" fill="#083863"/></svg>