<svg height="638pt" viewBox="0 -45 638.74973 638" width="638pt" xmlns="http://www.w3.org/2000/svg"><path d="m593.386719 141.355469v65.976562h-541.914063l-5.953125-146.320312c-1.53125-32.992188 24.890625-60.636719 58.039063-60.636719h125.09375c20.308594 0 39.253906 10.691406 49.789062 28.253906l15.886719 26.582032c10.535156 17.5625 29.324219 28.253906 49.789063 28.253906h191.078124c32.074219-.152344 58.191407 25.8125 58.191407 57.890625zm0 0" fill="#00efd1"/><path d="m608.207031 192.0625c18.480469 0 32.835938 16.34375 30.238281 34.671875l-37.417968 272.175781c-3.972656 28.71875-28.5625 50.105469-57.429688 50.105469h-447.832031c-29.019531 0-53.460937-21.386719-57.425781-50.105469l-38.035156-272.175781c-2.59375-18.328125 11.761718-34.824219 30.242187-34.824219h577.660156zm0 0" fill="#00acea"/><path d="m315.710938 276.066406c.761718.15625 1.375.15625 2.136718.15625 1.070313 0 1.988282-.15625 3.054688-.308594 20.925781.765626 37.730468 18.023438 37.730468 39.105469 0 8.402344 6.871094 15.273438 15.269532 15.273438 8.402344 0 15.273437-6.871094 15.273437-15.273438 0-33.757812-24.132812-61.863281-55.902343-68.277343v-10.230469c0-8.402344-6.871094-15.273438-15.269532-15.273438-8.402344 0-15.273437 6.871094-15.273437 15.273438v10.839843c-30.550781 7.488282-52.851563 34.824219-52.851563 67.667969 0 38.488281 31.3125 69.648438 69.648438 69.648438 21.535156 0 39.105468 17.5625 39.105468 39.097656 0 21.539063-17.566406 39.101563-39.105468 39.101563-21.535156 0-39.097656-17.5625-39.097656-39.101563 0-8.398437-6.875-15.273437-15.277344-15.273437-8.398438 0-15.273438 6.875-15.273438 15.273437 0 32.683594 22.605469 60.027344 52.847656 67.664063v15.425781c0 8.402343 6.875 15.277343 15.277344 15.277343 8.394532 0 15.269532-6.875 15.269532-15.277343v-14.660157c31.921874-6.417968 55.902343-34.671874 55.902343-68.273437 0-38.496094-31.308593-69.648437-69.648437-69.648437-21.535156 0-39.101563-17.5625-39.101563-39.105469-.152343-20.617188 15.121094-37.265625 35.285157-39.101563zm0 0" fill="#083863"/></svg>