<svg height="640pt" viewBox="0 -52 640 640" width="640pt" xmlns="http://www.w3.org/2000/svg"><path d="m320.964844 59.28125-61.492188-59.28125h-211.214844l7.855469 219.214844h532.734375v-159.933594zm0 0" fill="#00efd1"/><path d="m536.460938 219.214844v.550781h-432.921876v-105.332031h432.921876zm0 0" fill="#fedb41"/><path d="m640 205.980469-58.042969 329.097656h-523.222656l-58.734375-329.097656zm0 0" fill="#00acea"/><path d="m315.863281 285.117188c.824219.136718 1.792969.277343 2.757813.277343 1.242187 0 2.34375-.140625 3.449218-.414062 18.472657 1.101562 33.226563 16.542969 33.226563 35.296875 0 7.582031 6.203125 13.785156 13.785156 13.785156s13.789063-6.203125 13.789063-13.785156c0-30.472656-21.78125-55.839844-50.464844-61.628906v-9.101563c0-7.582031-6.199219-13.785156-13.785156-13.785156-7.582032 0-13.789063 6.203125-13.789063 13.785156v9.652344c-27.570312 6.753906-47.699219 31.433593-47.699219 61.078125 0 34.742187 28.261719 62.867187 62.867188 62.867187 19.4375 0 35.296875 15.855469 35.296875 35.296875 0 19.4375-15.855469 35.292969-35.296875 35.292969-19.4375 0-35.292969-15.855469-35.292969-35.292969 0-7.582031-6.207031-13.789062-13.789062-13.789062s-13.789063 6.207031-13.789063 13.789062c0 29.503906 20.40625 54.179688 47.703125 61.074219v14.0625c0 7.582031 6.207031 13.789063 13.789063 13.789063 7.585937 0 13.785156-6.207032 13.785156-13.789063v-13.511719c28.820312-5.789062 50.464844-31.15625 50.464844-61.625 0-34.746094-28.265625-62.871094-62.871094-62.871094-19.4375 0-35.296875-15.855468-35.296875-35.292968 0-18.339844 13.378906-33.089844 31.160156-35.160156zm0 0" fill="#083863"/></svg>