<svg height="640pt" viewBox="-70 0 640 640" width="640pt" xmlns="http://www.w3.org/2000/svg"><path d="m334.457031 0h-262.332031c-39.472656 0-72.125 32.484375-72.125 71.957031v496.085938c0 39.472656 32.652344 71.957031 72.125 71.957031h356.058594c39.472656 0 72.117187-32.484375 72.117187-71.957031v-394.074219zm0 0" fill="#00acea"/><path d="m335.269531.488281 165.199219 173.640625h-109.972656c-30.535156 0-55.226563-24.6875-55.226563-55.222656zm0 0" fill="#00efd1"/><g fill="#083863"><path d="m383.835938 511.675781h-267.371094c-8.929688 0-16.238282 7.308594-16.238282 16.242188 0 8.9375 7.308594 16.246093 16.238282 16.246093h267.535156c8.933594 0 16.242188-7.308593 16.242188-16.246093 0-8.933594-7.308594-16.242188-16.40625-16.242188zm0 0"/><path d="m250.152344 428.503906c-22.902344 0-41.582032-18.675781-41.582032-41.582031 0-8.933594-7.308593-16.242187-16.246093-16.242187-8.933594 0-16.246094 7.308593-16.246094 16.242187 0 34.761719 24.042969 63.839844 56.207031 71.960937v15.59375c0 8.929688 7.308594 16.246094 16.238282 16.246094 8.9375 0 16.246093-7.316406 16.246093-16.246094v-14.78125c33.949219-6.824218 59.453125-36.875 59.453125-72.609374 0-40.933594-33.300781-74.070313-74.070312-74.070313-22.90625 0-41.582032-18.679687-41.582032-41.585937s18.675782-41.582032 41.582032-41.582032c22.902344 0 41.585937 18.675782 41.585937 41.582032 0 8.9375 7.308594 16.246093 16.238281 16.246093 8.9375 0 16.246094-7.308593 16.246094-16.246093 0-35.898438-25.664062-65.785157-59.453125-72.605469v-12.023438c0-8.933593-7.308593-16.246093-16.238281-16.246093-8.9375 0-16.246094 7.3125-16.246094 16.246093v12.34375c-32.324218 7.960938-56.199218 37.199219-56.199218 71.957031 0 40.9375 33.292968 74.074219 74.066406 74.074219 22.902344 0 41.585937 18.679688 41.585937 41.585938 0 23.066406-18.683593 41.742187-41.585937 41.742187zm0 0"/></g></svg>