<svg height="638pt" viewBox="-57 0 638 638.75085" width="638pt" xmlns="http://www.w3.org/2000/svg"><path d="m317.5 238.539062-45.058594-121.921874h-214.019531c-32.203125 0-58.046875 26.507812-58.046875 58.707031v404.71875c0 32.203125 25.84375 58.707031 58.046875 58.707031h290.480469c32.207031 0 58.175781-26.503906 58.175781-58.707031v-321.496094zm0 0" fill="#00efd1"/><path d="m377.132812 180.230469-45.058593-121.921875h-214.019531c-32.203126 0-58.042969 26.507812-58.042969 58.707031v404.71875c0 32.203125 25.839843 58.707031 58.042969 58.707031h290.488281c32.203125 0 58.171875-26.503906 58.171875-58.707031v-321.496094zm0 0" fill="#fedb41"/><path d="m435.441406 121.917969-45.058594-121.917969h-214.019531c-32.203125 0-58.042969 26.503906-58.042969 58.707031v404.71875c0 32.203125 25.839844 58.707031 58.042969 58.707031h290.488281c32.203126 0 58.175782-26.503906 58.175782-58.707031v-321.496093zm0 0" fill="#00acea"/><path d="m390.382812.398438 134.777344 141.664062h-89.71875c-24.914062 0-45.058594-20.144531-45.058594-45.054688zm0 0" fill="#00efd1"/><g fill="#083863"><path d="m432.128906 392.261719h-218.261718c-7.289063 0-13.253907 5.964843-13.253907 13.253906 0 7.285156 5.964844 13.25 13.253907 13.25h218.261718c7.289063 0 13.25-5.964844 13.25-13.25 0-7.289063-5.964844-13.253906-13.25-13.253906zm0 0"/><path d="m313.257812 338.058594c2.515626 2.652344 5.960938 4.242187 9.675782 4.242187 3.707031 0 7.152344-1.589843 9.671875-4.242187l77.523437-83.351563c5.035156-5.300781 4.640625-13.78125-.660156-18.6875-5.304688-5.035156-14.050781-4.636719-19.085938.660157l-54.730468 58.710937v-144.714844c0-7.289062-5.964844-13.25-13.25-13.25-7.289063 0-13.253906 5.960938-13.253906 13.25v144.714844l-54.335938-58.710937c-5.03125-5.296876-13.25-5.695313-18.550781-.660157-5.300781 5.039063-5.566407 13.386719-.664063 18.6875zm0 0"/></g></svg>