<svg height="640pt" viewBox="0 -52 640 640" width="640pt" xmlns="http://www.w3.org/2000/svg"><path d="m253.089844 20.621094 68.394531 86.640625h-174.46875c-31.152344 0-56.371094 25.21875-56.371094 56.371093v371.777344h-34.273437c-31.152344 0-56.371094-25.21875-56.371094-56.378906v-422.660156c0-31.152344 25.21875-56.371094 56.371094-56.371094h153.105468c16.765626 0 32.785157 7.5625 43.613282 20.621094zm0 0" fill="#00efd1"/><path d="m640 160.816406v318.367188c0 31.152344-25.21875 56.371094-56.371094 56.371094h-507.816406v-374.738282c0-31.152344 25.21875-56.371094 56.371094-56.371094h451.445312c31.152344 0 56.371094 25.21875 56.371094 56.371094zm0 0" fill="#00acea"/><path d="m428.890625 317.625-61.414063 65.71875v-162c0-8.160156-6.679687-14.835938-14.839843-14.835938-8.160157 0-14.832031 6.675782-14.832031 14.835938v162.007812l-60.972657-65.726562c-5.640625-5.929688-14.839843-6.378906-20.917969-.742188-5.9375 5.636719-6.230468 14.988282-.742187 20.921876l86.933594 93.3125c2.816406 2.964843 6.824219 4.746093 10.828125 4.746093s8.011718-1.78125 10.832031-4.746093l86.933594-93.3125c5.636719-5.933594 5.195312-15.429688-.890625-20.921876-5.933594-5.636718-15.429688-5.1875-20.917969.742188zm0 0" fill="#083863"/></svg>