<svg height="640pt" viewBox="0 -52 640 640" width="640pt" xmlns="http://www.w3.org/2000/svg"><path d="m320.964844 59.28125-61.492188-59.28125h-211.214844l7.855469 219.214844h532.734375v-159.933594zm0 0" fill="#00efd1"/><path d="m536.460938 219.214844v.550781h-432.921876v-105.332031h432.921876zm0 0" fill="#fedb41"/><path d="m640 205.980469-58.042969 329.097656h-523.222656l-58.734375-329.097656zm0 0" fill="#00acea"/><path d="m390.589844 367.289062-56.800782 61.214844v-150.691406c0-7.582031-6.207031-13.789062-13.789062-13.789062s-13.789062 6.207031-13.789062 13.789062v150.554688l-56.800782-61.078126c-5.242187-5.511718-13.925781-5.925781-19.441406-.6875-5.515625 5.238282-5.925781 13.925782-.6875 19.4375l80.65625 86.722657c2.617188 2.753906 6.199219 4.410156 10.0625 4.410156 3.855469 0 7.445312-1.65625 10.0625-4.410156l80.65625-86.722657c5.238281-5.511718 4.824219-14.335937-.691406-19.4375-5.515625-5.101562-14.199219-4.824218-19.4375.6875zm0 0" fill="#083863"/></svg>