<svg height="638pt" viewBox="-57 0 638 638.75085" width="638pt" xmlns="http://www.w3.org/2000/svg"><path d="m317.5 238.539062-44.925781-121.921874h-214.023438c-32.199219 0-58.175781 26.507812-58.175781 58.707031v404.71875c0 32.203125 25.976562 58.707031 58.175781 58.707031h290.488281c32.203126 0 58.175782-26.503906 58.175782-58.707031v-321.496094zm0 0" fill="#00efd1"/><path d="m377.132812 180.230469-44.925781-121.921875h-214.019531c-32.203125 0-58.175781 26.507812-58.175781 58.707031v404.71875c0 32.203125 25.972656 58.707031 58.175781 58.707031h290.484375c32.203125 0 58.179687-26.503906 58.179687-58.707031v-321.496094zm0 0" fill="#fedb41"/><path d="m435.441406 121.917969-44.925781-121.917969h-214.019531c-32.203125 0-58.175782 26.503906-58.175782 58.707031v404.71875c0 32.203125 25.972657 58.707031 58.175782 58.707031h290.488281c32.199219 0 58.175781-26.503906 58.175781-58.707031v-321.496093zm0 0" fill="#00acea"/><path d="m390.515625.398438 134.777344 141.664062h-89.71875c-24.914063 0-45.058594-20.144531-45.058594-45.054688zm0 0" fill="#00efd1"/><g fill="#083863"><path d="m430.804688 424.066406h-218.128907c-7.292969 0-13.257812 5.960938-13.257812 13.253906 0 7.289063 5.964843 13.25 13.257812 13.25h218.257813c7.292968 0 13.25-5.960937 13.25-13.25 0-7.292968-5.957032-13.253906-13.378906-13.253906zm0 0"/><path d="m231.621094 377.683594c1.328125 0 2.652344-.261719 3.976562-.660156l75.273438-23.726563c1.988281-.660156 3.839844-1.71875 5.433594-3.3125l118.207031-118.605469c5.171875-5.164062 5.171875-13.519531 0-18.683594l-51.148438-51.15625c-5.171875-5.164062-13.519531-5.164062-18.691406 0l-118.605469 118.210938c-1.457031 1.457031-2.644531 3.316406-3.308594 5.433594l-23.855468 75.273437c-1.457032 4.769531-.265625 9.804688 3.316406 13.382813 2.511719 2.519531 5.957031 3.84375 9.402344 3.84375zm29.820312-63.742188 20.671875 20.671875-30.214843 9.542969zm112.511719-124.300781 32.464844 32.464844-99.523438 99.789062-32.734375-32.734375zm0 0"/></g></svg>