<svg height="638pt" viewBox="0 -45 638.74973 638" width="638pt" xmlns="http://www.w3.org/2000/svg"><path d="m593.386719 141.355469v65.976562h-541.914063l-5.953125-146.320312c-1.53125-32.992188 24.890625-60.636719 58.039063-60.636719h125.09375c20.308594 0 39.253906 10.691406 49.789062 28.253906l15.886719 26.582032c10.535156 17.5625 29.324219 28.253906 49.789063 28.253906h191.078124c32.074219-.152344 58.191407 25.8125 58.191407 57.890625zm0 0" fill="#00efd1"/><path d="m608.207031 192.0625c18.480469 0 32.835938 16.34375 30.238281 34.671875l-37.417968 272.175781c-3.972656 28.71875-28.5625 50.105469-57.429688 50.105469h-447.832031c-29.019531 0-53.460937-21.386719-57.425781-50.105469l-38.035156-272.175781c-2.59375-18.328125 11.761718-34.824219 30.242187-34.824219h577.660156zm0 0" fill="#00acea"/><path d="m449.355469 302.953125-58.957031-58.957031c-5.953126-5.960938-15.578126-5.960938-21.535157 0l-136.699219 136.242187c-1.679687 1.675781-3.054687 3.816407-3.820312 6.261719l-27.496094 86.753906c-1.675781 5.496094-.300781 11.300782 3.820313 15.429688 2.902343 2.898437 6.871093 4.425781 10.84375 4.425781 1.53125 0 3.054687-.304687 4.582031-.761719l86.757812-27.34375c2.292969-.765625 4.429688-1.984375 6.261719-3.816406l136.242188-136.707031c5.957031-5.949219 5.957031-15.574219 0-21.527344zm-199.476563 116.691406 23.832032 23.824219-34.828126 11zm52.394532 9.160157-37.730469-37.722657 115.015625-114.707031 37.421875 37.421875zm0 0" fill="#083863"/></svg>