<svg height="640pt" viewBox="0 -52 640 640" width="640pt" xmlns="http://www.w3.org/2000/svg"><path d="m320.964844 59.28125-61.492188-59.28125h-211.214844l7.855469 219.214844h532.734375v-159.933594zm0 0" fill="#00efd1"/><path d="m536.460938 219.214844v.550781h-432.921876v-105.332031h432.921876zm0 0" fill="#fedb41"/><path d="m640 205.980469-58.042969 329.097656h-523.222656l-58.734375-329.097656zm0 0" fill="#00acea"/><path d="m384.109375 256.167969c-5.375-5.382813-14.0625-5.382813-19.441406 0l-123.53125 122.976562c-1.519531 1.519531-2.757813 3.449219-3.445313 5.65625l-24.679687 78.308594c-1.519531 4.960937-.277344 10.199219 3.449219 13.925781 2.617187 2.617188 6.199218 4 9.785156 4 1.378906 0 2.757812-.277344 4.132812-.695312l78.316406-24.675782c2.066407-.6875 3.996094-1.792968 5.648438-3.449218l122.984375-123.390625c5.375-5.378907 5.375-14.0625 0-19.445313zm-126.839844 158.546875 21.507813 21.511718-31.433594 9.925782zm47.289063 8.273437-34.054688-34.054687 103.816406-103.539063 33.78125 33.773438zm0 0" fill="#083863"/></svg>