<svg height="638pt" viewBox="-57 0 638 638.75085" width="638pt" xmlns="http://www.w3.org/2000/svg"><path d="m317.5 238.539062-44.925781-121.921874h-214.023438c-32.199219 0-58.175781 26.507812-58.175781 58.707031v404.71875c0 32.203125 25.976562 58.707031 58.175781 58.707031h290.488281c32.203126 0 58.175782-26.503906 58.175782-58.707031v-321.496094zm0 0" fill="#00efd1"/><path d="m377.132812 180.230469-44.925781-121.921875h-214.019531c-32.203125 0-58.175781 26.507812-58.175781 58.707031v404.71875c0 32.203125 25.972656 58.707031 58.175781 58.707031h290.484375c32.203125 0 58.179687-26.503906 58.179687-58.707031v-321.496094zm0 0" fill="#fedb41"/><path d="m435.441406 121.917969-44.925781-121.917969h-214.019531c-32.203125 0-58.175782 26.503906-58.175782 58.707031v404.71875c0 32.203125 25.972657 58.707031 58.175782 58.707031h290.488281c32.199219 0 58.175781-26.503906 58.175781-58.707031v-321.496093zm0 0" fill="#00acea"/><path d="m390.515625.398438 134.777344 141.664062h-89.71875c-24.914063 0-45.058594-20.144531-45.058594-45.054688zm0 0" fill="#00efd1"/><g fill="#083863"><path d="m430.804688 424.066406h-218.128907c-7.292969 0-13.257812 5.960938-13.257812 13.253906 0 7.289063 5.964843 13.25 13.257812 13.25h218.257813c7.292968 0 13.25-5.960937 13.25-13.25 0-7.292968-5.957032-13.253906-13.378906-13.253906zm0 0"/><path d="m225.664062 299.496094c0 7.292968 5.957032 13.25 13.25 13.25h18.949219c5.167969 14.714844 13.515625 27.964844 24.652344 39.09375 19.875 19.878906 46.515625 30.484375 73.546875 30.484375 12.585938 0 25.179688-2.253907 37.367188-6.890625 6.890624-2.652344 10.203124-10.335938 7.554687-17.097656-2.648437-6.890626-10.335937-10.203126-17.089844-7.550782-28.628906 10.996094-61.097656 4.105469-82.695312-17.496094-5.964844-5.960937-10.867188-12.851562-14.578125-20.273437h76.863281c7.285156 0 13.25-5.964844 13.25-13.253906 0-7.285157-5.964844-13.25-13.25-13.25h-84.550781c-.394532-4.371094-.527344-8.878907-.265625-13.253907h94.089843c7.289063 0 13.253907-5.964843 13.253907-13.253906 0-7.285156-5.964844-13.25-13.253907-13.25h-87.460937c3.839844-8.480468 9.140625-16.300781 15.902344-22.925781 21.597656-21.601563 54.066406-28.492187 82.695312-17.492187 6.890625 2.648437 14.441407-.796876 17.089844-7.554688 2.648437-6.890625-.796875-14.445312-7.554687-17.09375-38.292969-14.710938-81.894532-5.566406-110.914063 23.453125-11.800781 11.796875-20.410156 26.105469-25.445313 41.746094h-18.15625c-7.285156 0-13.25 5.964843-13.25 13.253906 0 7.285156 5.964844 13.25 13.25 13.25h13.25c-.265624 4.371094-.132812 8.878906.136719 13.25h-13.386719c-7.292968-.394531-13.25 5.566406-13.25 12.855469zm0 0"/></g></svg>