<svg height="640pt" viewBox="-30 0 640 640" width="640pt" xmlns="http://www.w3.org/2000/svg"><path d="m300.585938 101.449219-15.308594-101.449219h-224.601563c-33.820312 0-60.675781 27.554688-60.675781 61.371094v424.71875c0 33.816406 26.855469 60.8125 60.675781 60.8125h213.054688l153.492187-232.402344v-165.734375zm0 0" fill="#00acea"/><path d="m285.277344.140625 141.527344 148.625h-94.210938c-26.164062 0-47.316406-21.152344-47.316406-47.316406zm0 0" fill="#00efd1"/><g fill="#083863"><path d="m279.851562 318.675781h-181.324218c-7.652344 0-13.917969 6.265625-13.917969 13.917969 0 7.65625 6.265625 13.914062 13.917969 13.914062h181.324218c7.652344 0 13.917969-6.257812 13.917969-13.914062 0-7.652344-6.121093-13.917969-13.917969-13.917969zm0 0"/><path d="m98.527344 276.929688h140.96875c7.652344 0 13.917968-6.261719 13.917968-13.917969 0-7.652344-6.265624-13.914063-13.917968-13.914063h-140.96875c-7.652344 0-13.917969 6.261719-13.917969 13.914063 0 7.65625 6.265625 13.917969 13.917969 13.917969zm0 0"/><path d="m234.066406 389.648438h-135.539062c-7.652344 0-13.917969 6.265624-13.917969 13.914062 0 7.65625 6.265625 13.917969 13.917969 13.917969h135.539062c7.65625 0 13.917969-6.261719 13.917969-13.917969 0-7.648438-6.261719-13.914062-13.917969-13.914062zm0 0"/></g><path d="m426.804688 286.8125c86.28125 12.101562 152.65625 86.136719 152.65625 175.753906 0 97.96875-79.457032 177.433594-177.425782 177.433594-67.351562 0-126.078125-37.574219-156-92.960938-13.636718-25.1875-21.429687-53.992187-21.429687-84.609374 0-97.96875 79.460937-177.429688 177.429687-177.429688 8.351563.140625 16.558594.699219 24.769532 1.8125zm0 0" fill="#fedb41"/><path d="m464.238281 387.144531c7.234375 2.78125 15.171875-.835937 17.953125-7.929687 2.785156-7.238282-.835937-15.171875-7.933594-17.957032-40.355468-15.441406-86-5.84375-116.476562 24.773438-12.523438 12.523438-21.570312 27.550781-26.859375 44.25h-17.8125c-7.648437 0-13.914063 6.265625-13.914063 13.921875 0 7.652344 6.265626 13.917969 13.914063 13.917969h12.804687c-.28125 4.589844-.136718 9.320312.277344 13.914062h-13.082031c-7.648437 0-13.914063 6.261719-13.914063 13.917969 0 7.648437 6.265626 13.914063 13.914063 13.914063h18.925781c5.429688 15.167968 14.199219 29.082031 25.746094 40.636718 20.875 20.871094 48.847656 32.003906 77.234375 32.003906 13.222656 0 26.445313-2.367187 39.246094-7.234374 7.230469-2.785157 10.714843-10.855469 7.929687-17.953126-2.78125-7.238281-10.855468-10.714843-17.949218-7.929687-30.058594 11.546875-64.15625 4.308594-86.839844-18.371094-6.125-6.121093-11.269532-13.222656-15.167969-21.015625h81.6875c7.65625 0 13.917969-6.257812 13.917969-13.914062 0-7.652344-6.261719-13.917969-13.917969-13.917969h-89.898437c-.558594-4.589844-.558594-9.320313-.277344-13.914063h99.914062c7.65625 0 13.917969-6.261718 13.917969-13.917968 0-7.652344-6.261719-13.914063-13.917969-13.914063h-93.09375c4.03125-9.050781 9.742188-17.398437 16.835938-24.492187 22.683594-23.242188 56.777344-30.480469 86.835937-18.789063zm0 0" fill="#083863"/></svg>