<svg height="640pt" viewBox="0 -52 640 640" width="640pt" xmlns="http://www.w3.org/2000/svg"><path d="m253.089844 20.621094 68.394531 86.640625h-174.46875c-31.152344 0-56.371094 25.21875-56.371094 56.371093v371.777344h-34.273437c-31.152344 0-56.371094-25.21875-56.371094-56.378906v-422.660156c0-31.152344 25.21875-56.371094 56.371094-56.371094h153.105468c16.765626 0 32.785157 7.5625 43.613282 20.621094zm0 0" fill="#00efd1"/><path d="m640 160.816406v318.367188c0 31.152344-25.21875 56.371094-56.371094 56.371094h-507.816406v-374.738282c0-31.152344 25.21875-56.371094 56.371094-56.371094h451.445312c31.152344 0 56.371094 25.21875 56.371094 56.371094zm0 0" fill="#00acea"/><path d="m386.609375 240.1875c7.71875 2.96875 16.171875-.890625 19.136719-8.460938 2.96875-7.710937-.886719-16.171874-8.457032-19.132812-42.871093-16.46875-91.679687-6.230469-124.167968 26.253906-13.203125 13.207032-22.847656 29.230469-28.480469 46.734375h-19.585937c-8.160157 0-14.835938 6.675781-14.835938 14.832031 0 8.164063 6.675781 14.839844 14.835938 14.839844h14.089843c-.296875 4.894532-.144531 9.9375.152344 14.832032h-14.242187c-8.160157 0-14.835938 6.675781-14.835938 14.835937s6.675781 14.839844 14.835938 14.839844h20.472656c5.785156 16.464843 15.132812 31.300781 27.59375 43.761719 22.25 22.253906 52.070312 34.125 82.339844 34.125 14.089843 0 28.179687-2.527344 41.828124-7.71875 7.714844-2.96875 11.425782-11.570313 8.457032-19.132813-2.964844-7.714844-11.570313-11.425781-19.136719-8.457031-32.042969 12.308594-68.390625 4.597656-92.570313-19.585938-6.675781-6.675781-12.164062-14.390625-16.320312-22.695312h86.789062c8.15625 0 14.832032-6.679688 14.832032-14.839844 0-8.15625-6.675782-14.832031-14.832032-14.832031h-95.390624c-.449219-4.898438-.597657-9.941407-.296876-14.835938h106.066407c8.164062 0 14.839843-6.679687 14.839843-14.839843 0-8.15625-6.675781-14.832032-14.839843-14.832032h-98.652344c4.304687-9.496094 10.242187-18.246094 17.804687-25.664062 24.179688-24.628906 60.527344-32.34375 92.570313-20.027344zm0 0" fill="#083863"/></svg>