<svg height="638pt" viewBox="0 -45 638.74973 638" width="638pt" xmlns="http://www.w3.org/2000/svg"><path d="m593.386719 141.355469v65.976562h-541.914063l-5.953125-146.320312c-1.53125-32.992188 24.890625-60.636719 58.039063-60.636719h125.09375c20.308594 0 39.253906 10.691406 49.789062 28.253906l15.886719 26.582032c10.535156 17.5625 29.324219 28.253906 49.789063 28.253906h191.078124c32.074219-.152344 58.191407 25.8125 58.191407 57.890625zm0 0" fill="#00efd1"/><path d="m608.207031 192.0625c18.480469 0 32.835938 16.34375 30.238281 34.671875l-37.417968 272.175781c-3.972656 28.71875-28.5625 50.105469-57.429688 50.105469h-447.832031c-29.019531 0-53.460937-21.386719-57.425781-50.105469l-38.035156-272.175781c-2.59375-18.328125 11.761718-34.824219 30.242187-34.824219h577.660156zm0 0" fill="#00acea"/><path d="m387.957031 287.523438c7.941407 3.054687 16.648438-.917969 19.703125-8.703126 3.050782-7.945312-.914062-16.652343-8.707031-19.707031-44.144531-16.957031-94.390625-6.414062-127.839844 27.035157-13.597656 13.59375-23.523437 30.089843-29.328125 48.113281h-20.160156c-8.402344 0-15.273438 6.871093-15.273438 15.273437s6.871094 15.273438 15.273438 15.273438h14.507812c-.304687 5.042968-.152343 10.234375.15625 15.273437h-14.664062c-8.402344 0-15.273438 6.875-15.273438 15.277344s6.871094 15.273437 15.273438 15.273437h21.074219c5.957031 16.953126 15.582031 32.226563 28.414062 45.058594 22.90625 22.910156 53.609375 35.128906 84.769531 35.128906 14.507813 0 29.019532-2.59375 43.070313-7.941406 7.941406-3.054687 11.757813-11.914062 8.707031-19.703125-3.054687-7.941406-11.914062-11.765625-19.703125-8.707031-32.992187 12.675781-70.414062 4.734375-95.308593-20.164062-6.871094-6.871094-12.527344-14.8125-16.804688-23.367188h89.351562c8.402344 0 15.277344-6.875 15.277344-15.277344 0-8.394531-6.875-15.273437-15.277344-15.273437h-98.210937c-.457031-5.035157-.609375-10.230469-.300781-15.269531h109.203125c8.402343 0 15.273437-6.871094 15.273437-15.273438s-6.871094-15.277344-15.273437-15.277344h-101.566407c4.429688-9.773437 10.539063-18.789062 18.328126-26.425781 24.894531-25.355469 62.316406-33.292969 95.308593-20.617187zm0 0" fill="#083863"/></svg>