<svg height="640pt" viewBox="0 -52 640 640" width="640pt" xmlns="http://www.w3.org/2000/svg"><path d="m320.964844 59.28125-61.492188-59.28125h-211.214844l7.855469 219.214844h532.734375v-159.933594zm0 0" fill="#00efd1"/><path d="m536.460938 219.214844v.550781h-432.921876v-105.332031h432.921876zm0 0" fill="#fedb41"/><path d="m640 205.980469-58.042969 329.097656h-523.222656l-58.734375-329.097656zm0 0" fill="#00acea"/><path d="m381.902344 295.457031c7.167968 2.761719 15.03125-.824219 17.785156-7.859375 2.757812-7.167968-.824219-15.023437-7.855469-17.785156-39.84375-15.300781-85.207031-5.789062-115.402343 24.542969-12.269532 12.269531-21.367188 27.164062-26.605469 43.570312h-18.0625c-7.582031 0-13.789063 6.199219-13.789063 13.78125 0 7.585938 6.207032 13.789063 13.789063 13.789063h13.097656c-.273437 4.550781-.136719 9.238281.140625 13.789062h-13.238281c-7.582031 0-13.789063 6.203125-13.789063 13.785156 0 7.582032 6.207032 13.789063 13.789063 13.789063h19.023437c5.382813 15.167969 14.066406 28.957031 25.507813 40.394531 20.683593 20.679688 48.394531 31.710938 76.519531 31.710938 13.101562 0 26.195312-2.34375 38.882812-7.167969 7.167969-2.757813 10.613282-10.753906 7.855469-17.785156-2.753906-7.171875-10.753906-10.613281-17.785156-7.859375-29.777344 11.445312-63.558594 4.277344-86.035156-18.199219-6.199219-6.207031-11.300781-13.238281-15.164063-20.957031h80.796875c7.582031 0 13.78125-6.199219 13.78125-13.785156 0-7.582032-6.199219-13.789063-13.78125-13.789063h-88.652343c-.417969-4.550781-.554688-9.238281-.28125-13.789063h98.582031c7.582031 0 13.789062-6.199218 13.789062-13.78125 0-7.585937-6.207031-13.789062-13.789062-13.789062h-91.824219c4-8.960938 9.65625-17.097656 16.6875-24.128906 22.46875-22.746094 56.25-29.921875 86.027344-18.476563zm0 0" fill="#083863"/></svg>