<svg height="640pt" viewBox="-70 0 640 640" width="640pt" xmlns="http://www.w3.org/2000/svg"><path d="m334.457031 0h-262.332031c-39.472656 0-72.125 32.484375-72.125 71.957031v496.085938c0 39.472656 32.652344 71.957031 72.125 71.957031h356.058594c39.472656 0 72.117187-32.484375 72.117187-71.957031v-394.074219zm0 0" fill="#00acea"/><path d="m335.269531.488281 165.199219 173.640625h-109.972656c-30.535156 0-55.226563-24.6875-55.226563-55.222656zm0 0" fill="#00efd1"/><g fill="#083863"><path d="m383.835938 511.675781h-267.371094c-8.929688 0-16.238282 7.308594-16.238282 16.242188 0 8.9375 7.308594 16.246093 16.238282 16.246093h267.535156c8.933594 0 16.242188-7.308593 16.242188-16.246093 0-8.933594-7.308594-16.242188-16.40625-16.242188zm0 0"/><path d="m133.199219 367.109375c0 8.929687 7.308593 16.238281 16.246093 16.238281h22.414063c6.335937 18.035156 16.570313 34.277344 30.210937 47.921875 24.367188 24.363281 57.015626 37.363281 90.152344 37.363281 15.433594 0 30.863282-2.765624 45.808594-8.449218 8.449219-3.25 12.503906-12.667969 9.257812-20.957032-3.246093-8.445312-12.671874-12.503906-20.953124-9.257812-35.085938 13.484375-74.886719 5.035156-101.359376-21.4375-7.308593-7.3125-13.320312-15.757812-17.871093-24.855469h95.027343c8.929688 0 16.242188-7.308593 16.242188-16.246093 0-8.933594-7.3125-16.242188-16.242188-16.242188h-104.445312c-.488281-5.359375-.652344-10.886719-.328125-16.242188h116.140625c8.9375 0 16.246094-7.308593 16.246094-16.246093 0-8.933594-7.308594-16.242188-16.246094-16.242188h-108.015625c4.707031-10.398437 11.207031-19.980469 19.492187-28.101562 26.472657-26.480469 66.273438-34.921875 101.359376-21.441407 8.445312 3.246094 17.707031-.976562 20.953124-9.261718 3.246094-8.441406-.976562-17.707032-9.257812-20.953125-46.941406-18.03125-100.382812-6.820313-135.960938 28.75-14.457031 14.457031-25.015624 32.003906-31.1875 51.167969h-21.4375c-8.9375 0-16.246093 7.3125-16.246093 16.246093 0 8.933594 7.308593 16.242188 16.246093 16.242188h15.429688c-.328125 5.363281-.164062 10.886719.160156 16.246093h-15.589844c-8.9375-.488281-16.246093 6.820313-16.246093 15.757813zm0 0"/></g></svg>