<svg height="638pt" viewBox="-57 0 638 638.75085" width="638pt" xmlns="http://www.w3.org/2000/svg"><path d="m317.5 238.539062-44.925781-121.921874h-214.023438c-32.199219 0-58.175781 26.507812-58.175781 58.707031v404.71875c0 32.203125 25.976562 58.707031 58.175781 58.707031h290.488281c32.203126 0 58.175782-26.503906 58.175782-58.707031v-321.496094zm0 0" fill="#00efd1"/><path d="m377.132812 180.230469-44.925781-121.921875h-214.019531c-32.203125 0-58.175781 26.507812-58.175781 58.707031v404.71875c0 32.203125 25.972656 58.707031 58.175781 58.707031h290.484375c32.203125 0 58.179687-26.503906 58.179687-58.707031v-321.496094zm0 0" fill="#fedb41"/><path d="m435.441406 121.917969-44.925781-121.917969h-214.019531c-32.203125 0-58.175782 26.503906-58.175782 58.707031v404.71875c0 32.203125 25.972657 58.707031 58.175782 58.707031h290.488281c32.199219 0 58.175781-26.503906 58.175781-58.707031v-321.496093zm0 0" fill="#00acea"/><path d="m390.515625.398438 134.777344 141.664062h-89.71875c-24.914063 0-45.058594-20.144531-45.058594-45.054688zm0 0" fill="#00efd1"/><g fill="#083863"><path d="m430.804688 424.066406h-218.128907c-7.292969 0-13.257812 5.960938-13.257812 13.253906 0 7.289063 5.964843 13.25 13.257812 13.25h218.257813c7.292968 0 13.25-5.960937 13.25-13.25 0-7.292968-5.957032-13.253906-13.378906-13.253906zm0 0"/><path d="m442.597656 225.152344-75.273437-10.996094-33.660157-68.25c-2.25-4.507812-6.890624-7.421875-11.925781-7.421875-5.039062 0-9.671875 2.914063-11.929687 7.421875l-33.660156 68.25-75.273438 10.996094c-5.03125.664062-9.140625 4.242187-10.730469 9.015625-1.59375 4.769531-.265625 10.066406 3.316407 13.648437l54.460937 53.136719-12.855469 75.011719c-.792968 5.035156 1.195313 9.9375 5.304688 12.988281 4.105468 2.914063 9.539062 3.308594 13.910156 1.054687l67.320312-35.382812 67.320313 35.382812c1.988281 1.0625 4.109375 1.457032 6.234375 1.457032 2.78125 0 5.429688-.792969 7.816406-2.511719 4.105469-2.921875 6.097656-7.953125 5.300782-12.988281l-12.855469-75.011719 54.464843-53.136719c3.582032-3.582031 4.90625-8.746094 3.3125-13.648437-1.453124-4.773438-5.566406-8.21875-10.597656-9.015625zm-70.632812 61.621094c-3.183594 3.050781-4.503906 7.421874-3.839844 11.796874l9.535156 55.390626-49.824218-26.105469c-3.84375-1.988281-8.484376-1.988281-12.324219 0l-49.828125 26.105469 9.539062-55.390626c.796875-4.242187-.660156-8.746093-3.839844-11.796874l-40.285156-39.226563 55.65625-8.082031c4.371094-.664063 8.085938-3.316406 9.9375-7.285156l24.917969-50.363282 24.910156 50.363282c1.988281 3.96875 5.703125 6.621093 9.941407 7.285156l55.65625 8.082031zm0 0"/></g></svg>