<svg height="640pt" viewBox="-30 0 640 640" width="640pt" xmlns="http://www.w3.org/2000/svg"><path d="m300.585938 101.449219-15.308594-101.449219h-224.601563c-33.820312 0-60.675781 27.554688-60.675781 61.371094v424.71875c0 33.816406 26.855469 60.8125 60.675781 60.8125h213.054688l153.492187-232.402344v-165.734375zm0 0" fill="#00acea"/><path d="m285.277344.140625 141.527344 148.625h-94.210938c-26.164062 0-47.316406-21.152344-47.316406-47.316406zm0 0" fill="#00efd1"/><g fill="#083863"><path d="m98.527344 346.507812h181.324218c7.652344 0 13.917969-6.257812 13.917969-13.914062 0-7.652344-6.265625-13.917969-13.917969-13.917969h-181.324218c-7.652344 0-13.917969 6.265625-13.917969 13.917969 0 7.65625 6.265625 13.914062 13.917969 13.914062zm0 0"/><path d="m98.527344 276.929688h140.96875c7.652344 0 13.917968-6.261719 13.917968-13.917969 0-7.652344-6.265624-13.914063-13.917968-13.914063h-140.96875c-7.652344 0-13.917969 6.261719-13.917969 13.914063 0 7.65625 6.265625 13.917969 13.917969 13.917969zm0 0"/><path d="m234.066406 389.648438h-135.539062c-7.652344 0-13.917969 6.265624-13.917969 13.914062 0 7.65625 6.265625 13.917969 13.917969 13.917969h135.539062c7.65625 0 13.917969-6.261719 13.917969-13.917969 0-7.648438-6.261719-13.914062-13.917969-13.914062zm0 0"/></g><path d="m426.804688 286.8125c86.28125 12.101562 152.65625 86.136719 152.65625 175.753906 0 97.96875-79.457032 177.433594-177.425782 177.433594-67.351562 0-126.078125-37.574219-156-92.960938-13.636718-25.1875-21.429687-53.992187-21.429687-84.609374 0-97.96875 79.460937-177.429688 177.429687-177.429688 8.351563.140625 16.558594.699219 24.769532 1.8125zm0 0" fill="#fedb41"/><path d="m528.671875 414.28125-79.042969-11.550781-35.347656-71.667969c-2.367188-4.730469-7.234375-7.792969-12.523438-7.792969-5.289062 0-10.160156 3.0625-12.523437 7.792969l-35.351563 71.667969-79.042968 11.550781c-5.289063.695312-9.601563 4.453125-11.269532 9.464844-1.671874 5.007812-.277343 10.574218 3.476563 14.335937l57.195313 55.800781-13.5 78.761719c-.835938 5.289063 1.253906 10.441407 5.566406 13.640625 2.367187 1.808594 5.289062 2.644532 8.210937 2.644532 2.226563 0 4.453125-.5625 6.539063-1.53125l70.695312-37.160157 70.691406 37.160157c4.730469 2.503906 10.441407 2.089843 14.613282-1.113282 4.3125-3.0625 6.402344-8.351562 5.566406-13.640625l-13.5-78.761719 57.199219-55.800781c3.753906-3.761719 5.144531-9.191406 3.476562-14.335937-1.53125-5.011719-5.839843-8.769532-11.128906-9.464844zm-74.175781 64.707031c-3.339844 3.203125-4.730469 7.792969-4.03125 12.386719l10.019531 58.171875-52.324219-27.417969c-2.089844-1.109375-4.316406-1.527344-6.542968-1.527344-2.226563 0-4.453126.554688-6.539063 1.527344l-52.1875 27.417969 10.019531-58.171875c.835938-4.453125-.699218-9.183594-4.035156-12.386719l-42.304688-41.191406 58.449219-8.484375c4.589844-.699219 8.484375-3.484375 10.433594-7.65625l26.164063-52.882812 26.160156 52.882812c2.089844 4.171875 5.988281 6.957031 10.441406 7.65625l58.445312 8.484375zm0 0" fill="#083863"/></svg>