<svg height="640pt" viewBox="0 -52 640 640" width="640pt" xmlns="http://www.w3.org/2000/svg"><path d="m253.089844 20.621094 68.394531 86.640625h-174.46875c-31.152344 0-56.371094 25.21875-56.371094 56.371093v371.777344h-34.273437c-31.152344 0-56.371094-25.21875-56.371094-56.378906v-422.660156c0-31.152344 25.21875-56.371094 56.371094-56.371094h153.105468c16.765626 0 32.785157 7.5625 43.613282 20.621094zm0 0" fill="#00efd1"/><path d="m640 160.816406v318.367188c0 31.152344-25.21875 56.371094-56.371094 56.371094h-507.816406v-374.738282c0-31.152344 25.21875-56.371094 56.371094-56.371094h451.445312c31.152344 0 56.371094 25.21875 56.371094 56.371094zm0 0" fill="#00acea"/><path d="m488.382812 269.117188-84.265624-12.316407-37.679688-76.402343c-2.527344-5.042969-7.71875-8.308594-13.355469-8.308594s-10.832031 3.265625-13.351562 8.308594l-37.683594 76.402343-84.265625 12.316407c-5.636719.742187-10.238281 4.746093-12.015625 10.085937-1.78125 5.335937-.296875 11.273437 3.707031 15.28125l60.976563 59.492187-14.390625 83.960938c-.894532 5.640625 1.332031 11.128906 5.933594 14.542969 4.601562 3.261719 10.679687 3.710937 15.578124 1.1875l75.359376-39.609375 75.367187 39.609375c2.226563 1.183593 4.597656 1.628906 6.972656 1.628906 3.113281 0 6.082031-.886719 8.753907-2.816406 4.601562-3.261719 6.820312-8.902344 5.933593-14.542969l-14.390625-83.960938 60.972656-59.492187c4.007813-4.007813 5.488282-9.792969 3.710938-15.28125-1.632812-5.339844-6.378906-9.199219-11.867188-10.085937zm-79.070312 68.984374c-3.566406 3.414063-5.046875 8.304688-4.304688 13.203126l10.679688 62.011718-55.78125-29.222656c-2.226562-1.1875-4.597656-1.636719-6.972656-1.636719-2.371094 0-4.746094.59375-6.972656 1.636719l-55.78125 29.222656 10.683593-62.011718c.890625-4.746094-.742187-9.789063-4.300781-13.203126l-44.804688-43.917968 62.308594-9.046875c4.894532-.742188 9.050782-3.710938 11.125-8.160157l27.890625-56.371093 27.894531 56.371093c2.222657 4.449219 6.375 7.417969 11.125 8.160157l62.308594 9.046875zm0 0" fill="#083863"/></svg>