<svg height="638pt" viewBox="0 -45 638.74973 638" width="638pt" xmlns="http://www.w3.org/2000/svg"><path d="m593.386719 141.355469v65.976562h-541.914063l-5.953125-146.320312c-1.53125-32.992188 24.890625-60.636719 58.039063-60.636719h125.09375c20.308594 0 39.253906 10.691406 49.789062 28.253906l15.886719 26.582032c10.535156 17.5625 29.324219 28.253906 49.789063 28.253906h191.078124c32.074219-.152344 58.191407 25.8125 58.191407 57.890625zm0 0" fill="#00efd1"/><path d="m608.207031 192.0625c18.480469 0 32.835938 16.34375 30.238281 34.671875l-37.417968 272.175781c-3.972656 28.71875-28.5625 50.105469-57.429688 50.105469h-447.832031c-29.019531 0-53.460937-21.386719-57.425781-50.105469l-38.035156-272.175781c-2.59375-18.328125 11.761718-34.824219 30.242187-34.824219h577.660156zm0 0" fill="#00acea"/><path d="m458.675781 317.308594-86.761719-12.679688-38.789062-78.503906c-2.597656-5.195312-7.945312-8.558594-13.75-8.558594-5.800781 0-11.148438 3.363282-13.746094 8.558594l-38.796875 78.660156-86.753906 12.675782c-5.804687.765624-10.539063 4.886718-12.371094 10.382812-1.832031 5.503906-.308593 11.609375 3.8125 15.738281l62.78125 61.246094-14.816406 86.445313c-.917969 5.804687 1.375 11.457031 6.105469 14.972656 4.738281 3.359375 11 3.820312 16.039062 1.222656l77.59375-40.785156 77.589844 40.785156c2.292969 1.21875 4.734375 1.675781 7.179688 1.675781 3.207031 0 6.261718-.914062 9.011718-2.898437 4.734375-3.363282 7.027344-9.160156 6.109375-14.972656l-14.820312-86.445313 62.777343-61.246094c4.125-4.128906 5.652344-10.085937 3.820313-15.738281-1.679687-5.648438-6.410156-9.617188-12.214844-10.535156zm-81.414062 71.023437c-3.664063 3.515625-5.191407 8.550781-4.425781 13.589844l10.996093 63.847656-57.429687-30.089843c-2.292969-1.222657-4.734375-1.679688-7.175782-1.679688-2.445312 0-4.890624.613281-7.183593 1.679688l-57.425781 30.089843 10.992187-63.847656c.917969-4.886719-.757813-10.074219-4.425781-13.589844l-46.429688-45.210937 64.144532-9.316406c5.039062-.765626 9.320312-3.820313 11.457031-8.402344l28.714843-58.039063 28.71875 58.039063c2.289063 4.582031 6.5625 7.636718 11.449219 8.402344l64.152344 9.316406zm0 0" fill="#083863"/></svg>