<svg height="640pt" viewBox="0 -52 640 640" width="640pt" xmlns="http://www.w3.org/2000/svg"><path d="m320.964844 59.28125-61.492188-59.28125h-211.214844l7.855469 219.214844h532.734375v-159.933594zm0 0" fill="#00efd1"/><path d="m536.460938 219.214844v.550781h-432.921876v-105.332031h432.921876zm0 0" fill="#fedb41"/><path d="m640 205.980469-58.042969 329.097656h-523.222656l-58.734375-329.097656zm0 0" fill="#00acea"/><path d="m445.738281 322.34375-78.3125-11.445312-35.019531-71c-2.34375-4.6875-7.167969-7.71875-12.40625-7.71875s-10.0625 3.03125-12.40625 7.71875l-35.019531 71-78.3125 11.445312c-5.238281.6875-9.515625 4.410156-11.167969 9.375s-.277344 10.476562 3.445312 14.199219l56.664063 55.289062-13.371094 78.035157c-.828125 5.238281 1.242188 10.335937 5.515625 13.511718 4.269532 3.03125 9.925782 3.445313 14.476563 1.101563l70.039062-36.808594 70.035157 36.808594c2.070312 1.105469 4.277343 1.515625 6.484374 1.515625 2.894532 0 5.648438-.824219 8.132813-2.617188 4.273437-3.03125 6.339844-8.273437 5.511719-13.511718l-13.371094-78.035157 56.664062-55.289062c3.726563-3.722657 5.101563-9.097657 3.445313-14.199219-1.511719-4.964844-5.789063-8.550781-11.027344-9.375zm-73.488281 64.109375c-3.304688 3.171875-4.6875 7.722656-3.992188 12.273437l9.925782 57.625-51.839844-27.15625c-2.070312-1.105468-4.273438-1.519531-6.480469-1.519531s-4.414062.550781-6.480469 1.519531l-51.566406 27.15625 9.925782-57.625c.824218-4.414062-.6875-9.101562-4-12.273437l-41.90625-40.808594 57.902343-8.414062c4.546875-.6875 8.410157-3.445313 10.339844-7.582031l25.921875-52.386719 25.917969 52.386719c2.070312 4.136718 5.933593 6.894531 10.339843 7.582031l57.90625 8.414062zm0 0" fill="#083863"/></svg>