<svg height="640pt" viewBox="-70 0 640 640" width="640pt" xmlns="http://www.w3.org/2000/svg"><path d="m334.457031 0h-262.332031c-39.472656 0-72.125 32.484375-72.125 71.957031v496.085938c0 39.472656 32.652344 71.957031 72.125 71.957031h356.058594c39.472656 0 72.117187-32.484375 72.117187-71.957031v-394.074219zm0 0" fill="#00acea"/><path d="m335.269531.488281 165.199219 173.640625h-109.972656c-30.535156 0-55.226563-24.6875-55.226563-55.222656zm0 0" fill="#00efd1"/><g fill="#083863"><path d="m383.835938 511.675781h-267.371094c-8.929688 0-16.238282 7.308594-16.238282 16.242188 0 8.9375 7.308594 16.246093 16.238282 16.246093h267.535156c8.933594 0 16.242188-7.308593 16.242188-16.246093 0-8.933594-7.308594-16.242188-16.40625-16.242188zm0 0"/><path d="m398.296875 275.980469-92.265625-13.480469-41.261719-83.496094c-2.757812-5.523437-8.445312-9.097656-14.617187-9.097656s-11.855469 3.574219-14.621094 9.097656l-41.257812 83.65625-92.261719 13.480469c-6.175781.8125-11.210938 5.195313-13.160157 11.046875-1.945312 5.847656-.324218 12.34375 4.0625 16.734375l66.757813 65.136719-15.753906 91.9375c-.972657 6.171875 1.464843 12.183594 6.496093 15.917968 5.035157 3.574219 11.695313 4.0625 17.058594 1.296876l82.519532-43.367188 82.515624 43.367188c2.4375 1.300781 5.035157 1.789062 7.632813 1.789062 3.414063 0 6.660156-.972656 9.585937-3.085938 5.035157-3.574218 7.46875-9.746093 6.5-15.917968l-15.757812-91.9375 66.757812-65.136719c4.390626-4.390625 6.011719-10.722656 4.0625-16.734375-1.949218-6.011719-6.820312-10.234375-12.992187-11.207031zm-86.582031 75.53125c-3.898438 3.738281-5.523438 9.097656-4.707032 14.460937l11.691407 67.894532-61.074219-31.996094c-2.433594-1.300782-5.039062-1.789063-7.632812-1.789063-2.601563 0-5.203126.648438-7.640626 1.789063l-61.070312 31.996094 11.691406-67.894532c.976563-5.203125-.808594-10.722656-4.707031-14.460937l-49.382813-48.078125 68.222657-9.914063c5.359375-.808593 9.910156-4.058593 12.183593-8.929687l30.539063-61.730469 30.539063 61.730469c2.433593 4.871094 6.980468 8.121094 12.179687 8.929687l68.222656 9.914063zm0 0"/></g></svg>