<svg height="638pt" viewBox="-57 0 638 638.75085" width="638pt" xmlns="http://www.w3.org/2000/svg"><path d="m317.5 238.539062-44.925781-121.921874h-214.023438c-32.199219 0-58.175781 26.507812-58.175781 58.707031v404.71875c0 32.203125 25.976562 58.707031 58.175781 58.707031h290.488281c32.203126 0 58.175782-26.503906 58.175782-58.707031v-321.496094zm0 0" fill="#00efd1"/><path d="m377.132812 180.230469-44.925781-121.921875h-214.019531c-32.203125 0-58.175781 26.507812-58.175781 58.707031v404.71875c0 32.203125 25.972656 58.707031 58.175781 58.707031h290.484375c32.203125 0 58.179687-26.503906 58.179687-58.707031v-321.496094zm0 0" fill="#fedb41"/><path d="m435.441406 121.917969-44.925781-121.917969h-214.019531c-32.203125 0-58.175782 26.503906-58.175782 58.707031v404.71875c0 32.203125 25.972657 58.707031 58.175782 58.707031h290.488281c32.199219 0 58.175781-26.503906 58.175781-58.707031v-321.496093zm0 0" fill="#00acea"/><path d="m390.515625.398438 134.777344 141.664062h-89.71875c-24.914063 0-45.058594-20.144531-45.058594-45.054688zm0 0" fill="#00efd1"/><g fill="#083863"><path d="m430.804688 424.066406h-218.128907c-7.292969 0-13.257812 5.960938-13.257812 13.253906 0 7.289063 5.964843 13.25 13.257812 13.25h218.257813c7.292968 0 13.25-5.960937 13.25-13.25 0-7.292968-5.957032-13.253906-13.378906-13.253906zm0 0"/><path d="m232.152344 386.300781c2.390625 1.851563 5.304687 2.78125 8.085937 2.78125 3.976563 0 7.949219-1.722656 10.46875-5.167969l34.058594-44.128906c62.015625-6.757812 111.976563-53.40625 122.445313-115.429687l9.015624-54.464844c.796876-4.636719-1.0625-9.410156-4.640624-12.453125-3.710938-3.050781-8.613282-3.847656-13.117188-2.253906l-45.457031 16.960937c-.132813 0-.132813 0-.265625.136719-4.769532 1.851562-8.613282 5.695312-10.464844 10.46875-.136719.261719-.269531.660156-.402344.925781l-4.105468 12.855469-.925782-1.988281c-1.726562-3.578125-4.773437-6.230469-8.617187-7.15625-3.839844-1.0625-7.816407-.265625-11 1.984375-41.476563 29.417968-62.679688 82.429687-54.863281 135.96875l-32.726563 42.40625c-4.378906 5.699218-3.316406 14.046875 2.511719 18.554687zm88.128906-164.992187 7.949219 17.097656c2.25 4.902344 7.421875 7.949219 12.855469 7.683594 5.433593-.398438 10.074218-3.976563 11.792968-9.140625l13.121094-41.214844 20.40625-7.550781-5.296875 31.933594c-6.757813 40.285156-34.058594 72.488281-70.636719 86.535156l21.601563-27.960938c4.507812-5.832031 3.445312-14.179687-2.382813-18.550781-5.832031-4.507813-14.179687-3.449219-18.550781 2.382813l-23.328125 30.214843c2.386719-27.695312 13.917969-53.136719 32.46875-71.429687zm0 0"/></g></svg>