<svg height="640pt" viewBox="-30 0 640 640" width="640pt" xmlns="http://www.w3.org/2000/svg"><path d="m300.585938 101.449219-15.308594-101.449219h-224.601563c-33.820312 0-60.675781 27.554688-60.675781 61.371094v424.71875c0 33.816406 26.855469 60.8125 60.675781 60.8125h213.054688l153.492187-232.402344v-165.734375zm0 0" fill="#00acea"/><path d="m285.277344.140625 141.527344 148.625h-94.210938c-26.164062 0-47.316406-21.152344-47.316406-47.316406zm0 0" fill="#00efd1"/><g fill="#083863"><path d="m279.992188 318.675781h-181.464844c-7.652344 0-13.917969 6.265625-13.917969 13.917969 0 7.65625 6.265625 13.914062 13.917969 13.914062h181.324218c7.652344 0 13.917969-6.257812 13.917969-13.914062 0-7.652344-6.121093-13.917969-13.777343-13.917969zm0 0"/><path d="m98.527344 276.929688h140.96875c7.652344 0 13.917968-6.261719 13.917968-13.917969 0-7.652344-6.265624-13.914063-13.917968-13.914063h-140.96875c-7.652344 0-13.917969 6.261719-13.917969 13.914063 0 7.65625 6.265625 13.917969 13.917969 13.917969zm0 0"/><path d="m234.066406 389.648438h-135.539062c-7.652344 0-13.917969 6.265624-13.917969 13.914062 0 7.65625 6.265625 13.917969 13.917969 13.917969h135.539062c7.65625 0 13.917969-6.261719 13.917969-13.917969 0-7.648438-6.261719-13.914062-13.917969-13.914062zm0 0"/></g><path d="m426.804688 286.8125c86.28125 12.101562 152.65625 86.136719 152.65625 175.753906 0 97.96875-79.457032 177.433594-177.425782 177.433594-67.351562 0-126.078125-37.574219-156-92.960938-13.636718-25.1875-21.429687-53.992187-21.429687-84.609374 0-97.96875 79.460937-177.429688 177.429687-177.429688 8.351563.140625 16.558594.699219 24.769532 1.8125zm0 0" fill="#fedb41"/><path d="m496.246094 343.03125c-3.898438-3.203125-9.042969-4.039062-13.777344-2.367188l-47.734375 17.8125c-.136719 0-.277344.140626-.277344.140626-5.007812 1.949218-8.90625 5.980468-10.992187 10.992187-.140625.277344-.28125.699219-.417969.976563l-4.316406 13.496093-.972657-2.085937c-1.804687-3.757813-5.007812-6.542969-9.042968-7.515625-4.039063-1.113281-8.210938-.277344-11.550782 2.085937-43.554687 30.894532-65.828124 86.558594-57.613281 142.777344l-34.371093 44.539062c-4.730469 6.121094-3.617188 14.886719 2.503906 19.480469 2.5 1.949219 5.5625 2.921875 8.488281 2.921875 4.175781 0 8.347656-1.808594 10.996094-5.425781l35.761719-46.34375c65.125-7.09375 117.585937-56.078125 128.582031-121.207031l9.464843-57.195313c.976563-5.011719-.972656-10.019531-4.730468-13.082031zm-32.144532 65.542969c-7.101562 42.167969-35.765624 76.121093-74.175781 90.875l22.6875-29.367188c4.730469-6.121093 3.617188-14.886719-2.507812-19.480469-6.121094-4.734374-14.890625-3.621093-19.480469 2.503907l-24.492188 31.726562c2.503907-28.800781 14.472657-55.382812 34.089844-74.726562l8.351563 17.949219c2.367187 5.152343 7.792969 8.351562 13.5 8.074218 5.703125-.417968 10.578125-4.175781 12.382812-9.601562l13.78125-43.28125 21.429688-7.929688zm0 0" fill="#083863"/></svg>