<svg height="640pt" viewBox="0 -52 640 640" width="640pt" xmlns="http://www.w3.org/2000/svg"><path d="m253.089844 20.621094 68.394531 86.640625h-174.46875c-31.152344 0-56.371094 25.21875-56.371094 56.371093v371.777344h-34.273437c-31.152344 0-56.371094-25.21875-56.371094-56.378906v-422.660156c0-31.152344 25.21875-56.371094 56.371094-56.371094h153.105468c16.765626 0 32.785157 7.5625 43.613282 20.621094zm0 0" fill="#00efd1"/><path d="m640 160.816406v318.367188c0 31.152344-25.21875 56.371094-56.371094 56.371094h-507.816406v-374.738282c0-31.152344 25.21875-56.371094 56.371094-56.371094h451.445312c31.152344 0 56.371094 25.21875 56.371094 56.371094zm0 0" fill="#00acea"/><path d="m453.667969 193.15625c-4.15625-3.410156-9.644531-4.304688-14.6875-2.523438l-50.738281 19.136719c-.148438 0-.148438 0-.296876.152344-5.34375 2.074219-9.644531 6.375-11.71875 11.71875-.152343.296875-.296874.742187-.445312 1.039063l-4.601562 14.390624-1.039063-2.226562c-1.929687-4.003906-5.339844-6.972656-9.640625-8.011719-4.304688-1.1875-8.75-.292969-12.3125 2.226563-46.433594 32.933594-70.175781 92.273437-61.421875 152.210937l-36.640625 47.476563c-5.042969 6.527344-3.855469 15.871094 2.667969 20.765625 2.671875 2.082031 5.9375 3.113281 9.050781 3.113281 4.449219 0 8.902344-1.925781 11.71875-5.78125l38.125-49.402344c69.4375-7.5625 125.363281-59.785156 137.082031-129.214844l10.089844-60.976562c.890625-5.339844-1.039063-10.683594-5.191406-14.09375zm-34.121094 70.023438c-7.570313 44.949218-38.125 81.152343-79.074219 96.875l24.179688-31.304688c5.042968-6.523438 3.859375-15.867188-2.667969-20.765625-6.523437-5.046875-15.875-3.859375-20.769531 2.671875l-26.113282 33.820312c2.671876-30.707031 15.429688-59.042968 36.347657-79.667968l8.902343 19.140625c2.519532 5.488281 8.304688 8.902343 14.390626 8.605469 6.082031-.445313 11.273437-4.449219 13.203124-10.242188l14.6875-46.136719 22.84375-8.449219zm0 0" fill="#083863"/></svg>