<svg height="638pt" viewBox="0 -45 638.74973 638" width="638pt" xmlns="http://www.w3.org/2000/svg"><path d="m593.386719 141.355469v65.976562h-541.914063l-5.953125-146.320312c-1.53125-32.992188 24.890625-60.636719 58.039063-60.636719h125.09375c20.308594 0 39.253906 10.691406 49.789062 28.253906l15.886719 26.582032c10.535156 17.5625 29.324219 28.253906 49.789063 28.253906h191.078124c32.074219-.152344 58.191407 25.8125 58.191407 57.890625zm0 0" fill="#00efd1"/><path d="m608.207031 192.0625c18.480469 0 32.835938 16.34375 30.238281 34.671875l-37.417968 272.175781c-3.972656 28.71875-28.5625 50.105469-57.429688 50.105469h-447.832031c-29.019531 0-53.460937-21.386719-57.425781-50.105469l-38.035156-272.175781c-2.59375-18.328125 11.761718-34.824219 30.242187-34.824219h577.660156zm0 0" fill="#00acea"/><path d="m423.085938 239.105469c-4.273438-3.511719-9.925782-4.429688-15.121094-2.59375l-52.390625 19.550781c-.148438 0-.148438 0-.304688.148438-5.5 2.140624-9.929687 6.570312-12.066406 12.066406-.152344.308594-.308594.765625-.457031 1.070312l-4.738282 14.816406-1.066406-2.292968c-1.984375-4.125-5.5-7.179688-9.929687-8.246094-4.429688-1.222656-9.007813-.308594-12.675781 2.289062-47.804688 33.910157-72.246094 95.003907-63.234376 156.710938l-37.722656 48.878906c-5.195312 6.722656-3.972656 16.339844 2.746094 21.378906 2.75 2.140626 6.109375 3.210938 9.3125 3.210938 4.585938 0 9.167969-1.988281 12.074219-5.957031l39.25-50.859375c71.480469-7.792969 129.0625-61.554688 141.128906-133.035156l10.390625-62.777344c.914062-5.347656-1.074219-10.847656-5.195312-14.359375zm-35.285157 72.09375c-7.785156 46.429687-39.253906 83.546875-81.40625 99.734375l24.898438-32.226563c5.1875-6.71875 3.972656-16.339843-2.75-21.382812-6.726563-5.191407-16.34375-3.972657-21.382813 2.746093l-26.886718 34.824219c2.753906-31.609375 15.886718-60.789062 37.421874-82.015625l9.167969 19.703125c2.589844 5.652344 8.550781 9.160157 14.8125 8.859375 6.261719-.457031 11.609375-4.585937 13.59375-10.539062l15.121094-47.5 23.523437-8.710938zm0 0" fill="#083863"/></svg>