<svg height="640pt" viewBox="0 -52 640 640" width="640pt" xmlns="http://www.w3.org/2000/svg"><path d="m320.964844 59.28125-61.492188-59.28125h-211.214844l7.855469 219.214844h532.734375v-159.933594zm0 0" fill="#00efd1"/><path d="m536.460938 219.214844v.550781h-432.921876v-105.332031h432.921876zm0 0" fill="#fedb41"/><path d="m640 205.980469-58.042969 329.097656h-523.222656l-58.734375-329.097656zm0 0" fill="#00acea"/><path d="m413.613281 251.753906c-3.859375-3.167968-8.960937-4-13.648437-2.34375l-47.289063 17.644532c-.136719 0-.277343.140624-.414062.140624-4.960938 1.929688-8.824219 5.929688-10.894531 10.890626-.136719.277343-.273438.695312-.410157.96875l-4.277343 13.371093-.960938-2.070312c-1.792969-3.71875-4.96875-6.480469-8.964844-7.445313-3.996094-1.097656-8.136718-.273437-11.578125 2.070313-43.15625 30.605469-65.214843 85.757812-57.082031 141.597656l-34.050781 44.113281c-4.6875 6.070313-3.589844 14.753906 2.480469 19.304688 2.480468 1.933594 5.511718 2.894531 8.40625 2.894531 4.136718 0 8.273437-1.792969 10.894531-5.375l35.433593-45.914063c64.523438-7.03125 116.5-55.5625 127.394532-120.082031l9.375-56.667969c1.101562-5.101562-.6875-9.925781-4.414063-13.097656zm-31.847656 65.078125c-7.03125 41.769531-35.433594 75.414063-73.484375 90.027344l22.46875-29.089844c4.6875-6.070312 3.589844-14.753906-2.480469-19.304687-6.0625-4.6875-14.75-3.582032-19.300781 2.480468l-24.261719 31.4375c2.480469-28.539062 14.335938-54.875 33.777344-74.039062l8.273437 17.785156c2.34375 5.101563 7.71875 8.269532 13.375 7.996094 5.648438-.414062 10.472657-4.136719 12.269532-9.511719l13.648437-42.878906 21.230469-7.859375zm0 0" fill="#083863"/></svg>