<svg height="640pt" viewBox="-70 0 640 640" width="640pt" xmlns="http://www.w3.org/2000/svg"><path d="m334.457031 0h-262.332031c-39.472656 0-72.125 32.484375-72.125 71.957031v496.085938c0 39.472656 32.652344 71.957031 72.125 71.957031h356.058594c39.472656 0 72.117187-32.484375 72.117187-71.957031v-394.074219zm0 0" fill="#00acea"/><path d="m335.269531.488281 165.199219 173.640625h-109.972656c-30.535156 0-55.226563-24.6875-55.226563-55.222656zm0 0" fill="#00efd1"/><g fill="#083863"><path d="m383.835938 511.675781h-267.371094c-8.929688 0-16.238282 7.308594-16.238282 16.242188 0 8.9375 7.308594 16.246093 16.238282 16.246093h267.535156c8.933594 0 16.242188-7.308593 16.242188-16.246093 0-8.933594-7.308594-16.242188-16.40625-16.242188zm0 0"/><path d="m140.347656 473.5c2.925782 2.277344 6.492188 3.414062 9.90625 3.414062 4.875 0 9.746094-2.113281 12.832032-6.332031l41.75-54.09375c76.019531-8.285156 137.253906-65.464843 150.085937-141.484375l11.050781-66.761718c.96875-5.683594-1.304687-11.527344-5.691406-15.269532-4.542969-3.734375-10.554688-4.707031-16.078125-2.757812l-55.71875 20.789062c-.160156 0-.160156 0-.320313.164063-5.851562 2.273437-10.5625 6.984375-12.832031 12.835937-.167969.320313-.328125.808594-.488281 1.132813l-5.039062 15.757812-1.132813-2.4375c-2.113281-4.386719-5.851563-7.632812-10.5625-8.769531-4.707031-1.300781-9.585937-.328125-13.480469 2.4375-50.839844 36.058594-76.832031 101.035156-67.246094 166.660156l-40.121093 51.976563c-5.363281 6.980469-4.0625 17.214843 3.085937 22.738281zm108.015625-202.230469 9.746094 20.953125c2.765625 6.007813 9.097656 9.746094 15.757813 9.421875 6.660156-.488281 12.34375-4.871093 14.457031-11.210937l16.078125-50.511719 25.019531-9.261719-6.496094 39.148438c-8.289062 49.378906-41.75 88.851562-86.578125 106.070312l26.472656-34.273437c5.523438-7.148438 4.226563-17.382813-2.921874-22.742188-7.144532-5.523437-17.378907-4.226562-22.742188 2.921875l-28.585938 37.039063c2.925782-33.953125 17.054688-65.136719 39.792969-87.554688zm0 0"/></g></svg>