<svg height="640pt" viewBox="-30 0 640 640" width="640pt" xmlns="http://www.w3.org/2000/svg"><path d="m300.585938 101.449219-15.308594-101.449219h-224.601563c-33.820312 0-60.675781 27.554688-60.675781 61.371094v424.71875c0 33.816406 26.855469 60.8125 60.675781 60.8125h213.054688l153.492187-232.402344v-165.734375zm0 0" fill="#00acea"/><path d="m285.277344.140625 141.527344 148.625h-94.210938c-26.164062 0-47.316406-21.152344-47.316406-47.316406zm0 0" fill="#00efd1"/><g fill="#083863"><path d="m279.851562 318.675781h-181.324218c-7.652344 0-13.917969 6.265625-13.917969 13.917969 0 7.65625 6.265625 13.914062 13.917969 13.914062h181.324218c7.652344 0 13.917969-6.257812 13.917969-13.914062 0-7.652344-6.121093-13.917969-13.917969-13.917969zm0 0"/><path d="m98.527344 276.929688h140.96875c7.652344 0 13.917968-6.261719 13.917968-13.917969 0-7.652344-6.265624-13.914063-13.917968-13.914063h-140.96875c-7.652344 0-13.917969 6.261719-13.917969 13.914063 0 7.65625 6.265625 13.917969 13.917969 13.917969zm0 0"/><path d="m234.066406 389.648438h-135.539062c-7.652344 0-13.917969 6.265624-13.917969 13.914062 0 7.65625 6.265625 13.917969 13.917969 13.917969h135.539062c7.65625 0 13.917969-6.261719 13.917969-13.917969 0-7.648438-6.261719-13.914062-13.917969-13.914062zm0 0"/></g><path d="m426.804688 286.8125c86.28125 12.101562 152.65625 86.136719 152.65625 175.753906 0 97.96875-79.457032 177.433594-177.425782 177.433594-67.351562 0-126.078125-37.574219-156-92.960938-13.636718-25.1875-21.429687-53.992187-21.429687-84.609374 0-97.96875 79.460937-177.429688 177.429687-177.429688 8.351563.140625 16.558594.699219 24.769532 1.8125zm0 0" fill="#fedb41"/><path d="m484 352.074219h-164.488281c-4.867188 0-9.320313 2.367187-11.828125 6.402343-2.503906 4.175782-2.921875 9.183594-.695313 13.5l57.609375 113.832032v107.988281c0 5.425781 3.203125 10.300781 8.214844 12.667969 1.804688.835937 3.894531 1.25 5.84375 1.25 3.199219 0 6.402344-1.113282 9.042969-3.339844l45.921875-38.964844c3.0625-2.640625 4.734375-6.539062 4.734375-10.578125v-69.023437l57.890625-113.96875c2.230468-4.316406 2.089844-9.324219-.417969-13.359375-2.503906-4.039063-6.957031-6.40625-11.828125-6.40625zm-91.570312 211.800781v-67.074219h18.09375v51.632813zm23.660156-94.90625h-28.667969l-45.226563-89.0625h119.257813zm0 0" fill="#083863"/></svg>