<svg height="640pt" viewBox="0 -52 640 640" width="640pt" xmlns="http://www.w3.org/2000/svg"><path d="m253.089844 20.621094 68.394531 86.640625h-174.46875c-31.152344 0-56.371094 25.21875-56.371094 56.371093v371.777344h-34.273437c-31.152344 0-56.371094-25.21875-56.371094-56.378906v-422.660156c0-31.152344 25.21875-56.371094 56.371094-56.371094h153.105468c16.765626 0 32.785157 7.5625 43.613282 20.621094zm0 0" fill="#00efd1"/><path d="m640 160.816406v318.367188c0 31.152344-25.21875 56.371094-56.371094 56.371094h-507.816406v-374.738282c0-31.152344 25.21875-56.371094 56.371094-56.371094h451.445312c31.152344 0 56.371094 25.21875 56.371094 56.371094zm0 0" fill="#00acea"/><path d="m440.761719 202.503906h-175.503907c-5.195312 0-9.941406 2.667969-12.609374 7.121094-2.671876 4.453125-2.671876 9.941406-.445313 14.539062l61.710937 121.351563v115.125c0 5.785156 3.117188 10.976563 8.3125 13.5 1.929688.890625 4.003907 1.332031 6.078126 1.332031 3.414062 0 6.828124-1.183594 9.5-3.558594l49.25-41.539062c3.265624-2.816406 5.34375-6.972656 5.34375-11.273438v-73.585937l61.421874-121.351563c2.371094-4.597656 2.074219-10.085937-.597656-14.539062-2.523437-4.449219-7.269531-7.121094-12.460937-7.121094zm-97.027344 226.089844v-71.800781h19.289063v55.480469zm24.628906-101.476562h-30.558593l-48.214844-94.945313h127.136718zm0 0" fill="#083863"/></svg>