<svg height="638pt" viewBox="0 -45 638.74973 638" width="638pt" xmlns="http://www.w3.org/2000/svg"><path d="m593.386719 141.355469v65.976562h-541.914063l-5.953125-146.320312c-1.53125-32.992188 24.890625-60.636719 58.039063-60.636719h125.09375c20.308594 0 39.253906 10.691406 49.789062 28.253906l15.886719 26.582032c10.535156 17.5625 29.324219 28.253906 49.789063 28.253906h191.078124c32.074219-.152344 58.191407 25.8125 58.191407 57.890625zm0 0" fill="#00efd1"/><path d="m608.207031 192.0625c18.480469 0 32.835938 16.34375 30.238281 34.671875l-37.417968 272.175781c-3.972656 28.71875-28.5625 50.105469-57.429688 50.105469h-447.832031c-29.019531 0-53.460937-21.386719-57.425781-50.105469l-38.035156-272.175781c-2.59375-18.328125 11.761718-34.824219 30.242187-34.824219h577.660156zm0 0" fill="#00acea"/><path d="m409.644531 248.726562h-180.535156c-5.347656 0-10.234375 2.75-12.984375 7.335938-2.746094 4.578125-3.359375 10.234375-.914062 14.964844l63.078124 124.941406v118.523438c0 5.960937 3.816407 11.304687 9.164063 13.902343 1.988281.917969 4.429687 1.375 6.566406 1.375 3.515625 0 7.179688-1.222656 9.929688-3.667969l51.011719-42.765624c3.363281-2.902344 5.804687-7.175782 5.804687-11.605469v-75.761719l63.078125-124.941406c2.449219-4.730469 1.988281-10.386719-.757812-14.964844-3.054688-4.585938-8.09375-7.335938-13.441407-7.335938zm-100.960937 232.777344v-73.925781h21.386718v57.125zm26.425781-104.476562h-31.464844l-49.644531-97.75h130.902344zm0 0" fill="#083863"/></svg>