<svg height="640pt" viewBox="0 -52 640 640" width="640pt" xmlns="http://www.w3.org/2000/svg"><path d="m320.964844 59.28125-61.492188-59.28125h-211.214844l7.855469 219.214844h532.734375v-159.933594zm0 0" fill="#00efd1"/><path d="m536.460938 219.214844v.550781h-432.921876v-105.332031h432.921876zm0 0" fill="#fedb41"/><path d="m640 205.980469-58.042969 329.097656h-523.222656l-58.734375-329.097656zm0 0" fill="#00acea"/><path d="m401.484375 260.578125h-162.96875c-4.824219 0-9.234375 2.34375-11.71875 6.476563-2.480469 4.136718-3.03125 9.101562-.824219 13.375l56.941406 112.777343v106.992188c0 5.375 3.449219 10.199219 8.273438 12.542969 1.789062.828124 3.992188 1.242187 5.925781 1.242187 3.167969 0 6.480469-1.105469 8.960938-3.304687l46.050781-38.609376c3.03125-2.617187 5.238281-6.480468 5.238281-10.472656v-68.386718l56.9375-112.917969c2.207031-4.273438 1.792969-9.238281-.6875-13.375-2.753906-3.996094-7.304687-6.339844-12.128906-6.339844zm-91.136719 209.976563v-66.589844h19.300782v51.285156zm23.851563-94.167969h-28.398438l-44.808593-88.238281h118.152343zm0 0" fill="#083863"/></svg>