<svg height="640pt" viewBox="-70 0 640 640" width="640pt" xmlns="http://www.w3.org/2000/svg"><path d="m334.457031 0h-262.332031c-39.472656 0-72.125 32.484375-72.125 71.957031v496.085938c0 39.472656 32.652344 71.957031 72.125 71.957031h356.058594c39.472656 0 72.117187-32.484375 72.117187-71.957031v-394.074219zm0 0" fill="#00acea"/><path d="m335.269531.488281 165.199219 173.640625h-109.972656c-30.535156 0-55.226563-24.6875-55.226563-55.222656zm0 0" fill="#00efd1"/><g fill="#083863"><path d="m383.835938 511.675781h-267.371094c-8.929688 0-16.238282 7.308594-16.238282 16.242188 0 8.9375 7.308594 16.246093 16.238282 16.246093h267.535156c8.933594 0 16.242188-7.308593 16.242188-16.246093 0-8.933594-7.308594-16.242188-16.40625-16.242188zm0 0"/><path d="m206.292969 359.632812v126.054688c0 6.332031 4.0625 12.015625 9.746093 14.78125 2.117188.972656 4.710938 1.460938 6.988282 1.460938 3.734375 0 7.632812-1.300782 10.558594-3.898438l54.25-45.484375c3.574218-3.085937 6.171874-7.636719 6.171874-12.34375v-80.570313l67.085938-132.871093c2.601562-5.035157 2.113281-11.042969-.8125-15.917969-2.921875-4.871094-8.445312-7.796875-13.96875-7.796875h-192.160156c-5.683594 0-10.886719 2.925781-13.804688 7.796875-2.925781 4.875-3.574218 10.882812-.976562 15.917969zm32.492187 90.96875v-78.621093h22.738282v60.75zm80.886719-215.070312-52.789063 103.960938h-33.460937l-52.792969-103.960938zm0 0"/></g></svg>