<svg height="640pt" viewBox="0 -52 640 640" width="640pt" xmlns="http://www.w3.org/2000/svg"><path d="m253.089844 20.621094 68.394531 86.640625h-174.46875c-31.152344 0-56.371094 25.21875-56.371094 56.371093v371.777344h-34.273437c-31.152344 0-56.371094-25.21875-56.371094-56.378906v-422.660156c0-31.152344 25.21875-56.371094 56.371094-56.371094h153.105468c16.765626 0 32.785157 7.5625 43.613282 20.621094zm0 0" fill="#00efd1"/><path d="m640 160.816406v318.367188c0 31.152344-25.21875 56.371094-56.371094 56.371094h-507.816406v-374.738282c0-31.152344 25.21875-56.371094 56.371094-56.371094h451.445312c31.152344 0 56.371094 25.21875 56.371094 56.371094zm0 0" fill="#00acea"/><path d="m406.046875 264.070312 40.203125-48.070312c3.710938-4.445312 4.449219-10.378906 2.074219-15.574219-2.371094-5.191406-7.714844-8.308593-13.5-8.308593h-163.632813c-8.160156 0-14.984375 6.234374-14.984375 14.390624v229.355469c0 8.160157 6.679688 14.835938 14.839844 14.835938 8.15625 0 14.832031-6.675781 14.832031-14.835938v-99.84375h148.945313c5.785156 0 10.980469-3.113281 13.5-8.304687 2.378906-5.195313 1.636719-11.273438-2.074219-15.574219zm-120.167969 42.28125v-84.5625h117.199219l-27.742187 33.085938c-4.597657 5.484375-4.597657 13.054688 0 18.542969l27.742187 32.933593zm0 0" fill="#083863"/></svg>