<svg height="638pt" viewBox="0 -45 638.74973 638" width="638pt" xmlns="http://www.w3.org/2000/svg"><path d="m593.386719 141.355469v65.976562h-541.914063l-5.953125-146.320312c-1.53125-32.992188 24.890625-60.636719 58.039063-60.636719h125.09375c20.308594 0 39.253906 10.691406 49.789062 28.253906l15.886719 26.582032c10.535156 17.5625 29.324219 28.253906 49.789063 28.253906h191.078124c32.074219-.152344 58.191407 25.8125 58.191407 57.890625zm0 0" fill="#00efd1"/><path d="m608.207031 192.0625c18.480469 0 32.835938 16.34375 30.238281 34.671875l-37.417968 272.175781c-3.972656 28.71875-28.5625 50.105469-57.429688 50.105469h-447.832031c-29.019531 0-53.460937-21.386719-57.425781-50.105469l-38.035156-272.175781c-2.59375-18.328125 11.761718-34.824219 30.242187-34.824219h577.660156zm0 0" fill="#00acea"/><path d="m417.433594 246.585938c-2.441406-5.34375-7.941406-8.550782-13.898438-8.550782h-168.320312c-8.402344 0-15.121094 6.417969-15.121094 14.816406v236.132813c0 8.402344 6.875 15.273437 15.277344 15.273437 8.398437 0 15.273437-6.871093 15.273437-15.273437v-102.792969h152.890625c5.957032 0 11.304688-3.207031 13.898438-8.550781 2.445312-5.347656 1.679687-11.609375-2.136719-16.039063l-41.394531-49.488281 41.394531-49.332031c3.816406-4.585938 4.582031-10.847656 2.136719-16.195312zm-166.789063 109.0625v-87.0625h120.359375l-28.71875 34.058593c-4.730468 5.652344-4.730468 13.441407 0 19.09375l28.5625 33.910157zm0 0" fill="#083863"/></svg>