<svg height="640pt" viewBox="0 -52 640 640" width="640pt" xmlns="http://www.w3.org/2000/svg"><path d="m320.964844 59.28125-61.492188-59.28125h-211.214844l7.855469 219.214844h532.734375v-159.933594zm0 0" fill="#00efd1"/><path d="m536.460938 219.214844v.550781h-432.921876v-105.332031h432.921876zm0 0" fill="#fedb41"/><path d="m640 205.980469-58.042969 329.097656h-523.222656l-58.734375-329.097656zm0 0" fill="#00acea"/><path d="m408.515625 258.511719c-2.207031-4.832031-7.171875-7.582031-12.550781-7.582031h-151.933594c-7.582031 0-13.644531 5.511718-13.644531 13.09375v213.148437c0 7.582031 6.199219 13.789063 13.78125 13.789063 7.585937 0 13.789062-6.207032 13.789062-13.789063v-92.507813h138.007813c5.378906 0 10.207031-2.898437 12.550781-7.726562 2.207031-4.824219 1.511719-10.472656-1.933594-14.609375l-37.363281-44.671875 37.363281-44.53125c3.445313-4.136719 4.136719-9.789062 1.933594-14.613281zm-67.835937 67.832031 25.785156 30.742188h-108.507813v-78.585938h108.644531l-25.921874 30.605469c-4.273438 5.101562-4.273438 12.132812 0 17.238281zm0 0" fill="#083863"/></svg>