<svg height="640pt" viewBox="-70 0 640 640" width="640pt" xmlns="http://www.w3.org/2000/svg"><path d="m334.457031 0h-262.332031c-39.472656 0-72.125 32.484375-72.125 71.957031v496.085938c0 39.472656 32.652344 71.957031 72.125 71.957031h356.058594c39.472656 0 72.117187-32.484375 72.117187-71.957031v-394.074219zm0 0" fill="#00acea"/><path d="m335.269531.488281 165.199219 173.640625h-109.972656c-30.535156 0-55.226563-24.6875-55.226563-55.222656zm0 0" fill="#00efd1"/><g fill="#083863"><path d="m383.835938 511.675781h-267.371094c-8.929688 0-16.238282 7.308594-16.238282 16.242188 0 8.9375 7.308594 16.246093 16.238282 16.246093h267.535156c8.933594 0 16.242188-7.308593 16.242188-16.246093 0-8.933594-7.308594-16.242188-16.40625-16.242188zm0 0"/><path d="m160.8125 481.296875c8.933594 0 16.242188-7.308594 16.242188-16.242187v-109.316407h162.597656c6.339844 0 12.023437-3.414062 14.785156-9.097656 2.597656-5.6875 1.789062-12.34375-2.273438-17.054687l-44.019531-52.632813 44.019531-52.628906c4.0625-4.871094 4.871094-11.371094 2.273438-17.054688-2.601562-5.683593-8.445312-9.097656-14.785156-9.097656h-179.003906c-8.933594 0-16.078126 6.824219-16.078126 15.757813v251.128906c0 8.929687 7.308594 16.238281 16.242188 16.238281zm16.242188-250.636719h128.003906l-30.542969 36.222656c-5.03125 6.011719-5.03125 14.292969 0 20.304688l30.375 36.0625h-127.835937zm0 0"/></g></svg>