<svg height="638pt" viewBox="-57 0 638 638.75085" width="638pt" xmlns="http://www.w3.org/2000/svg"><path d="m317.5 238.539062-44.925781-121.921874h-214.023438c-32.199219 0-58.175781 26.507812-58.175781 58.707031v404.71875c0 32.203125 25.976562 58.707031 58.175781 58.707031h290.488281c32.203126 0 58.175782-26.503906 58.175782-58.707031v-321.496094zm0 0" fill="#00efd1"/><path d="m377.132812 180.230469-44.925781-121.921875h-214.019531c-32.203125 0-58.175781 26.507812-58.175781 58.707031v404.71875c0 32.203125 25.972656 58.707031 58.175781 58.707031h290.484375c32.203125 0 58.179687-26.503906 58.179687-58.707031v-321.496094zm0 0" fill="#fedb41"/><path d="m435.441406 121.917969-44.925781-121.917969h-214.019531c-32.203125 0-58.175782 26.503906-58.175782 58.707031v404.71875c0 32.203125 25.972657 58.707031 58.175782 58.707031h290.488281c32.199219 0 58.175781-26.503906 58.175781-58.707031v-321.496093zm0 0" fill="#00acea"/><path d="m390.515625.398438 134.777344 141.664062h-89.71875c-24.914063 0-45.058594-20.144531-45.058594-45.054688zm0 0" fill="#00efd1"/><g fill="#083863"><path d="m430.804688 424.066406h-218.128907c-7.292969 0-13.257812 5.960938-13.257812 13.253906 0 7.289063 5.964843 13.25 13.257812 13.25h218.257813c7.292968 0 13.25-5.960937 13.25-13.25 0-7.292968-5.957032-13.253906-13.378906-13.253906zm0 0"/><path d="m223.011719 373.707031h40.8125c7.292969 0 13.652343-5.566406 13.652343-12.988281v-38.164062c0-7.289063-6.359374-12.589844-13.652343-12.589844h-6.359375v-25.175782h50.355468v25.175782h-6.492187c-7.289063 0-13.378906 5.300781-13.378906 12.59375v38.160156c0 7.292969 6.089843 12.988281 13.378906 12.988281h40.820313c7.285156 0 13.382812-5.566406 13.382812-12.988281v-38.160156c0-7.292969-6.097656-12.59375-13.382812-12.59375h-7.820313v-25.175782h51.683594v25.175782h-6.230469c-7.285156 0-13.652344 5.300781-13.652344 12.59375v38.160156c0 7.292969 6.367188 12.988281 13.652344 12.988281h40.6875c7.285156 0 13.25-5.566406 13.25-12.988281v-38.160156c0-7.292969-5.828125-12.59375-13.25-12.59375h-7.953125v-37.898438c0-7.292968-5.4375-13.78125-12.722656-13.78125h-65.464844v-18.554687h25.972656c7.292969 0 13.78125-6.625 13.78125-13.914063v-43.46875c0-7.285156-6.488281-12.988281-13.78125-12.988281h-77.128906c-7.285156 0-13.78125 5.566406-13.78125 12.988281v43.46875c0 7.289063 6.496094 13.914063 13.78125 13.914063h24.648437v18.554687h-64.136718c-7.289063 0-12.722656 6.488282-12.722656 13.78125v38.035156h-7.949219c-7.289063 0-13.253907 5.296876-13.253907 12.585938v38.167969c0 7.285156 5.832032 12.851562 13.253907 12.851562zm169.625-37.105469h14.574219v10.605469h-14.574219zm-63.605469 10.605469h-14.582031v-10.605469h14.582031zm-33.136719-133.851562v-17.226563h51.683594v17.226563zm-59.632812 123.246093h14.574219v10.605469h-14.574219zm0 0"/></g></svg>