<svg height="640pt" viewBox="-30 0 640 640" width="640pt" xmlns="http://www.w3.org/2000/svg"><path d="m300.585938 101.449219-15.308594-101.449219h-224.601563c-33.820312 0-60.675781 27.554688-60.675781 61.371094v424.71875c0 33.816406 26.855469 60.8125 60.675781 60.8125h213.054688l153.492187-232.402344v-165.734375zm0 0" fill="#00acea"/><path d="m285.277344.140625 141.527344 148.625h-94.210938c-26.164062 0-47.316406-21.152344-47.316406-47.316406zm0 0" fill="#00efd1"/><g fill="#083863"><path d="m293.90625 332.59375c0-7.652344-6.257812-13.917969-13.914062-13.917969h-181.464844c-7.652344 0-13.917969 6.265625-13.917969 13.917969 0 7.65625 6.265625 13.914062 13.917969 13.914062h181.324218c7.796876 0 14.054688-6.257812 14.054688-13.914062zm0 0"/><path d="m98.527344 276.929688h140.96875c7.652344 0 13.917968-6.261719 13.917968-13.917969 0-7.652344-6.265624-13.914063-13.917968-13.914063h-140.96875c-7.652344 0-13.917969 6.261719-13.917969 13.914063 0 7.65625 6.265625 13.917969 13.917969 13.917969zm0 0"/><path d="m234.066406 389.648438h-135.539062c-7.652344 0-13.917969 6.265624-13.917969 13.914062 0 7.65625 6.265625 13.917969 13.917969 13.917969h135.539062c7.65625 0 13.917969-6.261719 13.917969-13.917969 0-7.648438-6.261719-13.914062-13.917969-13.914062zm0 0"/></g><path d="m426.804688 286.8125c86.28125 12.101562 152.65625 86.136719 152.65625 175.753906 0 97.96875-79.457032 177.433594-177.425782 177.433594-67.351562 0-126.078125-37.574219-156-92.960938-13.636718-25.1875-21.429687-53.992187-21.429687-84.609374 0-97.96875 79.460937-177.429688 177.429687-177.429688 8.351563.140625 16.558594.699219 24.769532 1.8125zm0 0" fill="#fedb41"/><path d="m505.429688 502.367188h-7.238282v-38.824219c0-7.65625-6.816406-14.054688-14.472656-14.054688h-67.628906v-20.875h26.160156c7.65625 0 14.195312-5.980469 14.195312-13.636719v-45.644531c0-7.652343-6.402343-14.609375-14.195312-14.609375h-80.992188c-7.648437 0-13.359374 6.816406-13.359374 14.609375v45.644531c0 7.65625 5.710937 13.636719 13.359374 13.636719h27v20.875h-68.46875c-7.652343 0-13.636718 6.398438-13.636718 14.054688v38.824219h-8.070313c-7.65625 0-14.195312 6.542968-14.195312 14.199218v40.078125c0 7.652344 6.539062 13.917969 14.195312 13.917969h42.859375c7.65625 0 14.058594-6.265625 14.058594-13.917969v-40.078125c0-7.65625-6.265625-14.199218-14.058594-14.199218h-6.957031v-25.042969h54.273437v25.042969h-7.929687c-7.65625 0-14.335937 6.542968-14.335937 14.199218v40.078125c0 7.652344 6.679687 13.917969 14.335937 13.917969h42.859375c7.652344 0 13.773438-6.265625 13.773438-13.917969v-40.078125c0-7.65625-6.121094-14.199218-13.773438-14.199218h-7.097656v-25.042969h54.269531v25.042969h-7.648437c-7.65625 0-14.617188 6.542968-14.617188 14.199218v40.078125c0 7.652344 6.960938 13.917969 14.617188 13.917969h42.859374c7.652344 0 13.636719-6.265625 13.636719-13.917969v-40.078125c-.140625-7.65625-5.984375-14.199218-13.777343-14.199218zm-178.402344 40.355468h-15.308594v-12.523437h15.308594zm82.101562 0h-15.304687v-12.523437h15.304687zm-33.398437-141.941406v-18.089844h52.882812v18.089844zm115.503906 141.941406h-15.308594v-12.523437h15.308594zm0 0" fill="#083863"/></svg>