<svg height="640pt" viewBox="0 -52 640 640" width="640pt" xmlns="http://www.w3.org/2000/svg"><path d="m253.089844 20.621094 68.394531 86.640625h-174.46875c-31.152344 0-56.371094 25.21875-56.371094 56.371093v371.777344h-34.273437c-31.152344 0-56.371094-25.21875-56.371094-56.378906v-422.660156c0-31.152344 25.21875-56.371094 56.371094-56.371094h153.105468c16.765626 0 32.785157 7.5625 43.613282 20.621094zm0 0" fill="#00efd1"/><path d="m640 160.816406v318.367188c0 31.152344-25.21875 56.371094-56.371094 56.371094h-507.816406v-374.738282c0-31.152344 25.21875-56.371094 56.371094-56.371094h451.445312c31.152344 0 56.371094 25.21875 56.371094 56.371094zm0 0" fill="#00acea"/><path d="m463.609375 364.210938h-8.609375v-42.433594c0-8.160156-6.375-15.425782-14.6875-15.425782h-72.84375v-20.769531h28.785156c8.160156 0 14.238282-7.417969 14.238282-15.578125v-48.660156c0-8.160156-6.078126-14.539062-14.238282-14.539062h-86.339844c-8.160156 0-14.988281 6.234374-14.988281 14.539062v48.660156c0 8.160156 6.828125 15.578125 14.988281 15.578125h27.890626v20.769531h-72.101563c-8.160156 0-15.429687 7.265626-15.429687 15.425782v42.433594h-7.859376c-8.160156 0-14.390624 5.929687-14.390624 14.089843v42.730469c0 8.15625 6.230468 14.535156 14.390624 14.535156h45.691407c8.160156 0 14.089843-6.230468 14.089843-14.535156v-42.726562c0-8.164063-5.929687-14.09375-14.089843-14.09375h-8.160157v-28.191407h57.859376v28.191407h-7.570313c-8.160156 0-14.683594 5.929687-14.683594 14.09375v42.726562c0 8.15625 6.523438 14.535156 14.683594 14.535156h45.695313c8.164062 0 15.429687-6.230468 15.429687-14.535156v-42.726562c0-8.164063-7.121094-14.09375-15.429687-14.09375h-8.453126v-28.191407h57.855469v28.191407h-7.417969c-8.15625 0-14.832031 5.929687-14.832031 14.09375v42.726562c0 8.15625 6.675781 14.535156 14.832031 14.535156h45.695313c8.15625 0 15.132813-6.230468 15.132813-14.535156v-42.726562c0-8.164063-6.976563-14.09375-15.132813-14.09375zm-191.085937 41.535156h-14.832032v-11.863282h14.832032zm89.015624 0h-16.320312v-11.863282h16.320312zm-37.089843-149.839844v-19.28125h56.375v19.28125zm124.617187 149.839844h-16.316406v-11.863282h16.316406zm0 0" fill="#083863"/></svg>