<svg height="638pt" viewBox="0 -45 638.74973 638" width="638pt" xmlns="http://www.w3.org/2000/svg"><path d="m593.386719 141.355469v65.976562h-541.914063l-5.953125-146.320312c-1.53125-32.992188 24.890625-60.636719 58.039063-60.636719h125.09375c20.308594 0 39.253906 10.691406 49.789062 28.253906l15.886719 26.582032c10.535156 17.5625 29.324219 28.253906 49.789063 28.253906h191.078124c32.074219-.152344 58.191407 25.8125 58.191407 57.890625zm0 0" fill="#00efd1"/><path d="m608.207031 192.0625c18.480469 0 32.835938 16.34375 30.238281 34.671875l-37.417968 272.175781c-3.972656 28.71875-28.5625 50.105469-57.429688 50.105469h-447.832031c-29.019531 0-53.460937-21.386719-57.425781-50.105469l-38.035156-272.175781c-2.59375-18.328125 11.761718-34.824219 30.242187-34.824219h577.660156zm0 0" fill="#00acea"/><path d="m433.167969 415.214844h-8.402344v-43.6875c0-8.398438-7.027344-15.878906-15.429687-15.878906h-74.6875v-21.386719h29.171874c8.402344 0 15.121094-7.636719 15.121094-16.035157v-50.097656c0-8.402344-6.71875-14.972656-15.121094-14.972656h-88.894531c-8.398437 0-15.121093 6.417969-15.121093 14.972656v50.097656c0 8.398438 6.722656 16.035157 15.121093 16.035157h29.171875v21.386719h-74.6875c-8.402344 0-15.421875 7.480468-15.421875 15.878906v43.6875h-8.402343c-8.402344 0-16.039063 6.109375-16.039063 14.507812v43.988282c0 8.402343 7.484375 14.972656 16.039063 14.972656h47.042968c8.398438 0 14.96875-6.417969 14.96875-14.972656v-43.988282c0-8.398437-6.570312-14.507812-14.96875-14.507812h-8.097656v-29.023438h59.566406v29.023438h-8.246094c-8.398437 0-14.660156 6.109375-14.660156 14.507812v43.988282c0 8.402343 6.261719 14.972656 14.660156 14.972656h47.042969c8.402344 0 14.664063-6.417969 14.664063-14.972656v-43.988282c0-8.398437-6.261719-14.507812-14.664063-14.507812h-8.246093v-29.023438h59.566406v29.023438h-7.9375c-8.402344 0-14.972656 6.109375-14.972656 14.507812v43.988282c0 8.402343 6.570312 14.972656 14.972656 14.972656h47.042968c8.398438 0 16.035157-6.417969 16.035157-14.972656v-43.988282c-.148438-8.398437-7.636719-14.507812-16.1875-14.507812zm-196.273438 42.765625h-16.800781v-12.222657h16.800781zm90.117188 0h-15.269531v-12.222657h15.269531zm-36.65625-154.269531v-19.851563h58.042969v19.851563zm128.300781 154.269531h-16.800781v-12.222657h16.800781zm0 0" fill="#083863"/></svg>