<svg height="640pt" viewBox="0 -52 640 640" width="640pt" xmlns="http://www.w3.org/2000/svg"><path d="m320.964844 59.28125-61.492188-59.28125h-211.214844l7.855469 219.214844h532.734375v-159.933594zm0 0" fill="#00efd1"/><path d="m536.460938 219.214844v.550781h-432.921876v-105.332031h432.921876zm0 0" fill="#fedb41"/><path d="m640 205.980469-58.042969 329.097656h-523.222656l-58.734375-329.097656zm0 0" fill="#00acea"/><path d="m422.714844 409.476562h-7.582032v-38.1875c0-7.582031-6.34375-14.203124-13.925781-14.203124h-67.417969v-20.679688h26.332032c7.582031 0 13.648437-5.65625 13.648437-13.238281v-45.21875c0-7.582031-6.066406-13.238281-13.648437-13.238281h-80.242188c-7.585937 0-13.648437 5.65625-13.648437 13.238281v45.21875c0 7.582031 6.0625 13.238281 13.648437 13.238281h26.332032v20.679688h-67.417969c-7.582031 0-13.925781 6.476562-13.925781 14.203124v38.1875h-7.582032c-7.582031 0-14.476562 6.621094-14.476562 14.339844v39.707032c0 7.585937 6.757812 13.648437 14.476562 13.648437h42.464844c7.582031 0 13.511719-6.0625 13.511719-13.648437v-39.707032c0-7.582031-5.929688-14.339844-13.511719-14.339844h-7.308594v-24.8125h53.769532v24.8125h-7.445313c-7.585937 0-13.234375 6.621094-13.234375 14.339844v39.707032c0 7.585937 5.648438 13.648437 13.234375 13.648437h42.464844c7.582031 0 13.238281-6.0625 13.238281-13.648437v-39.707032c0-7.582031-5.65625-14.339844-13.238281-14.339844h-7.445313v-24.8125h53.773438v24.8125h-7.171875c-7.585938 0-13.511719 6.621094-13.511719 14.339844v39.707032c0 7.585937 5.925781 13.648437 13.511719 13.648437h42.464843c7.582032 0 14.476563-6.0625 14.476563-13.648437v-39.707032c-.136719-7.71875-6.894531-14.339844-14.613281-14.339844zm-177.164063 39.984376h-15.164062v-12.410157h15.164062zm81.34375 0h-13.789062v-12.410157h13.789062zm-33.089843-140.628907v-16.546875h52.390624v16.546875zm115.808593 140.628907h-15.164062v-12.410157h15.164062zm0 0" fill="#083863"/></svg>