<svg height="640pt" viewBox="-70 0 640 640" width="640pt" xmlns="http://www.w3.org/2000/svg"><path d="m334.457031 0h-262.332031c-39.472656 0-72.125 32.484375-72.125 71.957031v496.085938c0 39.472656 32.652344 71.957031 72.125 71.957031h356.058594c39.472656 0 72.117187-32.484375 72.117187-71.957031v-394.074219zm0 0" fill="#00acea"/><path d="m335.269531.488281 165.199219 173.640625h-109.972656c-30.535156 0-55.226563-24.6875-55.226563-55.222656zm0 0" fill="#00efd1"/><g fill="#083863"><path d="m383.835938 511.675781h-267.371094c-8.929688 0-16.238282 7.308594-16.238282 16.242188 0 8.9375 7.308594 16.246093 16.238282 16.246093h267.535156c8.933594 0 16.242188-7.308593 16.242188-16.246093 0-8.933594-7.308594-16.242188-16.40625-16.242188zm0 0"/><path d="m129.136719 458.070312h50.035156c8.929687 0 15.917969-6.820312 15.917969-15.917968v-46.78125c0-8.9375-6.988282-15.429688-15.917969-15.429688h-8.613281v-30.863281h63.351562v30.863281h-8.773437c-8.933594 0-15.589844 6.492188-15.589844 15.429688v46.78125c0 8.9375 6.65625 15.917968 15.589844 15.917968h50.027343c8.9375 0 15.597657-6.820312 15.597657-15.917968v-46.78125c0-8.9375-6.660157-15.429688-15.597657-15.429688h-8.765624v-30.863281h63.347656v30.863281h-8.449219c-8.929687 0-15.917969 6.492188-15.917969 15.429688v46.78125c0 8.9375 6.988282 15.917968 15.917969 15.917968h50.035156c8.929688 0 17.054688-6.820312 17.054688-15.917968v-46.78125c0-8.9375-7.957031-15.429688-17.054688-15.429688h-9.097656v-46.460937c0-8.929688-7.472656-16.890625-16.40625-16.890625h-79.429687v-22.742188h31.023437c8.933594 0 16.078125-8.121094 16.078125-17.054687v-53.277344c0-8.9375-7.144531-15.917969-16.078125-15.917969h-94.539063c-8.933593 0-16.082031 6.820313-16.082031 15.917969v53.277344c0 8.933593 7.148438 17.054687 16.082031 17.054687h31.023438v22.742188h-79.429688c-8.933593 0-16.40625 7.960937-16.40625 16.890625v46.621093h-8.933593c-8.929688 0-17.054688 6.5-17.054688 15.429688v46.78125c0 8.9375 7.957031 15.757812 17.054688 15.757812zm208.730469-45.484374h17.871093v13h-17.871093zm-79.589844 13h-16.246094v-13h16.246094zm-38.988282-164.0625v-21.117188h61.726563v21.117188zm-74.71875 151.0625h17.867188v13h-17.867188zm0 0"/></g></svg>