<svg height="638pt" viewBox="-57 0 638 638.75085" width="638pt" xmlns="http://www.w3.org/2000/svg"><path d="m413.046875 242.777344c-12.195313 0-22.132813 9.941406-22.132813 22.132812s9.9375 22.132813 22.132813 22.132813c12.191406 0 22.128906-9.941407 22.128906-22.132813s-9.804687-22.132812-22.128906-22.132812zm0 26.503906c-2.386719 0-4.375-1.988281-4.375-4.371094 0-2.386718 1.988281-4.375 4.375-4.375 2.382813 0 4.371094 1.988282 4.371094 4.375 0 2.515625-1.984375 4.371094-4.371094 4.371094zm0 0" fill="#083863"/><path d="m317.5 238.539062-44.925781-121.921874h-214.023438c-32.199219 0-58.175781 26.507812-58.175781 58.707031v404.71875c0 32.203125 25.976562 58.707031 58.175781 58.707031h290.488281c32.203126 0 58.175782-26.503906 58.175782-58.707031v-321.496094zm0 0" fill="#00efd1"/><path d="m377.132812 180.230469-44.925781-121.921875h-214.019531c-32.203125 0-58.175781 26.507812-58.175781 58.707031v404.71875c0 32.203125 25.972656 58.707031 58.175781 58.707031h290.484375c32.203125 0 58.179687-26.503906 58.179687-58.707031v-321.496094zm0 0" fill="#fedb41"/><path d="m435.441406 121.917969-44.925781-121.917969h-214.019531c-32.203125 0-58.175782 26.503906-58.175782 58.707031v404.71875c0 32.203125 25.972657 58.707031 58.175782 58.707031h290.488281c32.199219 0 58.175781-26.503906 58.175781-58.707031v-321.496093zm0 0" fill="#00acea"/><path d="m390.515625.398438 134.777344 141.664062h-89.71875c-24.914063 0-45.058594-20.144531-45.058594-45.054688zm0 0" fill="#00efd1"/><g fill="#083863"><path d="m430.804688 424.066406h-218.128907c-7.292969 0-13.257812 5.960938-13.257812 13.253906 0 7.289063 5.964843 13.25 13.257812 13.25h218.257813c7.292968 0 13.25-5.960937 13.25-13.25 0-7.292968-5.957032-13.253906-13.378906-13.253906zm0 0"/><path d="m397.9375 197.457031h-63.609375v-12.0625c0-7.285156-5.964844-13.25-13.25-13.25-7.292969 0-13.257813 5.964844-13.257813 13.25v12.0625h-62.28125c-47.839843 0-86.800781 38.960938-86.800781 86.933594 0 47.839844 38.960938 87.066406 86.800781 87.066406 23.71875 0 46.378907-9.675781 63.082032-26.902343h26.238281c16.429687 17.226562 39.09375 26.902343 63.210937 26.902343 47.839844 0 86.800782-39.09375 86.800782-86.933593-.128906-47.972657-39.09375-87.066407-86.933594-87.066407zm0 147.230469c-18.289062 0-35.382812-7.953125-46.914062-22-2.515626-3.050781-6.230469-4.636719-10.199219-4.636719h-38.167969c-3.976562 0-7.6875 1.585938-10.207031 4.503907-11.929688 14.179687-29.019531 22.265624-47.046875 22.265624-33.257813 0-60.296875-27.171874-60.296875-60.429687 0-33.265625 27.039062-60.429687 60.296875-60.429687h152.402344c33.261718 0 60.296874 27.164062 60.296874 60.429687.132813 33.257813-26.898437 60.296875-60.164062 60.296875zm0 0"/><path d="m271.117188 270.339844h-12.328126v-11.660156c0-7.285157-5.964843-13.25-13.25-13.25-7.289062 0-13.253906 5.964843-13.253906 13.25v11.660156h-12.457031c-7.289063 0-13.25 5.964844-13.25 13.257812 0 7.285156 5.960937 13.25 13.25 13.25h12.457031v12.984375c0 7.292969 5.964844 13.257813 13.253906 13.257813 7.285157 0 13.25-5.964844 13.25-13.257813v-12.984375h12.328126c7.285156 0 13.25-5.964844 13.25-13.25 0-7.292968-5.828126-13.257812-13.25-13.257812zm0 0"/><path d="m383.492188 282.800781c-12.191407 0-22.128907 9.9375-22.128907 22.128907 0 12.195312 9.9375 22.132812 22.128907 22.132812 12.195312 0 22.128906-9.9375 22.128906-22.132812 0-12.191407-9.804688-22.128907-22.128906-22.128907zm0 0"/><path d="m413.046875 242.910156c-12.195313 0-22.132813 9.941406-22.132813 22.132813 0 12.191406 9.9375 22.128906 22.132813 22.128906 12.191406 0 22.128906-9.9375 22.128906-22.128906.136719-12.191407-9.804687-22.132813-22.128906-22.132813zm0 0"/></g></svg>