<svg height="640pt" viewBox="-30 0 640 640" width="640pt" xmlns="http://www.w3.org/2000/svg"><path d="m300.585938 101.449219-15.308594-101.449219h-224.601563c-33.820312 0-60.675781 27.554688-60.675781 61.371094v424.71875c0 33.816406 26.855469 60.8125 60.675781 60.8125h213.054688l153.492187-232.402344v-165.734375zm0 0" fill="#00acea"/><path d="m285.277344.140625 141.527344 148.625h-94.210938c-26.164062 0-47.316406-21.152344-47.316406-47.316406zm0 0" fill="#00efd1"/><path d="m98.527344 346.507812h181.324218c7.652344 0 13.917969-6.257812 13.917969-13.914062 0-7.652344-6.265625-13.917969-13.917969-13.917969h-181.324218c-7.652344 0-13.917969 6.265625-13.917969 13.917969 0 7.65625 6.265625 13.914062 13.917969 13.914062zm0 0" fill="#083863"/><path d="m98.527344 276.929688h140.96875c7.652344 0 13.917968-6.261719 13.917968-13.917969 0-7.652344-6.265624-13.914063-13.917968-13.914063h-140.96875c-7.652344 0-13.917969 6.261719-13.917969 13.914063 0 7.65625 6.265625 13.917969 13.917969 13.917969zm0 0" fill="#083863"/><path d="m234.066406 389.648438h-135.539062c-7.652344 0-13.917969 6.265624-13.917969 13.914062 0 7.65625 6.265625 13.917969 13.917969 13.917969h135.539062c7.65625 0 13.917969-6.261719 13.917969-13.917969 0-7.648438-6.261719-13.914062-13.917969-13.914062zm0 0" fill="#083863"/><path d="m426.804688 286.8125c86.28125 12.101562 152.65625 86.136719 152.65625 175.753906 0 97.96875-79.457032 177.433594-177.425782 177.433594-67.351562 0-126.078125-37.574219-156-92.960938-13.636718-25.1875-21.429687-53.992187-21.429687-84.609374 0-97.96875 79.460937-177.429688 177.429687-177.429688 8.351563.140625 16.558594.699219 24.769532 1.8125zm0 0" fill="#fedb41"/><g fill="#083863"><path d="m471.894531 393.824219h-57.199219v-11.550781c0-7.65625-6.257812-13.914063-13.914062-13.914063-7.652344 0-13.917969 6.257813-13.917969 13.914063v11.550781h-55.242187c-44.949219 0-81.6875 36.878906-81.6875 81.964843 0 45.089844 36.597656 81.828126 81.6875 81.828126 22.125 0 43.140625-9.328126 58.726562-24.632813h22.679688c15.308594 15.304687 36.460937 24.769531 58.867187 24.769531 44.945313 0 81.683594-37.015625 81.683594-81.964844 0-44.949218-36.597656-81.964843-81.683594-81.964843zm0 136.097656c-16.285156 0-31.59375-7.09375-41.890625-19.761719-2.640625-3.199218-6.539062-5.007812-10.710937-5.007812h-35.070313c-4.175781 0-8.070312 1.667968-10.71875 4.871094-10.574218 12.660156-25.882812 19.898437-42.023437 19.898437-29.640625 0-53.855469-24.492187-53.855469-54.132813 0-29.640624 24.074219-54.132812 53.855469-54.132812h140.414062c29.636719 0 53.851563 24.492188 53.851563 54.132812 0 29.640626-24.070313 54.132813-53.851563 54.132813zm0 0"/><path d="m350.960938 462.011719h-11.410157v-11.691407c0-7.648437-6.261719-13.914062-13.917969-13.914062-7.648437 0-13.914062 6.265625-13.914062 13.914062v11.691407h-12.246094c-7.652344 0-13.917968 6.265625-13.917968 13.914062 0 7.65625 6.265624 13.917969 13.917968 13.917969h12.246094v11.6875c0 7.65625 6.265625 13.917969 13.914062 13.917969 7.65625 0 13.917969-6.261719 13.917969-13.917969v-11.6875h11.410157c7.65625 0 13.917968-6.261719 13.917968-13.917969 0-7.648437-6.125-13.914062-13.917968-13.914062zm0 0"/><path d="m493.460938 433.765625c-12.660157 0-22.820313 10.296875-22.820313 22.820313 0 12.523437 10.296875 22.824218 22.820313 22.824218 12.523437 0 22.824218-10.300781 22.824218-22.824218 0-12.523438-10.15625-22.820313-22.824218-22.820313zm0 0"/><path d="m463.824219 473.84375c-12.667969 0-22.824219 10.296875-22.824219 22.820312 0 12.523438 10.296875 22.824219 22.824219 22.824219 12.523437 0 22.820312-10.300781 22.820312-22.824219 0-12.523437-10.160156-22.820312-22.820312-22.820312zm0 0"/></g></svg>