<svg height="640pt" viewBox="0 -52 640 640" width="640pt" xmlns="http://www.w3.org/2000/svg"><path d="m253.089844 20.621094 68.394531 86.640625h-174.46875c-31.152344 0-56.371094 25.21875-56.371094 56.371093v371.777344h-34.273437c-31.152344 0-56.371094-25.21875-56.371094-56.378906v-422.660156c0-31.152344 25.21875-56.371094 56.371094-56.371094h153.105468c16.765626 0 32.785157 7.5625 43.613282 20.621094zm0 0" fill="#00efd1"/><path d="m640 160.816406v318.367188c0 31.152344-25.21875 56.371094-56.371094 56.371094h-507.816406v-374.738282c0-31.152344 25.21875-56.371094 56.371094-56.371094h451.445312c31.152344 0 56.371094 25.21875 56.371094 56.371094zm0 0" fill="#00acea"/><g fill="#083863"><path d="m438.390625 238.105469h-70.914063v-13.496094c0-8.164063-6.679687-14.839844-14.839843-14.839844-8.160157 0-14.832031 6.675781-14.832031 14.839844v13.496094h-70.171876c-53.5625 0-97.171874 43.617187-97.171874 97.324219 0 53.554687 43.609374 97.464843 97.171874 97.464843 26.550782 0 51.921876-10.828125 70.613282-30.113281h29.375c18.394531 19.285156 43.765625 30.113281 70.761718 30.113281 53.5625 0 97.171876-43.761719 97.171876-97.316406 0-53.707031-43.609376-97.472656-97.164063-97.472656zm0 164.824219c-20.476563 0-39.617187-8.902344-52.523437-24.628907-2.816407-3.414062-6.96875-5.191406-11.417969-5.191406h-42.730469c-4.449219 0-8.601562 1.777344-11.421875 5.046875-13.351563 15.871094-32.488281 24.921875-52.664063 24.921875-37.238281 0-67.5-30.414063-67.5-67.648437 0-37.234376 30.261719-67.652344 67.5-67.652344h170.605469c37.234375 0 67.5 30.417968 67.5 67.652344.152344 37.234374-30.113281 67.5-67.347656 67.5zm0 0"/><path d="m296.410156 319.703125h-13.5v-13.058594c0-8.160156-6.675781-14.832031-14.832031-14.832031-8.160156 0-14.835937 6.671875-14.835937 14.832031v13.058594h-14.242188c-8.160156 0-14.835938 6.671875-14.835938 14.835937 0 8.160157 6.675782 14.835938 14.835938 14.835938h14.242188v14.535156c0 8.160156 6.675781 14.839844 14.835937 14.839844 8.15625 0 14.832031-6.679688 14.832031-14.839844v-14.535156h13.5c8.160156 0 14.839844-6.675781 14.839844-14.835938-.003906-8.164062-6.679688-14.835937-14.839844-14.835937zm0 0"/><path d="m455.296875 288.847656c-13.648437 0-24.773437 11.121094-24.773437 24.777344 0 13.644531 11.125 24.773438 24.773437 24.773438 13.652344 0 24.777344-11.128907 24.777344-24.773438 0-13.65625-11.125-24.777344-24.777344-24.777344zm0 0"/><path d="m422.21875 333.648438c-13.648438 0-24.777344 11.125-24.777344 24.773437s11.128906 24.777344 24.777344 24.777344c13.644531 0 24.773438-11.128907 24.773438-24.777344s-11.128907-24.773437-24.773438-24.773437zm0 0"/></g></svg>