<svg height="638pt" viewBox="0 -45 638.74973 638" width="638pt" xmlns="http://www.w3.org/2000/svg"><path d="m593.386719 141.355469v65.976562h-541.914063l-5.953125-146.320312c-1.53125-32.992188 24.890625-60.636719 58.039063-60.636719h125.09375c20.308594 0 39.253906 10.691406 49.789062 28.253906l15.886719 26.582032c10.535156 17.5625 29.324219 28.253906 49.789063 28.253906h191.078124c32.074219-.152344 58.191407 25.8125 58.191407 57.890625zm0 0" fill="#00efd1"/><path d="m608.207031 192.0625c18.480469 0 32.835938 16.34375 30.238281 34.671875l-37.417968 272.175781c-3.972656 28.71875-28.5625 50.105469-57.429688 50.105469h-447.832031c-29.019531 0-53.460937-21.386719-57.425781-50.105469l-38.035156-272.175781c-2.59375-18.328125 11.761718-34.824219 30.242187-34.824219h577.660156zm0 0" fill="#00acea"/><g fill="#083863"><path d="m407.203125 285.382812h-72.554687v-13.898437c0-8.402344-6.871094-15.273437-15.273438-15.273437-8.398438 0-15.269531 6.871093-15.269531 15.273437v13.898437h-72.554688c-55.136719 0-100.042969 44.910157-100.042969 100.199219 0 55.136719 44.90625 100.351563 100.042969 100.351563 27.34375 0 53.460938-11.148438 72.703125-31.007813h30.246094c18.9375 19.859375 45.058594 31.007813 72.855469 31.007813 55.136719 0 100.042969-45.058594 100.042969-100.199219-.152344-55.292969-45.058594-100.351563-100.195313-100.351563zm0 169.695313c-21.082031 0-40.785156-9.164063-54.070313-25.351563-2.902343-3.515624-7.183593-5.347656-11.761718-5.347656h-43.988282c-4.585937 0-8.859374 1.832032-11.761718 5.191406-13.75 16.34375-33.453125 25.664063-54.222656 25.664063-38.335938 0-69.496094-31.3125-69.496094-69.652344 0-38.335937 31.160156-69.648437 69.496094-69.648437h175.648437c38.339844 0 69.5 31.3125 69.5 69.648437.148437 38.335938-31.011719 69.496094-69.34375 69.496094zm0 0"/><path d="m261.027344 369.390625h-14.964844v-13.441406c0-8.402344-6.875-15.273438-15.277344-15.273438-8.394531 0-15.273437 6.871094-15.273437 15.273438v13.441406h-13.589844c-8.402344 0-15.273437 6.875-15.273437 15.277344 0 8.394531 6.871093 15.273437 15.273437 15.273437h13.589844v14.964844c0 8.402344 6.878906 15.277344 15.273437 15.277344 8.402344 0 15.277344-6.875 15.277344-15.277344v-14.964844h14.964844c8.402344 0 15.273437-6.878906 15.273437-15.273437 0-8.402344-6.71875-15.277344-15.273437-15.277344zm0 0"/><path d="m424.617188 337.621094c-14.054688 0-25.511719 11.457031-25.511719 25.507812 0 14.054688 11.457031 25.511719 25.511719 25.511719 14.046874 0 25.503906-11.457031 25.503906-25.511719 0-14.050781-11.304688-25.507812-25.503906-25.507812zm0 0"/><path d="m390.550781 383.75c-14.050781 0-25.507812 11.453125-25.507812 25.507812 0 14.050782 11.457031 25.507813 25.507812 25.507813 14.054688 0 25.507813-11.457031 25.507813-25.507813 0-14.054687-11.300782-25.507812-25.507813-25.507812zm0 0"/></g></svg>