<svg height="640pt" viewBox="0 -52 640 640" width="640pt" xmlns="http://www.w3.org/2000/svg"><path d="m414.996094 340.679688c-12.6875 0-23.027344 10.339843-23.027344 23.027343 0 12.683594 10.339844 23.019531 23.027344 23.019531 12.683594 0 23.019531-10.335937 23.019531-23.019531.136719-12.6875-10.199219-23.027343-23.019531-23.027343zm0 27.570312c-2.480469 0-4.550782-2.0625-4.550782-4.542969 0-2.488281 2.070313-4.550781 4.550782-4.550781 2.480468 0 4.550781 2.0625 4.550781 4.550781 0 2.480469-2.070313 4.542969-4.550781 4.542969zm0 0" fill="#083863"/><path d="m320.964844 59.28125-61.492188-59.28125h-211.214844l7.855469 219.214844h532.734375v-159.933594zm0 0" fill="#00efd1"/><path d="m536.460938 219.214844v.550781h-432.921876v-105.332031h432.921876zm0 0" fill="#fedb41"/><path d="m640 205.980469-58.042969 329.097656h-523.222656l-58.734375-329.097656zm0 0" fill="#00acea"/><g fill="#083863"><path d="m399.277344 293.667969h-65.488282v-12.824219c0-7.582031-6.207031-13.789062-13.789062-13.789062s-13.789062 6.207031-13.789062 13.789062v12.824219h-65.488282c-49.769531 0-90.304687 40.53125-90.304687 90.300781 0 49.777344 40.535156 90.585938 90.304687 90.585938 24.683594 0 48.257813-9.925782 65.628906-27.851563h27.296876c17.097656 17.925781 40.671874 27.851563 65.765624 27.851563 49.769532 0 90.308594-40.671876 90.308594-90.445313s-40.675781-90.441406-90.445312-90.441406zm0 153.035156c-19.027344 0-36.8125-8.132813-48.808594-22.75-2.617188-3.171875-6.480469-4.6875-10.617188-4.6875h-39.707031c-4.132812 0-7.996093 1.515625-10.613281 4.6875-12.414062 14.753906-30.195312 23.023437-48.945312 23.023437-34.605469 0-62.734376-28.261718-62.734376-62.730468 0-34.464844 28.128907-62.726563 62.734376-62.726563h158.550781c34.609375 0 62.734375 28.125 62.734375 62.726563 0 34.605468-27.988282 62.457031-62.59375 62.457031zm0 0"/><path d="m267.332031 369.496094h-13.507812v-12.269532c0-7.582031-6.207031-13.789062-13.789063-13.789062-7.585937 0-13.789062 6.207031-13.789062 13.789062v12.269532h-12.273438c-7.582031 0-13.78125 6.203125-13.78125 13.785156s6.199219 13.789062 13.78125 13.789062h12.273438v13.238282c0 7.582031 6.203125 13.78125 13.789062 13.78125 7.582032 0 13.789063-6.199219 13.789063-13.78125v-13.238282h13.507812c7.585938 0 13.785157-6.207031 13.785157-13.789062s-6.0625-13.785156-13.785157-13.785156zm0 0"/><path d="m384.246094 382.175781c-12.683594 0-23.027344 10.34375-23.027344 23.027344 0 12.6875 10.34375 23.023437 23.027344 23.023437 12.6875 0 23.023437-10.335937 23.023437-23.023437 0-12.683594-10.199219-23.027344-23.023437-23.027344zm0 0"/><path d="m414.996094 340.679688c-12.6875 0-23.027344 10.339843-23.027344 23.027343 0 12.683594 10.339844 23.019531 23.027344 23.019531 12.683594 0 23.019531-10.335937 23.019531-23.019531.136719-12.6875-10.199219-23.027343-23.019531-23.027343zm0 0"/></g></svg>