<svg height="640pt" viewBox="-70 0 640 640" width="640pt" xmlns="http://www.w3.org/2000/svg"><path d="m334.457031 0h-262.332031c-39.472656 0-72.125 32.484375-72.125 71.957031v496.085938c0 39.472656 32.652344 71.957031 72.125 71.957031h356.058594c39.472656 0 72.117187-32.484375 72.117187-71.957031v-394.074219zm0 0" fill="#00acea"/><path d="m335.269531.488281 165.199219 173.640625h-109.972656c-30.535156 0-55.226563-24.6875-55.226563-55.222656zm0 0" fill="#00efd1"/><g fill="#083863"><path d="m383.835938 511.675781h-267.371094c-8.929688 0-16.238282 7.308594-16.238282 16.242188 0 8.9375 7.308594 16.246093 16.238282 16.246093h267.535156c8.933594 0 16.242188-7.308593 16.242188-16.246093 0-8.933594-7.308594-16.242188-16.40625-16.242188zm0 0"/><path d="m343.554688 242.03125h-77.15625v-14.785156c0-8.929688-7.3125-16.242188-16.246094-16.242188s-16.242188 7.3125-16.242188 16.242188v14.785156h-77.15625c-58.644531 0-106.398437 47.753906-106.398437 106.558594 0 58.636718 47.753906 106.722656 106.398437 106.722656 29.078125 0 56.851563-11.859375 77.316406-32.980469h32.164063c20.140625 21.121094 47.921875 32.980469 77.480469 32.980469 58.636718 0 106.398437-47.921875 106.398437-106.5625-.164062-58.800781-47.921875-106.71875-106.558593-106.71875zm0 180.464844c-22.417969 0-43.375-9.742188-57.503907-26.964844-3.085937-3.734375-7.632812-5.683594-12.503906-5.683594h-46.785156c-4.871094 0-9.421875 1.949219-12.507813 5.523438-14.621094 17.378906-35.570312 27.289062-57.667968 27.289062-40.769532 0-73.90625-33.300781-73.90625-74.070312 0-40.773438 33.136718-74.074219 73.90625-74.074219h186.800781c40.773437 0 73.914062 33.300781 73.914062 74.074219.160157 40.769531-32.976562 73.90625-73.746093 73.90625zm0 0"/><path d="m188.101562 331.371094h-15.917968v-14.296875c0-8.929688-7.308594-16.238281-16.246094-16.238281-8.929688 0-16.238281 7.308593-16.238281 16.238281v14.296875h-14.460938c-8.933593 0-16.242187 7.308594-16.242187 16.246094 0 8.929687 7.308594 16.238281 16.242187 16.238281h14.460938v15.917969c0 8.9375 7.308593 16.246093 16.238281 16.246093 8.9375 0 16.246094-7.308593 16.246094-16.246093v-15.917969h15.917968c8.933594 0 16.246094-7.308594 16.246094-16.238281 0-8.9375-7.148437-16.246094-16.246094-16.246094zm0 0"/><path d="m362.070312 297.582031c-14.941406 0-27.125 12.183594-27.125 27.128907 0 14.945312 12.183594 27.128906 27.125 27.128906 14.945313 0 27.128907-12.183594 27.128907-27.128906 0-14.945313-12.023438-27.128907-27.128907-27.128907zm0 0"/><path d="m325.847656 346.640625c-14.945312 0-27.128906 12.183594-27.128906 27.125 0 14.945313 12.183594 27.128906 27.128906 27.128906 14.941406 0 27.125-12.183593 27.125-27.128906 0-14.941406-12.019531-27.125-27.125-27.125zm0 0"/></g></svg>