<svg height="638pt" viewBox="-57 0 638 638.75085" width="638pt" xmlns="http://www.w3.org/2000/svg"><path d="m317.5 238.539062-44.925781-121.921874h-214.023438c-32.199219 0-58.175781 26.507812-58.175781 58.707031v404.71875c0 32.203125 25.976562 58.707031 58.175781 58.707031h290.488281c32.203126 0 58.175782-26.503906 58.175782-58.707031v-321.496094zm0 0" fill="#00efd1"/><path d="m377.132812 180.230469-44.925781-121.921875h-214.019531c-32.203125 0-58.175781 26.507812-58.175781 58.707031v404.71875c0 32.203125 25.972656 58.707031 58.175781 58.707031h290.484375c32.203125 0 58.179687-26.503906 58.179687-58.707031v-321.496094zm0 0" fill="#fedb41"/><path d="m435.441406 121.917969-44.925781-121.917969h-214.019531c-32.203125 0-58.175782 26.503906-58.175782 58.707031v404.71875c0 32.203125 25.972657 58.707031 58.175782 58.707031h290.488281c32.199219 0 58.175781-26.503906 58.175781-58.707031v-321.496093zm0 0" fill="#00acea"/><path d="m390.515625.398438 134.777344 141.664062h-89.71875c-24.914063 0-45.058594-20.144531-45.058594-45.054688zm0 0" fill="#00efd1"/><g fill="#083863"><path d="m430.804688 424.066406h-218.128907c-7.292969 0-13.257812 5.960938-13.257812 13.253906 0 7.289063 5.964843 13.25 13.257812 13.25h218.257813c7.292968 0 13.25-5.960937 13.25-13.25 0-7.292968-5.957032-13.253906-13.378906-13.253906zm0 0"/><path d="m419.140625 245.296875c1.328125-1.0625 2.519531-2.121094 3.710937-3.3125 7.421876-7.292969 11.398438-17.230469 11.398438-27.695313 0-10.472656-4.109375-20.410156-11.53125-27.699218-7.421875-7.292969-17.226562-11.398438-27.5625-11.398438-10.472656 0-20.277344 4.105469-27.699219 11.527344-7.289062 7.421875-11.394531 17.226562-11.394531 27.570312v1.1875c-1.859375-3.3125-4.109375-6.359374-6.761719-9.140624-7.421875-7.292969-17.226562-11.398438-27.5625-11.398438-10.472656 0-20.410156 4.105469-27.699219 11.527344-2.652343 2.652344-4.902343 5.699218-6.621093 9.011718 0-.394531 0-.664062 0-1.058593 0-.128907 0-.128907 0-.265625 0-10.46875-4.109375-20.40625-11.53125-27.695313-7.421875-7.289062-17.226563-11.398437-27.5625-11.398437-10.472657 0-20.277344 4.109375-27.699219 11.53125-7.289062 7.421875-11.394531 17.226562-11.394531 27.5625 0 12.589844 5.828125 23.855468 15.105469 31.011718-19.878907 7.023438-34.320313 26.105469-34.320313 48.367188v41.214844c0 7.289062 6.359375 13.78125 13.648437 13.78125h60.429688v6.363281c0 7.285156 5.566406 13.515625 12.855469 13.515625h89.183593c7.289063 0 13.253907-6.097656 13.253907-13.515625v-6.363281h60.558593c7.289063 0 13.648438-6.359375 13.648438-13.78125v-41.214844c0-22.261719-14.574219-41.210938-34.453125-48.234375zm-32.996094-39.886719c2.382813-2.390625 5.566407-3.714844 8.878907-3.714844s6.492187 1.324219 8.878906 3.714844c2.382812 2.382813 3.707031 5.5625 3.707031 8.878906 0 3.445313-1.324219 6.621094-3.574219 8.878907-2.390625 2.382812-5.566406 3.574219-9.011718 3.574219-6.890626 0-12.59375-5.695313-12.59375-12.585938 0-3.3125 1.328124-6.363281 3.714843-8.746094zm-14.710937 40.019532c-6.359375 2.25-12.324219 5.832031-17.359375 10.464843 4.238281-6.359375 6.625-13.910156 6.625-21.726562 0-.402344 0-.796875 0-1.328125 2.652343 4.902344 6.363281 9.144531 10.734375 12.589844zm-73.8125 20.007812c-.269532-.394531-.53125-.792969-.929688-1.324219.398438.398438.929688.792969 1.324219 1.0625-.132813.128907-.261719.261719-.394531.261719zm48.105468.132812c-.269531-.132812-.402343-.132812-.664062-.265624.664062-.398438 1.1875-.925782 1.855469-1.457032-.398438.53125-.796875 1.195313-1.191407 1.722656zm-33-40.417968c2.386719-2.386719 5.566407-3.710938 8.882813-3.710938 3.3125 0 6.488281 1.324219 8.878906 3.710938 2.382813 2.386718 3.707031 5.566406 3.707031 8.878906s-1.324218 6.496094-3.707031 8.878906c-2.390625 2.386719-5.566406 3.710938-8.878906 3.710938-6.894531 0-12.59375-5.699219-12.59375-12.589844 0-3.3125 1.324219-6.492188 3.710937-8.878906zm-30.210937 7.554687v1.460938c0 7.816406 2.382813 15.238281 6.359375 21.332031-5.035156-4.375-10.738281-7.953125-17.097656-10.203125 1.328125-1.0625 2.652344-2.121094 3.847656-3.3125 2.78125-2.785156 5.164062-5.964844 6.890625-9.277344zm-43.203125-27.296875c2.382812-2.390625 5.566406-3.714844 8.878906-3.714844 3.308594 0 6.492188 1.324219 8.878906 3.714844 2.382813 2.382813 3.707032 5.433594 3.707032 8.746094-.128906 3.445312-1.457032 6.621094-3.84375 9.140625-2.382813 2.386719-5.433594 3.578125-8.742188 3.578125-6.890625 0-12.59375-5.695312-12.59375-12.585938 0-3.445312 1.328125-6.496093 3.714844-8.878906zm-22.929688 116.617188v-28.359375c0-13.648438 11.53125-24.648438 25.3125-24.648438h13.117188c8.75 0 16.835938 4.503907 21.335938 11.792969-7.816407 9.144531-11.921876 20.671875-11.921876 32.996094v8.21875zm136.496094 19.878906h-62.285156v-28.097656c0-7.6875 3.3125-14.972656 9.410156-19.613282 4.371094-3.445312 9.410156-5.164062 15.109375-5.164062h13.117188c5.703125 0 10.867187 1.851562 15.375 5.296875 5.960937 4.769531 9.40625 11.929687 9.40625 19.613281v27.964844zm74.214844-19.878906h-47.707031v-8.21875c0-12.324219-4.242188-23.722656-11.925781-32.863282 4.503906-7.289062 12.585937-11.792968 21.335937-11.792968h13.117187c13.652344 0 25.3125 10.996094 25.3125 24.648437v28.226563zm0 0"/></g></svg>