<svg height="640pt" viewBox="-30 0 640 640" width="640pt" xmlns="http://www.w3.org/2000/svg"><path d="m300.585938 101.449219-15.308594-101.449219h-224.601563c-33.820312 0-60.675781 27.554688-60.675781 61.371094v424.71875c0 33.816406 26.855469 60.8125 60.675781 60.8125h213.054688l153.492187-232.402344v-165.734375zm0 0" fill="#00acea"/><path d="m285.277344.140625 141.527344 148.625h-94.210938c-26.164062 0-47.316406-21.152344-47.316406-47.316406zm0 0" fill="#00efd1"/><g fill="#083863"><path d="m98.527344 346.507812h181.324218c7.652344 0 13.917969-6.257812 13.917969-13.914062 0-7.652344-6.265625-13.917969-13.917969-13.917969h-181.324218c-7.652344 0-13.917969 6.265625-13.917969 13.917969 0 7.65625 6.265625 13.914062 13.917969 13.914062zm0 0"/><path d="m98.527344 276.929688h140.96875c7.652344 0 13.917968-6.261719 13.917968-13.917969 0-7.652344-6.265624-13.914063-13.917968-13.914063h-140.96875c-7.652344 0-13.917969 6.261719-13.917969 13.914063 0 7.65625 6.265625 13.917969 13.917969 13.917969zm0 0"/><path d="m234.066406 389.648438h-135.539062c-7.652344 0-13.917969 6.265624-13.917969 13.914062 0 7.65625 6.265625 13.917969 13.917969 13.917969h135.539062c7.65625 0 13.917969-6.261719 13.917969-13.917969 0-7.648438-6.261719-13.914062-13.917969-13.914062zm0 0"/></g><path d="m426.804688 286.8125c86.28125 12.101562 152.65625 86.136719 152.65625 175.753906 0 97.96875-79.457032 177.433594-177.425782 177.433594-67.351562 0-126.078125-37.574219-156-92.960938-13.636718-25.1875-21.429687-53.992187-21.429687-84.609374 0-97.96875 79.460937-177.429688 177.429687-177.429688 8.351563.140625 16.558594.699219 24.769532 1.8125zm0 0" fill="#fedb41"/><path d="m503.902344 435.292969c1.390625-1.113281 2.640625-2.226563 3.894531-3.476563 7.792969-7.65625 11.96875-18.089844 11.96875-29.085937 0-10.992188-4.316406-21.433594-12.109375-29.082031-7.792969-7.65625-18.089844-11.96875-28.945312-11.96875-10.992188 0-21.289063 4.3125-29.082032 12.105468-7.65625 7.792969-11.96875 18.089844-11.96875 28.945313v1.253906c-1.949218-3.480469-4.316406-6.679687-7.097656-9.464844-7.792969-7.65625-18.09375-11.964843-28.945312-11.964843-10.992188 0-21.433594 4.308593-29.082032 12.101562-2.785156 2.785156-5.152344 5.988281-6.960937 9.464844 0-.414063 0-.695313 0-1.113282 0-.136718 0-.136718 0-.277343 0-10.992188-4.316407-21.433594-12.109375-29.082031-7.792969-7.65625-18.089844-11.96875-28.945313-11.96875-10.988281 0-21.285156 4.3125-29.082031 12.105468-7.65625 7.792969-11.964844 18.089844-11.964844 28.945313 0 13.222656 6.679688 25.046875 16.417969 32.5625-20.871094 7.378906-35.484375 27.417969-35.484375 50.796875v43.273437c0 7.65625 5.566406 13.359375 13.214844 13.359375h63.320312v7.792969c0 7.65625 6.125 14.472656 13.917969 14.472656h93.652344c7.65625 0 13.5-6.816406 13.5-14.472656v-7.792969h63.871093c7.65625 0 14.058594-5.703125 14.058594-13.359375v-43.273437c0-23.378906-15.167968-43.417969-36.039062-50.796875zm-34.511719-41.886719c2.503906-2.503906 5.84375-3.894531 9.320313-3.894531 3.480468 0 6.820312 1.390625 9.324218 3.894531 2.507813 2.507812 3.898438 5.847656 3.898438 9.324219 0 3.617187-1.390625 6.957031-3.761719 9.324219-2.503906 2.503906-5.84375 3.898437-9.460937 3.898437-7.238282 0-13.21875-5.988281-13.21875-13.222656 0-3.476563 1.390624-6.816407 3.898437-9.324219zm-15.449219 42.027344c-6.679687 2.363281-12.941406 6.125-18.230468 10.992187 4.453124-6.679687 6.816406-14.609375 6.816406-22.824219 0-.414062 0-.832031 0-1.25 2.925781 5.011719 6.824218 9.464844 11.414062 13.082032zm-77.511718 21.152344c-.277344-.417969-.554688-.835938-.976563-1.390626.421875.414063.976563.835938 1.390625 1.113282-.136719.136718-.277344.136718-.414062.277344zm50.511718 0c-.277344-.140626-.414062-.140626-.691406-.277344.691406-.421875 1.25-.976563 1.804688-1.535156-.277344.699218-.691407 1.257812-1.113282 1.8125zm-34.648437-42.304688c2.507812-2.503906 5.847656-3.894531 9.324219-3.894531 3.480468 0 6.820312 1.390625 9.324218 3.894531s3.898438 5.84375 3.898438 9.320312c0 3.484376-1.394532 6.824219-3.898438 9.328126-2.503906 2.503906-5.84375 3.894531-9.324218 3.894531-7.238282 0-13.21875-5.984375-13.21875-13.222657 0-3.617187 1.390624-6.816406 3.894531-9.320312zm-31.726563 7.792969v1.527343c0 8.214844 2.503906 16.007813 6.679688 22.410157-5.289063-4.597657-11.273438-8.351563-17.953125-10.71875 1.390625-1.113281 2.78125-2.226563 4.035156-3.476563 2.921875-2.925781 5.425781-6.265625 7.238281-9.742187zm-45.367187-28.667969c2.503906-2.503906 5.84375-3.894531 9.320312-3.894531 3.484375 0 6.824219 1.390625 9.328125 3.894531 2.503906 2.507812 3.894532 5.703125 3.894532 9.1875-.140626 3.617188-1.53125 7.09375-4.035157 9.597656-2.507812 2.511719-5.703125 3.761719-9.1875 3.761719-7.234375 0-13.214843-5.984375-13.214843-13.21875 0-3.480469 1.390624-6.820313 3.894531-9.328125zm-22.964844 121.484375v-28.800781c0-14.335938 11.132813-25.46875 25.46875-25.46875h13.640625c9.183594 0 17.53125 4.59375 22.265625 12.109375-8.214844 9.597656-12.667969 21.566406-12.667969 34.511719v7.648437zm141.945313 22.265625h-65.40625v-29.914062c0-8.074219 3.617187-15.449219 10.019531-20.460938 4.59375-3.617188 10.019531-5.289062 16-5.289062h13.644531c5.980469 0 11.269531 1.8125 15.863281 5.429687 6.402344 5.011719 9.742188 12.246094 9.742188 20.320313v29.914062zm77.929687-22.265625h-50.097656v-7.648437c0-12.945313-4.3125-24.773438-12.382813-34.375 4.730469-7.652344 13.359375-12.246094 22.542969-12.246094h13.773437c14.335938 0 26.164063 11.132812 26.164063 25.46875zm0 0" fill="#083863"/></svg>