<svg height="640pt" viewBox="0 -52 640 640" width="640pt" xmlns="http://www.w3.org/2000/svg"><path d="m253.089844 20.621094 68.394531 86.640625h-174.46875c-31.152344 0-56.371094 25.21875-56.371094 56.371093v371.777344h-34.273437c-31.152344 0-56.371094-25.21875-56.371094-56.378906v-422.660156c0-31.152344 25.21875-56.371094 56.371094-56.371094h153.105468c16.765626 0 32.785157 7.5625 43.613282 20.621094zm0 0" fill="#00efd1"/><path d="m640 160.816406v318.367188c0 31.152344-25.21875 56.371094-56.371094 56.371094h-507.816406v-374.738282c0-31.152344 25.21875-56.371094 56.371094-56.371094h451.445312c31.152344 0 56.371094 25.21875 56.371094 56.371094zm0 0" fill="#00acea"/><path d="m461.527344 291.664062c1.484375-1.1875 3.117187-2.371093 4.453125-3.710937 8.308593-8.15625 12.90625-19.285156 12.90625-31.003906s-4.597657-22.847657-12.90625-31.007813c-8.308594-8.160156-19.140625-12.757812-30.859375-12.757812s-22.699219 4.597656-31.003906 12.90625c-8.160157 8.308594-12.757813 19.285156-12.757813 30.859375v1.332031c-2.078125-3.707031-4.601563-7.117188-7.566406-10.234375-8.308594-8.160156-19.285157-12.757813-30.859375-12.757813-11.71875 0-22.847656 4.597657-31.003906 12.90625-2.96875 2.96875-5.488282 6.378907-7.417969 10.085938 0-.445312 0-.742188 0-1.1875 0-.144531 0-.144531 0-.292969 0-11.722656-4.597657-22.847656-12.910157-31.003906-8.304687-8.160156-19.28125-12.757813-30.855468-12.757813-11.722656 0-22.699219 4.597657-31.003906 12.902344-8.160157 8.308594-12.757813 19.289063-12.757813 30.859375 0 14.09375 6.671875 26.699219 17.203125 34.714844-22.25 7.863281-38.273438 29.226563-38.273438 54.148437v46.136719c0 8.160157 6.824219 15.429688 14.984376 15.429688h66.464843v7.121093c0 8.15625 7.417969 15.132813 15.574219 15.132813h99.84375c8.160156 0 15.132812-6.824219 15.132812-15.132813v-7.121093h67.351563c8.164063 0 14.242187-7.121094 14.242187-15.429688v-46.136719c0-24.921874-15.722656-46.136718-37.980468-54zm-36.492188-44.652343c2.667969-2.671875 6.230469-4.15625 9.941406-4.15625 3.703126 0 7.265626 1.484375 9.9375 4.15625 2.667969 2.667969 4.152344 6.230469 4.152344 9.9375 0 3.855469-1.484375 7.417969-4.003906 9.941406-2.671875 2.671875-6.230469 4.003906-10.085938 4.003906-7.714843 0-14.097656-6.378906-14.097656-14.09375.152344-3.710937 1.636719-7.121093 4.15625-9.789062zm-16.320312 44.800781c-7.117188 2.523438-13.796875 6.527344-19.433594 11.71875 4.746094-7.121094 7.417969-15.578125 7.417969-24.328125 0-.449219 0-.890625 0-1.484375 2.816406 5.488281 6.972656 10.234375 12.015625 14.09375zm-82.78125 22.402344c-.300782-.445313-.589844-.890625-1.035156-1.484375.445312.441406 1.035156.886719 1.476562 1.183593 0 .152344-.144531.300782-.441406.300782zm54.003906.144531c-.296875-.144531-.445312-.144531-.742188-.292969.742188-.449218 1.332032-1.039062 2.074219-1.636718-.589843.597656-1.035156 1.339843-1.332031 1.929687zm-37.089844-45.242187c2.667969-2.671876 6.230469-4.15625 9.941406-4.15625 3.703126 0 7.265626 1.484374 9.9375 4.15625 2.667969 2.664062 4.152344 6.230468 4.152344 9.9375 0 3.710937-1.484375 7.269531-4.152344 9.9375-2.667968 2.671874-6.234374 4.15625-9.9375 4.15625-7.714843 0-14.097656-6.382813-14.097656-14.09375.152344-3.707032 1.484375-7.265626 4.15625-9.9375zm-33.675781 8.453124v1.632813c0 8.75 2.667969 17.0625 7.121094 23.882813-5.636719-4.890626-12.019531-8.902344-19.140625-11.421876 1.484375-1.1875 2.96875-2.371093 4.300781-3.710937 3.117187-3.113281 5.640625-6.671875 7.71875-10.382813zm-48.511719-30.558593c2.667969-2.671875 6.230469-4.15625 9.941406-4.15625 3.703126 0 7.265626 1.484375 9.9375 4.15625 2.667969 2.667969 4.152344 6.078125 4.152344 9.789062-.152344 3.859375-1.628906 7.417969-4.300781 10.234375-2.671875 2.671875-6.085937 4.011719-9.789063 4.011719-7.714843 0-14.097656-6.382813-14.097656-14.097656 0-3.859375 1.484375-7.269531 4.15625-9.9375zm-25.222656 130.550781v-31.746094c0-15.285156 12.609375-27.597656 27.890625-27.597656h14.539063c9.792968 0 18.246093 5.042969 23.289062 13.203125-8.75 10.238281-13.9375 23.144531-13.9375 36.941406v9.199219zm152.804688 22.25h-71.210938v-31.449219c0-8.605469 4.300781-16.765625 11.128906-21.957031 4.894532-3.859375 11.128906-5.785156 17.355469-5.785156h14.539063c6.382812 0 12.3125 2.078125 17.359374 5.933594 6.671876 5.339843 10.679688 13.351562 10.679688 21.957031v31.300781zm81.597656-22.25h-51.925782v-9.199219c0-13.796875-4.898437-26.558593-13.5-36.792969 5.042969-8.15625 13.945313-13.203124 23.734376-13.203124h14.6875c15.28125 0 27.148437 12.3125 27.148437 27.59375v31.601562zm0 0" fill="#083863"/></svg>