<svg height="638pt" viewBox="0 -45 638.74973 638" width="638pt" xmlns="http://www.w3.org/2000/svg"><path d="m593.386719 141.355469v65.976562h-541.914063l-5.953125-146.320312c-1.53125-32.992188 24.890625-60.636719 58.039063-60.636719h125.09375c20.308594 0 39.253906 10.691406 49.789062 28.253906l15.886719 26.582032c10.535156 17.5625 29.324219 28.253906 49.789063 28.253906h191.078124c32.074219-.152344 58.191407 25.8125 58.191407 57.890625zm0 0" fill="#00efd1"/><path d="m608.207031 192.0625c18.480469 0 32.835938 16.34375 30.238281 34.671875l-37.417968 272.175781c-3.972656 28.71875-28.5625 50.105469-57.429688 50.105469h-447.832031c-29.019531 0-53.460937-21.386719-57.425781-50.105469l-38.035156-272.175781c-2.59375-18.328125 11.761718-34.824219 30.242187-34.824219h577.660156zm0 0" fill="#00acea"/><path d="m431.335938 340.523438c1.523437-1.222657 3.050781-2.445313 4.429687-3.820313 8.550781-8.398437 13.132813-19.851563 13.132813-31.917969s-4.738282-23.523437-13.289063-31.925781-19.855469-13.132813-31.769531-13.132813c-12.066406 0-23.367188 4.730469-31.925782 13.285157-8.394531 8.554687-13.132812 19.859375-13.132812 31.773437v1.375c-2.136719-3.820312-4.730469-7.335937-7.785156-10.542968-8.554688-8.402344-19.859375-13.132813-31.769532-13.132813-12.070312 0-23.523437 4.730469-31.925781 13.285156-3.054687 3.054688-5.652343 6.570313-7.636719 10.390625 0-.460937 0-.765625 0-1.222656 0-.152344 0-.152344 0-.308594 0-12.066406-4.738281-23.519531-13.289062-31.921875-8.550781-8.398437-19.855469-13.136719-31.769531-13.136719-12.066407 0-23.367188 4.738282-31.917969 13.289063-8.402344 8.554687-13.140625 19.859375-13.140625 31.769531 0 14.511719 7.027344 27.496094 17.871094 35.742188-22.910157 8.09375-39.253907 30.089844-39.253907 55.75v47.5c0 8.398437 6.570313 15.886718 14.96875 15.886718h69.042969v7.328126c0 8.402343 7.175781 15.578124 15.574219 15.578124h102.796875c8.394531 0 16.03125-7.019531 16.03125-15.578124v-7.328126h69.042969c8.398437 0 14.96875-7.335937 14.96875-15.886718v-47.5c-.003906-25.660156-16.34375-47.5-39.253906-55.597656zm-37.730469-45.972657c2.75-2.75 6.414062-4.277343 10.234375-4.277343 3.820312 0 7.484375 1.527343 10.234375 4.277343s4.273437 6.414063 4.273437 10.234375c0 3.972656-1.523437 7.636719-4.121094 10.234375-2.75 2.746094-6.414062 4.121094-10.386718 4.121094-7.941406 0-14.511719-6.570313-14.511719-14.507813.003906-3.820312 1.53125-7.332031 4.277344-10.082031zm-16.953125 46.125c-7.328125 2.597657-14.207032 6.722657-20.007813 12.066407 4.886719-7.328126 7.632813-16.039063 7.632813-25.046876 0-.460937 0-.917968 0-1.527343 3.058594 5.648437 7.335937 10.535156 12.375 14.507812zm-85.074219 23.066407c-.304687-.457032-.613281-.917969-1.070313-1.53125.457032.457031 1.070313.917968 1.53125 1.222656-.15625.15625-.308593.308594-.460937.308594zm55.445313.148437c-.308594-.148437-.457032-.148437-.765626-.304687.765626-.457032 1.375-1.066407 2.140626-1.675782-.460938.609375-.917969 1.375-1.375 1.980469zm-38.03125-46.582031c2.75-2.75 6.414062-4.277344 10.234374-4.277344 3.816407 0 7.480469 1.527344 10.226563 4.277344 2.753906 2.75 4.28125 6.414062 4.28125 10.234375 0 3.816406-1.527344 7.480469-4.28125 10.234375-2.746094 2.746094-6.410156 4.273437-10.226563 4.273437-7.945312 0-14.511718-6.570312-14.511718-14.507812 0-3.820313 1.527344-7.484375 4.277344-10.234375zm-34.824219 8.703125v1.683593c0 9.007813 2.746093 17.5625 7.328125 24.589844-5.804688-5.039062-12.371094-9.164062-19.703125-11.761718 1.527343-1.222657 3.058593-2.445313 4.429687-3.820313 3.207032-3.207031 5.957032-6.871094 7.945313-10.691406zm-49.796875-31.460938c2.75-2.75 6.414062-4.277343 10.234375-4.277343 3.820312 0 7.484375 1.527343 10.234375 4.277343s4.277344 6.261719 4.277344 10.078125c-.15625 3.972656-1.679688 7.636719-4.429688 10.539063-2.746094 2.75-6.261719 4.125-10.082031 4.125-7.941407 0-14.507813-6.566407-14.507813-14.507813 0-3.972656 1.527344-7.484375 4.273438-10.234375zm-25.65625 134.410157v-32.683594c0-15.738282 12.523437-28.414063 28.40625-28.414063h15.121094c10.082031 0 18.941406 5.195313 24.132812 13.597657-9.011719 10.535156-14.050781 23.824218-14.050781 38.03125v9.46875zm157.320312 22.910156h-73.316406v-32.382813c0-8.855469 4.273438-17.257812 11.300781-22.605469 5.039063-3.96875 11.300781-5.953124 17.722657-5.953124h15.121093c6.5625 0 12.980469 2.132812 18.019531 6.105468 6.871094 5.503906 11.300782 13.75 11.300782 22.609375v32.226563zm84.003906-22.910156h-53.460937v-9.46875c0-14.207032-5.34375-27.34375-14.199219-37.878907 5.191406-8.402343 14.199219-13.597656 24.285156-13.597656h15.121094c15.730469 0 28.410156 12.679687 28.410156 28.410156v32.535157zm0 0" fill="#083863"/></svg>