<svg height="640pt" viewBox="0 -52 640 640" width="640pt" xmlns="http://www.w3.org/2000/svg"><path d="m320.964844 59.28125-61.492188-59.28125h-211.214844l7.855469 219.214844h532.734375v-159.933594zm0 0" fill="#00efd1"/><path d="m536.460938 219.214844v.550781h-432.921876v-105.332031h432.921876zm0 0" fill="#fedb41"/><path d="m640 205.980469-58.042969 329.097656h-523.222656l-58.734375-329.097656zm0 0" fill="#00acea"/><path d="m421.058594 343.164062c1.378906-1.105468 2.757812-2.207031 4-3.449218 7.582031-7.582032 11.855468-17.921875 11.855468-28.816406 0-10.890626-4.273437-21.09375-11.992187-28.8125-7.726563-7.585938-17.789063-11.855469-28.675781-11.855469-10.894532 0-21.101563 4.269531-28.820313 11.992187-7.582031 7.71875-11.855469 17.921875-11.855469 28.675782v1.238281c-1.933593-3.445313-4.273437-6.613281-7.03125-9.511719-7.71875-7.582031-17.925781-11.855469-28.675781-11.855469-10.894531 0-21.234375 4.273438-28.820312 11.992188-2.753907 2.761719-5.097657 5.929687-6.886719 9.375 0-.410157 0-.6875 0-1.101563 0-.136718 0-.136718 0-.273437 0-10.894531-4.277344-21.09375-12-28.8125-7.71875-7.582031-17.921875-11.863281-28.675781-11.863281-10.894531 0-21.09375 4.28125-28.8125 12-7.582031 7.71875-11.859375 17.921874-11.859375 28.675781 0 13.09375 6.339844 24.8125 16.132812 32.261719-20.679687 7.308593-35.4375 27.160156-35.4375 50.324218v42.878906c0 7.582032 5.929688 14.476563 13.511719 14.476563h62.320313v6.480469c0 7.582031 6.480468 14.199218 14.0625 14.199218h92.789062c7.582031 0 14.476562-6.617187 14.476562-14.199218v-6.34375h62.320313c7.582031 0 13.507813-6.894532 13.507813-14.476563v-42.878906c0-23.164063-14.753907-43.015625-35.433594-50.320313zm-34.050782-41.5c2.480469-2.484374 5.789063-3.863281 9.238282-3.863281 3.441406 0 6.75 1.378907 9.230468 3.863281 2.488282 2.480469 3.863282 5.785157 3.863282 9.234376 0 3.589843-1.375 6.894531-3.726563 9.378906-2.335937 2.480468-5.785156 3.722656-9.375 3.722656-7.167969 0-13.09375-5.929688-13.09375-13.097656 0-3.453125 1.375-6.757813 3.863281-9.238282zm-15.304687 41.636719c-6.621094 2.480469-12.820313 6.0625-18.0625 10.894531 4.410156-6.621093 6.890625-14.480468 6.890625-22.613281 0-.414062 0-.832031 0-1.242187 2.757812 4.960937 6.621094 9.511718 11.171875 12.960937zm-76.796875 20.957031c-.273438-.414062-.550781-.832031-.964844-1.382812.414063.414062.964844.832031 1.378906 1.105469-.136718.136719-.277343.136719-.414062.277343zm50.050781 0c-.28125-.140624-.417969-.140624-.695312-.277343.695312-.417969 1.242187-.964844 1.933593-1.515625-.414062.6875-.828124 1.242187-1.238281 1.792968zm-34.332031-41.914062c2.480469-2.480469 5.789062-3.863281 9.238281-3.863281 3.445313 0 6.753907 1.382812 9.238281 3.726562 2.480469 2.480469 3.855469 5.789063 3.855469 9.238281 0 3.582032-1.375 6.753907-3.855469 9.238282-2.484374 2.480468-5.792968 3.855468-9.238281 3.855468-7.167969 0-13.101562-5.925781-13.101562-13.09375 0-3.3125 1.382812-6.621093 3.863281-9.101562zm-31.4375 7.71875v1.519531c0 8.132813 2.480469 15.855469 6.617188 22.195313-5.238282-4.550782-11.167969-8.269532-17.78125-10.613282 1.375-1.105468 2.757812-2.207031 3.996093-3.449218 2.898438-2.894532 5.378907-6.066406 7.167969-9.652344zm-44.945312-28.398438c2.480468-2.484374 5.792968-3.863281 9.238281-3.863281 3.449219 0 6.753906 1.378907 9.238281 3.863281 2.480469 2.480469 3.859375 5.648438 3.859375 9.097657-.136719 3.582031-1.515625 7.03125-3.996094 9.515625-2.484375 2.480468-5.652343 3.722656-9.101562 3.722656-7.167969 0-13.09375-5.929688-13.09375-13.097656 0-3.453125 1.375-6.757813 3.855469-9.238282zm-23.164063 121.601563v-29.78125c0-14.203125 11.308594-25.371094 25.644531-25.371094h13.652344c9.097656 0 17.09375 4.6875 21.78125 12.136719-8.132812 9.515625-12.683594 21.371094-12.683594 34.191406v8.824219zm142.011719 20.679687h-66.179688v-29.503906c0-7.996094 3.859375-15.441406 10.203125-20.402344 4.550781-3.585937 10.199219-5.378906 15.992188-5.378906h13.648437c5.789063 0 11.722656 1.792969 16.269532 5.378906 6.203124 4.824219 10.203124 12.269532 10.203124 20.265626v29.640624zm75.824218-20.679687h-48.25v-8.824219c0-12.820312-4.824218-24.679687-12.824218-34.191406 4.6875-7.585938 12.824218-12.273438 21.925781-12.273438h13.648437c14.199219 0 25.644532 11.167969 25.644532 25.371094v29.917969zm0 0" fill="#083863"/></svg>