<svg height="640pt" viewBox="-70 0 640 640" width="640pt" xmlns="http://www.w3.org/2000/svg"><path d="m334.457031 0h-262.332031c-39.472656 0-72.125 32.484375-72.125 71.957031v496.085938c0 39.472656 32.652344 71.957031 72.125 71.957031h356.058594c39.472656 0 72.117187-32.484375 72.117187-71.957031v-394.074219zm0 0" fill="#00acea"/><path d="m335.269531.488281 165.199219 173.640625h-109.972656c-30.535156 0-55.226563-24.6875-55.226563-55.222656zm0 0" fill="#00efd1"/><g fill="#083863"><path d="m383.835938 511.675781h-267.371094c-8.929688 0-16.238282 7.308594-16.238282 16.242188 0 8.9375 7.308594 16.246093 16.238282 16.246093h267.535156c8.933594 0 16.242188-7.308593 16.242188-16.246093 0-8.933594-7.308594-16.242188-16.40625-16.242188zm0 0"/><path d="m369.21875 300.667969c1.625-1.296875 3.246094-2.597657 4.710938-4.058594 9.097656-8.933594 13.964843-21.117187 13.964843-33.949219 0-12.832031-5.035156-25.015625-14.128906-33.949218-9.097656-8.9375-21.113281-13.96875-33.785156-13.96875-12.832031 0-24.855469 5.03125-33.949219 14.128906-8.9375 9.097656-13.972656 21.117187-13.972656 33.789062v1.460938c-2.273438-4.0625-5.03125-7.796875-8.285156-11.207032-9.09375-8.933593-21.113282-13.96875-33.78125-13.96875-12.835938 0-25.015626 5.035157-33.953126 14.128907-3.246093 3.25-6.007812 6.984375-8.117187 11.046875 0-.488282 0-.8125 0-1.300782 0-.160156 0-.160156 0-.324218 0-12.832032-5.039063-25.015625-14.136719-33.945313-9.097656-8.9375-21.113281-13.972656-33.785156-13.972656-12.832031 0-24.851562 5.035156-33.949219 14.132813-8.9375 9.097656-13.96875 21.117187-13.96875 33.785156 0 15.433594 7.46875 29.238281 19.003907 38.011718-24.367188 8.609376-41.746094 32-41.746094 59.285157v50.519531c0 8.933594 6.984375 16.894531 15.917968 16.894531h73.425782v7.796875c0 8.9375 7.628906 16.566406 16.566406 16.566406h109.320312c8.929688 0 17.054688-7.46875 17.054688-16.566406v-7.796875h73.417969c8.9375 0 15.921875-7.796875 15.921875-16.894531v-50.519531c0-27.285157-17.382813-50.515625-41.746094-59.125zm-40.121094-48.890625c2.921875-2.925782 6.820313-4.546875 10.882813-4.546875s7.957031 1.621093 10.882812 4.546875c2.925781 2.925781 4.546875 6.820312 4.546875 10.882812 0 4.222656-1.621094 8.121094-4.386718 10.882813-2.921876 2.925781-6.820313 4.386719-11.042969 4.386719-8.449219 0-15.433594-6.984376-15.433594-15.429688.003906-4.0625 1.625-7.796875 4.550781-10.722656zm-18.035156 49.058594c-7.796875 2.757812-15.101562 7.140624-21.277344 12.832031 5.199219-7.800781 8.125-17.058594 8.125-26.640625 0-.488282 0-.976563 0-1.628906 3.246094 6.011718 7.792969 11.210937 13.152344 15.4375zm-90.472656 24.523437c-.324219-.488281-.652344-.976563-1.136719-1.625.488281.488281 1.136719.976563 1.621094 1.300781-.160157.164063-.324219.324219-.484375.324219zm58.964844.164063c-.328126-.164063-.488282-.164063-.8125-.324219.8125-.488281 1.457031-1.136719 2.273437-1.785157-.488281.648438-.976563 1.457032-1.460937 2.109376zm-40.449219-49.542969c2.925781-2.925781 6.824219-4.550781 10.886719-4.550781s7.957031 1.625 10.882812 4.550781c2.921875 2.921875 4.546875 6.820312 4.546875 10.882812 0 4.058594-1.625 7.960938-4.546875 10.886719-2.925781 2.917969-6.820312 4.542969-10.882812 4.542969-8.449219 0-15.429688-6.984375-15.429688-15.429688 0-4.0625 1.617188-7.960937 4.542969-10.882812zm-37.035157 9.257812v1.789063c0 9.582031 2.925782 18.675781 7.796876 26.152344-6.171876-5.363282-13.15625-9.746094-20.949219-12.511719 1.621093-1.296875 3.246093-2.597657 4.707031-4.058594 3.410156-3.410156 6.335938-7.308594 8.445312-11.371094zm-52.953124-33.460937c2.925781-2.925782 6.820312-4.546875 10.882812-4.546875s7.960938 1.621093 10.882812 4.546875c2.925782 2.925781 4.546876 6.660156 4.546876 10.722656-.160157 4.222656-1.785157 8.121094-4.707032 11.042969-2.925781 2.925781-6.660156 4.386719-10.722656 4.386719-8.445312 0-15.429688-6.984376-15.429688-15.429688 0-4.0625 1.621094-7.796875 4.546876-10.722656zm-27.289063 142.945312v-34.761718c0-16.734376 13.320313-30.214844 30.214844-30.214844h16.078125c10.722656 0 20.144531 5.523437 25.667968 14.457031-9.585937 11.207031-14.945312 25.34375-14.945312 40.445313v10.074218zm167.308594 24.363282h-77.96875v-34.4375c0-9.417969 4.550781-18.355469 12.019531-24.039063 5.363281-4.222656 12.023438-6.335937 18.84375-6.335937h16.078125c6.988281 0 13.808594 2.273437 19.171875 6.496093 7.308594 5.851563 12.015625 14.621094 12.015625 24.039063v34.277344zm89.339843-24.363282h-56.851562v-10.074218c0-15.101563-5.6875-29.074219-15.105469-40.285157 5.519531-8.929687 15.105469-14.457031 25.824219-14.457031h16.082031c16.730469 0 30.210938 13.480469 30.210938 30.214844v34.601562zm0 0"/></g></svg>