<svg height="638pt" viewBox="-57 0 638 638.75085" width="638pt" xmlns="http://www.w3.org/2000/svg"><path d="m317.5 238.539062-44.925781-121.921874h-214.023438c-32.199219 0-58.175781 26.507812-58.175781 58.707031v404.71875c0 32.203125 25.976562 58.707031 58.175781 58.707031h290.488281c32.203126 0 58.175782-26.503906 58.175782-58.707031v-321.496094zm0 0" fill="#00efd1"/><path d="m377.132812 180.230469-44.925781-121.921875h-214.019531c-32.203125 0-58.175781 26.507812-58.175781 58.707031v404.71875c0 32.203125 25.972656 58.707031 58.175781 58.707031h290.484375c32.203125 0 58.179687-26.503906 58.179687-58.707031v-321.496094zm0 0" fill="#fedb41"/><path d="m435.441406 121.917969-44.925781-121.917969h-214.019531c-32.203125 0-58.175782 26.503906-58.175782 58.707031v404.71875c0 32.203125 25.972657 58.707031 58.175782 58.707031h290.488281c32.199219 0 58.175781-26.503906 58.175781-58.707031v-321.496093zm0 0" fill="#00acea"/><path d="m390.515625.398438 134.777344 141.664062h-89.71875c-24.914063 0-45.058594-20.144531-45.058594-45.054688zm0 0" fill="#00efd1"/><g fill="#083863"><path d="m430.804688 424.066406h-218.128907c-7.292969 0-13.257812 5.960938-13.257812 13.253906 0 7.289063 5.964843 13.25 13.257812 13.25h218.257813c7.292968 0 13.25-5.960937 13.25-13.25 0-7.292968-5.957032-13.253906-13.378906-13.253906zm0 0"/><path d="m406.417969 205.671875 24.121093-24.117187c5.167969-5.167969 5.167969-13.519532 0-18.683594-5.167968-5.171875-13.515624-5.171875-18.6875 0l-28.757812 28.757812c-20.671875-10.472656-41.214844-15.640625-61.222656-15.640625-80.308594 0-142.722656 84.285157-145.375 87.859375-3.445313 4.640625-3.445313 11 0 15.640625 1.058594 1.457031 24.515625 33.257813 60.691406 58.175781l-24.117188 24.117188c-5.167968 5.167969-5.167968 13.519531 0 18.6875 2.652344 2.648438 5.964844 3.84375 9.410157 3.84375 3.445312 0 6.757812-1.324219 9.410156-3.84375l28.757813-28.757812c20.671874 10.472656 41.210937 15.636718 61.222656 15.636718 80.304687 0 142.722656-84.28125 145.375-87.859375 3.445312-4.640625 3.445312-11 0-15.640625-1.195313-1.457031-24.648438-33.261718-60.828125-58.175781zm-137.953125 100.585937-12.195313 12.191407c-24.117187-15.769531-42.800781-35.914063-52.078125-46.785157 16.5625-19.609374 63.875-69.175781 117.679688-69.175781 13.25 0 27.167968 3.050781 41.214844 9.148438l-6.628907 6.621093c-10.207031-6.621093-22.128906-10.199218-34.585937-10.199218-34.984375 0-63.480469 28.492187-63.480469 63.605468-.128906 12.457032 3.316406 24.386719 10.074219 34.59375zm87.066406-49.699218c2.117188 4.640625 3.179688 9.808594 3.179688 15.105468 0 20.410157-16.566407 37.105469-36.972657 37.105469-5.300781 0-10.46875-1.054687-15.105469-3.175781zm-67.582031 30.214844c-2.125-4.632813-3.183594-9.804688-3.183594-15.109376 0-20.40625 16.5625-37.101562 36.972656-37.101562 5.296875 0 10.46875 1.0625 15.109375 3.179688zm33.789062 54.070312c-13.25 0-27.167969-3.046875-41.210937-9.144531l6.621094-6.625c10.203124 6.625 22.132812 10.203125 34.589843 10.203125 34.984375 0 63.476563-28.488282 63.476563-63.613282 0-12.453124-3.578125-24.378906-10.199219-34.582031l12.1875-12.195312c24.121094 15.769531 42.9375 35.910156 52.078125 46.777343-16.429688 19.617188-63.609375 69.179688-117.542969 69.179688zm0 0"/></g></svg>