<svg height="640pt" viewBox="0 -52 640 640" width="640pt" xmlns="http://www.w3.org/2000/svg"><path d="m253.089844 20.621094 68.394531 86.640625h-174.46875c-31.152344 0-56.371094 25.21875-56.371094 56.371093v371.777344h-34.273437c-31.152344 0-56.371094-25.21875-56.371094-56.378906v-422.660156c0-31.152344 25.21875-56.371094 56.371094-56.371094h153.105468c16.765626 0 32.785157 7.5625 43.613282 20.621094zm0 0" fill="#00efd1"/><path d="m640 160.816406v318.367188c0 31.152344-25.21875 56.371094-56.371094 56.371094h-507.816406v-374.738282c0-31.152344 25.21875-56.371094 56.371094-56.371094h451.445312c31.152344 0 56.371094 25.21875 56.371094 56.371094zm0 0" fill="#00acea"/><path d="m447.882812 247.304688 27-26.996094c5.785157-5.785156 5.785157-15.132813 0-20.917969-5.785156-5.789063-15.132812-5.789063-20.917968 0l-32.191406 32.191406c-23.144532-11.71875-46.140626-17.503906-68.539063-17.503906-89.90625 0-159.78125 94.351563-162.746094 98.359375-3.855469 5.1875-3.855469 12.308594 0 17.503906 1.1875 1.628906 27.445313 37.238282 67.945313 65.128906l-27.003906 26.996094c-5.78125 5.785156-5.78125 15.136719 0 20.917969 2.96875 2.96875 6.679687 4.304687 10.539062 4.304687 3.851562 0 7.5625-1.484374 10.53125-4.304687l32.191406-32.195313c23.140625 11.726563 46.136719 17.511719 68.542969 17.511719 89.898437 0 159.773437-94.355469 162.742187-98.359375 3.859376-5.195312 3.859376-12.316406 0-17.503906-1.484374-1.636719-27.742187-37.242188-68.09375-65.132812zm-154.585937 112.601562-13.648437 13.648438c-27-17.652344-48.066407-40.199219-58.304688-52.367188 18.542969-21.960938 71.359375-77.441406 131.738281-77.441406 14.839844 0 30.414063 3.410156 46.136719 10.238281l-7.417969 7.417969c-11.417969-7.417969-24.773437-11.425782-38.71875-11.425782-39.167969 0-71.058593 31.894532-71.058593 71.210938-.148438 13.945312 3.855468 27.292969 11.273437 38.71875zm97.617187-55.632812c2.371094 5.195312 3.558594 10.980468 3.558594 16.914062 0 22.84375-18.542968 41.539062-41.390625 41.539062-5.933593 0-11.71875-1.1875-16.910156-3.5625zm-75.8125 33.828124c-2.371093-5.195312-3.558593-10.984374-3.558593-16.914062 0-22.847656 18.542969-41.539062 41.390625-41.539062 5.933594 0 11.71875 1.1875 16.914062 3.558593zm37.980469 60.527344c-14.835937 0-30.410156-3.414062-46.136719-10.238281l7.421876-7.417969c11.417968 7.417969 24.773437 11.425782 38.714843 11.425782 39.167969 0 71.0625-31.894532 71.0625-71.210938 0-13.945312-4.007812-27.296875-11.425781-38.722656l13.652344-13.644532c26.996094 17.648438 48.066406 40.203126 58.300781 52.367188-18.390625 21.957031-71.210937 77.441406-131.589844 77.441406zm0 0" fill="#083863"/></svg>