<svg height="638pt" viewBox="0 -45 638.74973 638" width="638pt" xmlns="http://www.w3.org/2000/svg"><path d="m593.386719 141.355469v65.976562h-541.914063l-5.953125-146.320312c-1.53125-32.992188 24.890625-60.636719 58.039063-60.636719h125.09375c20.308594 0 39.253906 10.691406 49.789062 28.253906l15.886719 26.582032c10.535156 17.5625 29.324219 28.253906 49.789063 28.253906h191.078124c32.074219-.152344 58.191407 25.8125 58.191407 57.890625zm0 0" fill="#00efd1"/><path d="m608.207031 192.0625c18.480469 0 32.835938 16.34375 30.238281 34.671875l-37.417968 272.175781c-3.972656 28.71875-28.5625 50.105469-57.429688 50.105469h-447.832031c-29.019531 0-53.460937-21.386719-57.425781-50.105469l-38.035156-272.175781c-2.59375-18.328125 11.761718-34.824219 30.242187-34.824219h577.660156zm0 0" fill="#00acea"/><path d="m416.972656 294.859375 27.804688-27.804687c5.953125-5.953126 5.953125-15.578126 0-21.535157-5.960938-5.953125-15.582032-5.953125-21.542969 0l-33.140625 33.144531c-23.828125-12.066406-47.5-18.023437-70.566406-18.023437-92.558594 0-164.496094 97.144531-167.550782 101.269531-3.972656 5.34375-3.972656 12.675782 0 18.019532 1.222657 1.683593 28.253907 38.339843 69.953126 67.050781l-27.800782 27.804687c-5.957031 5.953125-5.957031 15.574219 0 21.535156 3.054688 3.054688 6.875 4.429688 10.847656 4.429688 3.964844 0 7.789063-1.53125 10.84375-4.429688l33.140626-33.144531c23.828124 12.066407 47.5 18.023438 70.566406 18.023438 92.558594 0 164.5-97.144531 167.554687-101.269531 3.972657-5.34375 3.972657-12.675782 0-18.019532-1.375-1.683594-28.40625-38.339844-70.109375-67.050781zm-159 115.925781-14.050781 14.050782c-27.796875-18.175782-49.335937-41.390626-60.027344-53.917969 19.09375-22.605469 73.621094-79.730469 135.632813-79.730469 15.277344 0 31.3125 3.515625 47.503906 10.542969l-7.636719 7.636719c-11.761719-7.636719-25.511719-11.761719-39.867187-11.761719-40.320313 0-73.3125 32.835937-73.3125 73.3125-.152344 14.359375 3.972656 28.105469 11.757812 39.867187zm100.351563-57.277344c2.445312 5.347657 3.664062 11.300782 3.664062 17.410157 0 23.523437-19.09375 42.769531-42.761719 42.769531-6.113281 0-12.070312-1.222656-17.417968-3.664062zm-77.894531 34.824219c-2.445313-5.347656-3.667969-11.300781-3.667969-17.414062 0-23.519531 19.089843-42.765625 42.765625-42.765625 6.113281 0 12.066406 1.222656 17.414062 3.664062zm38.945312 62.316407c-15.269531 0-31.308594-3.515626-47.5-10.539063l7.636719-7.636719c11.761719 7.636719 25.507812 11.761719 39.863281 11.761719 40.324219 0 73.316406-32.835937 73.316406-73.316406 0-14.355469-4.125-28.101563-11.761718-39.863281l14.050781-14.054688c27.796875 18.179688 49.335937 41.394531 60.03125 53.917969-19.09375 22.609375-73.621094 79.730469-135.636719 79.730469zm0 0" fill="#083863"/></svg>