<svg height="640pt" viewBox="-70 0 640 640" width="640pt" xmlns="http://www.w3.org/2000/svg"><path d="m334.457031 0h-262.332031c-39.472656 0-72.125 32.484375-72.125 71.957031v496.085938c0 39.472656 32.652344 71.957031 72.125 71.957031h356.058594c39.472656 0 72.117187-32.484375 72.117187-71.957031v-394.074219zm0 0" fill="#00acea"/><path d="m335.269531.488281 165.199219 173.640625h-109.972656c-30.535156 0-55.226563-24.6875-55.226563-55.222656zm0 0" fill="#00efd1"/><g fill="#083863"><path d="m383.835938 511.675781h-267.371094c-8.929688 0-16.238282 7.308594-16.238282 16.242188 0 8.9375 7.308594 16.246093 16.238282 16.246093h267.535156c8.933594 0 16.242188-7.308593 16.242188-16.246093 0-8.933594-7.308594-16.242188-16.40625-16.242188zm0 0"/><path d="m353.949219 252.105469 29.5625-29.566407c6.335937-6.332031 6.335937-16.566406 0-22.90625-6.335938-6.332031-16.570313-6.332031-22.902344 0l-35.25 35.25c-25.339844-12.832031-50.515625-19.164062-75.046875-19.164062-98.433594 0-174.941406 103.308594-178.1875 107.695312-4.230469 5.683594-4.230469 13.480469 0 19.164063 1.296875 1.785156 30.046875 40.769531 74.394531 71.3125l-29.566406 29.5625c-6.332031 6.332031-6.332031 16.566406 0 22.902344 3.253906 3.25 7.308594 4.707031 11.535156 4.707031 4.222657 0 8.285157-1.621094 11.53125-4.707031l35.25-35.246094c25.339844 12.832031 50.515625 19.164063 75.042969 19.164063 98.4375 0 174.945312-103.3125 178.191406-107.695313 4.226563-5.683594 4.226563-13.480469 0-19.164063-1.457031-1.789062-30.207031-40.773437-74.554687-71.308593zm-169.09375 123.285156-14.949219 14.945313c-29.558594-19.332032-52.464844-44.023438-63.835938-57.34375 20.308594-24.039063 78.296876-84.789063 144.246094-84.789063 16.242188 0 33.296875 3.734375 50.519532 11.210937l-8.125 8.121094c-12.507813-8.121094-27.125-12.511718-42.394532-12.511718-42.882812 0-77.804687 34.925781-77.804687 77.96875-.167969 15.269531 4.054687 29.894531 12.34375 42.398437zm106.714843-60.914063c2.605469 5.683594 3.902344 12.023438 3.902344 18.515626 0 25.019531-20.308594 45.484374-45.320312 45.484374-6.496094 0-12.832032-1.300781-18.515625-3.898437zm-82.839843 37.035157c-2.597657-5.6875-3.894531-12.019531-3.894531-18.519531 0-25.015626 20.300781-45.476563 45.316406-45.476563 6.496094 0 12.832031 1.296875 18.519531 3.894531zm41.421875 66.277343c-16.242188 0-33.296875-3.738281-50.519532-11.210937l8.125-8.121094c12.507813 8.121094 27.125 12.507813 42.394532 12.507813 42.882812 0 77.804687-34.925782 77.804687-77.972656 0-15.269532-4.382812-29.886719-12.503906-42.390626l14.941406-14.949218c29.566407 19.332031 52.464844 44.019531 63.839844 57.339844-20.144531 24.042968-78.132813 84.796874-144.082031 84.796874zm0 0"/></g></svg>