<svg height="638pt" viewBox="-57 0 638 638.75085" width="638pt" xmlns="http://www.w3.org/2000/svg"><path d="m317.5 238.539062-44.925781-121.921874h-214.023438c-32.199219 0-58.175781 26.507812-58.175781 58.707031v404.71875c0 32.203125 25.976562 58.707031 58.175781 58.707031h290.488281c32.203126 0 58.175782-26.503906 58.175782-58.707031v-321.496094zm0 0" fill="#00efd1"/><path d="m377.132812 180.230469-44.925781-121.921875h-214.019531c-32.203125 0-58.175781 26.507812-58.175781 58.707031v404.71875c0 32.203125 25.972656 58.707031 58.175781 58.707031h290.484375c32.203125 0 58.179687-26.503906 58.179687-58.707031v-321.496094zm0 0" fill="#fedb41"/><path d="m435.441406 121.917969-44.925781-121.917969h-214.019531c-32.203125 0-58.175782 26.503906-58.175782 58.707031v404.71875c0 32.203125 25.972657 58.707031 58.175782 58.707031h290.488281c32.199219 0 58.175781-26.503906 58.175781-58.707031v-321.496093zm0 0" fill="#00acea"/><path d="m390.515625.398438 134.777344 141.664062h-89.71875c-24.914063 0-45.058594-20.144531-45.058594-45.054688zm0 0" fill="#00efd1"/><g fill="#083863"><path d="m430.804688 424.066406h-218.128907c-7.292969 0-13.257812 5.960938-13.257812 13.253906 0 7.289063 5.964843 13.25 13.257812 13.25h218.257813c7.292968 0 13.25-5.960937 13.25-13.25 0-7.292968-5.957032-13.253906-13.378906-13.253906zm0 0"/><path d="m453.996094 249.667969-123.644532-105.351563c-4.902343-4.242187-12.1875-4.242187-17.226562 0l-123.773438 105.351563c-5.566406 4.769531-6.234374 13.117187-1.460937 18.6875 4.769531 5.566406 12.855469 6.230469 18.421875 1.457031l14.046875-12.191406v111.445312c0 8.085938 7.023437 15.246094 15.109375 15.246094h172.542969c8.078125 0 15.105469-7.160156 15.105469-15.246094v-111.445312l14.046874 12.191406c2.519532 2.121094 5.433594 3.179688 8.484376 3.179688 3.707031 0 7.414062-1.589844 10.066406-4.636719 4.640625-5.570313 3.84375-13.917969-1.71875-18.6875zm-57.382813 108.136719h-149.753906v-122.710938l74.878906-63.34375 74.875 63.34375zm0 0"/></g></svg>