<svg height="640pt" viewBox="0 -52 640 640" width="640pt" xmlns="http://www.w3.org/2000/svg"><path d="m253.089844 20.621094 68.394531 86.640625h-174.46875c-31.152344 0-56.371094 25.21875-56.371094 56.371093v371.777344h-34.273437c-31.152344 0-56.371094-25.21875-56.371094-56.378906v-422.660156c0-31.152344 25.21875-56.371094 56.371094-56.371094h153.105468c16.765626 0 32.785157 7.5625 43.613282 20.621094zm0 0" fill="#00efd1"/><path d="m640 160.816406v318.367188c0 31.152344-25.21875 56.371094-56.371094 56.371094h-507.816406v-374.738282c0-31.152344 25.21875-56.371094 56.371094-56.371094h451.445312c31.152344 0 56.371094 25.21875 56.371094 56.371094zm0 0" fill="#00acea"/><path d="m501.140625 296.558594-138.5625-117.941406c-5.488281-4.746094-13.648437-4.746094-19.289063 0l-138.5625 117.941406c-6.230468 5.339844-6.972656 14.6875-1.632812 20.917968 5.34375 6.230469 14.542969 6.972657 20.773438 1.632813l15.875-13.648437v124.765624c0 9.050782 7.5625 17.058594 16.464843 17.058594h193.160157c9.046874 0 15.71875-8.007812 15.71875-17.058594v-124.765624l16.171874 13.648437c2.820313 2.375 6.382813 3.5625 9.792969 3.5625 4.152344 0 8.457031-1.78125 11.425781-5.191406 5.640626-6.234375 4.898438-15.582031-1.335937-20.921875zm-65.421875 121.058594h-166.15625v-137.378907l83.074219-70.910156 83.082031 70.910156zm0 0" fill="#083863"/></svg>