<svg height="638pt" viewBox="0 -45 638.74973 638" width="638pt" xmlns="http://www.w3.org/2000/svg"><path d="m593.386719 141.355469v65.976562h-541.914063l-5.953125-146.320312c-1.53125-32.992188 24.890625-60.636719 58.039063-60.636719h125.09375c20.308594 0 39.253906 10.691406 49.789062 28.253906l15.886719 26.582032c10.535156 17.5625 29.324219 28.253906 49.789063 28.253906h191.078124c32.074219-.152344 58.191407 25.8125 58.191407 57.890625zm0 0" fill="#00efd1"/><path d="m608.207031 192.0625c18.480469 0 32.835938 16.34375 30.238281 34.671875l-37.417968 272.175781c-3.972656 28.71875-28.5625 50.105469-57.429688 50.105469h-447.832031c-29.019531 0-53.460937-21.386719-57.425781-50.105469l-38.035156-272.175781c-2.59375-18.328125 11.761718-34.824219 30.242187-34.824219h577.660156zm0 0" fill="#00acea"/><path d="m471.808594 345.5625-142.65625-121.425781c-5.652344-4.886719-14.054688-4.886719-19.859375 0l-142.65625 121.425781c-6.410157 5.5-7.175781 15.125-1.679688 21.535156 5.503907 6.417969 15.273438 7.179688 21.691407 1.683594l16.496093-14.054688v128.453126c0 9.320312 7.328125 17.570312 16.648438 17.570312h198.863281c9.316406 0 16.644531-8.25 16.644531-17.570312v-128.449219l16.496094 14.050781c2.90625 2.445312 6.417969 3.664062 9.933594 3.664062 4.273437 0 8.703125-1.832031 11.609375-5.347656 5.648437-6.410156 4.886718-16.035156-1.53125-21.535156zm-66.894532 124.636719h-171.074218v-141.4375l85.535156-73.007813 85.539062 73.007813zm0 0" fill="#083863"/></svg>