<svg height="640pt" viewBox="-70 0 640 640" width="640pt" xmlns="http://www.w3.org/2000/svg"><path d="m334.457031 0h-262.332031c-39.472656 0-72.125 32.484375-72.125 71.957031v496.085938c0 39.472656 32.652344 71.957031 72.125 71.957031h356.058594c39.472656 0 72.117187-32.484375 72.117187-71.957031v-394.074219zm0 0" fill="#00acea"/><path d="m335.269531.488281 165.199219 173.640625h-109.972656c-30.535156 0-55.226563-24.6875-55.226563-55.222656zm0 0" fill="#00efd1"/><g fill="#083863"><path d="m383.835938 511.675781h-267.371094c-8.929688 0-16.238282 7.308594-16.238282 16.242188 0 8.9375 7.308594 16.246093 16.238282 16.246093h267.535156c8.933594 0 16.242188-7.308593 16.242188-16.246093 0-8.933594-7.308594-16.242188-16.40625-16.242188zm0 0"/><path d="m412.265625 306.03125-151.71875-129.136719c-6.011719-5.199219-14.941406-5.199219-21.113281 0l-151.71875 129.136719c-6.820313 5.847656-7.632813 16.082031-1.785156 22.902344 5.847656 6.824218 16.242187 7.632812 23.066406 1.789062l17.542968-14.945312v136.609375c0 9.90625 7.796876 18.675781 17.703126 18.675781h211.496093c9.90625 0 17.703125-8.769531 17.703125-18.675781v-136.609375l17.542969 14.945312c3.085937 2.597656 6.824219 3.894532 10.558594 3.894532 4.550781 0 9.261719-1.945313 12.347656-5.683594 6.007813-6.820313 5.195313-17.054688-1.625-22.902344zm-71.148437 132.546875h-181.925782v-150.414063l90.960938-77.648437 90.964844 77.648437zm0 0"/></g></svg>