<svg height="638pt" viewBox="-57 0 638 638.75085" width="638pt" xmlns="http://www.w3.org/2000/svg"><path d="m317.5 238.539062-44.925781-121.921874h-214.023438c-32.199219 0-58.175781 26.507812-58.175781 58.707031v404.71875c0 32.203125 25.976562 58.707031 58.175781 58.707031h290.488281c32.203126 0 58.175782-26.503906 58.175782-58.707031v-321.496094zm0 0" fill="#00efd1"/><path d="m377.132812 180.230469-44.925781-121.921875h-214.019531c-32.203125 0-58.175781 26.507812-58.175781 58.707031v404.71875c0 32.203125 25.972656 58.707031 58.175781 58.707031h290.484375c32.203125 0 58.179687-26.503906 58.179687-58.707031v-321.496094zm0 0" fill="#fedb41"/><path d="m435.441406 121.917969-44.925781-121.917969h-214.019531c-32.203125 0-58.175782 26.503906-58.175782 58.707031v404.71875c0 32.203125 25.972657 58.707031 58.175782 58.707031h290.488281c32.199219 0 58.175781-26.503906 58.175781-58.707031v-321.496093zm0 0" fill="#00acea"/><path d="m390.515625.398438 134.777344 141.664062h-89.71875c-24.914063 0-45.058594-20.144531-45.058594-45.054688zm0 0" fill="#00efd1"/><g fill="#083863"><path d="m430.804688 424.066406h-218.128907c-7.292969 0-13.257812 5.960938-13.257812 13.253906 0 7.289063 5.964843 13.25 13.257812 13.25h218.257813c7.292968 0 13.25-5.960937 13.25-13.25 0-7.292968-5.957032-13.253906-13.378906-13.253906zm0 0"/><path d="m232.949219 363.109375h177.578125c14.578125 0 25.839844-12.457031 25.839844-27.167969v-128.542968c0-14.582032-11.261719-27.167969-25.839844-27.167969h-177.578125c-14.578125 0-25.839844 12.453125-25.839844 27.167969v128.671874c0 14.582032 11.261719 27.039063 25.839844 27.039063zm.660156-47.179687 48.636719-21.996094 58.707031 42.667968h-107.34375zm152.929687 20.671874-27.695312-19.878906 51.019531-27.03125v46.910156zm23.324219-129.867187v53.136719l-75.136719 39.226562-43.734374-31.539062c-3.84375-2.785156-8.476563-3.308594-12.855469-1.320313l-44.527344 20.539063v-80.042969zm0 0"/><path d="m340.292969 282.140625c18.550781 0 33.660156-15.109375 33.660156-33.660156 0-18.558594-15.109375-33.667969-33.660156-33.667969-18.554688 0-33.660157 15.109375-33.660157 33.667969 0 18.550781 15.105469 33.660156 33.660157 33.660156zm0-40.820313c3.976562 0 7.152343 3.183594 7.152343 7.160157 0 3.96875-3.175781 7.152343-7.152343 7.152343-3.976563 0-7.160157-3.183593-7.160157-7.152343 0-3.976563 3.183594-7.160157 7.160157-7.160157zm0 0"/></g></svg>