<svg height="640pt" viewBox="-30 0 640 640" width="640pt" xmlns="http://www.w3.org/2000/svg"><path d="m300.585938 101.449219-15.308594-101.449219h-224.601563c-33.820312 0-60.675781 27.554688-60.675781 61.371094v424.71875c0 33.816406 26.855469 60.8125 60.675781 60.8125h213.054688l153.492187-232.402344v-165.734375zm0 0" fill="#00acea"/><path d="m285.277344.140625 141.527344 148.625h-94.210938c-26.164062 0-47.316406-21.152344-47.316406-47.316406zm0 0" fill="#00efd1"/><g fill="#083863"><path d="m293.90625 332.59375c0-7.652344-6.257812-13.917969-13.914062-13.917969h-181.464844c-7.652344 0-13.917969 6.265625-13.917969 13.917969 0 7.65625 6.265625 13.914062 13.917969 13.914062h181.324218c7.796876 0 14.054688-6.257812 14.054688-13.914062zm0 0"/><path d="m98.527344 276.929688h140.96875c7.652344 0 13.917968-6.261719 13.917968-13.917969 0-7.652344-6.265624-13.914063-13.917968-13.914063h-140.96875c-7.652344 0-13.917969 6.261719-13.917969 13.914063 0 7.65625 6.265625 13.917969 13.917969 13.917969zm0 0"/><path d="m234.066406 389.648438h-135.539062c-7.652344 0-13.917969 6.265624-13.917969 13.914062 0 7.65625 6.265625 13.917969 13.917969 13.917969h135.539062c7.65625 0 13.917969-6.261719 13.917969-13.917969 0-7.648438-6.261719-13.914062-13.917969-13.914062zm0 0"/></g><path d="m426.804688 286.8125c86.28125 12.101562 152.65625 86.136719 152.65625 175.753906 0 97.96875-79.457032 177.433594-177.425782 177.433594-67.351562 0-126.078125-37.574219-156-92.960938-13.636718-25.1875-21.429687-53.992187-21.429687-84.609374 0-97.96875 79.460937-177.429688 177.429687-177.429688 8.351563.140625 16.558594.699219 24.769532 1.8125zm0 0" fill="#fedb41"/><path d="m421.238281 473.980469c19.484375 0 35.347657-15.867188 35.347657-35.347657 0-19.484374-15.863282-35.347656-35.347657-35.347656-19.480469 0-35.34375 15.863282-35.34375 35.347656 0 19.480469 15.863281 35.347657 35.34375 35.347657zm0-42.863281c4.175781 0 7.515625 3.339843 7.515625 7.515624 0 4.175782-3.339844 7.515626-7.515625 7.515626-4.171875 0-7.511719-3.339844-7.511719-7.515626 0-4.175781 3.339844-7.515624 7.511719-7.515624zm0 0" fill="#083863"/><path d="m523.242188 459.226562v-63.734374c0-15.308594-12.941407-28.109376-28.246094-28.109376h-186.476563c-15.308593 0-27.417969 12.800782-27.417969 28.109376v135.128906c0 15.304687 12.109376 27.550781 27.417969 27.550781h186.476563c15.304687 0 28.246094-12.109375 28.246094-27.550781zm-27.832032-64.011718v55.386718l-79.457031 41.191407-46.203125-33.121094c-4.039062-2.921875-9.183594-3.476563-13.777344-1.390625l-47.039062 21.570312v-83.636718zm-186.476562 114.253906 51.355468-23.660156 61.921876 44.394531h-113.277344zm160.871094 20.730469-28.527344-20.453125 54.132812-27.832032v48.285157zm0 0" fill="#083863"/></svg>