<svg height="640pt" viewBox="0 -52 640 640" width="640pt" xmlns="http://www.w3.org/2000/svg"><path d="m253.089844 20.621094 68.394531 86.640625h-174.46875c-31.152344 0-56.371094 25.21875-56.371094 56.371093v371.777344h-34.273437c-31.152344 0-56.371094-25.21875-56.371094-56.378906v-422.660156c0-31.152344 25.21875-56.371094 56.371094-56.371094h153.105468c16.765626 0 32.785157 7.5625 43.613282 20.621094zm0 0" fill="#00efd1"/><path d="m640 160.816406v318.367188c0 31.152344-25.21875 56.371094-56.371094 56.371094h-507.816406v-374.738282c0-31.152344 25.21875-56.371094 56.371094-56.371094h451.445312c31.152344 0 56.371094 25.21875 56.371094 56.371094zm0 0" fill="#00acea"/><g fill="#083863"><path d="m373.707031 332.90625c20.765625 0 37.679688-16.910156 37.679688-37.679688 0-20.773437-16.914063-37.683593-37.679688-37.683593-20.773437 0-37.6875 16.910156-37.6875 37.683593 0 20.769532 16.914063 37.679688 37.6875 37.679688zm0-45.695312c4.449219 0 8.007813 3.566406 8.007813 8.015624 0 4.445313-3.558594 8.011719-8.007813 8.011719-4.453125 0-8.011719-3.566406-8.011719-8.011719 0-4.449218 3.703126-8.015624 8.011719-8.015624zm0 0"/><path d="m481.703125 317.183594v-67.949219c0-16.320313-12.90625-30.410156-29.367187-30.410156h-198.800782c-16.316406 0-30.113281 13.945312-30.113281 30.410156v144.050781c0 16.320313 13.796875 30.417969 30.113281 30.417969h198.800782c16.316406 0 29.367187-13.945313 29.367187-30.417969zm-29.667969-68.691406v59.492187l-84.265625 43.910156-48.957031-35.308593c-4.300781-3.113282-10.085938-3.703126-14.984375-1.484376l-50.585937 23v-89.609374zm-198.792968 122.246093 55.039062-24.628906 66.3125 47.765625h-121.351562zm172.386718 23.144531-30.710937-22.257812 57.265625-30.261719v52.519531zm0 0"/></g></svg>