<svg height="638pt" viewBox="0 -45 638.74973 638" width="638pt" xmlns="http://www.w3.org/2000/svg"><path d="m593.386719 141.355469v65.976562h-541.914063l-5.953125-146.320312c-1.53125-32.992188 24.890625-60.636719 58.039063-60.636719h125.09375c20.308594 0 39.253906 10.691406 49.789062 28.253906l15.886719 26.582032c10.535156 17.5625 29.324219 28.253906 49.789063 28.253906h191.078124c32.074219-.152344 58.191407 25.8125 58.191407 57.890625zm0 0" fill="#00efd1"/><path d="m608.207031 192.0625c18.480469 0 32.835938 16.34375 30.238281 34.671875l-37.417968 272.175781c-3.972656 28.71875-28.5625 50.105469-57.429688 50.105469h-447.832031c-29.019531 0-53.460937-21.386719-57.425781-50.105469l-38.035156-272.175781c-2.59375-18.328125 11.761718-34.824219 30.242187-34.824219h577.660156zm0 0" fill="#00acea"/><g fill="#083863"><path d="m340.761719 382.984375c21.382812 0 38.796875-17.410156 38.796875-38.792969 0-21.386718-17.414063-38.796875-38.796875-38.796875-21.386719 0-38.796875 17.410157-38.796875 38.796875 0 21.382813 17.410156 38.792969 38.796875 38.792969zm0-47.039063c4.578125 0 8.246093 3.664063 8.246093 8.246094 0 4.578125-3.667968 8.242188-8.246093 8.242188-4.582031 0-8.25-3.664063-8.25-8.242188 0-4.582031 3.667969-8.246094 8.25-8.246094zm0 0"/><path d="m452.257812 366.796875v-69.957031c0-16.800782-13.742187-31.308594-30.546874-31.308594h-204.667969c-16.804688 0-30.550781 14.355469-30.550781 31.308594v148.308594c0 16.804687 13.746093 31.3125 30.550781 31.3125h204.667969c16.804687 0 30.546874-14.355469 30.546874-31.3125zm-30.546874-70.722656v61.25l-86.910157 45.214843-50.554687-36.355468c-4.429688-3.207032-10.234375-3.816406-15.273438-1.527344l-51.933594 23.675781v-92.257812zm-204.667969 125.859375 56.511719-25.355469 68.121093 49.179687h-124.632812zm177.023437 23.824218-31.464844-22.910156 59.109376-31.15625v54.066406zm0 0"/></g></svg>