<svg height="640pt" viewBox="-70 0 640 640" width="640pt" xmlns="http://www.w3.org/2000/svg"><path d="m334.457031 0h-262.332031c-39.472656 0-72.125 32.484375-72.125 71.957031v496.085938c0 39.472656 32.652344 71.957031 72.125 71.957031h356.058594c39.472656 0 72.117187-32.484375 72.117187-71.957031v-394.074219zm0 0" fill="#00acea"/><path d="m335.269531.488281 165.199219 173.640625h-109.972656c-30.535156 0-55.226563-24.6875-55.226563-55.222656zm0 0" fill="#00efd1"/><g fill="#083863"><path d="m383.835938 511.675781h-267.371094c-8.929688 0-16.238282 7.308594-16.238282 16.242188 0 8.9375 7.308594 16.246093 16.238282 16.246093h267.535156c8.933594 0 16.242188-7.308593 16.242188-16.246093 0-8.933594-7.308594-16.242188-16.40625-16.242188zm0 0"/><path d="m141.320312 445.078125h217.664063c17.867187 0 32.488281-15.269531 32.488281-33.300781v-157.5625c0-17.867188-14.621094-33.300782-32.488281-33.300782h-217.664063c-17.867187 0-32.488281 15.265626-32.488281 33.300782v157.722656c0 17.871094 14.621094 33.140625 32.488281 33.140625zm0-57.828125 60.101563-26.96875 72.445313 52.304688h-132.546876zm188.265626 25.335938-33.464844-24.363282 62.863281-33.136718v57.5zm29.398437-159.183594v65.136718l-92.425781 48.082032-53.765625-38.664063c-4.710938-3.40625-10.882813-4.0625-16.246094-1.621093l-55.226563 25.175781v-98.109375zm0 0"/><path d="m272.894531 345.828125c22.738281 0 41.261719-18.519531 41.261719-41.257813 0-22.746093-18.523438-41.261718-41.261719-41.261718-22.742187 0-41.257812 18.515625-41.257812 41.261718 0 22.738282 18.515625 41.257813 41.257812 41.257813zm0-50.03125c4.875 0 8.769531 3.898437 8.769531 8.773437 0 4.871094-3.894531 8.769532-8.769531 8.769532-4.871093 0-8.773437-3.898438-8.773437-8.769532 0-4.875 3.902344-8.773437 8.773437-8.773437zm0 0"/></g></svg>