<svg height="640pt" viewBox="0 -52 640 640" width="640pt" xmlns="http://www.w3.org/2000/svg"><path d="m253.089844 20.621094 68.394531 86.640625h-174.46875c-31.152344 0-56.371094 25.21875-56.371094 56.375v371.773437h-34.269531c-31.15625 0-56.375-25.21875-56.375-56.371094v-422.664062c0-31.15625 25.21875-56.375 56.375-56.375h153.101562c16.765626 0 32.785157 7.570312 43.613282 20.621094zm0 0" fill="#00efd1"/><path d="m640 160.816406v318.367188c0 31.152344-25.21875 56.371094-56.375 56.371094h-507.8125v-374.738282c0-31.152344 25.21875-56.371094 56.371094-56.371094h451.441406c31.15625 0 56.375 25.21875 56.375 56.371094zm0 0" fill="#00acea"/><g fill="#083863"><path d="m352.636719 371.632812c-8.160157 0-14.832031 6.671876-14.832031 14.832032v23.734375c0 8.160156 6.679687 14.835937 14.832031 14.835937 8.160156 0 14.839843-6.675781 14.839843-14.835937v-23.734375c0-8.160156-6.679687-14.832032-14.839843-14.832032zm0 0"/><path d="m352.636719 214.371094c-8.160157 0-14.832031 6.679687-14.832031 14.839844v114.230468c0 8.160156 6.671874 14.835938 14.832031 14.835938 8.160156 0 14.839843-6.679688 14.839843-14.839844v-114.234375c0-8.152344-6.679687-14.832031-14.839843-14.832031zm0 0"/></g></svg>