<svg height="640pt" viewBox="0 -52 640 640" width="640pt" xmlns="http://www.w3.org/2000/svg"><path d="m320.964844 59.28125-61.492188-59.28125h-211.214844l7.855469 219.214844h532.734375v-159.933594zm0 0" fill="#00efd1"/><path d="m536.460938 219.214844v.550781h-432.921876v-105.332031h432.921876zm0 0" fill="#fedb41"/><path d="m640 205.980469-58.042969 329.097656h-523.222656l-58.734375-329.097656zm0 0" fill="#00acea"/><g fill="#083863"><path d="m320 272.984375c-7.582031 0-13.789062 6.203125-13.789062 13.789063v103.402343c0 7.582031 6.207031 13.789063 13.789062 13.789063s13.789062-6.207032 13.789062-13.789063v-103.402343c0-7.585938-6.207031-13.789063-13.789062-13.789063zm0 0"/><path d="m320 416.371094c-7.582031 0-13.789062 6.207031-13.789062 13.789062v22.054688c0 7.585937 6.207031 13.789062 13.789062 13.789062s13.789062-6.203125 13.789062-13.789062v-22.054688c0-7.582031-6.207031-13.789062-13.789062-13.789062zm0 0"/></g></svg>