<svg height="640pt" viewBox="-70 0 640 640" width="640pt" xmlns="http://www.w3.org/2000/svg"><path d="m334.457031 0h-262.332031c-39.472656 0-72.125 32.484375-72.125 71.957031v496.085938c0 39.472656 32.652344 71.957031 72.125 71.957031h356.058594c39.472656 0 72.117187-32.484375 72.117187-71.957031v-394.074219zm0 0" fill="#00acea"/><path d="m335.269531.488281 165.199219 173.640625h-109.972656c-30.535156 0-55.226563-24.6875-55.226563-55.222656zm0 0" fill="#00efd1"/><g fill="#083863"><path d="m383.835938 511.675781h-267.371094c-8.929688 0-16.238282 7.308594-16.238282 16.242188 0 8.9375 7.308594 16.246093 16.238282 16.246093h267.535156c8.933594 0 16.242188-7.308593 16.242188-16.246093 0-8.933594-7.308594-16.242188-16.40625-16.242188zm0 0"/><path d="m250.152344 370.355469c8.933594 0 16.246094-7.308594 16.246094-16.246094v-121.824219c0-8.9375-7.3125-16.246094-16.246094-16.246094s-16.242188 7.308594-16.242188 16.246094v121.824219c0 8.9375 7.308594 16.246094 16.242188 16.246094zm0 0"/><path d="m250.152344 443.453125c8.933594 0 16.246094-7.3125 16.246094-16.246094v-25.992187c0-8.929688-7.3125-16.238282-16.246094-16.238282s-16.242188 7.308594-16.242188 16.238282v25.992187c0 8.933594 7.308594 16.246094 16.242188 16.246094zm0 0"/></g></svg>