<svg height="638pt" viewBox="-57 0 638 638.75085" width="638pt" xmlns="http://www.w3.org/2000/svg"><path d="m317.5 238.539062-44.925781-121.921874h-214.023438c-32.199219 0-58.175781 26.507812-58.175781 58.707031v404.71875c0 32.203125 25.976562 58.707031 58.175781 58.707031h290.488281c32.203126 0 58.175782-26.503906 58.175782-58.707031v-321.496094zm0 0" fill="#00efd1"/><path d="m377.132812 180.230469-44.925781-121.921875h-214.019531c-32.203125 0-58.175781 26.507812-58.175781 58.707031v404.71875c0 32.203125 25.972656 58.707031 58.175781 58.707031h290.484375c32.203125 0 58.179687-26.503906 58.179687-58.707031v-321.496094zm0 0" fill="#fedb41"/><path d="m435.441406 121.917969-44.925781-121.917969h-214.019531c-32.203125 0-58.175782 26.503906-58.175782 58.707031v404.71875c0 32.203125 25.972657 58.707031 58.175782 58.707031h290.488281c32.199219 0 58.175781-26.503906 58.175781-58.707031v-321.496093zm0 0" fill="#00acea"/><path d="m390.515625.398438 134.777344 141.664062h-89.71875c-24.914063 0-45.058594-20.144531-45.058594-45.054688zm0 0" fill="#00efd1"/><g fill="#083863"><path d="m430.804688 424.066406h-218.128907c-7.292969 0-13.257812 5.960938-13.257812 13.253906 0 7.289063 5.964843 13.25 13.257812 13.25h218.257813c7.292968 0 13.25-5.960937 13.25-13.25 0-7.292968-5.957032-13.253906-13.378906-13.253906zm0 0"/><path d="m281.851562 276.96875h.132813c11.527344 0 22.527344-3.445312 32.070313-9.542969l46.777343 46.785157-18.820312 18.816406c-5.164063 5.164062-5.164063 13.515625 0 18.683594 2.652343 2.648437 5.964843 3.84375 9.410156 3.84375s6.757813-1.324219 9.410156-3.84375l18.816407-18.816407 10.203124 10.335938-21.066406 21.070312c-5.167968 5.167969-5.167968 13.515625 0 18.6875 2.648438 2.648438 5.960938 3.839844 9.40625 3.839844 3.449219 0 6.757813-1.328125 9.410156-3.839844l30.480469-30.484375c5.167969-5.164062 5.167969-13.511718 0-18.683594l-27.828125-27.695312c-.402344-.53125-.796875-.929688-1.195312-1.324219-.394532-.402343-.925782-.796875-1.324219-1.195312l-54.863281-55.125c14.441406-23.195313 11.527344-54.203125-8.613282-74.347657-23.460937-23.457031-61.621093-23.585937-84.945312-.132812-23.324219 23.324219-23.324219 61.625.261719 85.210938 11.132812 11.265624 26.238281 17.757812 42.277343 17.757812zm-23.855468-84.285156c6.492187-6.488282 14.976562-9.671875 23.585937-9.671875 8.617188 0 17.363281 3.3125 23.855469 9.941406 13.121094 13.117187 13.25 34.585937.132812 47.703125-6.230468 6.230469-14.578124 9.941406-23.585937 9.941406h-.132813c-9.015624 0-17.496093-3.710937-23.855468-10.203125-12.988282-13.253906-13.117188-34.722656 0-47.710937zm0 0"/></g></svg>