<svg height="640pt" viewBox="-30 0 640 640" width="640pt" xmlns="http://www.w3.org/2000/svg"><path d="m300.585938 101.449219-15.308594-101.449219h-224.601563c-33.820312 0-60.675781 27.554688-60.675781 61.371094v424.71875c0 33.816406 26.855469 60.8125 60.675781 60.8125h213.054688l153.492187-232.402344v-165.734375zm0 0" fill="#00acea"/><path d="m285.277344.140625 141.527344 148.625h-94.210938c-26.164062 0-47.316406-21.152344-47.316406-47.316406zm0 0" fill="#00efd1"/><g fill="#083863"><path d="m279.851562 318.675781h-181.324218c-7.652344 0-13.917969 6.265625-13.917969 13.917969 0 7.65625 6.265625 13.914062 13.917969 13.914062h181.324218c7.652344 0 13.917969-6.257812 13.917969-13.914062 0-7.652344-6.121093-13.917969-13.917969-13.917969zm0 0"/><path d="m98.527344 276.929688h140.96875c7.652344 0 13.917968-6.261719 13.917968-13.917969 0-7.652344-6.265624-13.914063-13.917968-13.914063h-140.96875c-7.652344 0-13.917969 6.261719-13.917969 13.914063 0 7.65625 6.265625 13.917969 13.917969 13.917969zm0 0"/><path d="m234.066406 389.648438h-135.539062c-7.652344 0-13.917969 6.265624-13.917969 13.914062 0 7.65625 6.265625 13.917969 13.917969 13.917969h135.539062c7.65625 0 13.917969-6.261719 13.917969-13.917969 0-7.648438-6.261719-13.914062-13.917969-13.914062zm0 0"/></g><path d="m426.804688 286.8125c86.28125 12.101562 152.65625 86.136719 152.65625 175.753906 0 97.96875-79.457032 177.433594-177.425782 177.433594-67.351562 0-126.078125-37.574219-156-92.960938-13.636718-25.1875-21.429687-53.992187-21.429687-84.609374 0-97.96875 79.460937-177.429688 177.429687-177.429688 8.351563.140625 16.558594.699219 24.769532 1.8125zm0 0" fill="#fedb41"/><path d="m473.421875 498.890625c-.277344-.417969-.691406-.699219-.972656-1.113281-.277344-.277344-.695313-.699219-1.113281-.976563l-58.03125-58.167969c6.265624-9.878906 9.605468-21.429687 9.464843-33.535156 0-16.839844-6.679687-32.707031-18.507812-44.53125-24.632813-24.632812-64.710938-24.769531-89.203125-.140625-24.492188 24.492188-24.492188 64.289063.140625 88.925781 11.96875 11.964844 27.832031 18.226563 44.53125 18.226563h.136719c12.109374 0 23.65625-3.199219 33.675781-9.464844l49.128906 49.40625-19.621094 19.898438c-5.429687 5.429687-5.429687 14.335937 0 19.757812 2.777344 2.785157 6.261719 4.039063 9.878907 4.039063 3.617187 0 7.097656-1.390625 9.882812-4.039063l19.761719-19.757812 10.710937 10.851562-22.125 22.128907c-5.429687 5.425781-5.429687 14.195312 0 19.621093 2.785156 2.78125 6.261719 4.039063 9.878906 4.039063 3.617188 0 7.101563-1.394532 9.882813-4.039063l32.007813-32.007812c5.425781-5.425781 5.425781-14.195313 0-19.617188zm-113.277344-59.144531c-.136719 0-.136719 0 0 0-9.460937 0-18.367187-3.476563-25.046875-10.15625-13.773437-13.78125-13.917968-36.046875-.136718-49.683594 6.816406-6.816406 15.722656-10.15625 24.769531-10.15625 9.042969 0 18.226562 3.476562 25.050781 10.433594 6.679688 6.6875 10.433594 15.585937 10.433594 25.050781 0 9.460937-3.617188 18.230469-10.15625 24.769531v-.277344c-6.820313 6.679688-15.585938 10.019532-24.914063 10.019532zm0 0" fill="#083863"/></svg>