<svg height="640pt" viewBox="0 -52 640 640" width="640pt" xmlns="http://www.w3.org/2000/svg"><path d="m253.089844 20.621094 68.394531 86.640625h-174.46875c-31.152344 0-56.371094 25.21875-56.371094 56.371093v371.777344h-34.273437c-31.152344 0-56.371094-25.21875-56.371094-56.378906v-422.660156c0-31.152344 25.21875-56.371094 56.371094-56.371094h153.105468c16.765626 0 32.785157 7.5625 43.613282 20.621094zm0 0" fill="#00efd1"/><path d="m640 160.816406v318.367188c0 31.152344-25.21875 56.371094-56.371094 56.371094h-507.816406v-374.738282c0-31.152344 25.21875-56.371094 56.371094-56.371094h451.445312c31.152344 0 56.371094 25.21875 56.371094 56.371094zm0 0" fill="#00acea"/><path d="m429.632812 359.761719c-.445312-.597657-.886718-1.042969-1.332031-1.484375-.449219-.445313-1.039062-.890625-1.484375-1.339844l-61.421875-61.710938c16.171875-25.964843 12.910157-60.679687-9.644531-83.230468-26.257812-26.257813-68.984375-26.40625-95.089844-.144532-26.113281 26.109376-26.113281 68.984376.296875 95.390626 12.757813 12.757812 29.667969 20.027343 47.472657 20.027343h.148437c12.90625 0 25.21875-3.855469 35.898437-10.683593l52.375 52.367187-21.070312 21.070313c-5.785156 5.789062-5.785156 15.132812 0 20.917968 2.96875 2.964844 6.679688 4.300782 10.53125 4.300782 3.859375 0 7.570312-1.484376 10.539062-4.300782l21.0625-21.066406 11.425782 11.570312-23.589844 23.589844c-5.785156 5.785156-5.785156 15.128906 0 20.917969 2.964844 2.96875 6.675781 4.300781 10.535156 4.300781 3.855469 0 7.566406-1.484375 10.53125-4.300781l34.121094-34.121094c5.785156-5.785156 5.785156-15.132812 0-20.917969zm-121.054687-62.308594c-10.238281 0-19.585937-4.15625-26.703125-11.429687-14.6875-14.6875-14.839844-38.71875-.296875-53.253907 7.269531-7.269531 16.761719-10.976562 26.40625-10.976562 9.640625 0 19.433594 3.707031 26.703125 11.121093 14.6875 14.6875 14.835938 38.722657.148438 53.410157-6.976563 6.972656-16.320313 11.128906-26.257813 11.128906zm0 0" fill="#083863"/></svg>