<svg height="638pt" viewBox="0 -45 638.74973 638" width="638pt" xmlns="http://www.w3.org/2000/svg"><path d="m593.386719 141.355469v65.976562h-541.914063l-5.953125-146.320312c-1.53125-32.992188 24.890625-60.636719 58.039063-60.636719h125.09375c20.308594 0 39.253906 10.691406 49.789062 28.253906l15.886719 26.582032c10.535156 17.5625 29.324219 28.253906 49.789063 28.253906h191.078124c32.074219-.152344 58.191407 25.8125 58.191407 57.890625zm0 0" fill="#00efd1"/><path d="m608.207031 192.0625c18.480469 0 32.835938 16.34375 30.238281 34.671875l-37.417968 272.175781c-3.972656 28.71875-28.5625 50.105469-57.429688 50.105469h-447.832031c-29.019531 0-53.460937-21.386719-57.425781-50.105469l-38.035156-272.175781c-2.59375-18.328125 11.761718-34.824219 30.242187-34.824219h577.660156zm0 0" fill="#00acea"/><path d="m398.34375 410.632812c-.457031-.613281-.917969-1.074218-1.375-1.53125-.457031-.457031-1.070312-.914062-1.679688-1.375l-63.238281-63.535156c16.648438-26.730468 13.289063-62.472656-9.925781-85.6875-27.035156-27.039062-71.023438-27.1875-97.902344-.152344-26.882812 26.882813-26.882812 71.023438.148438 98.210938 13.140625 13.132812 30.550781 20.621094 48.878906 20.621094h.152344c13.289062 0 25.964844-3.972656 36.964844-11l53.917968 53.917968-21.691406 21.691407c-5.957031 5.953125-5.957031 15.578125 0 21.535156 3.054688 3.054687 6.875 4.429687 10.84375 4.429687s7.792969-1.53125 10.847656-4.429687l21.683594-21.691406 11.765625 11.914062-24.289063 24.285157c-5.953124 5.957031-5.953124 15.578124 0 21.539062 3.054688 3.050781 6.875 4.425781 10.847657 4.425781 3.972656 0 7.789062-1.527343 10.84375-4.425781l35.132812-35.132812c5.953125-5.953126 5.953125-15.578126 0-21.535157zm-124.789062-64.152343c-10.539063 0-20.164063-4.273438-27.492188-11.757813-15.121094-15.125-15.277344-39.863281-.304688-54.835937 7.484376-7.484375 17.257813-11.300781 27.1875-11.300781 9.925782 0 20.007813 3.816406 27.488282 11.453124 15.121094 15.121094 15.277344 39.867188.15625 54.988282-7.027344 7.175781-16.652344 11.453125-27.035156 11.453125zm0 0" fill="#083863"/></svg>