<svg height="640pt" viewBox="0 -52 640 640" width="640pt" xmlns="http://www.w3.org/2000/svg"><path d="m320.964844 59.28125-61.492188-59.28125h-211.214844l7.855469 219.214844h532.734375v-159.933594zm0 0" fill="#00efd1"/><path d="m536.460938 219.214844v.550781h-432.921876v-105.332031h432.921876zm0 0" fill="#fedb41"/><path d="m640 205.980469-58.042969 329.097656h-523.222656l-58.734375-329.097656zm0 0" fill="#00acea"/><path d="m391.277344 406.445312c-.414063-.550781-.824219-.96875-1.238282-1.378906-.414062-.414062-.96875-.828125-1.378906-1.238281l-57.078125-57.21875c6.207031-9.789063 9.511719-21.234375 9.375-33.226563 0-16.683593-6.617187-32.402343-18.335937-44.257812-24.402344-24.402344-64.109375-24.539062-88.378906-.140625-24.261719 24.265625-24.261719 64.246094.140624 88.652344 11.855469 11.859375 27.574219 17.371093 44.117188 18.75h.136719c11.996093 0 23.441406-3.722657 33.371093-9.921875l48.664063 48.667968-19.574219 19.578126c-5.378906 5.375-5.378906 14.0625 0 19.4375 2.753906 2.753906 6.203125 4 9.785156 4 3.585938 0 7.03125-1.382813 9.789063-4l19.582031-19.578126 10.613282 10.757813-21.921876 21.917969c-5.375 5.375-5.375 14.0625 0 19.4375 2.757813 2.757812 6.207032 4 9.789063 4 3.585937 0 7.03125-1.378906 9.789063-4l31.710937-31.707032c5.375-5.378906 5.375-14.0625 0-19.441406zm-112.640625-58.320312c-9.375 0-18.199219-3.722656-24.8125-10.34375-13.652344-13.644531-13.789063-35.84375-.28125-49.355469 6.757812-6.753906 15.582031-10.0625 24.542969-10.0625 8.964843 0 18.0625 3.449219 24.820312 10.335938 6.613281 6.621093 10.339844 15.445312 10.339844 24.820312s-3.589844 18.0625-10.066406 24.542969c-6.480469 6.476562-15.304688 10.0625-24.542969 10.0625zm0 0" fill="#083863"/></svg>