<svg height="640pt" viewBox="-70 0 640 640" width="640pt" xmlns="http://www.w3.org/2000/svg"><path d="m334.457031 0h-262.332031c-39.472656 0-72.125 32.484375-72.125 71.957031v496.085938c0 39.472656 32.652344 71.957031 72.125 71.957031h356.058594c39.472656 0 72.117187-32.484375 72.117187-71.957031v-394.074219zm0 0" fill="#00acea"/><path d="m335.269531.488281 165.199219 173.640625h-109.972656c-30.535156 0-55.226563-24.6875-55.226563-55.222656zm0 0" fill="#00efd1"/><g fill="#083863"><path d="m383.835938 511.675781h-267.371094c-8.929688 0-16.238282 7.308594-16.238282 16.242188 0 8.9375 7.308594 16.246093 16.238282 16.246093h267.535156c8.933594 0 16.242188-7.308593 16.242188-16.246093 0-8.933594-7.308594-16.242188-16.40625-16.242188zm0 0"/><path d="m201.261719 339.492188h.160156c14.128906 0 27.609375-4.222657 39.3125-11.695313l57.335937 57.339844-23.066406 23.066406c-6.332031 6.332031-6.332031 16.566406 0 22.90625 3.246094 3.246094 7.308594 4.707031 11.535156 4.707031 4.222657 0 8.285157-1.621094 11.53125-4.707031l23.066407-23.066406 12.511719 12.667969-25.832032 25.828124c-6.332031 6.332032-6.332031 16.566407 0 22.902344 3.253906 3.25 7.308594 4.707032 11.535156 4.707032 4.222657 0 8.285157-1.621094 11.53125-4.707032l37.363282-37.363281c6.332031-6.332031 6.332031-16.566406 0-22.898437l-34.117188-33.949219c-.480468-.652344-.96875-1.140625-1.457031-1.628907-.488281-.488281-1.140625-.96875-1.628906-1.457031l-67.246094-67.574219c17.707031-28.429687 14.132813-66.4375-10.554687-91.128906-28.753907-28.753906-75.535157-28.914062-104.125-.164062-28.589844 28.59375-28.589844 75.535156.328124 104.445312 13.640626 13.808594 32.160157 21.769532 51.816407 21.769532zm-29.238281-103.3125c7.957031-7.957032 18.351562-11.855469 28.910156-11.855469 10.5625 0 21.277344 4.0625 29.238281 12.183593 16.082031 16.078126 16.242187 42.230469.164063 58.148438-7.796876 7.800781-18.03125 12.023438-28.914063 11.863281-11.046875 0-21.441406-4.386719-29.238281-12.183593-16.078125-16.085938-16.246094-42.230469-.160156-58.15625zm0 0"/></g></svg>