<svg height="638pt" viewBox="-57 0 638 638.75085" width="638pt" xmlns="http://www.w3.org/2000/svg"><path d="m317.5 238.539062-44.925781-121.921874h-214.023438c-32.199219 0-58.175781 26.507812-58.175781 58.707031v404.71875c0 32.203125 25.976562 58.707031 58.175781 58.707031h290.488281c32.203126 0 58.175782-26.503906 58.175782-58.707031v-321.496094zm0 0" fill="#00efd1"/><path d="m377.132812 180.230469-44.925781-121.921875h-214.019531c-32.203125 0-58.175781 26.507812-58.175781 58.707031v404.71875c0 32.203125 25.972656 58.707031 58.175781 58.707031h290.484375c32.203125 0 58.179687-26.503906 58.179687-58.707031v-321.496094zm0 0" fill="#fedb41"/><path d="m435.441406 121.917969-44.925781-121.917969h-214.019531c-32.203125 0-58.175782 26.503906-58.175782 58.707031v404.71875c0 32.203125 25.972657 58.707031 58.175782 58.707031h290.488281c32.199219 0 58.175781-26.503906 58.175781-58.707031v-321.496093zm0 0" fill="#00acea"/><path d="m390.515625.398438 134.777344 141.664062h-89.71875c-24.914063 0-45.058594-20.144531-45.058594-45.054688zm0 0" fill="#00efd1"/><g fill="#083863"><path d="m430.804688 424.066406h-218.128907c-7.292969 0-13.257812 5.960938-13.257812 13.253906 0 7.289063 5.964843 13.25 13.257812 13.25h218.257813c7.292968 0 13.25-5.960937 13.25-13.25 0-7.292968-5.957032-13.253906-13.378906-13.253906zm0 0"/><path d="m314.316406 384.574219c.265625.132812.398438.132812.664063.269531 2.382812.792969 4.640625 1.1875 6.757812 1.1875 2.121094 0 4.242188-.394531 6.625-1.1875.265625-.136719.53125-.136719.796875-.269531 85.609375-34.722657 114.5-98.988281 105.089844-147.230469 0 0 0 0 0-.132812-7.160156-35.378907-33-58.308594-65.996094-58.308594-14.976562 0-30.882812 5.035156-46.515625 14.707031-15.769531-10.066406-31.539062-15.238281-47.046875-15.238281-33.128906 0-58.96875 23.191406-65.730468 58.839844-9.140626 48.898437 19.746093 113.441406 105.355468 147.363281zm-79.117187-142.328125c4.375-23.054688 19.613281-37.367188 39.625-37.367188 12.0625 0 25.441406 5.300782 38.960937 15.367188 4.640625 3.449218 11 3.449218 15.769532.132812 13.257812-9.671875 27.039062-14.96875 38.832031-14.96875 20.007812 0 35.382812 14.175782 39.886719 36.96875 7.15625 37.242188-16.832032 87.464844-86.535157 116.621094-69.707031-28.492188-93.824219-78.980469-86.539062-116.753906zm0 0"/></g></svg>