<svg height="640pt" viewBox="0 -52 640 640" width="640pt" xmlns="http://www.w3.org/2000/svg"><path d="m253.089844 20.621094 68.394531 86.640625h-174.46875c-31.152344 0-56.371094 25.21875-56.371094 56.371093v371.777344h-34.273437c-31.152344 0-56.371094-25.21875-56.371094-56.378906v-422.660156c0-31.152344 25.21875-56.371094 56.371094-56.371094h153.105468c16.765626 0 32.785157 7.5625 43.613282 20.621094zm0 0" fill="#00efd1"/><path d="m640 160.816406v318.367188c0 31.152344-25.21875 56.371094-56.371094 56.371094h-507.816406v-374.738282c0-31.152344 25.21875-56.371094 56.371094-56.371094h451.445312c31.152344 0 56.371094 25.21875 56.371094 56.371094zm0 0" fill="#00acea"/><path d="m479.039062 282.613281c-8.015624-39.609375-36.945312-65.273437-73.882812-65.273437-16.761719 0-34.566406 5.636718-52.074219 16.464844-17.652343-11.273438-35.308593-17.0625-52.660156-17.0625-37.09375 0-66.023437 25.96875-73.585937 65.871093-10.53125 54.746094 21.804687 126.84375 117.640624 164.824219.296876.144531.597657.144531.894532.296875 2.667968.890625 5.191406 1.332031 7.417968 1.332031 2.371094 0 4.746094-.441406 7.414063-1.332031.300781-.152344.59375-.152344.890625-.296875 96.132812-38.574219 128.476562-110.675781 117.945312-164.824219zm-126.105468 136.335938c-78.03125-32.039063-104.886719-88.417969-96.875-130.699219 4.898437-25.8125 21.957031-41.835938 44.363281-41.835938 13.5 0 28.480469 5.933594 43.609375 17.214844 5.195312 3.855469 12.316406 3.855469 17.65625.144532 14.835938-10.828126 30.265625-16.761719 43.46875-16.761719 22.402344 0 39.609375 15.875 44.652344 41.386719 8.160156 41.6875-18.691406 97.914062-96.875 130.550781zm0 0" fill="#083863"/></svg>