<svg height="638pt" viewBox="0 -45 638.74973 638" width="638pt" xmlns="http://www.w3.org/2000/svg"><path d="m593.386719 141.355469v65.976562h-541.914063l-5.953125-146.320312c-1.53125-32.992188 24.890625-60.636719 58.039063-60.636719h125.09375c20.308594 0 39.253906 10.691406 49.789062 28.253906l15.886719 26.582032c10.535156 17.5625 29.324219 28.253906 49.789063 28.253906h191.078124c32.074219-.152344 58.191407 25.8125 58.191407 57.890625zm0 0" fill="#00efd1"/><path d="m608.207031 192.0625c18.480469 0 32.835938 16.34375 30.238281 34.671875l-37.417968 272.175781c-3.972656 28.71875-28.5625 50.105469-57.429688 50.105469h-447.832031c-29.019531 0-53.460937-21.386719-57.425781-50.105469l-38.035156-272.175781c-2.59375-18.328125 11.761718-34.824219 30.242187-34.824219h577.660156zm0 0" fill="#00acea"/><path d="m449.050781 331.207031c-8.246093-40.777343-38.03125-67.207031-76.0625-67.207031-17.261719 0-35.589843 5.804688-53.613281 16.953125-18.175781-11.605469-36.347656-17.5625-54.21875-17.5625-38.1875 0-67.972656 26.730469-75.757812 67.816406-10.84375 56.359375 22.449218 130.589844 121.117187 169.84375.308594.15625.617187.15625.765625.308594 2.75.914063 5.347656 1.371094 7.789062 1.371094 2.445313 0 4.886719-.457031 7.636719-1.371094.304688-.152344.613281-.152344.914063-.308594 99.128906-39.863281 132.273437-114.09375 121.429687-169.84375zm-129.675781 140.367188c-80.339844-32.988281-107.984375-91.03125-99.734375-134.5625 5.039063-26.574219 22.601563-43.070313 45.667969-43.070313 13.898437 0 29.328125 6.105469 44.902344 17.714844 5.34375 3.972656 12.679687 3.972656 18.175781.15625 15.273437-11.152344 31.160156-17.261719 44.753906-17.261719 23.0625 0 40.78125 16.339844 45.972656 42.613281 8.25 42.917969-19.394531 100.808594-99.738281 134.410157zm0 0" fill="#083863"/></svg>