<svg height="640pt" viewBox="0 -52 640 640" width="640pt" xmlns="http://www.w3.org/2000/svg"><path d="m320.964844 59.28125-61.492188-59.28125h-211.214844l7.855469 219.214844h532.734375v-159.933594zm0 0" fill="#00efd1"/><path d="m536.460938 219.214844v.550781h-432.921876v-105.332031h432.921876zm0 0" fill="#fedb41"/><path d="m640 205.980469-58.042969 329.097656h-523.222656l-58.734375-329.097656zm0 0" fill="#00acea"/><path d="m437.050781 334.886719c-7.441406-36.8125-34.328125-60.660157-68.65625-60.660157-15.582031 0-32.125 5.234376-48.394531 15.304688-16.40625-10.476562-32.8125-15.855469-48.945312-15.855469-34.46875 0-61.351563 24.125-68.382813 61.210938-9.785156 50.738281 20.265625 117.882812 109.328125 153.316406.28125.136719.417969.136719.695312.277344 2.480469.824219 4.824219 1.242187 7.03125 1.242187 2.203126 0 4.410157-.417968 6.890626-1.242187.277343-.140625.550781-.140625.828124-.277344 89.476563-36.125 119.394532-102.988281 109.605469-153.316406zm-117.050781 126.703125c-72.519531-29.777344-97.476562-82.167969-90.03125-121.464844 4.550781-23.988281 20.40625-38.875 41.226562-38.875 12.542969 0 26.46875 5.511719 40.53125 15.992188 4.824219 3.582031 11.441407 3.582031 16.269532.136718 13.785156-10.066406 28.125-15.578125 40.398437-15.578125 20.820313 0 36.808594 14.75 41.496094 38.460938 7.585937 38.746093-17.371094 91.003906-89.890625 121.328125zm0 0" fill="#083863"/></svg>