<svg height="640pt" viewBox="-70 0 640 640" width="640pt" xmlns="http://www.w3.org/2000/svg"><path d="m334.457031 0h-262.332031c-39.472656 0-72.125 32.484375-72.125 71.957031v496.085938c0 39.472656 32.652344 71.957031 72.125 71.957031h356.058594c39.472656 0 72.117187-32.484375 72.117187-71.957031v-394.074219zm0 0" fill="#00acea"/><path d="m335.269531.488281 165.199219 173.640625h-109.972656c-30.535156 0-55.226563-24.6875-55.226563-55.222656zm0 0" fill="#00efd1"/><g fill="#083863"><path d="m383.835938 511.675781h-267.371094c-8.929688 0-16.238282 7.308594-16.238282 16.242188 0 8.9375 7.308594 16.246093 16.238282 16.246093h267.535156c8.933594 0 16.242188-7.308593 16.242188-16.246093 0-8.933594-7.308594-16.242188-16.40625-16.242188zm0 0"/><path d="m241.054688 471.390625c.328124.160156.488281.160156.816406.328125 2.917968.972656 5.683594 1.460938 8.28125 1.460938s5.199218-.488282 8.125-1.460938c.320312-.167969.648437-.167969.972656-.328125 104.933594-42.558594 140.34375-121.335937 128.8125-180.46875 0 0 0 0 0-.160156-8.777344-43.371094-40.449219-71.476563-80.894531-71.476563-18.355469 0-37.847657 6.179688-57.015625 18.035156-19.332032-12.34375-38.65625-18.679687-57.667969-18.679687-40.605469 0-72.277344 28.425781-80.566406 72.121094-11.203125 59.941406 24.207031 139.046875 129.136719 180.628906zm-96.972657-174.457031c5.363281-28.261719 24.039063-45.804688 48.570313-45.804688 14.78125 0 31.183594 6.492188 47.753906 18.839844 5.6875 4.226562 13.480469 4.226562 19.328125.164062 16.246094-11.855468 33.140625-18.355468 47.59375-18.355468 24.53125 0 43.375 17.378906 48.898437 45.316406 8.769532 45.644531-20.632812 107.207031-106.074218 142.945312-85.441406-34.921874-115.003906-96.8125-106.070313-143.105468zm0 0"/></g></svg>