<svg height="638pt" viewBox="-57 0 638 638.75085" width="638pt" xmlns="http://www.w3.org/2000/svg"><path d="m317.5 238.539062-44.925781-121.921874h-214.023438c-32.199219 0-58.175781 26.507812-58.175781 58.707031v404.71875c0 32.203125 25.976562 58.707031 58.175781 58.707031h290.488281c32.203126 0 58.175782-26.503906 58.175782-58.707031v-321.496094zm0 0" fill="#00efd1"/><path d="m377.132812 180.230469-44.925781-121.921875h-214.019531c-32.203125 0-58.175781 26.507812-58.175781 58.707031v404.71875c0 32.203125 25.972656 58.707031 58.175781 58.707031h290.484375c32.203125 0 58.179687-26.503906 58.179687-58.707031v-321.496094zm0 0" fill="#fedb41"/><path d="m435.441406 121.917969-44.925781-121.917969h-214.019531c-32.203125 0-58.175782 26.503906-58.175782 58.707031v404.71875c0 32.203125 25.972657 58.707031 58.175782 58.707031h290.488281c32.199219 0 58.175781-26.503906 58.175781-58.707031v-321.496093zm0 0" fill="#00acea"/><path d="m390.515625.398438 134.777344 141.664062h-89.71875c-24.914063 0-45.058594-20.144531-45.058594-45.054688zm0 0" fill="#00efd1"/><g fill="#083863"><path d="m430.804688 424.066406h-218.128907c-7.292969 0-13.257812 5.960938-13.257812 13.253906 0 7.289063 5.964843 13.25 13.257812 13.25h218.257813c7.292968 0 13.25-5.960937 13.25-13.25 0-7.292968-5.957032-13.253906-13.378906-13.253906zm0 0"/><path d="m362.289062 355.949219c-11.792968 0-22.929687-4.503907-31.140624-12.71875l-17.625-17.628907c-5.171876-5.164062-13.519532-5.164062-18.683594 0-5.171875 5.171876-5.171875 13.519532 0 18.6875l17.753906 17.757813c13.386719 13.253906 31.144531 20.410156 49.828125 20.410156 18.820313 0 36.441406-7.289062 49.828125-20.542969 27.300781-27.5625 27.300781-72.351562 0-99.652343l-17.625-17.628907c-5.171875-5.164062-13.519531-5.164062-18.683594 0-5.171875 5.167969-5.171875 13.519532 0 18.683594l17.621094 17.628906c17.09375 17.09375 16.964844 44.925782 0 62.152344-8.480469 8.347656-19.480469 12.851563-31.273438 12.851563zm0 0"/><path d="m249.117188 298.703125c2.652343 2.652344 5.964843 3.839844 9.410156 3.839844 3.445312 0 6.753906-1.324219 9.40625-3.839844 5.171875-5.171875 5.171875-13.519531 0-18.683594l-17.621094-17.628906c-17.097656-17.09375-16.964844-44.925781 0-62.152344 8.214844-8.214843 19.214844-12.71875 31.007812-12.71875 11.792969 0 22.921876 4.503907 31.140626 12.71875l17.625 17.625c5.167968 5.167969 13.519531 5.167969 18.683593 0 5.171875-5.167969 5.171875-13.515625 0-18.683593l-17.757812-17.757813c-13.378907-13.253906-31.140625-20.410156-49.824219-20.410156-18.820312 0-36.445312 7.285156-49.828125 20.542969-27.300781 27.5625-27.300781 72.351562 0 99.652343zm0 0"/><path d="m289.535156 239.464844c-5.167968 5.167968-5.167968 13.515625 0 18.6875l45.585938 45.585937c2.652344 2.648438 5.964844 3.84375 9.410156 3.84375s6.757812-1.324219 9.410156-3.84375c5.167969-5.167969 5.167969-13.519531 0-18.683593l-45.589844-45.589844c-5.164062-5.167969-13.648437-5.167969-18.816406 0zm0 0"/></g></svg>