<svg height="638pt" viewBox="0 -45 638.74973 638" width="638pt" xmlns="http://www.w3.org/2000/svg"><path d="m593.386719 141.355469v65.976562h-541.914063l-5.953125-146.320312c-1.53125-32.992188 24.890625-60.636719 58.039063-60.636719h125.09375c20.308594 0 39.253906 10.691406 49.789062 28.253906l15.886719 26.582032c10.535156 17.5625 29.324219 28.253906 49.789063 28.253906h191.078124c32.074219-.152344 58.191407 25.8125 58.191407 57.890625zm0 0" fill="#00efd1"/><path d="m608.207031 192.0625c18.480469 0 32.835938 16.34375 30.238281 34.671875l-37.417968 272.175781c-3.972656 28.71875-28.5625 50.105469-57.429688 50.105469h-447.832031c-29.019531 0-53.460937-21.386719-57.425781-50.105469l-38.035156-272.175781c-2.59375-18.328125 11.761718-34.824219 30.242187-34.824219h577.660156zm0 0" fill="#00acea"/><g fill="#083863"><path d="m403.074219 339.761719c-5.953125-5.957031-15.578125-5.957031-21.535157 0-5.953124 5.953125-5.953124 15.578125 0 21.535156l20.316407 20.316406c19.703125 19.703125 19.546875 51.777344 0 71.632813-9.46875 9.46875-22.148438 14.660156-35.738281 14.660156-13.597657 0-26.429688-5.191406-35.898438-14.660156l-20.3125-20.3125c-5.953125-5.957032-15.578125-5.957032-21.535156 0-5.957032 5.953125-5.957032 15.578125 0 21.535156l20.464844 20.464844c15.429687 15.273437 35.898437 23.523437 57.429687 23.523437 21.691406 0 42.003906-8.398437 57.429687-23.671875 31.464844-31.773437 31.464844-83.398437 0-114.863281zm0 0"/><path d="m272.636719 273.777344c13.597656 0 26.421875 5.195312 35.898437 14.664062l20.308594 20.316406c5.957031 5.953126 15.582031 5.953126 21.535156 0 5.960938-5.960937 5.960938-15.582031 0-21.542968l-20.308594-20.464844c-15.429687-15.273438-35.898437-23.519531-57.433593-23.519531-21.6875 0-42.003907 8.402343-57.425781 23.675781-31.46875 31.765625-31.46875 83.394531 0 114.855469l20.3125 20.316406c3.054687 3.050781 6.875 4.425781 10.84375 4.425781s7.789062-1.523437 10.847656-4.425781c5.953125-5.957031 5.953125-15.578125 0-21.539063l-20.320313-20.46875c-19.699219-19.699218-19.550781-51.777343 0-71.628906 9.472657-9.46875 22.152344-14.664062 35.742188-14.664062zm0 0"/><path d="m345.648438 412.464844c3.972656 0 7.789062-1.53125 10.84375-4.429688 5.953124-5.957031 5.953124-15.582031 0-21.535156l-52.542969-52.542969c-5.957031-5.957031-15.582031-5.957031-21.535157 0-5.957031 5.953125-5.957031 15.578125 0 21.535157l52.542969 52.542968c2.898438 2.898438 6.71875 4.429688 10.691407 4.429688zm0 0"/></g></svg>