<svg height="640pt" viewBox="0 -52 640 640" width="640pt" xmlns="http://www.w3.org/2000/svg"><path d="m320.964844 59.28125-61.492188-59.28125h-211.214844l7.855469 219.214844h532.734375v-159.933594zm0 0" fill="#00efd1"/><path d="m536.460938 219.214844v.550781h-432.921876v-105.332031h432.921876zm0 0" fill="#fedb41"/><path d="m640 205.980469-58.042969 329.097656h-523.222656l-58.734375-329.097656zm0 0" fill="#00acea"/><g fill="#083863"><path d="m395.550781 342.46875c-5.375-5.375-14.0625-5.375-19.4375 0-5.375 5.382812-5.375 14.070312 0 19.445312l18.339844 18.335938c17.78125 17.644531 17.644531 46.738281 0 64.660156-8.550781 8.550782-19.996094 13.238282-32.265625 13.238282s-23.851562-4.6875-32.398438-13.238282l-18.339843-18.476562c-5.375-5.375-14.0625-5.375-19.4375 0-5.375 5.378906-5.375 14.0625 0 19.445312l18.339843 18.75c13.921876 13.648438 32.398438 21.230469 51.835938 21.230469 19.578125 0 37.914062-7.582031 51.839844-21.371094 28.402344-28.816406 28.261718-75.273437 0-103.679687zm0 0"/><path d="m277.8125 282.910156c12.269531 0 23.851562 4.6875 32.398438 13.238282l18.339843 18.332031c5.375 5.382812 14.0625 5.382812 19.4375 0 5.375-5.375 5.375-14.0625 0-19.4375l-18.339843-18.332031c-13.921876-13.789063-32.398438-21.238282-51.835938-21.238282-19.582031 0-37.914062 7.582032-51.839844 21.371094-28.40625 28.679688-28.40625 75.28125 0 103.683594l18.332032 18.472656c2.761718 2.757812 6.207031 3.996094 9.792968 3.996094 3.582032 0 7.03125-1.375 9.789063-3.996094 5.375-5.378906 5.375-14.0625 0-19.441406l-18.339844-18.613282c-17.785156-17.644531-17.648437-46.738281 0-64.660156 8.550781-8.546875 19.996094-13.375 32.265625-13.375zm0 0"/><path d="m343.714844 408.101562c3.585937 0 7.03125-1.382812 9.785156-4 5.382812-5.375 5.382812-14.0625 0-19.4375l-47.425781-47.429687c-5.375-5.378906-14.0625-5.378906-19.4375 0-5.378907 5.378906-5.378907 14.0625 0 19.441406l47.425781 47.425781c2.621094 2.757813 6.070312 4 9.652344 4zm0 0"/></g></svg>