<svg height="638pt" viewBox="-57 0 638 638.75085" width="638pt" xmlns="http://www.w3.org/2000/svg"><path d="m317.5 238.539062-44.925781-121.921874h-214.023438c-32.199219 0-58.175781 26.507812-58.175781 58.707031v404.71875c0 32.203125 25.976562 58.707031 58.175781 58.707031h290.488281c32.203126 0 58.175782-26.503906 58.175782-58.707031v-321.496094zm0 0" fill="#00efd1"/><path d="m377.132812 180.230469-44.925781-121.921875h-214.019531c-32.203125 0-58.175781 26.507812-58.175781 58.707031v404.71875c0 32.203125 25.972656 58.707031 58.175781 58.707031h290.484375c32.203125 0 58.179687-26.503906 58.179687-58.707031v-321.496094zm0 0" fill="#fedb41"/><path d="m435.441406 121.917969-44.925781-121.917969h-214.019531c-32.203125 0-58.175782 26.503906-58.175782 58.707031v404.71875c0 32.203125 25.972657 58.707031 58.175782 58.707031h290.488281c32.199219 0 58.175781-26.503906 58.175781-58.707031v-321.496093zm0 0" fill="#00acea"/><path d="m390.515625.398438 134.777344 141.664062h-89.71875c-24.914063 0-45.058594-20.144531-45.058594-45.054688zm0 0" fill="#00efd1"/><g fill="#083863"><path d="m430.804688 424.066406h-218.128907c-7.292969 0-13.257812 5.960938-13.257812 13.253906 0 7.289063 5.964843 13.25 13.257812 13.25h218.257813c7.292968 0 13.25-5.960937 13.25-13.25 0-7.292968-5.957032-13.253906-13.378906-13.253906zm0 0"/><path d="m311.269531 391.996094c2.515625 2.652344 5.960938 4.242187 9.539063 4.242187 3.582031 0 7.027344-1.589843 9.542968-4.242187l62.816407-65.597656c19.347656-20.011719 29.945312-46.648438 29.945312-75.003907 0-27.832031-10.335937-53.9375-29.019531-73.417969-18.816406-19.746093-44.128906-30.613281-71.164062-30.613281-27.433594 0-53.269532 11.128907-72.753907 31.539063-39.625 40.949218-40.019531 107.609375-.925781 148.425781zm-41.878906-194.804688c14.449219-15.109375 33.394531-23.324218 53.542969-23.324218 19.742187 0 38.164062 7.949218 51.945312 22.394531 13.917969 14.574219 21.601563 34.191406 21.601563 55.132812 0 21.464844-7.953125 41.476563-22.527344 56.582031l-53.277344 55.65625-52.34375-54.726562c-29.15625-30.746094-28.757812-80.835938 1.058594-111.714844zm0 0"/><path d="m321.738281 292.871094c26.902344 0 48.898438-21.867188 48.898438-48.898438 0-26.902344-21.867188-48.898437-48.898438-48.898437-27.035156 0-48.898437 21.863281-48.898437 48.898437 0 27.03125 22 48.898438 48.898437 48.898438zm0-71.164063c12.324219 0 22.394531 10.070313 22.394531 22.394531 0 12.324219-10.070312 22.398438-22.394531 22.398438s-22.398437-10.074219-22.398437-22.398438c0-12.453124 10.074218-22.394531 22.398437-22.394531zm0 0"/></g></svg>