<svg height="640pt" viewBox="-30 0 640 640" width="640pt" xmlns="http://www.w3.org/2000/svg"><path d="m300.585938 101.449219-15.308594-101.449219h-224.601563c-33.820312 0-60.675781 27.554688-60.675781 61.371094v424.71875c0 33.816406 26.855469 60.8125 60.675781 60.8125h213.054688l153.492187-232.402344v-165.734375zm0 0" fill="#00acea"/><path d="m285.277344.140625 141.527344 148.625h-94.210938c-26.164062 0-47.316406-21.152344-47.316406-47.316406zm0 0" fill="#00efd1"/><g fill="#083863"><path d="m279.851562 318.675781h-181.324218c-7.652344 0-13.917969 6.265625-13.917969 13.917969 0 7.65625 6.265625 13.914062 13.917969 13.914062h181.324218c7.652344 0 13.917969-6.257812 13.917969-13.914062 0-7.652344-6.121093-13.917969-13.917969-13.917969zm0 0"/><path d="m98.527344 276.929688h140.96875c7.652344 0 13.917968-6.261719 13.917968-13.917969 0-7.652344-6.265624-13.914063-13.917968-13.914063h-140.96875c-7.652344 0-13.917969 6.261719-13.917969 13.914063 0 7.65625 6.265625 13.917969 13.917969 13.917969zm0 0"/><path d="m234.066406 389.648438h-135.539062c-7.652344 0-13.917969 6.265624-13.917969 13.914062 0 7.65625 6.265625 13.917969 13.917969 13.917969h135.539062c7.65625 0 13.917969-6.261719 13.917969-13.917969 0-7.648438-6.261719-13.914062-13.917969-13.914062zm0 0"/></g><path d="m426.804688 286.8125c86.28125 12.101562 152.65625 86.136719 152.65625 175.753906 0 97.96875-79.457032 177.433594-177.425782 177.433594-67.351562 0-126.078125-37.574219-156-92.960938-13.636718-25.1875-21.429687-53.992187-21.429687-84.609374 0-97.96875 79.460937-177.429688 177.429687-177.429688 8.351563.140625 16.558594.699219 24.769532 1.8125zm0 0" fill="#fedb41"/><path d="m403.148438 332.457031c-28.808594 0-55.941407 11.6875-76.402344 33.117188-41.605469 43-42.023438 113-.96875 155.859375l64.984375 68.191406c2.644531 2.78125 6.265625 4.589844 10.019531 4.589844 3.757812 0 7.378906-1.808594 10.019531-4.589844l65.960938-69.023438c20.316406-21.015624 31.449219-49.128906 31.449219-78.765624 0-29.222657-10.851563-56.640626-30.472657-77.09375-19.761719-20.875-46.199219-32.285157-74.589843-32.285157zm53.574218 168.660157-55.941406 58.449218-54.964844-57.476562c-30.757812-32.144532-30.339844-84.746094.96875-117.308594 15.171875-15.867188 35.070313-24.492188 56.222656-24.492188 20.738282 0 40.078126 8.347657 54.550782 23.515626 14.613281 15.304687 22.683594 35.902343 22.683594 57.890624.136718 22.40625-8.210938 43.558594-23.519532 59.421876zm0 0" fill="#083863"/><path d="m401.757812 382.691406c-28.253906 0-51.351562 22.960938-51.351562 51.351563 0 28.246093 22.960938 51.347656 51.351562 51.347656 28.246094 0 51.347657-22.960937 51.347657-51.347656 0-28.390625-22.960938-51.351563-51.347657-51.351563zm0 74.730469c-12.945312 0-23.519531-10.578125-23.519531-23.519531s10.574219-23.515625 23.519531-23.515625c12.9375 0 23.515626 10.574219 23.515626 23.515625 0 13.078125-10.578126 23.519531-23.515626 23.519531zm0 0" fill="#083863"/></svg>