<svg height="640pt" viewBox="0 -52 640 640" width="640pt" xmlns="http://www.w3.org/2000/svg"><path d="m253.089844 20.621094 68.394531 86.640625h-174.46875c-31.152344 0-56.371094 25.21875-56.371094 56.371093v371.777344h-34.273437c-31.152344 0-56.371094-25.21875-56.371094-56.378906v-422.660156c0-31.152344 25.21875-56.371094 56.371094-56.371094h153.105468c16.765626 0 32.785157 7.5625 43.613282 20.621094zm0 0" fill="#00efd1"/><path d="m640 160.816406v318.367188c0 31.152344-25.21875 56.371094-56.371094 56.371094h-507.816406v-374.738282c0-31.152344 25.21875-56.371094 56.371094-56.371094h451.445312c31.152344 0 56.371094 25.21875 56.371094 56.371094zm0 0" fill="#00acea"/><g fill="#083863"><path d="m354.417969 182.03125c-30.707031 0-59.636719 12.460938-81.445313 35.308594-44.359375 45.839844-44.804687 120.464844-1.039062 166.15625l69.28125 72.542968c2.816406 2.96875 6.675781 4.746094 10.679687 4.746094 4.007813 0 7.867188-1.777344 10.683594-4.746094l70.316406-73.4375c21.660157-22.398437 33.53125-52.21875 33.53125-83.964843 0-31.15625-11.574219-60.378907-32.488281-82.191407-20.921875-22.25-49.253906-34.414062-79.519531-34.414062zm57.113281 179.804688-59.636719 62.308593-58.597656-61.269531c-32.789063-34.417969-32.339844-90.496094 1.039063-125.0625 16.171874-16.914062 37.382812-26.113281 59.929687-26.113281 22.105469 0 42.730469 8.902343 58.160156 25.074219 15.578125 16.316406 24.179688 38.273437 24.179688 61.710937.300781 23.890625-8.753907 46.4375-25.074219 63.351563zm0 0"/><path d="m353.082031 235.585938c-30.113281 0-54.742187 24.476562-54.742187 54.742187 0 30.117187 24.476562 54.746094 54.742187 54.746094 30.269531 0 54.746094-24.484375 54.746094-54.746094-.152344-30.265625-24.628906-54.742187-54.746094-54.742187zm0 79.667968c-13.792969 0-25.070312-11.273437-25.070312-25.074218 0-13.792969 11.277343-25.066407 25.070312-25.066407 13.796875 0 25.074219 11.273438 25.074219 25.066407-.148438 13.800781-11.277344 25.074218-25.074219 25.074218zm0 0"/></g></svg>