<svg height="638pt" viewBox="0 -45 638.74973 638" width="638pt" xmlns="http://www.w3.org/2000/svg"><path d="m593.386719 141.355469v65.976562h-541.914063l-5.953125-146.320312c-1.53125-32.992188 24.890625-60.636719 58.039063-60.636719h125.09375c20.308594 0 39.253906 10.691406 49.789062 28.253906l15.886719 26.582032c10.535156 17.5625 29.324219 28.253906 49.789063 28.253906h191.078124c32.074219-.152344 58.191407 25.8125 58.191407 57.890625zm0 0" fill="#00efd1"/><path d="m608.207031 192.0625c18.480469 0 32.835938 16.34375 30.238281 34.671875l-37.417968 272.175781c-3.972656 28.71875-28.5625 50.105469-57.429688 50.105469h-447.832031c-29.019531 0-53.460937-21.386719-57.425781-50.105469l-38.035156-272.175781c-2.59375-18.328125 11.761718-34.824219 30.242187-34.824219h577.660156zm0 0" fill="#00acea"/><g fill="#083863"><path d="m320.902344 227.648438c-31.617188 0-61.398438 12.832031-83.855469 36.351562-45.667969 47.199219-46.125 124.023438-1.066406 171.066406l71.328125 74.691406c2.902344 3.050782 6.875 4.890626 10.996094 4.890626 4.128906 0 8.09375-1.839844 11-4.890626l72.394531-75.605468c22.300781-23.0625 34.519531-53.765625 34.519531-86.449219 0-32.074219-11.914062-62.167969-33.449219-84.621094-21.6875-22.90625-50.859375-35.433593-81.867187-35.433593zm58.804687 185.125-61.398437 64.144531-60.335938-63.078125c-33.75-35.441406-33.292968-93.171875 1.074219-128.761719 16.644531-17.414063 38.488281-26.882813 61.703125-26.882813 22.757812 0 43.992188 9.167969 59.875 25.8125 16.039062 16.804688 24.898438 39.40625 24.898438 63.539063.148437 24.597656-9.011719 47.8125-25.816407 65.226563zm0 0"/><path d="m319.375 282.785156c-31.003906 0-56.359375 25.207032-56.359375 56.367188 0 31.003906 25.203125 56.359375 56.359375 56.359375 31.160156 0 56.359375-25.207031 56.359375-56.359375 0-31.160156-25.355469-56.367188-56.359375-56.367188zm0 82.023438c-14.203125 0-25.8125-11.609375-25.8125-25.808594 0-14.207031 11.609375-25.8125 25.8125-25.8125 14.207031 0 25.816406 11.605469 25.816406 25.8125 0 14.199219-11.609375 25.808594-25.816406 25.808594zm0 0"/></g></svg>