<svg height="640pt" viewBox="0 -52 640 640" width="640pt" xmlns="http://www.w3.org/2000/svg"><path d="m320.964844 59.28125-61.492188-59.28125h-211.214844l7.855469 219.214844h532.734375v-159.933594zm0 0" fill="#00efd1"/><path d="m536.460938 219.214844v.550781h-432.921876v-105.332031h432.921876zm0 0" fill="#fedb41"/><path d="m640 205.980469-58.042969 329.097656h-523.222656l-58.734375-329.097656zm0 0" fill="#00acea"/><g fill="#083863"><path d="m321.375 241.273438c-28.539062 0-55.421875 11.582031-75.6875 32.8125-41.226562 42.601562-41.640625 111.953124-.964844 154.417968l64.382813 67.554688c2.621093 2.757812 6.207031 4.550781 9.925781 4.550781 3.726562 0 7.3125-1.792969 9.929688-4.410156l65.351562-68.382813c20.128906-20.820312 31.15625-48.535156 31.15625-78.035156 0-28.957031-10.753906-56.113281-30.191406-76.382812-19.578125-20.679688-45.914063-32.125-73.902344-32.125zm53.082031 167.101562-55.425781 57.902344-54.457031-56.9375c-30.46875-31.851563-30.054688-84.101563.96875-116.226563 15.023437-15.714843 34.738281-24.265625 55.695312-24.265625 20.542969 0 39.707031 8.269532 54.050781 23.300782 14.472657 15.164062 22.46875 35.570312 22.46875 57.351562.136719 22.339844-8.132812 43.15625-23.300781 58.875zm0 0"/><path d="m320 291.042969c-27.988281 0-50.875 22.75-50.875 50.875 0 27.988281 22.75 50.878906 50.875 50.878906s50.875-22.75 50.875-50.878906c0-27.984375-22.886719-50.875-50.875-50.875zm0 74.175781c-12.824219 0-23.300781-10.476562-23.300781-23.300781 0-12.816407 10.476562-23.296875 23.300781-23.296875 12.820312 0 23.300781 10.480468 23.300781 23.296875 0 12.824219-10.480469 23.300781-23.300781 23.300781zm0 0"/></g></svg>