<svg height="640pt" viewBox="-70 0 640 640" width="640pt" xmlns="http://www.w3.org/2000/svg"><path d="m334.457031 0h-262.332031c-39.472656 0-72.125 32.484375-72.125 71.957031v496.085938c0 39.472656 32.652344 71.957031 72.125 71.957031h356.058594c39.472656 0 72.117187-32.484375 72.117187-71.957031v-394.074219zm0 0" fill="#00acea"/><path d="m335.269531.488281 165.199219 173.640625h-109.972656c-30.535156 0-55.226563-24.6875-55.226563-55.222656zm0 0" fill="#00efd1"/><g fill="#083863"><path d="m383.835938 511.675781h-267.371094c-8.929688 0-16.238282 7.308594-16.238282 16.242188 0 8.9375 7.308594 16.246093 16.238282 16.246093h267.535156c8.933594 0 16.242188-7.308593 16.242188-16.246093 0-8.933594-7.308594-16.242188-16.40625-16.242188zm0 0"/><path d="m237.320312 480.488281c3.085938 3.246094 7.308594 5.199219 11.695313 5.199219s8.605469-1.953125 11.691406-5.199219l76.996094-80.40625c23.71875-24.53125 36.710937-57.175781 36.710937-91.9375 0-34.117187-12.667968-66.113281-35.570312-89.992187-23.066406-24.203125-54.09375-37.523438-87.234375-37.523438-33.621094 0-65.296875 13.644532-89.171875 38.65625-48.570312 50.195313-49.058594 131.902344-1.136719 181.929688zm-51.328124-238.785156c17.703124-18.515625 40.929687-28.589844 65.625-28.589844 24.199218 0 46.78125 9.746094 63.671874 27.453125 17.054688 17.871094 26.476563 41.910156 26.476563 67.574219 0 26.316406-9.746094 50.84375-27.609375 69.359375l-65.304688 68.226562-64.160156-67.089843c-35.734375-37.683594-35.246094-99.082031 1.300782-136.933594zm0 0"/><path d="m250.152344 358.984375c32.972656 0 59.941406-26.800781 59.941406-59.9375 0-32.976563-26.804688-59.941406-59.941406-59.941406-33.136719 0-59.9375 26.800781-59.9375 59.941406 0 33.136719 26.964844 59.9375 59.9375 59.9375zm0-87.226563c15.105468 0 27.449218 12.34375 27.449218 27.449219s-12.34375 27.453125-27.449218 27.453125c-15.105469 0-27.453125-12.347656-27.453125-27.453125 0-15.265625 12.34375-27.449219 27.453125-27.449219zm0 0"/></g></svg>