<svg height="638pt" viewBox="-57 0 638 638.75085" width="638pt" xmlns="http://www.w3.org/2000/svg"><path d="m317.5 238.539062-44.925781-121.921874h-214.023438c-32.199219 0-58.175781 26.507812-58.175781 58.707031v404.71875c0 32.203125 25.976562 58.707031 58.175781 58.707031h290.488281c32.203126 0 58.175782-26.503906 58.175782-58.707031v-321.496094zm0 0" fill="#00efd1"/><path d="m377.132812 180.230469-44.925781-121.921875h-214.019531c-32.203125 0-58.175781 26.507812-58.175781 58.707031v404.71875c0 32.203125 25.972656 58.707031 58.175781 58.707031h290.484375c32.203125 0 58.179687-26.503906 58.179687-58.707031v-321.496094zm0 0" fill="#fedb41"/><path d="m435.441406 121.917969-44.925781-121.917969h-214.019531c-32.203125 0-58.175782 26.503906-58.175782 58.707031v404.71875c0 32.203125 25.972657 58.707031 58.175782 58.707031h290.488281c32.199219 0 58.175781-26.503906 58.175781-58.707031v-321.496093zm0 0" fill="#00acea"/><path d="m390.515625.398438 134.777344 141.664062h-89.71875c-24.914063 0-45.058594-20.144531-45.058594-45.054688zm0 0" fill="#00efd1"/><g fill="#083863"><path d="m430.804688 424.066406h-218.128907c-7.292969 0-13.257812 5.960938-13.257812 13.253906 0 7.289063 5.964843 13.25 13.257812 13.25h218.257813c7.292968 0 13.25-5.960937 13.25-13.25 0-7.292968-5.957032-13.253906-13.378906-13.253906zm0 0"/><path d="m444.320312 197.457031c0-7.292969-5.964843-13.25-13.253906-13.25h-219.984375c-7.285156 0-13.25 5.957031-13.25 13.25v148.425781c0 7.285157 5.964844 13.25 13.25 13.25h219.984375c7.289063 0 13.253906-5.964843 13.253906-13.25zm-122.710937 79.910157-75.144531-66.660157h150.546875zm-59.371094-16.832032-37.902343 47.578125v-81.238281zm20.40625 17.496094 30.214844 26.769531c2.519531 2.25 5.699219 3.308594 8.75 3.308594 3.175781 0 6.226563-1.058594 8.742187-3.308594l29.816407-26.507812 43.867187 54.203125h-164.992187zm97.933594-17.097656 38.5625-34.191406v81.765624zm0 0"/></g></svg>