<svg height="640pt" viewBox="0 -52 640 640" width="640pt" xmlns="http://www.w3.org/2000/svg"><path d="m253.089844 20.621094 68.394531 86.640625h-174.46875c-31.152344 0-56.371094 25.21875-56.371094 56.371093v371.777344h-34.273437c-31.152344 0-56.371094-25.21875-56.371094-56.378906v-422.660156c0-31.152344 25.21875-56.371094 56.371094-56.371094h153.105468c16.765626 0 32.785157 7.5625 43.613282 20.621094zm0 0" fill="#00efd1"/><path d="m640 160.816406v318.367188c0 31.152344-25.21875 56.371094-56.371094 56.371094h-507.816406v-374.738282c0-31.152344 25.21875-56.371094 56.371094-56.371094h451.445312c31.152344 0 56.371094 25.21875 56.371094 56.371094zm0 0" fill="#00acea"/><path d="m490.605469 238.105469c0-8.160157-6.675781-14.832031-14.832031-14.832031h-246.273438c-8.15625 0-14.832031 6.671874-14.832031 14.832031v166.15625c0 8.160156 6.675781 14.839843 14.832031 14.839843h246.273438c8.15625 0 14.832031-6.679687 14.832031-14.839843zm-137.671875 89.457031-84.261719-74.617188h168.53125zm-66.167969-18.835938-42.425781 53.257813v-90.9375zm22.40625 19.578126 33.820313 29.972656c2.824218 2.519531 6.382812 3.707031 9.796874 3.707031 3.558594 0 6.972657-1.1875 9.789063-3.707031l33.378906-29.675782 49.105469 60.679688h-184.554688zm108.59375-19.132813 43.171875-38.277344v91.53125zm0 0" fill="#083863"/></svg>