<svg height="638pt" viewBox="0 -45 638.74973 638" width="638pt" xmlns="http://www.w3.org/2000/svg"><path d="m593.386719 141.355469v65.976562h-541.914063l-5.953125-146.320312c-1.53125-32.992188 24.890625-60.636719 58.039063-60.636719h125.09375c20.308594 0 39.253906 10.691406 49.789062 28.253906l15.886719 26.582032c10.535156 17.5625 29.324219 28.253906 49.789063 28.253906h191.078124c32.074219-.152344 58.191407 25.8125 58.191407 57.890625zm0 0" fill="#00efd1"/><path d="m608.207031 192.0625c18.480469 0 32.835938 16.34375 30.238281 34.671875l-37.417968 272.175781c-3.972656 28.71875-28.5625 50.105469-57.429688 50.105469h-447.832031c-29.019531 0-53.460937-21.386719-57.425781-50.105469l-38.035156-272.175781c-2.59375-18.328125 11.761718-34.824219 30.242187-34.824219h577.660156zm0 0" fill="#00acea"/><path d="m461.421875 285.382812c0-8.394531-6.871094-15.273437-15.273437-15.273437h-253.546876c-8.398437 0-15.269531 6.878906-15.269531 15.273437v171.066407c0 8.402343 6.871094 15.28125 15.269531 15.28125h253.546876c8.402343 0 15.273437-6.878907 15.273437-15.28125zm-142.195313 92.105469-86.605468-76.832031h173.511718zm-67.667968-19.398437-43.683594 54.832031v-93.628906zm22.761718 20.160156 34.824219 30.851562c2.898438 2.597657 6.566407 3.820313 10.082031 3.820313 3.664063 0 7.175782-1.222656 10.078126-3.820313l34.367187-30.546874 50.554687 62.472656h-190.160156zm112.109376-19.703125 44.449218-39.40625v94.238281zm0 0" fill="#083863"/></svg>