<svg height="640pt" viewBox="0 -52 640 640" width="640pt" xmlns="http://www.w3.org/2000/svg"><path d="m320.964844 59.28125-61.492188-59.28125h-211.214844l7.855469 219.214844h532.734375v-159.933594zm0 0" fill="#00efd1"/><path d="m536.460938 219.214844v.550781h-432.921876v-105.332031h432.921876zm0 0" fill="#fedb41"/><path d="m640 205.980469-58.042969 329.097656h-523.222656l-58.734375-329.097656zm0 0" fill="#00acea"/><path d="m448.222656 293.667969c0-7.585938-6.207031-13.789063-13.789062-13.789063h-228.867188c-7.582031 0-13.789062 6.203125-13.789062 13.789063v154.414062c0 7.582031 6.207031 13.789063 13.789062 13.789063h228.867188c7.582031 0 13.789062-6.207032 13.789062-13.789063zm-128.359375 83.132812-78.175781-69.351562h156.621094zm-61.078125-17.78125-39.429687 49.496094v-84.515625zm20.539063 18.46875 31.4375 27.851563c2.621093 2.34375 5.925781 3.449218 9.101562 3.449218 3.304688 0 6.480469-1.105468 9.097657-3.449218l31.019531-27.433594 45.640625 56.386719h-171.652344zm101.203125-17.917969 40.117187-35.570312v85.0625zm0 0" fill="#083863"/></svg>