<svg height="640pt" viewBox="-70 0 640 640" width="640pt" xmlns="http://www.w3.org/2000/svg"><path d="m334.457031 0h-262.332031c-39.472656 0-72.125 32.484375-72.125 71.957031v496.085938c0 39.472656 32.652344 71.957031 72.125 71.957031h356.058594c39.472656 0 72.117187-32.484375 72.117187-71.957031v-394.074219zm0 0" fill="#00acea"/><path d="m335.269531.488281 165.199219 173.640625h-109.972656c-30.535156 0-55.226563-24.6875-55.226563-55.222656zm0 0" fill="#00efd1"/><g fill="#083863"><path d="m383.835938 511.675781h-267.371094c-8.929688 0-16.238282 7.308594-16.238282 16.242188 0 8.9375 7.308594 16.246093 16.238282 16.246093h267.535156c8.933594 0 16.242188-7.308593 16.242188-16.246093 0-8.933594-7.308594-16.242188-16.40625-16.242188zm0 0"/><path d="m401.214844 242.03125c0-8.9375-7.308594-16.246094-16.238282-16.246094h-269.644531c-8.933593 0-16.246093 7.308594-16.246093 16.246094v181.929688c0 8.933593 7.3125 16.242187 16.246093 16.242187h269.644531c8.933594 0 16.242188-7.308594 16.242188-16.242187v-181.929688zm-151.222656 97.949219-92.101563-81.703125h184.527344zm-71.960938-20.628907-46.457031 58.3125v-99.574218zm24.207031 21.4375 37.027344 32.8125c3.085937 2.761719 6.988281 4.0625 10.726563 4.0625 3.894531 0 7.632812-1.296874 10.71875-4.0625l36.550781-32.488281 53.761719 66.441407h-202.230469zm119.222657-20.949218 47.269531-41.910156v100.222656zm0 0"/></g></svg>