<svg height="638pt" viewBox="-57 0 638 638.75085" width="638pt" xmlns="http://www.w3.org/2000/svg"><path d="m317.5 238.539062-44.925781-121.921874h-214.023438c-32.199219 0-58.175781 26.507812-58.175781 58.707031v404.71875c0 32.203125 25.976562 58.707031 58.175781 58.707031h290.488281c32.203126 0 58.175782-26.503906 58.175782-58.707031v-321.496094zm0 0" fill="#00efd1"/><path d="m377.132812 180.230469-44.925781-121.921875h-214.019531c-32.203125 0-58.175781 26.507812-58.175781 58.707031v404.71875c0 32.203125 25.972656 58.707031 58.175781 58.707031h290.484375c32.203125 0 58.179687-26.503906 58.179687-58.707031v-321.496094zm0 0" fill="#fedb41"/><path d="m435.441406 121.917969-44.925781-121.917969h-214.019531c-32.203125 0-58.175782 26.503906-58.175782 58.707031v404.71875c0 32.203125 25.972657 58.707031 58.175782 58.707031h290.488281c32.199219 0 58.175781-26.503906 58.175781-58.707031v-321.496093zm0 0" fill="#00acea"/><path d="m390.515625.398438 134.777344 141.664062h-89.71875c-24.914063 0-45.058594-20.144531-45.058594-45.054688zm0 0" fill="#00efd1"/><g fill="#083863"><path d="m430.804688 424.066406h-218.128907c-7.292969 0-13.257812 5.960938-13.257812 13.253906 0 7.289063 5.964843 13.25 13.257812 13.25h218.257813c7.292968 0 13.25-5.960937 13.25-13.25 0-7.292968-5.957032-13.253906-13.378906-13.253906zm0 0"/><path d="m261.179688 374.105469c3.445312 0 6.890624-.398438 10.335937-1.0625 12.054687-2.382813 22.792969-8.742188 29.945313-17.886719 7.691406-9.675781 10.605468-21.734375 8.347656-33-.792969-4.105469-1.988282-8.082031-4.632813-11.792969v-98.726562l90.109375-13.648438v62.546875c-7.945312-1.855468-15.238281-2.121094-23.191406-.53125-12.054688 2.386719-22.792969 8.746094-30.082031 17.890625-7.683594 9.671875-10.730469 21.734375-8.480469 32.996094 2.253906 11.398437 9.675781 21.339844 20.410156 27.300781 7.289063 4.109375 15.503906 6.097656 24.117188 6.097656 3.445312 0 6.890625-.394531 10.46875-1.058593 25.710937-5.171875 43.203125-27.964844 38.566406-51.023438-.929688-4.902343-2.648438-9.410156-5.300781-13.382812v-96.34375c0-3.839844-1.855469-7.554688-4.769531-10.070313-2.917969-2.519531-6.894532-3.582031-10.738282-3.050781l-116.21875 17.761719c-6.496094.925781-11.398437 6.488281-11.398437 13.117187v90.25c-7.953125-2.121093-15.769531-2.390625-23.855469-.796875-25.703125 5.167969-42.933594 27.964844-38.429688 51.019532 3.976563 19.878906 23.0625 33.394531 44.796876 33.394531zm122.183593-56.851563c-5.835937 1.195313-11.800781.394532-16.433593-2.25-2.257813-1.324218-6.363282-4.246094-7.421876-9.410156-1.0625-5.171875 1.589844-9.148438 3.179688-11.265625 3.3125-4.109375 8.480469-6.890625 14.445312-8.21875 1.722657-1.320313 3.445313-.660156 5.167969-.660156 9.277344 0 17.226563 4.769531 18.683594 12.058593 1.722656 8.617188-6.359375 17.496094-17.621094 19.746094zm-123.246093-1.59375c5.828124-1.1875 11.792968-.394531 16.433593 2.257813 2.25 1.324219 6.359375 4.238281 7.421875 9.410156 1.054688 5.167969-1.59375 9.40625-3.183594 11.394531-3.3125 4.109375-8.480468 7.160156-14.445312 8.347656-11.261719 2.25-22.128906-3.046874-23.855469-11.53125-1.71875-8.609374 6.359375-17.621093 17.628907-19.878906zm0 0"/></g></svg>