<svg height="640pt" viewBox="-30 0 640 640" width="640pt" xmlns="http://www.w3.org/2000/svg"><path d="m300.585938 101.449219-15.308594-101.449219h-224.601563c-33.820312 0-60.675781 27.554688-60.675781 61.371094v424.71875c0 33.816406 26.855469 60.8125 60.675781 60.8125h213.054688l153.492187-232.402344v-165.734375zm0 0" fill="#00acea"/><path d="m285.277344.140625 141.527344 148.625h-94.210938c-26.164062 0-47.316406-21.152344-47.316406-47.316406zm0 0" fill="#00efd1"/><g fill="#083863"><path d="m279.992188 318.675781h-181.464844c-7.652344 0-13.917969 6.265625-13.917969 13.917969 0 7.65625 6.265625 13.914062 13.917969 13.914062h181.324218c7.652344 0 13.917969-6.257812 13.917969-13.914062 0-7.652344-6.121093-13.917969-13.777343-13.917969zm0 0"/><path d="m98.527344 276.929688h140.96875c7.652344 0 13.917968-6.261719 13.917968-13.917969 0-7.652344-6.265624-13.914063-13.917968-13.914063h-140.96875c-7.652344 0-13.917969 6.261719-13.917969 13.914063 0 7.65625 6.265625 13.917969 13.917969 13.917969zm0 0"/><path d="m234.066406 389.648438h-135.539062c-7.652344 0-13.917969 6.265624-13.917969 13.914062 0 7.65625 6.265625 13.917969 13.917969 13.917969h135.539062c7.65625 0 13.917969-6.261719 13.917969-13.917969 0-7.648438-6.261719-13.914062-13.917969-13.914062zm0 0"/></g><path d="m426.804688 286.8125c86.28125 12.101562 152.65625 86.136719 152.65625 175.753906 0 97.96875-79.457032 177.433594-177.425782 177.433594-67.351562 0-126.078125-37.574219-156-92.960938-13.636718-25.1875-21.429687-53.992187-21.429687-84.609374 0-97.96875 79.460937-177.429688 177.429687-177.429688 8.351563.140625 16.558594.699219 24.769532 1.8125zm0 0" fill="#fedb41"/><path d="m506.542969 470.640625v-101.167969c0-4.039062-1.808594-7.933594-4.867188-10.578125-3.0625-2.644531-7.101562-3.757812-11.132812-3.203125l-122.183594 18.648438c-6.820313.976562-12.109375 6.820312-12.109375 13.78125v94.765625c-6.957031-2.226563-16.144531-2.644531-24.90625-.832031-27 5.425781-44.953125 29.359374-40.21875 53.574218 4.171875 20.875 24.210938 35.070313 47.035156 35.070313 3.617188 0 7.234375-.417969 10.851563-1.113281 27-5.425782 44.8125-29.363282 40.078125-53.574219-.832032-4.453125-2.226563-8.628907-5.007813-12.390625v-103.675782l94.628907-14.332031v65.542969c-7.652344-1.949219-16-2.226562-24.214844-.554688-14.050782 2.78125-26.296875 10.714844-33.8125 21.847657-6.402344 9.601562-8.769532 20.875-6.679688 31.589843 2.363282 11.964844 10.15625 22.40625 21.429688 28.664063 7.652344 4.316406 16.28125 6.402344 25.328125 6.402344 3.617187 0 7.371093-.414063 10.992187-1.113281 26.996094-5.425782 45.226563-29.359376 40.355469-53.574219-.835937-4.730469-2.785156-9.605469-5.566406-13.777344zm-162.953125 71.527344c-11.832032 2.367187-23.242188-3.199219-25.050782-12.105469-1.8125-8.90625 6.679688-18.511719 18.507813-20.875 11.828125-2.367188 23.242187 3.199219 25.046875 12.105469 1.8125 9.046875-6.679688 18.511719-18.503906 20.875zm122.875-31.308594c-6.125 1.25-12.382813.414063-17.257813-2.367187-2.363281-1.394532-6.679687-4.453126-7.792969-9.878907-.832031-4.453125.835938-8.351562 2.507813-10.714843 3.339844-5.011719 9.183594-8.769532 16.003906-10.019532 1.808594-.417968 3.617188-.554687 5.425781-.554687 4.3125 0 8.347657.972656 11.824219 2.917969 2.371094 1.394531 6.6875 4.453124 7.792969 9.742187 1.8125 9.042969-6.671875 18.507813-18.503906 20.875zm0 0" fill="#083863"/></svg>