<svg height="640pt" viewBox="0 -52 640 640" width="640pt" xmlns="http://www.w3.org/2000/svg"><path d="m253.089844 20.621094 68.394531 86.640625h-174.46875c-31.152344 0-56.371094 25.21875-56.371094 56.371093v371.777344h-34.273437c-31.152344 0-56.371094-25.21875-56.371094-56.378906v-422.660156c0-31.152344 25.21875-56.371094 56.371094-56.371094h153.105468c16.765626 0 32.785157 7.5625 43.613282 20.621094zm0 0" fill="#00efd1"/><path d="m640 160.816406v318.367188c0 31.152344-25.21875 56.371094-56.371094 56.371094h-507.816406v-374.738282c0-31.152344 25.21875-56.371094 56.371094-56.371094h451.445312c31.152344 0 56.371094 25.21875 56.371094 56.371094zm0 0" fill="#00acea"/><path d="m465.386719 329.199219v-107.855469c0-4.304688-2.226563-8.457031-5.488281-11.273438-3.261719-2.820312-7.863282-4.007812-12.015626-3.414062l-129.960937 19.882812c-7.265625 1.035157-12.609375 7.265626-12.609375 14.6875v101.023438c-8.601562-2.371094-17.804688-2.664062-26.851562-.886719-28.78125 5.785157-48.21875 31.300781-43.023438 57.117188 4.449219 22.253906 25.664062 37.382812 49.996094 37.382812 3.859375 0 7.714844-.441406 11.574218-1.183593 13.5-2.671876 25.511719-9.792969 33.523438-20.03125 8.605469-10.824219 12.015625-24.328126 9.5-36.9375-.894531-4.601563-2.671875-9.046876-5.046875-13.203126v-110.523437l100.878906-15.28125v70.023437c-8.902343-2.082031-17.207031-2.375-26.105469-.597656-13.503906 2.671875-25.671874 9.796875-33.828124 20.03125-8.605469 10.828125-12.164063 24.332032-9.492188 36.9375 2.515625 12.757813 10.828125 23.886719 22.84375 30.5625 8.160156 4.597656 17.359375 6.824219 27 6.824219 3.855469 0 7.710938-.445313 11.722656-1.1875 28.777344-5.785156 48.511719-31.300781 43.320313-57.117187-1.1875-5.335938-2.96875-10.382813-5.9375-14.980469zm-158.292969 67.054687c-3.710938 4.601563-9.496094 8.011719-16.171875 9.347656-12.609375 2.519532-24.773437-3.414062-26.703125-12.90625-1.929688-9.496093 7.125-19.730468 19.730469-22.105468 6.527343-1.335938 13.203125-.449219 18.398437 2.519531 2.519532 1.484375 7.121094 4.746094 8.308594 10.53125 1.183594 5.492187-1.785156 10.242187-3.5625 12.613281zm114.972656-24.03125c-6.523437 1.332032-13.203125.441406-18.394531-2.527344-2.519531-1.484374-7.125-4.742187-8.3125-10.53125-1.183594-5.785156 1.785156-10.238281 3.566406-12.609374 3.707031-4.597657 9.492188-7.710938 16.167969-9.195313 1.929688-1.484375 3.855469-.742187 5.785156-.742187 10.386719 0 19.285156 5.339843 20.917969 13.5 1.78125 9.644531-7.265625 19.578124-19.730469 22.105468zm0 0" fill="#083863"/></svg>