<svg height="638pt" viewBox="0 -45 638.74973 638" width="638pt" xmlns="http://www.w3.org/2000/svg"><path d="m593.386719 141.355469v65.976562h-541.914063l-5.953125-146.320312c-1.53125-32.992188 24.890625-60.636719 58.039063-60.636719h125.09375c20.308594 0 39.253906 10.691406 49.789062 28.253906l15.886719 26.582032c10.535156 17.5625 29.324219 28.253906 49.789063 28.253906h191.078124c32.074219-.152344 58.191407 25.8125 58.191407 57.890625zm0 0" fill="#00efd1"/><path d="m608.207031 192.0625c18.480469 0 32.835938 16.34375 30.238281 34.671875l-37.417968 272.175781c-3.972656 28.71875-28.5625 50.105469-57.429688 50.105469h-447.832031c-29.019531 0-53.460937-21.386719-57.425781-50.105469l-38.035156-272.175781c-2.59375-18.328125 11.761718-34.824219 30.242187-34.824219h577.660156zm0 0" fill="#00acea"/><path d="m433.929688 379.164062v-111.035156c0-4.429687-1.679688-8.710937-5.039063-11.609375-3.359375-2.90625-7.789063-4.128906-12.21875-3.511719l-133.492187 20.464844c-7.488282 1.066406-12.683594 7.480469-12.683594 15.121094v104.015625c-9.160156-2.445313-18.476563-2.746094-27.945313-.914063-29.636719 5.953126-49.640625 32.226563-44.449219 58.800782 4.585938 22.914062 26.421876 38.492187 51.476563 38.492187 3.96875 0 7.9375-.457031 11.910156-1.222656 13.902344-2.746094 26.269531-10.082031 34.519531-20.617187 8.855469-11.152344 12.527344-25.050782 9.929688-38.03125-.917969-4.738282-3.363281-9.316407-4.890625-13.597657v-113.789062l102.335937-15.734375v72.09375c-7.636718-2.140625-17.105468-2.441406-26.273437-.609375-13.898437 2.746093-26.113281 10.078125-34.515625 20.617187-8.859375 11.152344-12.375 25.050782-9.777344 38.03125 2.597656 13.140625 11.152344 24.589844 23.523438 31.46875 8.402344 4.730469 18.023437 7.019532 27.796875 7.019532 3.972656 0 8.09375-.457032 12.066406-1.21875 29.628906-5.957032 49.332031-32.230469 44.144531-58.804688-1.074218-5.496094-3.363281-10.691406-6.417968-15.429688zm-161.902344 69.042969c-3.820313 4.734375-9.773438 8.242188-16.652344 9.621094-12.980469 2.59375-25.503906-3.511719-27.488281-13.289063-1.984375-9.773437 7.332031-20.316406 20.316406-22.757812 6.71875-1.375 13.589844-.457031 18.9375 2.597656 2.597656 1.527344 7.332031 4.890625 8.550781 10.84375 1.375 5.652344-1.679687 10.535156-3.664062 12.984375zm118.371094-24.742187c-6.71875 1.371094-13.59375.457031-18.941407-2.597656-2.59375-1.53125-7.328125-4.890626-8.550781-10.84375-1.21875-5.960938 1.832031-10.542969 3.664062-12.988282 3.820313-4.730468 9.773438-7.9375 16.652344-9.46875 1.984375-1.523437 3.972656-.757812 5.953125-.757812 10.691407 0 19.855469 5.496094 21.535157 13.898437 1.988281 9.925781-7.328126 20.160157-20.3125 22.757813zm0 0" fill="#083863"/></svg>