<svg height="640pt" viewBox="0 -52 640 640" width="640pt" xmlns="http://www.w3.org/2000/svg"><path d="m320.964844 59.28125-61.492188-59.28125h-211.214844l7.855469 219.214844h532.734375v-159.933594zm0 0" fill="#00efd1"/><path d="m536.460938 219.214844v.550781h-432.921876v-105.332031h432.921876zm0 0" fill="#fedb41"/><path d="m640 205.980469-58.042969 329.097656h-523.222656l-58.734375-329.097656zm0 0" fill="#00acea"/><path d="m423.402344 378.183594v-100.234375c0-4-1.519532-7.863281-4.550782-10.480469s-7.03125-3.71875-11.03125-3.167969l-120.496093 18.335938c-6.757813.964843-11.445313 6.757812-11.445313 13.648437v93.890625c-8.273437-2.207031-16.679687-2.480469-25.230468-.824219-26.746094 5.375-44.804688 29.089844-40.117188 53.078126 4.136719 20.679687 23.847656 34.742187 46.460938 34.742187 3.582031 0 7.167968-.410156 10.757812-1.097656 12.542969-2.484375 23.710938-9.101563 31.15625-18.613281 7.996094-10.070313 11.304688-22.613282 8.960938-34.332032-.828126-4.273437-3.035157-8.40625-4.410157-12.269531v-102.714844l92.371094-14.203125v65.078125c-6.894531-1.933593-15.441406-2.207031-23.714844-.554687-12.542969 2.480468-23.574219 9.097656-31.15625 18.613281-8 10.066406-11.167969 22.609375-8.824219 34.332031 2.34375 11.855469 10.0625 22.191406 21.230469 28.398438 7.582031 4.273437 16.269531 6.34375 25.09375 6.34375 3.582031 0 7.308594-.414063 10.894531-1.105469 26.746094-5.375 44.53125-29.089844 39.84375-53.078125-.96875-4.960938-3.035156-9.648438-5.792968-13.785156zm-146.140625 62.175781c-3.449219 4.273437-8.824219 7.449219-15.03125 8.6875-11.71875 2.34375-23.027344-3.171875-24.8125-11.996094-1.796875-8.824219 6.613281-18.335937 18.332031-20.679687 6.066406-1.238282 12.273438-.414063 17.097656 2.34375 2.34375 1.378906 6.621094 4.410156 7.722656 9.789062 1.242188 5.378906-1.519531 9.792969-3.308593 11.855469zm106.847656-22.195313c-6.066406 1.238282-12.269531.414063-17.097656-2.34375-2.34375-1.378906-6.617188-4.410156-7.71875-9.789062-1.105469-5.378906 1.652343-9.785156 3.308593-11.855469 3.449219-4.273437 8.824219-7.449219 15.03125-8.6875 1.789063-.410156 3.582032-.550781 5.375-.550781 9.648438 0 17.917969 5.101562 19.4375 12.546875 1.792969 8.824219-6.617187 18.335937-18.335937 20.679687zm0 0" fill="#083863"/></svg>