<svg height="640pt" viewBox="-70 0 640 640" width="640pt" xmlns="http://www.w3.org/2000/svg"><path d="m334.457031 0h-262.332031c-39.472656 0-72.125 32.484375-72.125 71.957031v496.085938c0 39.472656 32.652344 71.957031 72.125 71.957031h356.058594c39.472656 0 72.117187-32.484375 72.117187-71.957031v-394.074219zm0 0" fill="#00acea"/><path d="m335.269531.488281 165.199219 173.640625h-109.972656c-30.535156 0-55.226563-24.6875-55.226563-55.222656zm0 0" fill="#00efd1"/><g fill="#083863"><path d="m383.835938 511.675781h-267.371094c-8.929688 0-16.238282 7.308594-16.238282 16.242188 0 8.9375 7.308594 16.246093 16.238282 16.246093h267.535156c8.933594 0 16.242188-7.308593 16.242188-16.246093 0-8.933594-7.308594-16.242188-16.40625-16.242188zm0 0"/><path d="m175.917969 458.558594c4.222656 0 8.449219-.488282 12.671875-1.296875 14.785156-2.925781 27.9375-10.722657 36.707031-21.929688 9.425781-11.859375 13.320313-26.640625 10.5625-40.449219-.976563-5.035156-3.574219-9.90625-5.199219-14.457031v-121.015625l108.832032-16.730468v76.671874c-8.121094-2.277343-18.195313-2.605468-27.941407-.652343-14.777343 2.921875-27.773437 10.71875-36.707031 21.929687-9.421875 11.855469-13.160156 26.640625-10.394531 40.445313 2.757812 13.96875 11.855469 26.152343 25.011719 33.460937 8.9375 5.039063 19.167968 7.476563 29.5625 7.476563 4.226562 0 8.613281-.488281 12.835937-1.300781 31.507813-6.335938 52.464844-34.277344 46.945313-62.539063-1.140626-6.007813-3.738282-11.53125-6.988282-16.40625v-118.089844c0-4.710937-1.789062-9.257812-5.363281-12.347656-3.566406-3.085937-8.28125-4.386719-12.992187-3.734375l-141.964844 21.765625c-7.964844 1.136719-13.488282 7.960937-13.488282 16.085937v110.613282c-9.742187-2.597656-19.652343-2.917969-29.722656-.972656-31.511718 6.335937-52.792968 34.273437-47.269531 62.539062 5.035156 24.367188 28.261719 40.933594 54.902344 40.933594zm149.765625-69.6875c-7.144532 1.464844-14.453125.488281-20.140625-2.757813-2.761719-1.625-7.800781-5.199219-9.097657-11.535156-1.300781-6.335937 1.949219-11.210937 3.902344-13.808594 4.054688-5.03125 10.394532-8.445312 17.703125-10.066406 2.109375-1.625 4.222657-.816406 6.332031-.816406 11.375 0 21.121094 5.851562 22.90625 14.78125 2.109376 10.5625-7.796874 21.445312-21.605468 24.203125zm-151.0625-1.949219c7.148437-1.457031 14.457031-.488281 20.140625 2.761719 2.761719 1.625 7.796875 5.199218 9.097656 11.53125 1.296875 6.339844-1.949219 11.535156-3.898437 13.96875-4.0625 5.035156-10.394532 8.777344-17.703126 10.234375-13.808593 2.761719-27.128906-3.734375-29.238281-14.128907-2.117187-10.558593 7.792969-21.601562 21.601563-24.367187zm0 0"/></g></svg>