<svg height="638pt" viewBox="-57 0 638 638.75085" width="638pt" xmlns="http://www.w3.org/2000/svg"><path d="m317.5 238.539062-44.925781-121.921874h-214.023438c-32.199219 0-58.175781 26.507812-58.175781 58.707031v404.71875c0 32.203125 25.976562 58.707031 58.175781 58.707031h290.488281c32.203126 0 58.175782-26.503906 58.175782-58.707031v-321.496094zm0 0" fill="#00efd1"/><path d="m377.132812 180.230469-44.925781-121.921875h-214.019531c-32.203125 0-58.175781 26.507812-58.175781 58.707031v404.71875c0 32.203125 25.972656 58.707031 58.175781 58.707031h290.484375c32.203125 0 58.179687-26.503906 58.179687-58.707031v-321.496094zm0 0" fill="#fedb41"/><path d="m435.441406 121.917969-44.925781-121.917969h-214.019531c-32.203125 0-58.175782 26.503906-58.175782 58.707031v404.71875c0 32.203125 25.972657 58.707031 58.175782 58.707031h290.488281c32.199219 0 58.175781-26.503906 58.175781-58.707031v-321.496093zm0 0" fill="#00acea"/><path d="m390.515625.398438 134.777344 141.664062h-89.71875c-24.914063 0-45.058594-20.144531-45.058594-45.054688zm0 0" fill="#00efd1"/><g fill="#083863"><path d="m430.804688 424.066406h-218.128907c-7.292969 0-13.257812 5.960938-13.257812 13.253906 0 7.289063 5.964843 13.25 13.257812 13.25h218.257813c7.292968 0 13.25-5.960937 13.25-13.25 0-7.292968-5.957032-13.253906-13.378906-13.253906zm0 0"/><path d="m247.921875 372.382812h27.964844c2.25 7.953126 6.359375 14.976563 12.191406 20.675782 9.011719 8.875 20.9375 13.78125 33.660156 13.78125 21.734375 0 40.019531-14.578125 45.855469-34.457032h28.09375c10.601562 0 20.671875-3.972656 28.09375-11.53125 7.554688-7.554687 11.398438-17.488281 11.398438-28.09375 0-16.566406-9.277344-30.878906-25.179688-36.835937v-35.519531c0-23.984375-8.878906-46.515625-25.574219-63.476563-9.015625-9.011719-19.351562-15.902343-30.882812-20.40625 2.386719-4.769531 3.710937-10.203125 3.710937-15.636719 0-9.542968-3.710937-18.421874-10.472656-25.050781-6.753906-6.621093-15.5-10.203125-24.777344-10.203125-9.410156 0-18.421875 3.710938-25.046875 10.472656-6.625 6.621094-10.203125 15.5-10.203125 24.910157 0 5.699219 1.589844 11 3.976563 15.769531-33.398438 12.859375-56.71875 45.585938-56.71875 83.753906v35.515625c-5.304688 1.988281-9.675781 4.902344-13.519531 8.75-7.554688 7.550781-11.792969 17.355469-11.792969 27.960938-.398438 21.863281 17.226562 39.621093 39.222656 39.621093zm73.816406 8.085938c-5.695312 0-11-2.253906-14.976562-6.230469-.53125-.53125-1.058594-.53125-1.585938-1.855469h33.128907c-3.847657 5.300782-9.804688 8.085938-16.566407 8.085938zm83.222657-38.300781c-2.515626 2.519531-5.828126 3.714843-9.40625 3.714843h-147.632813c-7.285156 0-13.25-5.835937-13.25-13.125 0-3.578124 1.328125-6.753906 3.839844-9.273437 2.257812-2.253906 5.304687-3.582031 8.617187-3.847656l.132813-.128907c.265625 0 .398437-.132812.660156-.132812h147.765625c.261719 0 .394531.132812.660156.132812 0 0 .132813 0 .132813.128907 7.023437.402343 12.457031 6.230469 12.457031 13.257812-.132812 3.445313-1.457031 6.757813-3.976562 9.273438zm-89.449219-187.382813c.925781-.925781 3.046875-2.652344 6.226562-2.652344 2.382813 0 4.503907.925782 6.230469 2.652344 1.722656 1.71875 2.648438 3.839844 2.648438 6.226563 0 2.390625-.925782 4.640625-2.519532 6.230469-1.585937 1.585937-3.839844 2.519531-6.359375 2.519531-5.035156 0-8.878906-3.847657-8.878906-8.878907 0-2.121093.925781-4.378906 2.652344-6.097656zm6.492187 42.539063c16.5625 0 31.804688 6.492187 43.46875 18.421875 11.792969 11.925781 17.757813 27.824218 17.757813 44.789062v32.335938h-123.246094v-32.335938c.132813-34.851562 27.695313-63.210937 62.019531-63.210937zm0 0"/></g></svg>