<svg height="640pt" viewBox="-30 0 640 640" width="640pt" xmlns="http://www.w3.org/2000/svg"><path d="m300.585938 101.449219-15.308594-101.449219h-224.601563c-33.820312 0-60.675781 27.554688-60.675781 61.371094v424.71875c0 33.816406 26.855469 60.8125 60.675781 60.8125h213.054688l153.492187-232.402344v-165.734375zm0 0" fill="#00acea"/><path d="m285.277344.140625 141.527344 148.625h-94.210938c-26.164062 0-47.316406-21.152344-47.316406-47.316406zm0 0" fill="#00efd1"/><g fill="#083863"><path d="m293.90625 332.59375c0-7.652344-6.257812-13.917969-13.914062-13.917969h-181.464844c-7.652344 0-13.917969 6.265625-13.917969 13.917969 0 7.65625 6.265625 13.914062 13.917969 13.914062h181.324218c7.796876 0 14.054688-6.257812 14.054688-13.914062zm0 0"/><path d="m98.527344 276.929688h140.96875c7.652344 0 13.917968-6.261719 13.917968-13.917969 0-7.652344-6.265624-13.914063-13.917968-13.914063h-140.96875c-7.652344 0-13.917969 6.261719-13.917969 13.914063 0 7.65625 6.265625 13.917969 13.917969 13.917969zm0 0"/><path d="m234.066406 389.648438h-135.539062c-7.652344 0-13.917969 6.265624-13.917969 13.914062 0 7.65625 6.265625 13.917969 13.917969 13.917969h135.539062c7.65625 0 13.917969-6.261719 13.917969-13.917969 0-7.648438-6.261719-13.914062-13.917969-13.914062zm0 0"/></g><path d="m426.804688 286.8125c86.28125 12.101562 152.65625 86.136719 152.65625 175.753906 0 97.96875-79.457032 177.433594-177.425782 177.433594-67.351562 0-126.078125-37.574219-156-92.960938-13.636718-25.1875-21.429687-53.992187-21.429687-84.609374 0-97.96875 79.460937-177.429688 177.429687-177.429688 8.351563.140625 16.558594.699219 24.769532 1.8125zm0 0" fill="#fedb41"/><path d="m495.410156 494.160156v-37.296875c0-25.1875-9.878906-48.847656-27.414062-66.515625-9.460938-9.464844-20.59375-16.699218-32.703125-21.433594 2.503906-5.007812 3.757812-10.714843 3.757812-16.417968 0-10.019532-3.894531-19.347656-10.996093-26.304688-6.957032-6.957031-16.277344-10.855468-26.160157-10.855468-10.019531 0-19.339843 3.898437-26.300781 10.996093-6.957031 6.957031-10.851562 16.28125-10.851562 26.164063 0 5.980468 1.527343 11.546875 4.03125 16.554687-35.066407 13.503907-59.839844 47.871094-59.839844 87.949219v37.296875c-15.304688 6.265625-26.300782 21.292969-26.300782 38.828125 0 22.957031 18.507813 41.746094 41.609376 41.746094h29.367187c2.363281 8.351562 6.679687 15.445312 12.800781 21.570312 9.464844 9.324219 21.988282 14.613282 35.347656 14.613282 22.820313 0 42.027344-15.308594 48.148438-36.183594h29.503906c22.957032 0 42.023438-18.789063 42.023438-41.886719-.140625-17.535156-10.714844-32.566406-26.023438-38.824219zm-100.195312-148.34375c1.8125-1.8125 4.039062-2.785156 6.542968-2.785156 2.503907 0 4.730469.972656 6.539063 2.785156 1.808594 1.804688 2.78125 4.03125 2.78125 6.535156 0 2.507813-.972656 4.875-2.640625 6.679688-1.671875 1.671875-4.039062 2.648438-6.679688 2.648438-5.152343 0-9.328124-4.039063-9.328124-9.328126 0-2.363281.976562-4.730468 2.785156-6.535156zm6.679687 44.667969c17.398438 0 33.953125 6.820313 46.34375 19.34375 12.382813 12.523437 19.339844 29.222656 19.339844 47.035156v34.371094h-130.8125v-34.371094c0-36.601562 29.089844-66.378906 65.128906-66.378906zm-.136719 192.460937c-5.988281 0-11.554687-2.226562-15.726562-6.402343-.558594-.558594-1.113281-1.8125-1.671875-1.8125h34.789063c-3.894532 5.566406-10.15625 8.214843-17.390626 8.214843zm77.652344-36.046874h-155.167968c-7.652344 0-13.914063-6.257813-13.914063-14.050782 0-7.378906 5.707031-13.503906 13.078125-13.917968h156.003906c.277344 0 .414063-.140626.691406 0h.140626c7.375.414062 13.082031 6.539062 13.082031 13.917968 0 7.792969-6.265625 14.050782-13.914063 14.050782zm0 0" fill="#083863"/></svg>