<svg height="640pt" viewBox="0 -52 640 640" width="640pt" xmlns="http://www.w3.org/2000/svg"><path d="m253.089844 20.621094 68.394531 86.640625h-174.46875c-31.152344 0-56.371094 25.21875-56.371094 56.371093v371.777344h-34.273437c-31.152344 0-56.371094-25.21875-56.371094-56.378906v-422.660156c0-31.152344 25.21875-56.371094 56.371094-56.371094h153.105468c16.765626 0 32.785157 7.5625 43.613282 20.621094zm0 0" fill="#00efd1"/><path d="m640 160.816406v318.367188c0 31.152344-25.21875 56.371094-56.371094 56.371094h-507.816406v-374.738282c0-31.152344 25.21875-56.371094 56.371094-56.371094h451.445312c31.152344 0 56.371094 25.21875 56.371094 56.371094zm0 0" fill="#00acea"/><path d="m452.035156 354.417969v-39.761719c0-26.847656-10.085937-52.070312-28.929687-70.910156-10.089844-10.089844-21.808594-17.804688-34.714844-22.847656 2.667969-5.34375 4.152344-11.421876 4.152344-17.503907 0-10.683593-4.152344-20.621093-11.71875-28.039062-7.566407-7.421875-17.355469-11.425781-27.890625-11.425781-10.53125 0-20.621094 4.15625-28.042969 11.71875-7.414063 7.417968-11.417969 17.359374-11.417969 27.890624 0 6.382813 1.332032 12.316407 3.855469 17.65625-37.386719 14.390626-64.089844 51.035157-64.089844 93.761719v39.761719c-4.449219 2.21875-10.382812 5.484375-14.535156 9.789062-8.460937 8.457032-12.90625 19.433594-12.90625 31.304688 0 24.476562 20.023437 44.351562 44.652344 44.351562h31.304687c2.519532 8.902344 7.117188 16.769532 13.644532 23.148438 10.089843 9.9375 23.445312 15.429688 37.683593 15.429688 24.332031 0 44.804688-16.320313 51.332031-38.578126h31.304688c11.863281 0 23.140625-4.445312 31.449219-12.902343 8.457031-8.457031 12.90625-19.585938 12.90625-31.449219 0-18.84375-11.71875-34.867188-28.039063-41.394531zm-106.074218-158.144531c1.039062-1.039063 3.414062-2.96875 6.972656-2.96875 2.671875 0 5.042968 1.039062 6.972656 2.96875 1.929688 1.929687 2.96875 4.304687 2.96875 6.972656 0 2.671875-1.039062 5.191406-2.816406 6.972656-1.78125 1.777344-4.300782 2.820312-7.125 2.820312-5.636719 0-9.941406-4.304687-9.941406-9.945312.152343-2.371094 1.1875-4.890625 2.96875-6.820312zm6.828124 47.625c18.542969 0 36.046876 7.265624 49.105469 20.617187 13.203125 13.351563 20.46875 31.152344 20.46875 50.140625v36.203125h-139.453125v-36.203125c0-39.015625 31.457032-70.757812 69.878906-70.757812zm.292969 205.023437c-6.378906 0-12.308593-2.523437-16.761719-6.972656-.59375-.597657-1.1875-.597657-1.78125-2.082031h37.085938c-4.300781 5.9375-10.976562 9.054687-18.542969 9.054687zm93.167969-42.875c-2.816406 2.816406-6.527344 4.152344-10.53125 4.152344h-165.414062c-8.160157 0-14.839844-6.527344-14.839844-14.6875 0-4.007813 1.484375-7.566407 4.300781-10.386719 2.523437-2.515625 5.9375-4 9.644531-4.300781l.152344-.144531c.296875 0 .441406-.152344.742188-.152344h165.414062c.296875 0 .445312.152344.742188.152344 0 0 .144531 0 .144531.144531 7.863281.445312 13.945312 6.972656 13.945312 14.835937 0 3.855469-1.484375 7.566406-4.300781 10.386719zm0 0" fill="#083863"/></svg>