<svg height="638pt" viewBox="0 -45 638.74973 638" width="638pt" xmlns="http://www.w3.org/2000/svg"><path d="m593.386719 141.355469v65.976562h-541.914063l-5.953125-146.320312c-1.53125-32.992188 24.890625-60.636719 58.039063-60.636719h125.09375c20.308594 0 39.253906 10.691406 49.789062 28.253906l15.886719 26.582032c10.535156 17.5625 29.324219 28.253906 49.789063 28.253906h191.078124c32.074219-.152344 58.191407 25.8125 58.191407 57.890625zm0 0" fill="#00efd1"/><path d="m608.207031 192.0625c18.480469 0 32.835938 16.34375 30.238281 34.671875l-37.417968 272.175781c-3.972656 28.71875-28.5625 50.105469-57.429688 50.105469h-447.832031c-29.019531 0-53.460937-21.386719-57.425781-50.105469l-38.035156-272.175781c-2.59375-18.328125 11.761718-34.824219 30.242187-34.824219h577.660156zm0 0" fill="#00acea"/><path d="m421.710938 405.136719v-40.9375c0-27.644531-10.691407-53.609375-29.9375-73.164063-10.382813-10.382812-22.605469-18.328125-35.890626-23.523437 2.75-5.496094 4.121094-11.757813 4.121094-18.019531 0-10.992188-4.277344-21.226563-12.066406-28.871094-7.785156-7.632813-17.867188-11.757813-28.710938-11.757813-10.847656 0-21.234374 4.277344-28.871093 12.066407-7.636719 7.636718-11.761719 17.871093-11.761719 28.714843 0 6.566407 1.527344 12.679688 4.277344 18.175781-38.488282 14.816407-65.828125 52.542969-65.828125 96.53125v40.933594c-6.113281 2.292969-10.847657 5.652344-15.277344 10.082032-8.703125 8.707031-13.441406 20.007812-13.441406 32.230468 0 25.199219 20.625 45.664063 45.824219 45.664063h32.226562c2.597656 9.167969 7.335938 17.261719 14.054688 23.832031 10.386718 10.234375 24.132812 15.882812 38.796874 15.882812 25.046876 0 46.125-16.804687 52.84375-39.714843h32.378907c12.222656 0 23.832031-4.578125 32.382812-13.289063 8.710938-8.703125 13.441407-20.160156 13.441407-32.375.152343-19.246094-11.757813-35.742187-28.5625-42.460937zm-109.511719-162.824219c1.066406-1.070312 3.511719-3.054688 7.175781-3.054688 2.75 0 5.195312 1.066407 7.179688 3.054688 1.988281 1.984375 3.054687 4.429688 3.054687 7.179688s-1.066406 5.347656-2.902344 7.179687c-1.832031 1.832031-4.425781 2.902344-7.332031 2.902344-5.800781 0-10.230469-4.429688-10.230469-10.234375 0-2.445313 1.066407-5.042969 3.054688-7.027344zm7.175781 49.03125c19.09375 0 37.117188 7.480469 50.714844 21.226562 13.589844 13.75 21.074218 32.078126 21.074218 51.628907v37.265625h-143.574218v-37.265625c0-40.171875 32.226562-72.855469 71.785156-72.855469zm0 211.082031c-6.566406 0-12.671875-2.59375-17.257812-7.179687-.609376-.609375-1.226563-.609375-1.832032-2.136719h38.183594c-4.429688 6.109375-11.304688 9.316406-19.09375 9.316406zm95.921875-44.136719c-2.902344 2.898438-6.71875 4.273438-10.847656 4.273438h-170.148438c-8.398437 0-15.273437-6.722656-15.273437-15.121094 0-4.125 1.527344-7.789062 4.429687-10.691406 2.597657-2.597656 6.109375-4.125 9.925781-4.433594l.15625-.148437c.300782 0 .457032-.152344.761719-.152344h170.304688c.308593 0 .457031.152344.765625.152344 0 0 .152344 0 .152344.148437 8.09375.460938 14.355468 7.179688 14.355468 15.28125-.152344 3.96875-1.683594 7.785156-4.582031 10.691406zm0 0" fill="#083863"/></svg>