<svg height="640pt" viewBox="0 -52 640 640" width="640pt" xmlns="http://www.w3.org/2000/svg"><path d="m320.964844 59.28125-61.492188-59.28125h-211.214844l7.855469 219.214844h532.734375v-159.933594zm0 0" fill="#00efd1"/><path d="m536.460938 219.214844v.550781h-432.921876v-105.332031h432.921876zm0 0" fill="#fedb41"/><path d="m640 205.980469-58.042969 329.097656h-523.222656l-58.734375-329.097656zm0 0" fill="#00acea"/><path d="m412.371094 401.480469v-36.949219c0-24.953125-9.648438-48.394531-27.019532-66.039062-9.375-9.375-20.40625-16.542969-32.261718-21.230469 2.480468-4.964844 3.722656-10.617188 3.722656-16.269531 0-9.925782-3.859375-19.164063-10.894531-26.058594-6.890625-6.894532-16.128907-10.753906-25.917969-10.753906-9.925781 0-19.164062 3.859374-26.058594 10.890624-6.890625 6.894532-10.753906 16.132813-10.753906 25.921876 0 5.925781 1.378906 11.4375 3.859375 16.40625-34.742187 13.371093-59.421875 47.425781-59.421875 87.132812v36.949219c-15.164062 6.203125-25.921875 21.097656-25.921875 38.328125 0 22.75 18.613281 41.363281 41.363281 41.363281h29.089844c2.34375 8.269531 6.617188 15.4375 12.6875 21.507813 9.375 9.234374 21.78125 14.335937 35.019531 14.335937 22.605469 0 41.636719-15.164063 47.699219-35.84375h29.234375c22.75 0 41.355469-18.476563 41.355469-41.363281.144531-17.230469-10.613282-32.125-25.78125-38.328125zm-98.851563-146.832031c1.792969-1.792969 4-2.757813 6.480469-2.757813s4.6875.964844 6.480469 2.757813c1.789062 1.65625 2.757812 4 2.757812 6.480468 0 2.480469-.96875 4.824219-2.621093 6.621094-1.652344 1.648438-3.996094 2.617188-6.617188 2.617188-5.101562 0-9.238281-4-9.238281-9.238282 0-2.480468.964843-4.824218 2.757812-6.480468zm6.480469 44.257812c17.234375 0 33.5 6.753906 45.769531 19.164062 12.277344 12.40625 19.03125 28.949219 19.03125 46.597657v33.777343h-129.601562v-33.914062c0-36.261719 29.09375-65.625 64.800781-65.625zm0 190.535156c-5.929688 0-11.445312-2.34375-15.582031-6.476562-.550781-.554688-1.101563-.554688-1.65625-1.929688h34.46875c-3.992188 5.648438-10.199219 8.40625-17.230469 8.40625zm76.796875-35.84375h-153.59375c-7.582031 0-13.785156-6.207031-13.785156-13.789062 0-7.304688 5.648437-13.375 12.960937-13.789063h155.378906c7.308594.414063 12.960938 6.484375 12.960938 13.789063-.136719 7.582031-6.339844 13.789062-13.921875 13.789062zm0 0" fill="#083863"/></svg>