<svg height="640pt" viewBox="-70 0 640 640" width="640pt" xmlns="http://www.w3.org/2000/svg"><path d="m334.457031 0h-262.332031c-39.472656 0-72.125 32.484375-72.125 71.957031v496.085938c0 39.472656 32.652344 71.957031 72.125 71.957031h356.058594c39.472656 0 72.117187-32.484375 72.117187-71.957031v-394.074219zm0 0" fill="#00acea"/><path d="m335.269531.488281 165.199219 173.640625h-109.972656c-30.535156 0-55.226563-24.6875-55.226563-55.222656zm0 0" fill="#00efd1"/><g fill="#083863"><path d="m383.835938 511.675781h-267.371094c-8.929688 0-16.238282 7.308594-16.238282 16.242188 0 8.9375 7.308594 16.246093 16.238282 16.246093h267.535156c8.933594 0 16.242188-7.308593 16.242188-16.246093 0-8.933594-7.308594-16.242188-16.40625-16.242188zm0 0"/><path d="m159.679688 454.824219h34.269531c2.761719 9.746093 7.800781 18.355469 14.949219 25.335937 11.042968 10.882813 25.664062 16.894532 41.257812 16.894532 26.636719 0 49.050781-17.867188 56.199219-42.230469h34.441406c12.992187 0 25.335937-4.875 34.433594-14.136719 9.261719-9.257812 14.296875-21.441406 14.296875-34.433594 0-20.308594-12.671875-37.851562-30.539063-45.15625v-43.535156c0-29.398438-11.371093-57.015625-31.839843-77.808594-11.046876-11.042968-24.039063-19.492187-38.167969-25.011718 2.917969-5.851563 4.382812-12.507813 4.382812-19.167969 0-11.699219-4.550781-22.578125-12.832031-30.703125-8.285156-8.117188-19.003906-12.507813-30.539062-12.507813-11.535157 0-22.578126 4.550781-30.699219 12.835938-8.121094 8.121093-12.511719 19.003906-12.511719 30.539062 0 6.980469 1.628906 13.480469 4.550781 19.328125-40.9375 15.757813-70.007812 55.875-70.007812 102.65625v43.535156c-6.5 2.4375-11.535157 6.011719-16.246094 10.722657-9.257813 9.257812-14.296875 21.28125-14.296875 34.273437.160156 26.800782 21.929688 48.570313 48.898438 48.570313zm90.472656 9.90625c-6.984375 0-13.480469-2.761719-18.355469-7.636719-.648437-.648438-1.296875-.648438-1.949219-2.273438h40.613282c-4.714844 6.496094-12.023438 9.910157-20.308594 9.910157zm102.011718-46.941407c-3.085937 3.085938-7.148437 4.542969-11.535156 4.542969h-180.949218c-8.9375 0-16.246094-7.148437-16.246094-16.078125 0-4.390625 1.621094-8.285156 4.707031-11.371094 2.761719-2.757812 6.5-4.386718 10.5625-4.710937l.160156-.164063c.328125 0 .488281-.160156.816407-.160156h181.109374c.328126 0 .488282.160156.816407.160156 0 0 .160156 0 .160156.164063 8.609375.488281 15.269531 7.636719 15.269531 16.242187-.160156 4.226563-1.785156 8.289063-4.871094 11.375zm-109.644531-229.6875c1.132813-1.140624 3.734375-3.25 7.632813-3.25 2.925781 0 5.519531 1.140626 7.636718 3.25 2.109376 2.113282 3.246094 4.710938 3.246094 7.636719 0 2.921875-1.136718 5.683594-3.085937 7.636719-1.949219 1.945312-4.707031 3.085938-7.796875 3.085938-6.171875 0-10.886719-4.714844-10.886719-10.886719 0-2.601563 1.140625-5.359375 3.253906-7.472657zm7.632813 52.140626c20.308594 0 39.472656 7.960937 53.929687 22.578124 14.457031 14.621094 22.417969 34.113282 22.417969 54.902344v39.636719h-152.691406v-39.636719c0-42.71875 34.273437-77.480468 76.34375-77.480468zm0 0"/></g></svg>