<svg height="638pt" viewBox="-57 0 638 638.75085" width="638pt" xmlns="http://www.w3.org/2000/svg"><path d="m317.5 238.539062-44.925781-121.921874h-214.023438c-32.199219 0-58.175781 26.507812-58.175781 58.707031v404.71875c0 32.203125 25.976562 58.707031 58.175781 58.707031h290.488281c32.203126 0 58.175782-26.503906 58.175782-58.707031v-321.496094zm0 0" fill="#00efd1"/><path d="m377.132812 180.230469-44.925781-121.921875h-214.019531c-32.203125 0-58.175781 26.507812-58.175781 58.707031v404.71875c0 32.203125 25.972656 58.707031 58.175781 58.707031h290.484375c32.203125 0 58.179687-26.503906 58.179687-58.707031v-321.496094zm0 0" fill="#fedb41"/><path d="m435.441406 121.917969-44.925781-121.917969h-214.019531c-32.203125 0-58.175782 26.503906-58.175782 58.707031v404.71875c0 32.203125 25.972657 58.707031 58.175782 58.707031h290.488281c32.199219 0 58.175781-26.503906 58.175781-58.707031v-321.496093zm0 0" fill="#00acea"/><path d="m390.515625.398438 134.777344 141.664062h-89.71875c-24.914063 0-45.058594-20.144531-45.058594-45.054688zm0 0" fill="#00efd1"/><g fill="#083863"><path d="m430.804688 424.066406h-218.128907c-7.292969 0-13.257812 5.960938-13.257812 13.253906 0 7.289063 5.964843 13.25 13.257812 13.25h218.257813c7.292968 0 13.25-5.960937 13.25-13.25 0-7.292968-5.957032-13.253906-13.378906-13.253906zm0 0"/><path d="m249.515625 291.542969h34.71875c.132813 6.097656 0 12.324219-.53125 18.289062v.53125c-.792969 10.738281-4.632813 21.070313-11.128906 29.816407l-7.949219 10.867187c-3.183594 4.238281-3.445312 9.941406-.796875 14.574219 2.648437 4.507812 7.820313 7.160156 12.984375 6.496094l29.417969-3.578126c1.859375-.265624 3.714843-.398437 5.4375-.398437 7.289062 0 14.441406 1.722656 20.9375 5.035156 10.335937 5.304688 21.597656 7.953125 32.867187 7.953125 7.152344 0 14.3125-1.0625 21.335938-3.179687l10.464844-3.183594c7.023437-2.121094 11-9.542969 8.75-16.566406-2.121094-7.019531-9.542969-10.996094-16.566407-8.746094l-10.472656 3.183594c-11.523437 3.574219-23.71875 2.511719-34.453125-3.050781-10.203125-5.167969-21.597656-7.949219-32.996094-7.949219-2.785156 0-5.699218.132812-8.617187.53125l-1.1875.132812c4.5-9.28125 7.152343-19.484375 8.078125-29.820312v-.527344c.53125-6.757813.800781-13.648437.664062-20.539063h33.132813c7.285156 0 13.25-5.964843 13.25-13.257812 0-7.285156-5.964844-13.25-13.25-13.25h-35.117188c-.929687-6.226562-2.125-12.585938-3.714843-18.953125-2.25-9.410156-3.445313-17.625-3.445313-24.515625 0-4.371094.796875-8.742188 2.382813-12.71875 1.59375-4.109375 3.847656-7.421875 6.761718-10.605469 3.050782-3.046875 6.363282-5.433593 10.734375-7.152343 4.109375-1.726563 8.75-2.652344 13.78125-2.652344 18.15625 0 28.628907 7.820312 31.941407 23.722656 1.457031 7.15625 8.480468 11.792969 15.632812 10.203125 7.160156-1.457031 11.796875-8.484375 10.203125-15.636719-5.957031-28.492187-27.03125-44.789062-57.90625-44.789062-8.617187 0-16.832031 1.585937-24.121094 4.632812-7.550781 3.183594-13.917969 7.421875-19.480469 13.125-5.433593 5.566406-9.410156 11.792969-12.324218 19.214844-2.785156 7.152344-4.242188 14.707031-4.242188 22.523438 0 9.015624 1.457032 19.351562 4.109375 30.746093 1.0625 4.238281 1.855469 8.484375 2.652344 12.722657h-31.941406c-7.285157 0-13.25 5.964843-13.25 13.253906 0 7.289062 5.964843 13.515625 13.253906 13.515625zm0 0"/></g></svg>