<svg height="640pt" viewBox="-30 0 640 640" width="640pt" xmlns="http://www.w3.org/2000/svg"><path d="m300.585938 101.449219-15.308594-101.449219h-224.601563c-33.820312 0-60.675781 27.554688-60.675781 61.371094v424.71875c0 33.816406 26.855469 60.8125 60.675781 60.8125h213.054688l153.492187-232.402344v-165.734375zm0 0" fill="#00acea"/><path d="m285.277344.140625 141.527344 148.625h-94.210938c-26.164062 0-47.316406-21.152344-47.316406-47.316406zm0 0" fill="#00efd1"/><g fill="#083863"><path d="m279.851562 318.675781h-181.324218c-7.652344 0-13.917969 6.265625-13.917969 13.917969 0 7.65625 6.265625 13.914062 13.917969 13.914062h181.324218c7.652344 0 13.917969-6.257812 13.917969-13.914062 0-7.652344-6.121093-13.917969-13.917969-13.917969zm0 0"/><path d="m98.527344 276.929688h140.96875c7.652344 0 13.917968-6.261719 13.917968-13.917969 0-7.652344-6.265624-13.914063-13.917968-13.914063h-140.96875c-7.652344 0-13.917969 6.261719-13.917969 13.914063 0 7.65625 6.265625 13.917969 13.917969 13.917969zm0 0"/><path d="m234.066406 389.648438h-135.539062c-7.652344 0-13.917969 6.265624-13.917969 13.914062 0 7.65625 6.265625 13.917969 13.917969 13.917969h135.539062c7.65625 0 13.917969-6.261719 13.917969-13.917969 0-7.648438-6.261719-13.914062-13.917969-13.914062zm0 0"/></g><path d="m426.804688 286.8125c86.28125 12.101562 152.65625 86.136719 152.65625 175.753906 0 97.96875-79.457032 177.433594-177.425782 177.433594-67.351562 0-126.078125-37.574219-156-92.960938-13.636718-25.1875-21.429687-53.992187-21.429687-84.609374 0-97.96875 79.460937-177.429688 177.429687-177.429688 8.351563.140625 16.558594.699219 24.769532 1.8125zm0 0" fill="#fedb41"/><path d="m473.144531 544.8125-10.855469 3.339844c-12.105468 3.761718-24.90625 2.507812-36.179687-3.203125-10.714844-5.421875-22.683594-8.34375-34.648437-8.34375-2.925782 0-5.988282.136719-9.050782.558593l-1.25.136719c4.734375-9.742187 7.515625-20.457031 8.488282-31.308593v-.558594c.554687-6.957032.699218-14.058594.699218-21.152344h35.480469c7.65625 0 13.921875-6.265625 13.921875-13.914062 0-7.65625-6.265625-13.917969-13.921875-13.917969h-37.851563c-.96875-6.683594-2.226562-13.5-3.890624-20.320313-2.367188-9.878906-3.621094-18.507812-3.621094-25.742187 0-4.597657.832031-9.1875 2.503906-13.359375 1.8125-4.316406 4.039062-7.9375 7.097656-11.132813 3.199219-3.203125 6.679688-5.710937 11.132813-7.515625 4.3125-1.8125 9.1875-2.785156 14.472656-2.785156 19.0625 0 30.058594 8.210938 33.535156 24.914062 1.535157 7.515626 8.90625 12.382813 16.421875 10.710938 7.515625-1.527344 12.386719-8.90625 10.71875-16.417969-5.988281-29.78125-28.253906-46.894531-60.539062-46.894531-9.042969 0-17.53125 1.667969-25.324219 4.867188-7.929687 3.339843-14.609375 7.792968-20.320313 13.777343-5.566406 5.847657-9.875 12.382813-12.9375 20.175781-2.925781 7.515626-4.453124 15.449219-4.453124 23.660157 0 9.460937 1.527343 20.316406 4.3125 32.285156 1.113281 4.59375 2.089843 9.183594 2.78125 13.777344h-32.839844c-7.652344 0-13.917969 6.261719-13.917969 13.917969 0 7.648437 6.265625 13.914062 13.917969 13.914062h35.34375c.144531 6.261719 0 12.660156-.554688 18.925781v.558594c-.835937 11.273437-4.867187 22.121094-11.691406 31.308594l-8.34375 11.414062c-3.34375 4.453125-3.621094 10.433594-.835938 15.308594 2.785157 4.730469 8.210938 7.515625 13.640626 6.816406l30.890624-3.761719c1.949219-.277343 3.898438-.277343 5.703126-.277343 7.65625 0 15.171874 1.8125 21.988281 5.289062 10.855469 5.566407 22.6875 8.347657 34.652343 8.347657 7.515626 0 15.03125-1.113282 22.402344-3.339844l10.996094-3.339844c7.375-2.226562 11.414062-10.019531 9.1875-17.390625-2.089844-7.519531-9.882812-11.554687-17.261719-9.328125zm0 0" fill="#083863"/></svg>