<svg height="640pt" viewBox="0 -52 640 640" width="640pt" xmlns="http://www.w3.org/2000/svg"><path d="m253.089844 20.621094 68.394531 86.640625h-174.46875c-31.152344 0-56.371094 25.21875-56.371094 56.371093v371.777344h-34.273437c-31.152344 0-56.371094-25.21875-56.371094-56.378906v-422.660156c0-31.152344 25.21875-56.371094 56.371094-56.371094h153.105468c16.765626 0 32.785157 7.5625 43.613282 20.621094zm0 0" fill="#00efd1"/><path d="m640 160.816406v318.367188c0 31.152344-25.21875 56.371094-56.371094 56.371094h-507.816406v-374.738282c0-31.152344 25.21875-56.371094 56.371094-56.371094h451.445312c31.152344 0 56.371094 25.21875 56.371094 56.371094zm0 0" fill="#00acea"/><path d="m429.042969 408.417969-11.722657 3.558593c-12.90625 4.007813-26.554687 2.824219-38.570312-3.40625-11.425781-5.789062-24.183594-8.902343-36.945312-8.902343-3.113282 0-6.375.144531-9.636719.589843l-1.339844.152344c5.046875-10.386718 8.015625-21.8125 9.050781-33.378906v-.59375c.59375-7.566406.894532-15.285156.742188-22.996094h37.089844c8.15625 0 14.832031-6.679687 14.832031-14.839844 0-8.15625-6.675781-14.832031-14.832031-14.832031h-39.609376c-1.039062-6.972656-2.375-14.089843-4.15625-21.214843-2.519531-10.53125-3.859374-19.734376-3.859374-27.445313 0-4.894531.890624-9.792969 2.671874-14.242187 1.78125-4.597657 4.304688-8.308594 7.5625-11.867188 3.414063-3.414062 7.125-6.085938 12.019532-8.015625 4.597656-1.925781 9.792968-2.960937 15.429687-2.960937 20.324219 0 32.042969 8.75 35.753907 26.550781 1.632812 8.011719 9.492187 13.203125 17.507812 11.425781 8.007812-1.628906 13.203125-9.496094 11.421875-17.503906-6.675781-31.898438-30.265625-50.144532-64.832031-50.144532-9.644532 0-18.839844 1.78125-27 5.195313-8.457032 3.558594-15.578125 8.304687-21.808594 14.6875-6.082031 6.226563-10.53125 13.203125-13.796875 21.507813-3.117187 8.011718-4.746094 16.46875-4.746094 25.21875 0 10.085937 1.628907 21.660156 4.597657 34.417968 1.1875 4.746094 2.078124 9.496094 2.964843 14.246094h-35.601562c-8.160157 0-14.839844 6.671875-14.839844 14.832031 0 8.160157 6.679687 14.832031 14.839844 14.832031h38.425781c.144531 6.828126 0 13.800782-.597656 20.476563v.59375c-.886719 12.015625-5.191406 23.589844-12.460938 33.378906l-8.902344 12.164063c-3.558593 4.746094-3.855468 11.128906-.886718 16.316406 2.96875 5.195312 8.753906 8.015625 14.535156 7.273438l32.9375-4.003907c2.078125-.300781 4.152344-.449219 6.082031-.449219 8.160157 0 16.171875 1.929688 23.441407 5.640626 11.566406 5.929687 24.179687 8.898437 36.792968 8.898437 8.007813 0 16.019532-1.1875 23.878906-3.5625l11.71875-3.5625c7.867188-2.371094 12.316407-10.675781 9.796876-18.542969-1.78125-7.5625-10.085938-12.011718-17.949219-9.492187zm0 0" fill="#083863"/></svg>