<svg height="638pt" viewBox="0 -45 638.74973 638" width="638pt" xmlns="http://www.w3.org/2000/svg"><path d="m593.386719 141.355469v65.976562h-541.914063l-5.953125-146.320312c-1.53125-32.992188 24.890625-60.636719 58.039063-60.636719h125.09375c20.308594 0 39.253906 10.691406 49.789062 28.253906l15.886719 26.582032c10.535156 17.5625 29.324219 28.253906 49.789063 28.253906h191.078124c32.074219-.152344 58.191407 25.8125 58.191407 57.890625zm0 0" fill="#00efd1"/><path d="m608.207031 192.0625c18.480469 0 32.835938 16.34375 30.238281 34.671875l-37.417968 272.175781c-3.972656 28.71875-28.5625 50.105469-57.429688 50.105469h-447.832031c-29.019531 0-53.460937-21.386719-57.425781-50.105469l-38.035156-272.175781c-2.59375-18.328125 11.761718-34.824219 30.242187-34.824219h577.660156zm0 0" fill="#00acea"/><path d="m397.730469 460.730469-12.066407 3.664062c-13.285156 4.128907-27.339843 2.902344-39.714843-3.515625-11.757813-5.953125-24.890625-9.160156-38.03125-9.160156-3.203125 0-6.5625.152344-9.925781.609375l-1.375.15625c5.195312-10.691406 8.246093-22.457031 9.320312-34.367187v-.613282c.609375-7.789062.914062-15.730468.765625-23.675781h38.636719c8.402344 0 15.273437-6.871094 15.273437-15.273437 0-8.398438-6.871093-15.269532-15.273437-15.269532h-41.234375c-1.070313-7.179687-2.449219-14.515625-4.28125-21.84375-2.589844-10.847656-3.972657-20.316406-3.972657-28.253906 0-5.046875.917969-10.085938 2.75-14.664062 1.835938-4.738282 4.429688-8.554688 7.792969-12.222657 3.511719-3.515625 7.328125-6.261719 12.375-8.246093 4.730469-1.988282 10.074219-3.054688 15.878907-3.054688 20.925781 0 32.992187 9.007812 36.8125 27.339844 1.679687 8.25 9.773437 13.59375 18.023437 11.761718 8.246094-1.679687 13.589844-9.773437 11.757813-18.027343-6.871094-32.835938-31.152344-51.621094-66.742188-51.621094-9.929688 0-19.402344 1.832031-27.796875 5.347656-8.710937 3.664063-16.039063 8.550781-22.457031 15.121094-6.261719 6.414063-10.84375 13.589844-14.207032 22.144531-3.207031 8.25-4.882812 16.953125-4.882812 25.964844 0 10.390625 1.675781 22.300781 4.730469 35.4375 1.226562 4.886719 2.140625 9.777344 3.058593 14.664062h-36.050781c-8.398437 0-15.269531 6.871094-15.269531 15.273438s6.871094 15.273438 15.269531 15.273438h39.257813c.148437 7.027343 0 14.203124-.609375 21.074218v.613282c-.917969 12.375-5.347657 24.285156-12.832031 34.367187l-9.164063 12.527344c-3.667969 4.886719-3.96875 11.449219-.914063 16.796875 3.050782 5.34375 9.011719 8.25 14.964844 7.484375l33.910156-4.121094c2.136719-.308594 4.277344-.460937 6.261719-.460937 8.402344 0 16.644531 1.984374 24.132813 5.804687 11.914062 6.105469 24.894531 9.164063 37.878906 9.164063 8.25 0 16.496094-1.222657 24.589844-3.667969l12.066406-3.667969c8.09375-2.441406 12.675781-10.992188 10.082031-19.089844-2.292969-7.789062-10.695312-12.371094-18.789062-9.773437zm0 0" fill="#083863"/></svg>