<svg height="640pt" viewBox="0 -52 640 640" width="640pt" xmlns="http://www.w3.org/2000/svg"><path d="m320.964844 59.28125-61.492188-59.28125h-211.214844l7.855469 219.214844h532.734375v-159.933594zm0 0" fill="#00efd1"/><path d="m536.460938 219.214844v.550781h-432.921876v-105.332031h432.921876zm0 0" fill="#fedb41"/><path d="m640 205.980469-58.042969 329.097656h-523.222656l-58.734375-329.097656zm0 0" fill="#00acea"/><path d="m390.726562 451.664062-10.75 3.3125c-12 3.722657-24.683593 2.480469-35.851562-3.171874-10.613281-5.375-22.46875-8.269532-34.324219-8.269532-3.039062 0-6.070312.136719-8.964843.550782l-1.242188.136718c4.6875-9.652344 7.445312-20.269531 8.410156-31.019531v-.550781c.550782-7.03125.691406-14.0625.691406-21.09375h34.742188c7.582031 0 13.789062-6.207032 13.789062-13.789063 0-7.585937-6.207031-13.789062-13.789062-13.789062h-37.222656c-.964844-6.617188-2.207032-13.234375-3.863282-19.855469-2.34375-9.789062-3.582031-18.335938-3.582031-25.503906 0-4.550782.824219-9.101563 2.480469-13.234375 1.65625-4.273438 4-7.722657 7.03125-11.03125 3.167969-3.167969 6.617188-5.65625 11.03125-7.445313 4.269531-1.792968 9.101562-2.753906 14.335938-2.753906 18.890624 0 29.777343 8.132812 33.226562 24.675781 1.519531 7.445313 8.824219 12.269531 16.269531 10.617188 7.445313-1.515625 12.269531-8.824219 10.613281-16.269531-6.199218-29.640626-28.125-46.597657-60.246093-46.597657-8.960938 0-17.375 1.652344-25.09375 4.824219-7.855469 3.3125-14.476563 7.71875-20.128907 13.648438-5.652343 5.789062-9.789062 12.269531-12.820312 19.992187-2.894531 7.441406-4.414062 15.304687-4.414062 23.4375 0 9.375 1.519531 20.128906 4.277343 31.984375 1.097657 4.550781 1.929688 8.964844 2.753907 13.375h-32.535157c-7.582031 0-13.789062 6.203125-13.789062 13.789062 0 7.582032 6.207031 13.789063 13.789062 13.789063h35.429688c.136719 6.335937 0 12.679687-.550781 18.886719v.550781c-.824219 11.167969-4.824219 21.917969-11.582032 31.019531l-8.273437 11.304688c-3.304688 4.414062-3.582031 10.339844-.824219 15.164062 2.757812 4.6875 8.136719 7.449219 13.511719 6.757813l30.609375-3.722657c1.792968-.273437 3.722656-.273437 5.648437-.273437 7.585938 0 15.167969 1.789063 21.785157 5.238281 10.753906 5.511719 22.472656 8.269532 34.328124 8.269532 7.449219 0 14.894532-1.101563 22.199219-3.308594l10.894531-3.3125c7.304688-2.199219 11.300782-9.925782 9.09375-17.230469-2.199218-7.167969-9.925781-11.304687-17.09375-9.101563zm0 0" fill="#083863"/></svg>