<svg height="640pt" viewBox="-70 0 640 640" width="640pt" xmlns="http://www.w3.org/2000/svg"><path d="m334.457031 0h-262.332031c-39.472656 0-72.125 32.484375-72.125 71.957031v496.085938c0 39.472656 32.652344 71.957031 72.125 71.957031h356.058594c39.472656 0 72.117187-32.484375 72.117187-71.957031v-394.074219zm0 0" fill="#00acea"/><path d="m335.269531.488281 165.199219 173.640625h-109.972656c-30.535156 0-55.226563-24.6875-55.226563-55.222656zm0 0" fill="#00efd1"/><g fill="#083863"><path d="m383.835938 511.675781h-267.371094c-8.929688 0-16.238282 7.308594-16.238282 16.242188 0 8.9375 7.308594 16.246093 16.238282 16.246093h267.535156c8.933594 0 16.242188-7.308593 16.242188-16.246093 0-8.933594-7.308594-16.242188-16.40625-16.242188zm0 0"/><path d="m162.4375 357.359375h41.746094c.164062 7.472656 0 15.105469-.652344 22.414063v.652343c-.972656 13.15625-5.683594 25.828125-13.644531 36.546875l-9.746094 13.320313c-3.894531 5.199219-4.222656 12.183593-.96875 17.871093 3.246094 5.683594 9.578125 8.769532 15.917969 7.957032l36.058594-4.386719c2.273437-.324219 4.546874-.484375 6.660156-.484375 8.933594 0 17.703125 2.109375 25.664062 6.171875 12.667969 6.492187 26.476563 9.746094 40.28125 9.746094 8.773438 0 17.542969-1.300781 26.152344-3.902344l12.832031-3.894531c8.609375-2.605469 13.480469-11.695313 10.722657-20.308594-2.597657-8.609375-11.695313-13.480469-20.300782-10.71875l-12.839844 3.898438c-14.128906 4.382812-29.074218 3.085937-42.230468-3.738282-12.507813-6.332031-26.480469-9.746094-40.441406-9.746094-3.414063 0-6.988282.164063-10.5625.652344l-1.460938.164063c5.523438-11.371094 8.769531-23.882813 9.90625-36.546875v-.65625c.648438-8.28125.972656-16.726563.8125-25.175782h41.425781c8.929688 0 16.238281-7.308593 16.238281-16.242187 0-8.9375-7.308593-16.246094-16.238281-16.246094h-43.859375c-1.136718-7.632812-2.601562-15.429687-4.550781-23.226562-2.757813-11.535157-4.222656-21.601563-4.222656-30.050781 0-5.359376.976562-10.722657 2.925781-15.59375 1.945312-5.035157 4.710938-9.097657 8.28125-12.996094 3.738281-3.734375 7.796875-6.660156 13.15625-8.773438 5.035156-2.109375 10.726562-3.246094 16.898438-3.246094 22.25 0 35.082031 9.585938 39.144531 29.078126 1.785156 8.769531 10.394531 14.457031 19.167969 12.507812 8.769531-1.785156 14.453124-10.394531 12.503906-19.167969-7.308594-34.921875-33.132813-54.902343-70.980469-54.902343-10.5625 0-20.628906 1.945312-29.5625 5.683593-9.257813 3.898438-17.058594 9.09375-23.878906 16.082031-6.660157 6.820313-11.53125 14.453126-15.105469 23.550782-3.414062 8.773437-5.203125 18.03125-5.203125 27.617187 0 11.042969 1.789063 23.714844 5.039063 37.683594 1.300781 5.195313 2.273437 10.398437 3.25 15.59375h-38.335938c-8.9375 0-16.246094 7.308594-16.246094 16.242187 0 8.9375 7.308594 16.570313 16.246094 16.570313zm0 0"/></g></svg>