<svg height="638pt" viewBox="-57 0 638 638.75085" width="638pt" xmlns="http://www.w3.org/2000/svg"><path d="m317.5 238.539062-44.925781-121.921874h-214.023438c-32.199219 0-58.175781 26.507812-58.175781 58.707031v404.71875c0 32.203125 25.976562 58.707031 58.175781 58.707031h290.488281c32.203126 0 58.175782-26.503906 58.175782-58.707031v-321.496094zm0 0" fill="#00efd1"/><path d="m377.132812 180.230469-44.925781-121.921875h-214.019531c-32.203125 0-58.175781 26.507812-58.175781 58.707031v404.71875c0 32.203125 25.972656 58.707031 58.175781 58.707031h290.484375c32.203125 0 58.179687-26.503906 58.179687-58.707031v-321.496094zm0 0" fill="#fedb41"/><path d="m435.441406 121.917969-44.925781-121.917969h-214.019531c-32.203125 0-58.175782 26.503906-58.175782 58.707031v404.71875c0 32.203125 25.972657 58.707031 58.175782 58.707031h290.488281c32.199219 0 58.175781-26.503906 58.175781-58.707031v-321.496093zm0 0" fill="#00acea"/><path d="m390.515625.398438 134.777344 141.664062h-89.71875c-24.914063 0-45.058594-20.144531-45.058594-45.054688zm0 0" fill="#00efd1"/><g fill="#083863"><path d="m430.804688 424.066406h-218.128907c-7.292969 0-13.257812 5.960938-13.257812 13.253906 0 7.289063 5.964843 13.25 13.257812 13.25h218.257813c7.292968 0 13.25-5.960937 13.25-13.25 0-7.292968-5.957032-13.253906-13.378906-13.253906zm0 0"/><path d="m321.738281 384.574219c59.503907 0 99.390625-51.417969 99.390625-99.390625s-39.886718-99.390625-99.390625-99.390625c-23.722656 0-44.125 8.75-59.765625 20.671875l.527344-34.183594c.136719-7.292969-5.699219-13.386719-12.984375-13.519531-.136719 0-.136719 0-.265625 0-7.15625 0-13.121094 5.828125-13.25 12.988281l-1.195312 66.917969c0 3.582031 1.324218 7.027343 3.84375 9.542969 2.515624 2.519531 5.828124 3.84375 9.40625 3.84375h1.195312l64.273438-1.0625c7.289062-.128907 13.117187-6.09375 12.988281-13.511719-.132813-7.289063-6.230469-13.125-13.519531-12.988281l-31.539063.527343c10.996094-7.417969 24.648437-12.71875 40.15625-12.71875 47.570313 0 72.882813 42.273438 72.882813 72.882813 0 30.613281-25.3125 72.890625-72.882813 72.890625-26.109375 0-43.339844-12.988281-53.011719-23.855469-12.457031-13.78125-19.742187-32.070312-19.742187-49.03125 0-7.289062-5.964844-13.253906-13.257813-13.253906-7.285156 0-13.25 5.964844-13.25 13.253906 0 47.96875 39.890625 99.386719 99.390625 99.386719zm0 0"/></g></svg>