<svg height="640pt" viewBox="0 -52 640 640" width="640pt" xmlns="http://www.w3.org/2000/svg"><path d="m253.089844 20.621094 68.394531 86.640625h-174.46875c-31.152344 0-56.371094 25.21875-56.371094 56.371093v371.777344h-34.273437c-31.152344 0-56.371094-25.21875-56.371094-56.378906v-422.660156c0-31.152344 25.21875-56.371094 56.371094-56.371094h153.105468c16.765626 0 32.785157 7.5625 43.613282 20.621094zm0 0" fill="#00efd1"/><path d="m640 160.816406v318.367188c0 31.152344-25.21875 56.371094-56.371094 56.371094h-507.816406v-374.738282c0-31.152344 25.21875-56.371094 56.371094-56.371094h451.445312c31.152344 0 56.371094 25.21875 56.371094 56.371094zm0 0" fill="#00acea"/><path d="m353.082031 225.054688c-26.554687 0-49.402343 9.789062-66.90625 23.144531l.589844-38.277344c.152344-8.160156-6.375-14.984375-14.535156-15.132813-.152344 0-.152344 0-.296875 0-8.011719 0-14.6875 6.53125-14.832032 14.539063l-1.1875 74.921875c0 4 1.476563 7.859375 4.300782 10.675781 2.816406 2.816407 6.527344 4.300781 10.53125 4.300781h1.339844l71.945312-1.183593c8.160156-.148438 14.6875-6.824219 14.542969-15.132813-.152344-8.160156-6.972657-14.6875-15.132813-14.535156l-35.3125.589844c12.316406-8.304688 27.597656-14.242188 44.953125-14.242188 53.261719 0 81.597657 47.328125 81.597657 81.597656 0 34.269532-28.335938 81.59375-81.597657 81.59375-29.222656 0-48.511719-14.539062-59.339843-26.703124-13.945313-15.429688-22.105469-35.902344-22.105469-54.890626 0-8.160156-6.675781-14.835937-14.835938-14.835937-8.160156 0-14.832031 6.675781-14.832031 14.835937 0 53.703126 44.652344 111.265626 111.265625 111.265626 66.609375 0 111.261719-57.5625 111.261719-111.265626-.296875-53.707031-44.949219-111.265624-111.414063-111.265624zm0 0" fill="#083863"/></svg>