<svg height="638pt" viewBox="0 -45 638.74973 638" width="638pt" xmlns="http://www.w3.org/2000/svg"><path d="m593.386719 141.355469v65.976562h-541.914063l-5.953125-146.320312c-1.53125-32.992188 24.890625-60.636719 58.039063-60.636719h125.09375c20.308594 0 39.253906 10.691406 49.789062 28.253906l15.886719 26.582032c10.535156 17.5625 29.324219 28.253906 49.789063 28.253906h191.078124c32.074219-.152344 58.191407 25.8125 58.191407 57.890625zm0 0" fill="#00efd1"/><path d="m608.207031 192.0625c18.480469 0 32.835938 16.34375 30.238281 34.671875l-37.417968 272.175781c-3.972656 28.71875-28.5625 50.105469-57.429688 50.105469h-447.832031c-29.019531 0-53.460937-21.386719-57.425781-50.105469l-38.035156-272.175781c-2.59375-18.328125 11.761718-34.824219 30.242187-34.824219h577.660156zm0 0" fill="#00acea"/><path d="m319.375 271.945312c-27.335938 0-50.859375 10.082032-68.882812 23.828126l.609374-39.40625c.152344-8.398438-6.570312-15.425782-14.96875-15.578126-.152343 0-.152343 0-.304687 0-8.25 0-15.121094 6.71875-15.273437 14.964844l-1.378907 77.136719c0 4.121094 1.53125 8.09375 4.429688 10.992187 2.90625 2.90625 6.722656 4.429688 10.847656 4.429688h1.375l74.078125-1.21875c8.398438-.15625 15.117188-7.027344 14.96875-15.578125-.152344-8.402344-7.027344-15.121094-15.582031-14.972656l-36.347657.613281c12.675782-8.554688 28.40625-14.664062 46.277344-14.664062 54.832032 0 84.007813 48.726562 84.007813 84.007812s-29.175781 84.003906-84.007813 84.003906c-30.089844 0-49.949218-14.964844-61.09375-27.488281-14.359375-15.886719-22.757812-36.964844-22.757812-56.515625 0-8.402344-6.875-15.273438-15.277344-15.273438-8.398438 0-15.273438 6.871094-15.273438 15.273438 0 55.292969 45.976563 114.554688 114.554688 114.554688s114.554688-59.261719 114.554688-114.554688-45.972657-114.554688-114.554688-114.554688zm0 0" fill="#083863"/></svg>