<svg height="640pt" viewBox="0 -52 640 640" width="640pt" xmlns="http://www.w3.org/2000/svg"><path d="m320.964844 59.28125-61.492188-59.28125h-211.214844l7.855469 219.214844h532.734375v-159.933594zm0 0" fill="#00efd1"/><path d="m536.460938 219.214844v.550781h-432.921876v-105.332031h432.921876zm0 0" fill="#fedb41"/><path d="m640 205.980469-58.042969 329.097656h-523.222656l-58.734375-329.097656zm0 0" fill="#00acea"/><path d="m320 281.398438c-24.679688 0-45.914062 9.09375-62.183594 21.507812l.550782-35.570312c.144531-7.585938-5.925782-13.929688-13.507813-14.0625-7.722656-.144532-13.925781 5.925781-14.0625 13.507812l-1.242187 69.625c0 3.726562 1.378906 7.308594 4 9.925781 2.617187 2.617188 6.0625 4 9.789062 4h1.242188l66.863281-1.105469c7.582031-.136718 13.652343-6.339843 13.511719-14.0625-.136719-7.582031-6.34375-13.652343-14.0625-13.507812l-32.8125.550781c11.445312-7.726562 25.644531-13.238281 41.777343-13.238281 49.492188 0 75.828125 43.980469 75.828125 75.832031 0 31.847657-26.335937 75.828125-75.828125 75.828125-27.164062 0-45.089843-13.511718-55.152343-24.8125-12.957032-14.34375-20.542969-33.371094-20.542969-51.015625 0-7.585937-6.203125-13.785156-13.789063-13.785156-7.582031 0-13.78125 6.199219-13.78125 13.785156 0 49.910157 41.496094 103.402344 103.402344 103.402344 61.902344 0 103.402344-53.492187 103.402344-103.402344 0-50.050781-41.5-103.402343-103.402344-103.402343zm0 0" fill="#083863"/></svg>