<svg height="640pt" viewBox="0 -52 640 640" width="640pt" xmlns="http://www.w3.org/2000/svg"><path d="m320.964844 59.28125-61.492188-59.28125h-211.214844l7.855469 219.214844h532.734375v-159.933594zm0 0" fill="#00efd1"/><path d="m536.460938 219.214844v.550781h-432.921876v-105.332031h432.921876zm0 0" fill="#fedb41"/><path d="m640 205.980469-58.042969 329.097656h-523.222656l-58.734375-329.097656zm0 0" fill="#00acea"/><g fill="#083863"><path d="m376.386719 361.21875h-112.636719c-7.582031 0-13.789062 6.207031-13.789062 13.789062 0 7.585938 6.207031 13.789063 13.789062 13.789063h112.636719c7.582031 0 13.789062-6.203125 13.789062-13.789063 0-7.582031-6.207031-13.789062-13.789062-13.789062zm0 0"/><path d="m320 234.242188c-77.484375 0-140.492188 63.007812-140.492188 140.492187 0 77.480469 63.007813 140.632813 140.492188 140.632813s140.492188-63.152344 140.492188-140.496094-63.007813-140.628906-140.492188-140.628906zm0 253.546874c-62.320312 0-112.914062-50.597656-112.914062-112.917968 0-62.316406 50.59375-112.917969 112.914062-112.917969s112.914062 50.601563 112.914062 112.917969c0 62.179687-50.59375 112.917968-112.914062 112.917968zm0 0"/></g></svg>