<svg height="638pt" viewBox="-57 0 638 638.75085" width="638pt" xmlns="http://www.w3.org/2000/svg"><path d="m317.5 238.539062-44.925781-121.921874h-214.023438c-32.199219 0-58.175781 26.507812-58.175781 58.707031v404.71875c0 32.203125 25.976562 58.707031 58.175781 58.707031h290.488281c32.203126 0 58.175782-26.503906 58.175782-58.707031v-321.496094zm0 0" fill="#00efd1"/><path d="m377.132812 180.230469-44.925781-121.921875h-214.019531c-32.203125 0-58.175781 26.507812-58.175781 58.707031v404.71875c0 32.203125 25.972656 58.707031 58.175781 58.707031h290.484375c32.203125 0 58.179687-26.503906 58.179687-58.707031v-321.496094zm0 0" fill="#fedb41"/><path d="m435.441406 121.917969-44.925781-121.917969h-214.019531c-32.203125 0-58.175782 26.503906-58.175782 58.707031v404.71875c0 32.203125 25.972657 58.707031 58.175782 58.707031h290.488281c32.199219 0 58.175781-26.503906 58.175781-58.707031v-321.496093zm0 0" fill="#00acea"/><path d="m390.515625.398438 134.777344 141.664062h-89.71875c-24.914063 0-45.058594-20.144531-45.058594-45.054688zm0 0" fill="#00efd1"/><g fill="#083863"><path d="m430.804688 424.066406h-218.128907c-7.292969 0-13.257812 5.960938-13.257812 13.253906 0 7.289063 5.964843 13.25 13.257812 13.25h218.257813c7.292968 0 13.25-5.960937 13.25-13.25 0-7.292968-5.957032-13.253906-13.378906-13.253906zm0 0"/><path d="m321.738281 285.183594c34.855469 0 63.210938-28.355469 63.210938-63.210938 0-34.851562-28.355469-63.210937-63.210938-63.210937-34.851562 0-63.210937 28.359375-63.210937 63.210937 0 34.855469 28.359375 63.210938 63.210937 63.210938zm0-99.921875c20.273438 0 36.710938 16.433593 36.710938 36.710937s-16.4375 36.710938-36.710938 36.710938c-20.277343 0-36.710937-16.433594-36.710937-36.710938s16.433594-36.710937 36.710937-36.710937zm0 0"/><path d="m255.476562 304-25.3125 62.816406c-2.914062 7.023438-1.457031 14.976563 3.714844 20.542969 5.164063 5.5625 12.980469 7.683594 20.273438 5.300781l17.757812-5.703125 7.683594 15.640625c3.316406 6.625 10.074219 10.867188 17.496094 10.867188h.664062c7.683594-.265625 14.445313-5.035156 17.359375-12.0625l7.289063-17.753906 6.492187 15.902343c2.917969 7.023438 9.671875 11.792969 17.363281 12.054688h.660157c7.421875 0 14.179687-4.238281 17.492187-10.859375l7.691406-15.640625 17.75 5.699219c7.292969 2.386718 14.976563.398437 20.277344-5.304688 5.171875-5.5625 6.628906-13.511719 3.710938-20.539062l-25.175782-61.09375c24.648438-19.875 39.09375-49.824219 39.09375-81.894532 0-58.175781-47.308593-105.488281-105.488281-105.488281-58.175781 0-105.484375 47.3125-105.484375 105.488281-.53125 32.203125 14.042969 62.148438 38.691406 82.027344zm40.820313 72.757812-3.445313-6.890624c-4.246093-8.617188-14.3125-12.988282-23.460937-9.941407l-9.140625 2.914063 18.019531-44.660156c6.363281 2.921874 12.855469 5.039062 19.613281 6.628906l9.808594 23.988281zm77.65625-18.6875c-9.144531-2.914062-19.21875 1.324219-23.457031 9.941407l-3.445313 6.890625-19.484375-47.710938c12.988282-.792968 25.710938-3.839844 37.636719-9.273437l17.628906 42.933593zm-52.214844-214.945312c43.464844 0 78.980469 35.378906 78.980469 78.980469 0 26.898437-13.515625 51.550781-36.046875 66.261719-12.851563 8.347656-27.695313 12.71875-42.933594 12.71875-3.976562 0-8.082031-.261719-12.058593-.925782-11-1.726562-21.335938-5.566406-30.746094-11.660156-22.664063-14.578125-36.175782-39.496094-36.175782-66.394531 0-43.601563 35.511719-78.980469 78.980469-78.980469zm0 0"/></g></svg>