<svg height="640pt" viewBox="-30 0 640 640" width="640pt" xmlns="http://www.w3.org/2000/svg"><path d="m300.585938 101.449219-15.308594-101.449219h-224.601563c-33.820312 0-60.675781 27.554688-60.675781 61.371094v424.71875c0 33.816406 26.855469 60.8125 60.675781 60.8125h213.054688l153.492187-232.402344v-165.734375zm0 0" fill="#00acea"/><path d="m285.277344.140625 141.527344 148.625h-94.210938c-26.164062 0-47.316406-21.152344-47.316406-47.316406zm0 0" fill="#00efd1"/><g fill="#083863"><path d="m279.851562 318.675781h-181.324218c-7.652344 0-13.917969 6.265625-13.917969 13.917969 0 7.65625 6.265625 13.914062 13.917969 13.914062h181.324218c7.652344 0 13.917969-6.257812 13.917969-13.914062 0-7.652344-6.121093-13.917969-13.917969-13.917969zm0 0"/><path d="m98.527344 276.929688h140.96875c7.652344 0 13.917968-6.261719 13.917968-13.917969 0-7.652344-6.265624-13.914063-13.917968-13.914063h-140.96875c-7.652344 0-13.917969 6.261719-13.917969 13.914063 0 7.65625 6.265625 13.917969 13.917969 13.917969zm0 0"/><path d="m234.066406 389.648438h-135.539062c-7.652344 0-13.917969 6.265624-13.917969 13.914062 0 7.65625 6.265625 13.917969 13.917969 13.917969h135.539062c7.65625 0 13.917969-6.261719 13.917969-13.917969 0-7.648438-6.261719-13.914062-13.917969-13.914062zm0 0"/></g><path d="m426.804688 286.8125c86.28125 12.101562 152.65625 86.136719 152.65625 175.753906 0 97.96875-79.457032 177.433594-177.425782 177.433594-67.351562 0-126.078125-37.574219-156-92.960938-13.636718-25.1875-21.429687-53.992187-21.429687-84.609374 0-97.96875 79.460937-177.429688 177.429687-177.429688 8.351563.140625 16.558594.699219 24.769532 1.8125zm0 0" fill="#fedb41"/><path d="m401.757812 483.304688c32.976563 0 59.839844-26.859376 59.839844-59.839844 0-32.980469-26.863281-59.835938-59.839844-59.835938-32.984374 0-59.839843 26.855469-59.839843 59.835938.136719 32.980468 26.855469 59.839844 59.839843 59.839844zm0-91.707032c17.671876 0 32.007813 14.335938 32.007813 32.003906 0 17.675782-14.335937 32.007813-32.007813 32.007813-17.675781 0-32.007812-14.332031-32.007812-32.007813.136719-17.667968 14.472656-32.003906 32.007812-32.003906zm0 0" fill="#083863"/><path d="m500.28125 423.464844c0-54.269532-44.25-98.523438-98.523438-98.523438-54.273437 0-98.523437 44.253906-98.523437 98.523438 0 29.640625 13.078125 57.195312 35.621094 75.839844l-22.820313 56.503906c-2.925781 7.097656-1.535156 15.03125 3.753906 20.734375 5.289063 5.703125 13.082032 7.652343 20.324219 5.289062l14.886719-4.734375 6.402344 12.941406c3.339844 6.679688 10.15625 10.996094 17.53125 10.996094h.699218c7.652344-.277344 14.609376-5.011718 17.394532-12.109375l5.007812-12.246093 4.316406 10.574218c2.921876 7.101563 9.742188 11.96875 17.394532 12.109375h.695312c7.375 0 14.332032-4.316406 17.535156-10.996093l6.402344-12.9375 14.75 4.730468c7.375 2.363282 15.167969.414063 20.453125-5.289062 5.289063-5.707032 6.679688-13.636719 3.761719-20.730469l-22.542969-54.972656c22.402344-18.507813 35.480469-46.0625 35.480469-75.703125zm-169.21875 0c0-38.964844 31.730469-70.691406 70.695312-70.691406 38.964844 0 70.691407 31.726562 70.691407 70.691406 0 24.074218-12.109375 46.203125-32.285157 59.285156-11.410156 7.371094-24.773437 11.410156-38.410156 11.410156-3.621094 0-7.238281-.277344-10.855468-.835937-9.878907-1.527344-19.0625-5.007813-27.414063-10.433594-20.316406-13.085937-32.421875-35.351563-32.421875-59.425781zm47.316406 137.769531-1.390625-2.78125c-4.175781-8.765625-14.335937-13.082031-23.660156-10.019531l-4.871094 1.53125 14.472657-35.902344c5.152343 2.226562 10.4375 3.894531 15.863281 5.144531l8.351562 20.460938zm71.804688-14.613281c-9.183594-2.921875-19.34375 1.390625-23.65625 10.019531l-1.390625 2.78125-15.449219-37.851563c10.71875-.832031 21.152344-3.476562 31.035156-7.648437l14.050782 34.230469zm0 0" fill="#083863"/></svg>