<svg height="640pt" viewBox="0 -52 640 640" width="640pt" xmlns="http://www.w3.org/2000/svg"><path d="m253.089844 20.621094 68.394531 86.640625h-174.46875c-31.152344 0-56.371094 25.21875-56.371094 56.371093v371.777344h-34.273437c-31.152344 0-56.371094-25.21875-56.371094-56.378906v-422.660156c0-31.152344 25.21875-56.371094 56.371094-56.371094h153.105468c16.765626 0 32.785157 7.5625 43.613282 20.621094zm0 0" fill="#00efd1"/><path d="m640 160.816406v318.367188c0 31.152344-25.21875 56.371094-56.371094 56.371094h-507.816406v-374.738282c0-31.152344 25.21875-56.371094 56.371094-56.371094h451.445312c31.152344 0 56.371094 25.21875 56.371094 56.371094zm0 0" fill="#00acea"/><g fill="#083863"><path d="m353.082031 343.734375c39.019531 0 70.765625-31.746094 70.765625-70.761719 0-39.019531-31.746094-70.765625-70.765625-70.765625-39.015625 0-70.761719 31.746094-70.761719 70.765625-.152343 39.015625 31.59375 70.761719 70.761719 70.761719zm0-111.859375c22.699219 0 41.097657 18.398438 41.097657 41.097656 0 22.695313-18.398438 41.09375-41.097657 41.09375-22.695312 0-41.09375-18.398437-41.09375-41.09375 0-22.699218 18.398438-41.097656 41.09375-41.097656zm0 0"/><path d="m471.023438 272.972656c0-65.128906-52.960938-118.089844-118.089844-118.089844-65.125 0-118.089844 52.960938-118.089844 118.089844 0 36.050782 16.171875 69.574219 43.914062 91.832032l-28.332031 70.316406c-3.269531 7.863281-1.636719 16.761718 4.148438 22.996094 5.785156 6.226562 14.542969 8.605468 22.699219 5.9375l19.878906-6.382813 8.605468 17.503906c3.710938 7.417969 11.277344 12.167969 19.585938 12.167969h.742188c8.601562-.296875 16.171874-5.640625 19.429687-13.5l8.160156-19.882812 7.269531 17.800781c3.265626 7.867187 10.832032 13.203125 19.4375 13.503906h.742188c8.308594 0 15.871094-4.75 19.582031-12.164063l8.605469-17.507812 19.875 6.378906c8.160156 2.671875 16.769531.445313 22.703125-5.933594 5.785156-6.230468 7.414063-15.132812 4.15625-22.996093l-28.191406-68.390625c26.996093-22.25 43.167969-55.78125 43.167969-91.679688zm-206.359376 0c0-48.660156 39.609376-88.421875 88.417969-88.421875 48.808594 0 88.417969 39.613281 88.417969 88.421875 0 30.113282-15.132812 57.707032-40.351562 74.175782-14.390626 9.34375-31.007813 14.242187-48.066407 14.242187-4.449219 0-9.050781-.296875-13.503906-1.039063-12.308594-1.929687-23.878906-6.230468-34.417969-13.054687-25.363281-16.46875-40.496094-44.210937-40.496094-74.324219zm59.9375 173.277344-3.859374-7.714844c-4.746094-9.644531-16.023438-14.535156-26.257813-11.128906l-10.242187 3.265625 20.179687-49.992187c7.121094 3.261718 14.390625 5.632812 21.953125 7.414062l10.984375 26.851562zm86.785157-20.917969c-10.234375-3.265625-21.511719 1.484375-26.261719 11.128907l-3.855469 7.710937-21.808593-53.40625c14.539062-.890625 28.78125-4.300781 42.136718-10.382813l19.726563 48.0625zm0 0"/></g></svg>