<svg height="638pt" viewBox="0 -45 638.74973 638" width="638pt" xmlns="http://www.w3.org/2000/svg"><path d="m593.386719 141.355469v65.976562h-541.914063l-5.953125-146.320312c-1.53125-32.992188 24.890625-60.636719 58.039063-60.636719h125.09375c20.308594 0 39.253906 10.691406 49.789062 28.253906l15.886719 26.582032c10.535156 17.5625 29.324219 28.253906 49.789063 28.253906h191.078124c32.074219-.152344 58.191407 25.8125 58.191407 57.890625zm0 0" fill="#00efd1"/><path d="m608.207031 192.0625c18.480469 0 32.835938 16.34375 30.238281 34.671875l-37.417968 272.175781c-3.972656 28.71875-28.5625 50.105469-57.429688 50.105469h-447.832031c-29.019531 0-53.460937-21.386719-57.425781-50.105469l-38.035156-272.175781c-2.59375-18.328125 11.761718-34.824219 30.242187-34.824219h577.660156zm0 0" fill="#00acea"/><g fill="#083863"><path d="m319.375 393.21875c36.199219 0 65.679688-29.476562 65.679688-65.675781 0-36.203125-29.480469-65.675781-65.679688-65.675781-36.195312 0-65.675781 29.472656-65.675781 65.675781 0 36.199219 29.480469 65.675781 65.675781 65.675781zm0-100.808594c19.398438 0 35.132812 15.730469 35.132812 35.132813 0 19.394531-15.734374 35.125-35.132812 35.125-19.394531 0-35.128906-15.730469-35.128906-35.125 0-19.402344 15.734375-35.132813 35.128906-35.132813zm0 0"/><path d="m427.515625 327.542969c0-59.570313-48.574219-108.136719-108.140625-108.136719-59.5625 0-108.136719 48.566406-108.136719 108.136719 0 32.527343 14.355469 62.773437 39.097657 83.242187l-24.890626 61.859375c-3.210937 7.789063-1.683593 16.496094 4.121094 22.757813 5.804688 6.261718 14.355469 8.398437 22.453125 5.800781l16.34375-5.191406 7.027344 14.207031c3.664063 7.328125 11.148437 12.066406 19.246094 12.066406h.761719c8.398437-.308594 16.035156-5.503906 19.089843-13.289062l5.503907-13.441406 4.730468 11.609374c3.207032 7.785157 10.691406 12.980469 19.09375 13.28125h.765625c8.246094 0 15.730469-4.730468 19.242188-12.066406l7.027343-14.199218 16.191407 5.191406c8.09375 2.597656 16.644531.457031 22.449219-5.804688 5.804687-6.261718 7.335937-14.964844 4.128906-22.757812l-25.046875-60.175782c24.585937-20.46875 38.941406-50.710937 38.941406-83.089843zm-185.730469 0c0-42.769531 34.824219-77.59375 77.589844-77.59375 42.769531 0 77.59375 34.824219 77.59375 77.59375 0 26.421875-13.289062 50.707031-35.4375 65.0625-12.523438 8.101562-27.1875 12.53125-42.15625 12.53125-3.96875 0-7.941406-.308594-11.914062-.917969-10.84375-1.679688-20.925782-5.5-30.085938-11.457031-22.300781-14.355469-35.589844-38.796875-35.589844-65.21875zm51.929688 151.207031-1.527344-3.054688c-4.578125-9.621093-15.886719-14.355468-25.964844-10.992187l-5.34375 1.679687 15.882813-39.40625c5.652343 2.441407 11.457031 4.273438 17.257812 5.648438l9.164063 22.457031zm78.816406-16.035156c-10.085938-3.207032-21.234375 1.527344-25.816406 10.996094l-1.523438 3.054687-16.953125-41.542969c11.757813-.917968 23.214844-3.820312 34.058594-8.402344l15.425781 37.574219zm0 0"/></g></svg>