<svg height="640pt" viewBox="0 -52 640 640" width="640pt" xmlns="http://www.w3.org/2000/svg"><path d="m320.964844 59.28125-61.492188-59.28125h-211.214844l7.855469 219.214844h532.734375v-159.933594zm0 0" fill="#00efd1"/><path d="m536.460938 219.214844v.550781h-432.921876v-105.332031h432.921876zm0 0" fill="#fedb41"/><path d="m640 205.980469-58.042969 329.097656h-523.222656l-58.734375-329.097656zm0 0" fill="#00acea"/><g fill="#083863"><path d="m320 390.726562c32.675781 0 59.285156-26.609374 59.285156-59.285156 0-32.675781-26.609375-59.285156-59.285156-59.285156s-59.289062 26.609375-59.289062 59.285156c0 32.816406 26.613281 59.285156 59.289062 59.285156zm0-90.859374c17.507812 0 31.707031 14.203124 31.707031 31.714843 0 17.507813-14.199219 31.707031-31.707031 31.707031-17.511719 0-31.710938-14.199218-31.710938-31.707031 0-17.511719 14.199219-31.714843 31.710938-31.714843zm0 0"/><path d="m417.613281 331.582031c0-53.769531-43.84375-97.613281-97.613281-97.613281s-97.613281 43.84375-97.613281 97.613281c0 29.363281 12.960937 56.664063 35.292969 75.136719l-22.46875 55.839844c-2.898438 7.03125-1.519532 14.890625 3.71875 20.542968 5.238281 5.652344 12.960937 7.582032 20.132812 5.238282l14.75-4.6875 6.34375 12.820312c3.308594 6.617188 10.0625 10.894532 17.371094 10.894532h.691406c7.582031-.277344 14.335938-4.964844 17.234375-11.996094l4.960937-12.132813 4.273438 10.476563c2.894531 7.03125 9.652344 11.859375 17.234375 11.996094h.691406c7.308594 0 14.203125-4.277344 17.371094-10.890626l6.34375-12.824218 14.613281 4.6875c7.304688 2.34375 15.03125.414062 20.269532-5.238282 5.238281-5.648437 6.617187-13.511718 3.71875-20.542968l-22.332032-54.320313c22.054688-18.472656 35.015625-45.773437 35.015625-75zm-167.652343 0c0-38.605469 31.433593-70.039062 70.039062-70.039062 38.601562 0 70.039062 31.433593 70.039062 70.039062 0 23.851563-11.996093 45.769531-31.988281 58.730469-11.304687 7.308594-24.539062 11.308594-38.050781 11.308594-3.585938 0-7.167969-.277344-10.757812-.832032-9.785157-1.511718-18.886719-4.960937-27.15625-10.335937-20.128907-13.101563-32.125-35.019531-32.125-58.871094zm46.875 136.351563-1.378907-2.753906c-4.132812-8.6875-14.199219-12.964844-23.4375-9.925782l-4.824219 1.511719 14.335938-35.570313c5.105469 2.207032 10.34375 3.863282 15.582031 5.101563l8.273438 20.269531zm71.140624-14.472656c-9.09375-2.894532-19.164062 1.378906-23.4375 9.921874l-1.375 2.757813-15.167968-37.363281c10.617187-.824219 20.957031-3.445313 30.742187-7.582032l13.925781 33.917969zm0 0"/></g></svg>