<svg height="640pt" viewBox="-70 0 640 640" width="640pt" xmlns="http://www.w3.org/2000/svg"><path d="m334.457031 0h-262.332031c-39.472656 0-72.125 32.484375-72.125 71.957031v496.085938c0 39.472656 32.652344 71.957031 72.125 71.957031h356.058594c39.472656 0 72.117187-32.484375 72.117187-71.957031v-394.074219zm0 0" fill="#00acea"/><path d="m335.269531.488281 165.199219 173.640625h-109.972656c-30.535156 0-55.226563-24.6875-55.226563-55.222656zm0 0" fill="#00efd1"/><g fill="#083863"><path d="m383.835938 511.675781h-267.371094c-8.929688 0-16.238282 7.308594-16.238282 16.242188 0 8.9375 7.308594 16.246093 16.238282 16.246093h267.535156c8.933594 0 16.242188-7.308593 16.242188-16.246093 0-8.933594-7.308594-16.242188-16.40625-16.242188zm0 0"/><path d="m250.152344 347.9375c42.722656 0 77.484375-34.757812 77.484375-77.480469 0-42.722656-34.761719-77.484375-77.484375-77.484375-42.71875 0-77.480469 34.761719-77.480469 77.484375 0 42.722657 34.761719 77.480469 77.480469 77.480469zm0-122.472656c24.851562 0 44.992187 20.140625 44.992187 44.992187 0 24.855469-20.140625 44.996094-44.992187 44.996094-24.855469 0-44.996094-20.140625-44.996094-44.996094 0-24.851562 20.140625-44.992187 44.996094-44.992187zm0 0"/><path d="m168.9375 371.003906-31.027344 76.992188c-3.574218 8.609375-1.785156 18.359375 4.546875 25.183594 6.335938 6.820312 15.917969 9.417968 24.851563 6.492187l21.769531-6.980469 9.421875 19.164063c4.058594 8.125 12.34375 13.320312 21.441406 13.320312h.808594c9.425781-.324219 17.707031-6.171875 21.28125-14.78125l8.9375-21.765625 7.957031 19.492188c3.574219 8.605468 11.855469 14.457031 21.277344 14.777344h.8125c9.097656 0 17.382813-5.195313 21.445313-13.3125l9.417968-19.171876 21.117188 7.148438c8.9375 2.925781 18.355468.488281 24.855468-6.5 6.332032-6.820312 8.121094-16.566406 4.546876-25.175781l-30.867188-74.882813c30.214844-24.363281 47.921875-61.078125 47.921875-100.382812 0-71.316406-57.988281-129.304688-129.296875-129.304688-71.3125 0-129.300781 57.988282-129.300781 129.304688 0 39.308594 17.867187 76.019531 48.082031 100.382812zm50.027344 89.175782-4.222656-8.441407c-5.199219-10.5625-17.542969-15.921875-28.75-12.183593l-11.210938 3.574218 22.089844-54.742187c7.796875 3.570312 15.757812 6.171875 24.042968 8.121093l12.019532 29.398438zm95.191406-22.898438c-11.210938-3.574219-23.554688 1.625-28.757812 12.179688l-4.222657 8.449218-23.875-58.476562c15.917969-.976563 31.511719-4.710938 46.132813-11.371094l21.601562 52.625zm-64.003906-263.472656c53.28125 0 96.808594 43.367187 96.808594 96.8125 0 32.972656-16.566407 63.1875-44.179688 81.214844-15.753906 10.234374-33.949219 15.59375-52.628906 15.59375-4.875 0-9.910156-.324219-14.78125-1.136719-13.480469-2.109375-26.152344-6.820313-37.683594-14.292969-27.78125-17.871094-44.347656-48.40625-44.347656-81.378906 0-53.445313 43.535156-96.8125 96.8125-96.8125zm0 0"/></g></svg>