<svg height="638pt" viewBox="-57 0 638 638.75085" width="638pt" xmlns="http://www.w3.org/2000/svg"><path d="m317.5 238.539062-44.925781-121.921874h-214.023438c-32.199219 0-58.175781 26.507812-58.175781 58.707031v404.71875c0 32.203125 25.976562 58.707031 58.175781 58.707031h290.488281c32.203126 0 58.175782-26.503906 58.175782-58.707031v-321.496094zm0 0" fill="#00efd1"/><path d="m377.132812 180.230469-44.925781-121.921875h-214.019531c-32.203125 0-58.175781 26.507812-58.175781 58.707031v404.71875c0 32.203125 25.972656 58.707031 58.175781 58.707031h290.484375c32.203125 0 58.179687-26.503906 58.179687-58.707031v-321.496094zm0 0" fill="#fedb41"/><path d="m435.441406 121.917969-44.925781-121.917969h-214.019531c-32.203125 0-58.175782 26.503906-58.175782 58.707031v404.71875c0 32.203125 25.972657 58.707031 58.175782 58.707031h290.488281c32.199219 0 58.175781-26.503906 58.175781-58.707031v-321.496093zm0 0" fill="#00acea"/><path d="m390.515625.398438 134.777344 141.664062h-89.71875c-24.914063 0-45.058594-20.144531-45.058594-45.054688zm0 0" fill="#00efd1"/><g fill="#083863"><path d="m430.804688 424.066406h-218.128907c-7.292969 0-13.257812 5.960938-13.257812 13.253906 0 7.289063 5.964843 13.25 13.257812 13.25h218.257813c7.292968 0 13.25-5.960937 13.25-13.25 0-7.292968-5.957032-13.253906-13.378906-13.253906zm0 0"/><path d="m298.679688 267.695312h-30.746094c-5.433594 0-10.335938 3.574219-12.324219 8.609376-1.988281 5.039062-.796875 11 3.179687 14.714843l77 72.75c2.515626 2.382813 5.828126 3.710938 9.140626 3.710938 3.578124 0 7.023437-1.328125 9.675781-4.109375 5.03125-5.296875 4.769531-13.648438-.53125-18.683594l-52.875-49.960938c14.976562-.664062 28.886719-6.359374 39.492187-17.09375 8.078125-8.082031 13.519532-17.890624 15.902344-28.492187h18.816406c7.289063 0 13.253906-5.964844 13.253906-13.253906 0-7.285157-5.964843-13.25-13.253906-13.25h-18.949218c-1.59375-7.953125-4.507813-14.578125-8.484376-19.878907h27.433594c7.289063 0 13.253906-5.964843 13.253906-13.25 0-7.289062-5.964843-13.253906-13.253906-13.253906h-107.609375c-7.285156 0-13.25 5.964844-13.25 13.253906 0 7.285157 5.964844 13.25 13.25 13.25h30.746094c13.386719 0 25.050781 7.953126 30.082031 19.878907h-60.957031c-7.292969 0-13.253906 5.964843-13.253906 13.25 0 7.289062 5.960937 13.253906 13.253906 13.253906h60.957031c-1.585937 2.652344-3.976562 6.492187-6.890625 9.40625-5.964843 6.226563-14.179687 9.148437-23.058593 9.148437zm0 0"/></g></svg>