<svg height="640pt" viewBox="0 -52 640 640" width="640pt" xmlns="http://www.w3.org/2000/svg"><path d="m253.089844 20.621094 68.394531 86.640625h-174.46875c-31.152344 0-56.371094 25.21875-56.371094 56.371093v371.777344h-34.273437c-31.152344 0-56.371094-25.21875-56.371094-56.378906v-422.660156c0-31.152344 25.21875-56.371094 56.371094-56.371094h153.105468c16.765626 0 32.785157 7.5625 43.613282 20.621094zm0 0" fill="#00efd1"/><path d="m640 160.816406v318.367188c0 31.152344-25.21875 56.371094-56.371094 56.371094h-507.816406v-374.738282c0-31.152344 25.21875-56.371094 56.371094-56.371094h451.445312c31.152344 0 56.371094 25.21875 56.371094 56.371094zm0 0" fill="#00acea"/><path d="m428.148438 229.210938c0-8.160157-6.671876-14.839844-14.832032-14.839844h-120.464844c-8.160156 0-14.839843 6.679687-14.839843 14.839844 0 8.15625 6.679687 14.832031 14.839843 14.832031h34.417969c14.980469 0 28.039063 8.902343 33.675781 22.25h-68.246093c-8.160157 0-14.832031 6.679687-14.832031 14.839843 0 8.160157 6.671874 14.835938 14.832031 14.835938h68.246093c-1.78125 2.96875-4.453124 7.269531-7.710937 10.53125-6.976563 6.972656-16.171875 10.238281-26.117187 10.238281h-34.417969c-6.078125 0-11.570313 4.003907-13.792969 9.644531-2.226562 5.632813-.890625 12.308594 3.558594 16.464844l86.199218 81.449219c2.816407 2.664063 6.523438 4.148437 10.234376 4.148437 4.007812 0 7.859374-1.484374 10.828124-4.597656 5.640626-5.933594 5.34375-15.277344-.59375-20.917968l-59.046874-55.78125c16.765624-.742188 32.34375-7.117188 44.210937-19.136719 9.054687-9.046875 15.132813-20.027344 17.804687-31.894531h21.066407c8.160156 0 14.835937-6.671876 14.835937-14.835938 0-8.160156-6.675781-14.835938-14.835937-14.835938h-21.214844c-1.78125-8.902343-5.042969-16.320312-9.496094-22.25h30.710938c8.308593-.152343 14.980469-6.828124 14.980469-14.984374zm0 0" fill="#083863"/></svg>