<svg height="638pt" viewBox="0 -45 638.74973 638" width="638pt" xmlns="http://www.w3.org/2000/svg"><path d="m593.386719 141.355469v65.976562h-541.914063l-5.953125-146.320312c-1.53125-32.992188 24.890625-60.636719 58.039063-60.636719h125.09375c20.308594 0 39.253906 10.691406 49.789062 28.253906l15.886719 26.582032c10.535156 17.5625 29.324219 28.253906 49.789063 28.253906h191.078124c32.074219-.152344 58.191407 25.8125 58.191407 57.890625zm0 0" fill="#00efd1"/><path d="m608.207031 192.0625c18.480469 0 32.835938 16.34375 30.238281 34.671875l-37.417968 272.175781c-3.972656 28.71875-28.5625 50.105469-57.429688 50.105469h-447.832031c-29.019531 0-53.460937-21.386719-57.425781-50.105469l-38.035156-272.175781c-2.59375-18.328125 11.761718-34.824219 30.242187-34.824219h577.660156zm0 0" fill="#00acea"/><path d="m381.390625 314.40625h-21.84375c-1.832031-9.164062-5.195313-16.800781-9.777344-22.910156h31.621094c8.398437 0 15.273437-6.871094 15.273437-15.273438s-6.875-15.273437-15.273437-15.273437h-124.027344c-8.402343 0-15.273437 6.871093-15.273437 15.273437s6.871094 15.273438 15.273437 15.273438h35.433594c15.429687 0 28.871094 9.160156 34.675781 22.910156h-70.257812c-8.402344 0-15.28125 6.875-15.28125 15.277344 0 8.394531 6.878906 15.269531 15.28125 15.269531h70.257812c-1.832031 3.058594-4.582031 7.480469-7.945312 10.84375-7.179688 7.179687-16.648438 10.542969-26.878906 10.542969h-35.433594c-6.265625 0-11.917969 4.121094-14.207032 9.925781-2.289062 5.804687-.917968 12.675781 3.664063 16.953125l88.742187 83.855469c2.898438 2.75 6.722657 4.273437 10.542969 4.273437 4.121094 0 8.09375-1.523437 11.148438-4.730468 5.800781-6.113282 5.496093-15.738282-.613281-21.539063l-60.789063-57.429687c17.261719-.765626 33.296875-7.332032 45.515625-19.703126 9.316406-9.316406 15.578125-20.621093 18.328125-32.839843h21.691406c8.398438 0 15.273438-6.871094 15.273438-15.273438 0-8.402343-6.722657-15.425781-15.121094-15.425781zm0 0" fill="#083863"/></svg>