<svg height="640pt" viewBox="0 -52 640 640" width="640pt" xmlns="http://www.w3.org/2000/svg"><path d="m320.964844 59.28125-61.492188-59.28125h-211.214844l7.855469 219.214844h532.734375v-159.933594zm0 0" fill="#00efd1"/><path d="m536.460938 219.214844v.550781h-432.921876v-105.332031h432.921876zm0 0" fill="#fedb41"/><path d="m640 205.980469-58.042969 329.097656h-523.222656l-58.734375-329.097656zm0 0" fill="#00acea"/><path d="m389.765625 285.394531c0-7.582031-6.207031-13.789062-13.789063-13.789062h-111.953124c-7.582032 0-13.789063 6.207031-13.789063 13.789062s6.207031 13.785157 13.789063 13.785157h31.988281c13.925781 0 26.058593 8.269531 31.292969 19.300781h-63.417969c-7.582031 0-13.789063 6.207031-13.789063 13.789062s6.207032 13.789063 13.789063 13.789063h63.417969c-1.652344 4.136718-4.136719 7.441406-7.167969 10.480468-6.480469 6.476563-15.023438 10.199219-24.261719 10.199219h-31.988281c-5.65625 0-10.757813 3.582031-12.824219 8.824219-2.070312 5.238281-.824219 11.300781 3.3125 15.164062l80.101562 75.695313c2.617188 2.480469 6.066407 3.71875 9.511719 3.71875 3.726563 0 7.308594-1.375 10.0625-4.273437 5.242188-5.511719 4.96875-14.199219-.550781-19.4375l-54.867188-51.976563c15.574219-.6875 30.054688-7.308594 41.082032-18.339844 8.410156-8.410156 14.0625-17.785156 16.542968-30.191406h19.582032c7.582031 0 13.785156-6.207031 13.785156-13.789063 0-7.582031-6.203125-13.789062-13.785156-13.789062h-19.71875c-1.652344-6.890625-4.6875-13.785156-8.820313-19.300781h28.539063c7.71875.136719 13.925781-6.066407 13.925781-13.648438zm0 0" fill="#083863"/></svg>