<svg height="640pt" viewBox="-70 0 640 640" width="640pt" xmlns="http://www.w3.org/2000/svg"><path d="m334.457031 0h-262.332031c-39.472656 0-72.125 32.484375-72.125 71.957031v496.085938c0 39.472656 32.652344 71.957031 72.125 71.957031h356.058594c39.472656 0 72.117187-32.484375 72.117187-71.957031v-394.074219zm0 0" fill="#00acea"/><path d="m335.269531.488281 165.199219 173.640625h-109.972656c-30.535156 0-55.226563-24.6875-55.226563-55.222656zm0 0" fill="#00efd1"/><g fill="#083863"><path d="m383.835938 511.675781h-267.371094c-8.929688 0-16.238282 7.308594-16.238282 16.242188 0 8.9375 7.308594 16.246093 16.238282 16.246093h267.535156c8.933594 0 16.242188-7.308593 16.242188-16.246093 0-8.933594-7.308594-16.242188-16.40625-16.242188zm0 0"/><path d="m221.890625 328.121094h-37.6875c-6.660156 0-12.667969 4.386718-15.105469 10.558594-2.4375 6.171874-.972656 13.484374 3.902344 18.035156l94.375 89.171875c3.085938 2.925781 7.148438 4.550781 11.203125 4.550781 4.390625 0 8.609375-1.625 11.859375-5.039062 6.171875-6.492188 5.847656-16.726563-.648438-22.898438l-64.652343-61.078125c18.359375-.8125 35.414062-7.800781 48.410156-20.953125 9.90625-9.90625 16.566406-21.929688 19.488281-34.921875h23.066406c8.9375 0 16.246094-7.308594 16.246094-16.246094 0-8.933593-7.308594-16.246093-16.246094-16.246093h-23.226562c-1.949219-9.746094-5.523438-17.863282-10.394531-24.363282h33.621093c8.9375 0 16.246094-7.308594 16.246094-16.246094 0-8.929687-7.308594-16.238281-16.246094-16.238281h-131.898437c-8.933594 0-16.242187 7.308594-16.242187 16.238281 0 8.9375 7.308593 16.246094 16.242187 16.246094h37.6875c16.40625 0 30.703125 9.746094 36.875 24.363282h-74.722656c-8.933594 0-16.246094 7.3125-16.246094 16.246093 0 8.9375 7.3125 16.246094 16.246094 16.246094h74.722656c-1.953125 3.246094-4.875 7.957031-8.449219 11.53125-7.472656 7.472656-17.542968 11.042969-28.425781 11.042969zm0 0"/></g></svg>