<svg height="638pt" viewBox="-57 0 638 638.75085" width="638pt" xmlns="http://www.w3.org/2000/svg"><path d="m317.5 238.539062-44.925781-121.921874h-214.023438c-32.199219 0-58.175781 26.507812-58.175781 58.707031v404.71875c0 32.203125 25.976562 58.707031 58.175781 58.707031h290.488281c32.203126 0 58.175782-26.503906 58.175782-58.707031v-321.496094zm0 0" fill="#00efd1"/><path d="m377.132812 180.230469-44.925781-121.921875h-214.019531c-32.203125 0-58.175781 26.507812-58.175781 58.707031v404.71875c0 32.203125 25.972656 58.707031 58.175781 58.707031h290.484375c32.203125 0 58.179687-26.503906 58.179687-58.707031v-321.496094zm0 0" fill="#fedb41"/><path d="m435.441406 121.917969-44.925781-121.917969h-214.019531c-32.203125 0-58.175782 26.503906-58.175782 58.707031v404.71875c0 32.203125 25.972657 58.707031 58.175782 58.707031h290.488281c32.199219 0 58.175781-26.503906 58.175781-58.707031v-321.496093zm0 0" fill="#00acea"/><path d="m390.515625.398438 134.777344 141.664062h-89.71875c-24.914063 0-45.058594-20.144531-45.058594-45.054688zm0 0" fill="#00efd1"/><g fill="#083863"><path d="m430.804688 424.066406h-218.128907c-7.292969 0-13.257812 5.960938-13.257812 13.253906 0 7.289063 5.964843 13.25 13.257812 13.25h218.257813c7.292968 0 13.25-5.960937 13.25-13.25 0-7.292968-5.957032-13.253906-13.378906-13.253906zm0 0"/><path d="m321.078125 342.035156c7.285156 0 13.25-5.964844 13.25-13.25v-21.335937c0-7.289063-5.964844-13.253907-13.25-13.253907-7.292969 0-13.257813 5.964844-13.257813 13.253907v21.335937c0 7.285156 5.964844 13.25 13.257813 13.25zm0 0"/><path d="m321.738281 401.269531c24.78125 0 48.105469-9.671875 65.601563-27.164062 17.488281-17.492188 27.03125-40.816407 27.03125-65.464844 0-24.78125-9.28125-47.972656-26.769532-65.464844-.664062-.660156-1.589843-1.191406-1.589843-1.855469v-35.253906c0-16.957031-6.890625-32.996094-18.949219-45.054687-12.0625-12.058594-28.492188-18.6875-45.453125-18.6875-35.125 0-64.144531 28.625-64.144531 63.742187v35.253906c0 .53125-.925782 1.195313-1.589844 1.71875-17.492188 17.496094-27.035156 40.820313-27.035156 65.601563 0 51.023437 41.746094 92.628906 92.898437 92.628906zm-.265625-232.703125c9.941406 0 19.746094 3.839844 26.765625 10.867188 7.027344 7.023437 11.398438 16.433594 11.398438 26.371094v17.757812c-11.921875-5.035156-24.910157-7.816406-37.765625-7.816406-12.855469 0-25.84375 2.648437-37.769532 7.816406v-17.757812c-.128906-20.542969 16.828126-37.238282 37.371094-37.238282zm-46.511718 93.03125c1.589843-1.59375 3.308593-3.050781 4.902343-4.375 11.792969-9.675781 26.636719-14.976562 41.875-14.976562 15.371094 0 29.683594 5.039062 41.476563 14.582031 1.726562 1.457031 3.582031 3.042969 5.304687 4.769531 12.453125 12.457032 19.34375 29.152344 19.34375 46.777344 0 17.628906-6.890625 34.324219-19.34375 46.78125-12.457031 12.453125-29.160156 19.480469-46.917969 19.480469-36.574218 0-66.257812-29.679688-66.257812-66.261719.132812-17.625 7.023438-34.320312 19.617188-46.777344zm0 0"/></g></svg>