<svg height="640pt" viewBox="-30 0 640 640" width="640pt" xmlns="http://www.w3.org/2000/svg"><path d="m300.585938 101.449219-15.308594-101.449219h-224.601563c-33.820312 0-60.675781 27.554688-60.675781 61.371094v424.71875c0 33.816406 26.855469 60.8125 60.675781 60.8125h213.054688l153.492187-232.402344v-165.734375zm0 0" fill="#00acea"/><path d="m285.277344.140625 141.527344 148.625h-94.210938c-26.164062 0-47.316406-21.152344-47.316406-47.316406zm0 0" fill="#00efd1"/><g fill="#083863"><path d="m279.992188 318.675781h-181.464844c-7.652344 0-13.917969 6.265625-13.917969 13.917969 0 7.65625 6.265625 13.914062 13.917969 13.914062h181.324218c7.652344 0 13.917969-6.257812 13.917969-13.914062 0-7.652344-6.121093-13.917969-13.777343-13.917969zm0 0"/><path d="m98.527344 276.929688h140.96875c7.652344 0 13.917968-6.261719 13.917968-13.917969 0-7.652344-6.265624-13.914063-13.917968-13.914063h-140.96875c-7.652344 0-13.917969 6.261719-13.917969 13.914063 0 7.65625 6.265625 13.917969 13.917969 13.917969zm0 0"/><path d="m234.066406 389.648438h-135.539062c-7.652344 0-13.917969 6.265624-13.917969 13.914062 0 7.65625 6.265625 13.917969 13.917969 13.917969h135.539062c7.65625 0 13.917969-6.261719 13.917969-13.917969 0-7.648438-6.261719-13.914062-13.917969-13.914062zm0 0"/></g><path d="m426.804688 286.8125c86.28125 12.101562 152.65625 86.136719 152.65625 175.753906 0 97.96875-79.457032 177.433594-177.425782 177.433594-67.351562 0-126.078125-37.574219-156-92.960938-13.636718-25.1875-21.429687-53.992187-21.429687-84.609374 0-97.96875 79.460937-177.429688 177.429687-177.429688 8.351563.140625 16.558594.699219 24.769532 1.8125zm0 0" fill="#fedb41"/><path d="m402.171875 486.644531c-7.652344 0-13.914063 6.261719-13.914063 13.917969v22.402344c0 7.65625 6.261719 13.914062 13.914063 13.914062 7.65625 0 13.917969-6.257812 13.917969-13.914062v-22.402344c0-7.792969-6.261719-13.917969-13.917969-13.917969zm0 0" fill="#083863"/><path d="m468.96875 430.980469v-37.15625c0-17.8125-7.09375-34.648438-19.761719-47.316407-12.660156-12.660156-29.222656-19.617187-47.171875-19.617187-36.878906 0-66.660156 30.058594-66.660156 66.933594v37.15625c-1.390625.558593-1.527344 1.113281-2.085938 1.808593-18.371093 18.367188-28.664062 42.859376-28.664062 68.886719 0 53.714844 43.554688 97.410157 97.269531 97.410157 26.023438 0 50.515625-10.15625 68.886719-28.523438 18.367188-18.371094 28.386719-42.863281 28.386719-68.746094 0-26.027344-10.019531-50.382812-28.25-68.886718-.695313-.699219-1.949219-1.390626-1.949219-1.949219zm-66.933594-76.121094c10.433594 0 20.175782 4.035156 27.691406 11.410156 7.378907 7.378907 11.410157 17.253907 11.410157 27.695313v18.648437c-12.523438-5.289062-25.464844-8.214843-38.964844-8.214843-13.496094 0-27.832031 2.925781-38.964844 8.214843v-18.789062c0-21.433594 17.257813-38.964844 38.828125-38.964844zm48.984375 195.9375c-13.082031 13.078125-30.613281 20.457031-49.261719 20.457031-38.273437 0-69.582031-31.171875-69.582031-69.578125 0-18.648437 7.238281-36.183593 20.457031-49.265625 1.667969-1.667968 3.339844-3.195312 5.148438-4.589844 12.382812-10.160156 27.96875-15.726562 43.976562-15.726562 16.140626 0 31.171876 5.289062 43.554688 15.308594 1.949219 1.53125 3.757812 3.203125 5.566406 5.007812 13.082032 13.082032 20.316406 30.617188 20.316406 49.128906.140626 18.78125-7.09375 36.175782-20.175781 49.257813zm0 0" fill="#083863"/></svg>