<svg height="640pt" viewBox="0 -52 640 640" width="640pt" xmlns="http://www.w3.org/2000/svg"><path d="m253.089844 20.621094 68.394531 86.640625h-174.46875c-31.152344 0-56.371094 25.21875-56.371094 56.371093v371.777344h-34.273437c-31.152344 0-56.371094-25.21875-56.371094-56.378906v-422.660156c0-31.152344 25.21875-56.371094 56.371094-56.371094h153.105468c16.765626 0 32.785157 7.5625 43.613282 20.621094zm0 0" fill="#00efd1"/><path d="m640 160.816406v318.367188c0 31.152344-25.21875 56.371094-56.371094 56.371094h-507.816406v-374.738282c0-31.152344 25.21875-56.371094 56.371094-56.371094h451.445312c31.152344 0 56.371094 25.21875 56.371094 56.371094zm0 0" fill="#00acea"/><g fill="#083863"><path d="m352.636719 346.257812c-8.160157 0-14.832031 6.675782-14.832031 14.835938v23.886719c0 8.160156 6.671874 14.832031 14.832031 14.832031 8.160156 0 14.839843-6.671875 14.839843-14.832031v-23.886719c0-8.160156-6.679687-14.835938-14.839843-14.835938zm0 0"/><path d="m423.847656 286.917969v-39.460938c0-18.988281-7.121094-36.945312-20.621094-50.445312s-31.449218-20.917969-50.4375-20.917969c-39.316406 0-71.363281 32.046875-71.363281 71.363281v39.460938c0 .589843-1.1875 1.332031-1.929687 1.929687-19.578125 19.582032-30.410156 45.691406-30.410156 73.433594 0 57.265625 46.582031 103.847656 103.847656 103.847656 27.746094 0 54.003906-10.832031 73.4375-30.410156 19.582031-19.585938 30.265625-45.695312 30.265625-73.289062 0-27.742188-10.980469-53.703126-30.5625-73.289063-.597657-.742187-.742188-1.480469-2.226563-2.222656zm-70.914062-81.152344c11.128906 0 21.363281 4.304687 29.230468 12.164063 7.859376 7.867187 12.015626 18.398437 12.015626 29.527343v19.878907c-11.871094-5.640626-27.148438-8.757813-41.542969-8.757813-14.390625 0-28.183594 2.96875-41.539063 8.757813v-19.878907c0-23 18.84375-41.691406 41.835938-41.691406zm52.519531 209.035156c-13.945313 13.945313-32.640625 21.804688-52.519531 21.804688-40.945313 0-74.179688-33.230469-74.179688-74.175781 0-19.882813 7.714844-38.425782 21.660156-52.515626 1.78125-1.785156 3.710938-3.414062 5.492188-4.898437 13.203125-10.832031 29.820312-16.765625 46.882812-16.765625 17.207032 0 33.226563 5.636719 46.429688 16.320312 2.078125 1.632813 4.007812 3.414063 5.9375 5.34375 13.945312 13.945313 21.660156 32.632813 21.660156 52.367188.296875 19.875-7.417968 38.574219-21.363281 52.519531zm0 0"/></g></svg>