<svg height="638pt" viewBox="0 -45 638.74973 638" width="638pt" xmlns="http://www.w3.org/2000/svg"><path d="m593.386719 141.355469v65.976562h-541.914063l-5.953125-146.320312c-1.53125-32.992188 24.890625-60.636719 58.039063-60.636719h125.09375c20.308594 0 39.253906 10.691406 49.789062 28.253906l15.886719 26.582032c10.535156 17.5625 29.324219 28.253906 49.789063 28.253906h191.078124c32.074219-.152344 58.191407 25.8125 58.191407 57.890625zm0 0" fill="#00efd1"/><path d="m608.207031 192.0625c18.480469 0 32.835938 16.34375 30.238281 34.671875l-37.417968 272.175781c-3.972656 28.71875-28.5625 50.105469-57.429688 50.105469h-447.832031c-29.019531 0-53.460937-21.386719-57.425781-50.105469l-38.035156-272.175781c-2.59375-18.328125 11.761718-34.824219 30.242187-34.824219h577.660156zm0 0" fill="#00acea"/><g fill="#083863"><path d="m319.375 396.734375c-8.398438 0-15.269531 6.871094-15.269531 15.273437v24.589844c0 8.402344 6.871093 15.273438 15.269531 15.273438 8.402344 0 15.273438-6.871094 15.273438-15.273438v-24.589844c0-8.402343-6.871094-15.273437-15.273438-15.273437zm0 0"/><path d="m394.980469 337.777344c-.765625-.765625-.765625-1.375-2.289063-2.140625v-40.628907c0-19.550781-7.636718-38.03125-21.535156-51.933593-13.90625-13.898438-32.234375-21.535157-51.78125-21.535157-40.476562 0-73.3125 32.992188-73.3125 73.46875v40.628907c-1.53125.609375-1.378906 1.375-2.140625 1.984375-20.164063 20.160156-31.308594 47.046875-31.308594 75.609375 0 58.957031 47.957031 106.914062 106.914063 106.914062 28.5625 0 55.445312-11.148437 75.605468-31.3125 20.164063-20.160156 31.160157-47.039062 31.160157-75.453125 0-28.558594-11.152344-55.289062-31.3125-75.601562zm-75.605469-85.6875c11.457031 0 22.152344 4.425781 30.246094 12.523437 8.09375 8.09375 12.523437 18.9375 12.523437 30.394531v20.46875c-13.746093-5.804687-27.953125-9.015624-42.769531-9.015624-14.8125 0-29.019531 3.054687-42.765625 9.015624v-20.46875c0-23.671874 19.242187-42.917968 42.765625-42.917968zm54.070312 215.207031c-14.355468 14.359375-33.601562 22.453125-54.070312 22.453125-42.15625 0-76.367188-34.210938-76.367188-76.371094 0-20.464844 7.941407-39.558594 22.300782-54.066406 1.832031-1.832031 3.820312-3.515625 5.652344-5.039062 13.589843-11.152344 30.695312-17.261719 48.265624-17.261719 17.714844 0 34.210938 5.804687 47.804688 16.804687 1.984375 1.675782 4.125 3.511719 6.109375 5.496094 14.355469 14.355469 22.296875 33.601562 22.296875 53.917969.308594 20.460937-7.636719 39.710937-21.992188 54.066406zm0 0"/></g></svg>