<svg height="640pt" viewBox="0 -52 640 640" width="640pt" xmlns="http://www.w3.org/2000/svg"><path d="m320.964844 59.28125-61.492188-59.28125h-211.214844l7.855469 219.214844h532.734375v-159.933594zm0 0" fill="#00efd1"/><path d="m536.460938 219.214844v.550781h-432.921876v-105.332031h432.921876zm0 0" fill="#fedb41"/><path d="m640 205.980469-58.042969 329.097656h-523.222656l-58.734375-329.097656zm0 0" fill="#00acea"/><g fill="#083863"><path d="m320 394.039062c-7.582031 0-13.789062 6.199219-13.789062 13.78125v22.339844c0 7.582032 6.207031 13.785156 13.789062 13.785156s13.789062-6.203124 13.789062-13.785156v-22.339844c0-7.582031-6.207031-13.78125-13.789062-13.78125zm0 0"/><path d="m386.175781 338.886719v-36.675781c0-17.644532-6.890625-34.324219-19.4375-46.875-12.542969-12.542969-29.09375-19.4375-46.738281-19.4375-36.539062 0-66.175781 29.78125-66.175781 66.3125v36.675781c-1.382813.550781-1.382813 1.238281-1.933594 1.792969-18.199219 18.203124-28.261719 42.464843-28.261719 68.246093 0 53.222657 43.289063 96.511719 96.507813 96.511719 25.78125 0 50.046875-10.066406 68.246093-28.265625 18.199219-18.199219 28.125-42.460937 28.125-68.105469 0-25.785156-10.0625-49.910156-28.261718-68.246094-.6875-.695312-.6875-1.382812-2.070313-1.933593zm-66.175781-75.414063c10.339844 0 19.988281 3.996094 27.300781 11.300782 7.304688 7.3125 11.300781 17.101562 11.300781 27.300781v18.476562c-12.40625-5.238281-25.226562-8.132812-38.601562-8.132812s-26.195312 2.894531-38.605469 8.132812v-18.476562c0-21.230469 17.375-38.601563 38.605469-38.601563zm48.804688 194.261719c-12.960938 12.957031-30.328126 20.261719-48.804688 20.261719-38.050781 0-68.9375-30.878906-68.9375-68.933594 0-18.472656 7.167969-35.84375 20.269531-48.804688 1.652344-1.65625 3.304688-3.171874 5.097657-4.550781 12.269531-10.0625 27.714843-15.582031 43.570312-15.582031 15.992188 0 30.882812 5.242188 43.152344 15.167969 1.792968 1.519531 3.722656 3.171875 5.515625 4.964843 12.957031 12.960938 20.128906 30.332032 20.128906 48.667969.136719 18.476563-7.03125 35.707031-19.992187 48.808594zm0 0"/></g></svg>