<svg height="640pt" viewBox="-70 0 640 640" width="640pt" xmlns="http://www.w3.org/2000/svg"><path d="m334.457031 0h-262.332031c-39.472656 0-72.125 32.484375-72.125 71.957031v496.085938c0 39.472656 32.652344 71.957031 72.125 71.957031h356.058594c39.472656 0 72.117187-32.484375 72.117187-71.957031v-394.074219zm0 0" fill="#00acea"/><path d="m335.269531.488281 165.199219 173.640625h-109.972656c-30.535156 0-55.226563-24.6875-55.226563-55.222656zm0 0" fill="#00efd1"/><g fill="#083863"><path d="m383.835938 511.675781h-267.371094c-8.929688 0-16.238282 7.308594-16.238282 16.242188 0 8.9375 7.308594 16.246093 16.238282 16.246093h267.535156c8.933594 0 16.242188-7.308593 16.242188-16.246093 0-8.933594-7.308594-16.242188-16.40625-16.242188zm0 0"/><path d="m250.152344 419.246094c8.933594 0 16.246094-7.308594 16.246094-16.242188v-26.152344c0-8.933593-7.3125-16.242187-16.246094-16.242187s-16.242188 7.308594-16.242188 16.242187v26.152344c0 8.933594 7.308594 16.242188 16.242188 16.242188zm0 0"/><path d="m250.152344 491.859375c30.375 0 58.964844-11.859375 80.410156-33.300781 21.4375-21.441406 33.132812-50.027344 33.132812-80.242188 0-30.378906-11.855468-58.804687-33.300781-80.246094-.808593-.816406-.808593-1.460937-2.4375-2.273437v-43.210937c0-20.789063-8.117187-40.449219-22.898437-55.226563-14.785156-14.78125-34.277344-22.90625-55.066406-22.90625-43.046876 0-77.96875 35.085937-77.96875 78.132813v43.210937c-1.628907.648437-1.464844 1.457031-2.277344 2.113281-21.441406 21.441406-33.300782 50.027344-33.300782 80.40625.167969 62.539063 51.007813 113.542969 113.707032 113.542969zm0-285.238281c12.183594 0 23.554687 4.707031 32.160156 13.316406 8.609375 8.613281 13.320312 20.144531 13.320312 32.328125v21.761719c-14.617187-6.171875-29.726562-9.578125-45.480468-9.578125-15.757813 0-30.863282 3.246093-45.480469 9.578125v-21.761719c-.003906-25.179687 20.464844-45.644531 45.480469-45.644531zm-57.339844 114.027344c1.949219-1.949219 4.0625-3.734376 6.011719-5.359376 14.457031-11.855468 32.652343-18.355468 51.328125-18.355468 18.839844 0 36.386718 6.171875 50.84375 17.867187 2.109375 1.785157 4.382812 3.738281 6.492187 5.847657 15.269531 15.269531 23.71875 35.738281 23.71875 57.339843 0 21.605469-8.445312 42.074219-23.71875 57.34375-15.265625 15.269531-35.730469 23.875-57.496093 23.875-44.835938 0-81.222657-36.386719-81.222657-81.214843.167969-21.605469 8.613281-42.074219 24.042969-57.34375zm0 0"/></g></svg>