<svg height="638pt" viewBox="-57 0 638 638.75085" width="638pt" xmlns="http://www.w3.org/2000/svg"><path d="m317.5 238.539062-44.925781-121.921874h-214.023438c-32.199219 0-58.175781 26.507812-58.175781 58.707031v404.71875c0 32.203125 25.976562 58.707031 58.175781 58.707031h290.488281c32.203126 0 58.175782-26.503906 58.175782-58.707031v-321.496094zm0 0" fill="#00efd1"/><path d="m377.132812 180.230469-44.925781-121.921875h-214.019531c-32.203125 0-58.175781 26.507812-58.175781 58.707031v404.71875c0 32.203125 25.972656 58.707031 58.175781 58.707031h290.484375c32.203125 0 58.179687-26.503906 58.179687-58.707031v-321.496094zm0 0" fill="#fedb41"/><path d="m435.441406 121.917969-44.925781-121.917969h-214.019531c-32.203125 0-58.175782 26.503906-58.175782 58.707031v404.71875c0 32.203125 25.972657 58.707031 58.175782 58.707031h290.488281c32.199219 0 58.175781-26.503906 58.175781-58.707031v-321.496093zm0 0" fill="#00acea"/><path d="m390.515625.398438 134.777344 141.664062h-89.71875c-24.914063 0-45.058594-20.144531-45.058594-45.054688zm0 0" fill="#00efd1"/><g fill="#083863"><path d="m430.804688 424.066406h-218.128907c-7.292969 0-13.257812 5.960938-13.257812 13.253906 0 7.289063 5.964843 13.25 13.257812 13.25h218.257813c7.292968 0 13.25-5.960937 13.25-13.25 0-7.292968-5.957032-13.253906-13.378906-13.253906zm0 0"/><path d="m303.316406 354.097656c20.804688 0 40.550782-6.628906 56.722656-18.953125l38.960938 38.832031c2.644531 2.515626 5.960938 3.839844 9.40625 3.839844s6.757812-1.324218 9.410156-3.839844c5.171875-5.171874 5.171875-13.519531 0-18.691406l-38.824218-38.691406c12.316406-16.300781 19.078124-36.046875 19.078124-56.722656 0-52.078125-42.410156-94.355469-94.621093-94.355469-52.210938 0-94.621094 42.277344-94.621094 94.355469-.128906 51.949218 42.277344 94.226562 94.488281 94.226562zm0-162.207031c37.507813 0 68.117188 30.476563 68.117188 67.851563 0 18.152343-7.15625 35.246093-20.011719 47.972656-12.855469 12.71875-29.949219 19.875-48.105469 19.875-37.503906 0-68.117187-30.480469-68.117187-67.847656 0-37.375 30.484375-67.851563 68.117187-67.851563zm0 0"/></g></svg>