<svg height="638pt" viewBox="0 -45 638.74973 638" width="638pt" xmlns="http://www.w3.org/2000/svg"><path d="m593.386719 141.355469v65.976562h-541.914063l-5.953125-146.320312c-1.53125-32.992188 24.890625-60.636719 58.039063-60.636719h125.09375c20.308594 0 39.253906 10.691406 49.789062 28.253906l15.886719 26.582032c10.535156 17.5625 29.324219 28.253906 49.789063 28.253906h191.078124c32.074219-.152344 58.191407 25.8125 58.191407 57.890625zm0 0" fill="#00efd1"/><path d="m608.207031 192.0625c18.480469 0 32.835938 16.34375 30.238281 34.671875l-37.417968 272.175781c-3.972656 28.71875-28.5625 50.105469-57.429688 50.105469h-447.832031c-29.019531 0-53.460937-21.386719-57.425781-50.105469l-38.035156-272.175781c-2.59375-18.328125 11.761718-34.824219 30.242187-34.824219h577.660156zm0 0" fill="#00acea"/><path d="m385.207031 422.699219c14.203125-18.789063 21.996094-41.546875 21.996094-65.375 0-60.023438-48.878906-108.75-109.058594-108.75-60.175781 0-109.054687 48.726562-109.054687 108.75 0 60.027343 48.878906 108.75 109.054687 108.75 23.980469 0 46.738281-7.636719 65.375-21.839844l44.902344 44.75c3.054687 2.90625 6.875 4.429687 10.847656 4.429687 3.972657 0 7.789063-1.523437 10.84375-4.429687 5.953125-5.953125 5.953125-15.578125 0-21.535156zm-87.214843 12.675781c-43.226563 0-78.507813-35.132812-78.507813-78.203125s35.28125-78.199219 78.507813-78.199219c43.226562 0 78.507812 35.128906 78.507812 78.199219 0 20.925781-8.25 40.628906-23.0625 55.292969-14.816406 14.816406-34.367188 22.910156-55.445312 22.910156zm0 0" fill="#083863"/></svg>