<svg height="640pt" viewBox="-70 0 640 640" width="640pt" xmlns="http://www.w3.org/2000/svg"><path d="m334.457031 0h-262.332031c-39.472656 0-72.125 32.484375-72.125 71.957031v496.085938c0 39.472656 32.652344 71.957031 72.125 71.957031h356.058594c39.472656 0 72.117187-32.484375 72.117187-71.957031v-394.074219zm0 0" fill="#00acea"/><path d="m335.269531.488281 165.199219 173.640625h-109.972656c-30.535156 0-55.226563-24.6875-55.226563-55.222656zm0 0" fill="#00efd1"/><g fill="#083863"><path d="m383.835938 511.675781h-267.371094c-8.929688 0-16.238282 7.308594-16.238282 16.242188 0 8.9375 7.308594 16.246093 16.238282 16.246093h267.535156c8.933594 0 16.242188-7.308593 16.242188-16.246093 0-8.933594-7.308594-16.242188-16.40625-16.242188zm0 0"/><path d="m227.574219 434.03125c25.503906 0 49.707031-8.125 69.523437-23.230469l47.753906 47.597657c3.25 3.085937 7.3125 4.707031 11.535157 4.707031 4.222656 0 8.285156-1.621094 11.53125-4.707031 6.335937-6.339844 6.335937-16.574219 0-22.90625l-47.589844-47.429688c15.105469-19.980469 23.386719-44.1875 23.386719-69.523438 0-63.835937-51.976563-115.660156-115.976563-115.660156-63.996093 0-115.980469 51.824219-115.980469 115.660156-.164062 63.671876 51.816407 115.492188 115.816407 115.492188zm0-198.820312c45.972656 0 83.496093 37.355468 83.496093 83.164062 0 22.09375-8.613281 42.882812-24.207031 58.476562-.160156.164063-.324219.164063-.324219.324219-.164062.164063-.164062.164063-.324218.328125-15.753906 15.429688-36.546875 24.039063-58.640625 24.039063-45.96875 0-83.492188-37.359375-83.492188-83.167969s37.359375-83.164062 83.492188-83.164062zm0 0"/></g></svg>