<svg height="638pt" viewBox="-57 0 638 638.75085" width="638pt" xmlns="http://www.w3.org/2000/svg"><path d="m317.5 238.539062-44.925781-121.921874h-214.023438c-32.199219 0-58.175781 26.507812-58.175781 58.707031v404.71875c0 32.203125 25.976562 58.707031 58.175781 58.707031h290.488281c32.203126 0 58.175782-26.503906 58.175782-58.707031v-321.496094zm0 0" fill="#00efd1"/><path d="m377.132812 180.230469-44.925781-121.921875h-214.019531c-32.203125 0-58.175781 26.507812-58.175781 58.707031v404.71875c0 32.203125 25.972656 58.707031 58.175781 58.707031h290.484375c32.203125 0 58.179687-26.503906 58.179687-58.707031v-321.496094zm0 0" fill="#fedb41"/><path d="m435.441406 121.917969-44.925781-121.917969h-214.019531c-32.203125 0-58.175782 26.503906-58.175782 58.707031v404.71875c0 32.203125 25.972657 58.707031 58.175782 58.707031h290.488281c32.199219 0 58.175781-26.503906 58.175781-58.707031v-321.496093zm0 0" fill="#00acea"/><path d="m390.515625.398438 134.777344 141.664062h-89.71875c-24.914063 0-45.058594-20.144531-45.058594-45.054688zm0 0" fill="#00efd1"/><g fill="#083863"><path d="m430.804688 424.066406h-218.128907c-7.292969 0-13.257812 5.960938-13.257812 13.253906 0 7.289063 5.964843 13.25 13.257812 13.25h218.257813c7.292968 0 13.25-5.960937 13.25-13.25 0-7.292968-5.957032-13.253906-13.378906-13.253906zm0 0"/><path d="m441.800781 241.058594-16.695312-1.59375c-1.988281-6.359375-4.507813-12.457032-7.6875-18.285156l10.601562-12.726563c4.371094-5.296875 3.976563-12.855469-.792969-17.757813l-24.386718-24.648437c-4.769532-4.902344-12.585938-5.296875-17.890625-.925781l-12.855469 10.605468c-5.960938-3.183593-12.054688-5.703124-18.285156-7.691406l-1.59375-16.828125c-.660156-6.757812-6.359375-12.058593-13.25-12.058593h-34.984375c-6.890625 0-12.585938 5.167968-13.25 11.929687l-1.59375 16.695313c-6.359375 1.988281-12.457031 4.636718-18.285157 7.683593l-12.722656-10.597656c-5.304687-4.378906-12.988281-3.976563-17.890625.792969l-24.648437 24.648437c-4.769532 4.773438-5.171875 12.589844-.792969 17.890625l10.597656 12.855469c-3.175781 5.960937-5.695312 12.058594-7.683593 18.285156l-16.566407 1.589844c-6.757812.667969-11.792969 6.363281-11.792969 13.253906v34.984375c0 6.761719 4.902344 12.589844 11.792969 13.25l16.695313 1.59375c1.988281 6.359375 4.507812 12.457032 7.6875 18.285156l-10.601563 12.726563c-4.375 5.296875-3.976562 12.984375.796875 17.886719l24.648438 24.648437c4.769531 4.773438 12.585937 5.167969 17.757812.796875l12.855469-10.605468c5.960937 3.183593 12.054687 5.703124 18.152344 7.691406l1.589843 16.828125c.660157 6.757812 6.363282 11.929687 13.253907 11.929687h34.984375c6.890625 0 12.589844-5.171875 13.25-12.0625l1.59375-16.695312c6.359375-1.988282 12.457031-4.640625 18.285156-7.691406l12.726562 10.605468c5.296876 4.371094 12.984376 3.976563 17.886719-.796875l24.652344-24.648437c4.769531-4.769532 5.164063-12.585938.792969-17.757813l-10.605469-12.855469c3.183594-5.960937 5.703125-12.054687 7.691406-18.285156l16.164063-1.59375c6.757812-.660156 11.660156-6.359375 11.660156-13.25v-34.984375c.53125-6.757812-4.371094-12.457031-11.261719-13.117187zm-14.707031 36.042968-13.386719 1.324219c-5.695312.53125-10.335937 4.769531-11.53125 10.335938-1.988281 9.410156-5.964843 18.6875-11.527343 27.429687-3.179688 4.910156-2.785157 11.136719.929687 15.640625l8.878906 10.734375-7.554687 7.554688-10.734375-8.878906c-4.507813-3.707032-10.867188-4.109376-15.769531-.792969-8.21875 5.433593-17.628907 9.402343-27.300782 11.527343-5.695312 1.191407-9.804687 5.960938-10.335937 11.664063l-1.324219 13.910156h-10.867188l-1.328124-13.910156c-.53125-5.703125-4.769532-10.472656-10.335938-11.664063-9.410156-1.988281-18.683594-5.964843-27.429688-11.660156-4.902343-3.183594-11.132812-2.78125-15.640624.925782l-10.730469 8.878906-7.554688-7.554688 8.878907-10.734375c3.710937-4.503906 4.109374-11 .796874-15.769531-5.433593-8.085938-9.410156-17.492188-11.53125-27.300781-1.195312-5.695313-5.695312-9.804688-11.398437-10.335938l-13.648437-1.324219v-10.863281l13.648437-1.328125c5.703125-.53125 10.335937-4.769531 11.53125-10.339844 1.988281-9.40625 5.832031-18.683593 11.527344-27.429687 3.183593-4.90625 2.785156-11.132813-.925781-15.636719l-8.878907-10.734375 7.554688-7.554687 10.730469 8.878906c4.507812 3.710938 11 4.109375 15.769531.796875 8.085937-5.433594 17.628906-9.410156 27.300781-11.53125 5.703125-1.195313 9.804688-5.964844 10.335938-11.660156l1.328124-13.914063h10.867188l1.324219 13.914063c.53125 5.695312 4.769531 10.464843 10.335937 11.660156 9.410156 1.988281 18.683594 5.964844 27.433594 11.660156 4.902344 3.183594 11.128906 2.785157 15.636719-.925781l10.597656-8.746094 7.421875 7.554688-8.878906 10.734375c-3.707032 4.503906-4.105469 11-.792969 15.769531 5.433594 8.085938 9.410156 17.492188 11.53125 27.300781 1.191406 5.695313 5.695313 9.804688 11.398437 10.335938l13.648438 1.324219zm0 0"/><path d="m321.738281 201.300781c-38.828125 0-70.371093 31.539063-70.371093 70.363281 0 38.832032 31.542968 70.371094 70.371093 70.371094 38.832031 0 70.367188-31.539062 70.367188-70.371094 0-38.824218-31.535157-70.363281-70.367188-70.363281zm0 114.230469c-24.117187 0-43.863281-19.609375-43.863281-43.867188 0-24.246093 19.609375-43.863281 43.863281-43.863281 24.25 0 43.867188 19.617188 43.867188 43.863281 0 24.257813-19.75 43.867188-43.867188 43.867188zm0 0"/></g></svg>