<svg height="640pt" viewBox="-30 0 640 640" width="640pt" xmlns="http://www.w3.org/2000/svg"><path d="m300.585938 101.449219-15.308594-101.449219h-224.601563c-33.820312 0-60.675781 27.554688-60.675781 61.371094v424.71875c0 33.816406 26.855469 60.8125 60.675781 60.8125h213.054688l153.492187-232.402344v-165.734375zm0 0" fill="#00acea"/><path d="m285.277344.140625 141.527344 148.625h-94.210938c-26.164062 0-47.316406-21.152344-47.316406-47.316406zm0 0" fill="#00efd1"/><g fill="#083863"><path d="m98.527344 346.507812h181.324218c7.652344 0 13.917969-6.257812 13.917969-13.914062 0-7.652344-6.265625-13.917969-13.917969-13.917969h-181.324218c-7.652344 0-13.917969 6.265625-13.917969 13.917969 0 7.65625 6.265625 13.914062 13.917969 13.914062zm0 0"/><path d="m98.527344 276.929688h140.96875c7.652344 0 13.917968-6.261719 13.917968-13.917969 0-7.652344-6.265624-13.914063-13.917968-13.914063h-140.96875c-7.652344 0-13.917969 6.261719-13.917969 13.914063 0 7.65625 6.265625 13.917969 13.917969 13.917969zm0 0"/><path d="m234.066406 389.648438h-135.539062c-7.652344 0-13.917969 6.265624-13.917969 13.914062 0 7.65625 6.265625 13.917969 13.917969 13.917969h135.539062c7.65625 0 13.917969-6.261719 13.917969-13.917969 0-7.648438-6.261719-13.914062-13.917969-13.914062zm0 0"/></g><path d="m426.804688 286.8125c86.28125 12.101562 152.65625 86.136719 152.65625 175.753906 0 97.96875-79.457032 177.433594-177.425782 177.433594-67.351562 0-126.078125-37.574219-156-92.960938-13.636718-25.1875-21.429687-53.992187-21.429687-84.609374 0-97.96875 79.460937-177.429688 177.429687-177.429688 8.351563.140625 16.558594.699219 24.769532 1.8125zm0 0" fill="#fedb41"/><path d="m528.53125 430.839844-17.671875-1.671875c-2.089844-6.679688-4.875-13.078125-8.070313-19.203125l11.132813-13.359375c4.589844-5.566407 4.171875-13.496094-.835937-18.648438l-25.605469-25.882812c-5.011719-5.144531-13.21875-5.566407-18.789063-.972657l-13.496094 11.132813c-6.265624-3.339844-12.667968-5.984375-19.203124-8.070313l-1.671876-17.398437c-.699218-7.09375-6.679687-12.382813-13.914062-12.382813h-36.738281c-7.238281 0-13.222657 5.285157-13.917969 12.382813l-1.667969 17.535156c-6.6875 2.089844-13.082031 4.730469-19.207031 8.070313l-13.359375-11.132813c-5.566406-4.589843-13.636719-4.171875-18.644531.835938l-26.027344 25.742187c-5.148438 5.015625-5.421875 13.222656-.835938 18.789063l11.132813 13.5c-3.335937 6.261719-5.980469 12.664062-8.070313 19.199219l-17.53125 1.671874c-7.097656.699219-12.527343 6.683594-12.527343 13.921876v36.738281c0 7.234375 5.289062 13.214843 12.527343 13.914062l17.53125 1.671875c2.089844 6.679688 4.734376 13.078125 8.070313 19.203125l-11.132813 13.359375c-4.585937 5.566406-4.171874 13.636719.835938 18.785156l25.882812 25.882813c5.011719 5.007813 13.21875 5.429687 18.648438.835937l13.5-11.132812c6.261719 3.339844 12.664062 5.984375 19.207031 8.070312l1.667969 17.8125c.695312 7.097657 6.679688 12.800782 13.917969 12.800782h36.59375c7.238281 0 13.222656-5.703125 13.917969-12.800782l1.667968-17.671874c6.679688-2.089844 13.082032-4.871094 19.207032-8.070313l13.359374 11.132813c5.566407 4.589843 13.636719 4.175781 18.789063-.835938l25.882813-25.882812c5.007812-5.011719 5.425781-13.222657.835937-18.789063l-11.132813-13.496094c3.339844-6.265625 5.980469-12.667969 8.070313-19.203125l17.535156-1.671875c7.09375-.699219 12.800781-6.679687 12.800781-13.914062v-36.738281c.136719-7.378907-5.566406-13.359376-12.664062-14.058594zm-15.03125 37.851562-14.609375 1.390625c-5.984375.558594-11.132813 5.011719-12.386719 10.855469-2.085937 9.882812-6.261718 19.625-12.246094 28.808594-3.339843 5.144531-2.921874 11.6875.976563 16.421875l9.320313 11.269531-7.929688 7.933594-11.273438-9.320313c-4.730468-3.898437-11.546874-4.316406-16.558593-.835937-8.492188 5.703125-18.367188 9.878906-28.667969 12.105468-5.984375 1.253907-10.296875 6.398438-10.851562 12.523438l-1.394532 14.890625h-11.410156l-1.390625-14.890625c-.5625-5.980469-5.015625-11.132812-10.859375-12.382812-9.878906-2.089844-19.621094-6.265626-28.804688-12.246094-5.152343-3.339844-11.6875-2.925782-16.421874.972656l-11.269532 9.320312-7.933594-7.929687 9.328126-11.273437c3.890624-4.734376 4.308593-11.550782.828124-16.558594-5.703124-8.492188-9.878906-18.511719-12.105468-28.667969-1.25-5.984375-6.121094-10.296875-12.105469-10.855469l-14.46875-1.390625v-11.410156l14.46875-1.390625c5.984375-.558594 10.992187-5.011719 12.25-10.855469 2.082031-9.882812 6.257813-19.625 12.101563-28.808593 3.339843-5.148438 2.921874-11.691407-.96875-16.421876l-9.328126-11.269531 7.933594-7.933593 11.269532 9.324218c4.734374 3.898438 11.554687 4.3125 16.5625.835938 8.488281-5.707032 18.371093-9.882813 28.667968-12.109375 5.84375-1.25 10.296875-6.121094 10.855469-12.105469l1.390625-14.472656h11.410156l1.394532 14.472656c.554687 5.984375 5.007812 10.855469 10.851562 12.105469 9.878906 2.089843 19.621094 6.265625 28.804688 12.109375 5.152343 3.339844 11.691406 2.921875 16.421874-.976563l11.132813-9.183593 7.792969 7.792968-9.320313 11.273438c-3.898437 4.730468-4.316406 11.410156-.835937 16.558594 5.703125 8.492187 9.878906 18.511718 12.105468 28.667968 1.253907 5.984375 6.542969 10.296875 12.523438 10.851563l14.890625 1.394531v11.410156zm0 0" fill="#083863"/><path d="m401.757812 389.089844c-40.777343 0-73.898437 33.121094-73.898437 73.898437 0 40.769531 33.121094 73.890625 73.898437 73.890625 40.769532 0 73.890626-33.121094 73.890626-73.890625 0-40.636719-33.121094-73.898437-73.890626-73.898437zm0 119.957031c-25.328124 0-46.066406-20.59375-46.066406-46.058594 0-25.46875 20.597656-46.066406 46.066406-46.066406 25.328126 0 46.058594 20.597656 46.058594 46.066406 0 25.464844-20.59375 46.058594-46.058594 46.058594zm0 0" fill="#083863"/></svg>