<svg height="640pt" viewBox="0 -52 640 640" width="640pt" xmlns="http://www.w3.org/2000/svg"><path d="m253.089844 20.621094 68.394531 86.640625h-174.46875c-31.152344 0-56.371094 25.21875-56.371094 56.371093v371.777344h-34.273437c-31.152344 0-56.371094-25.21875-56.371094-56.378906v-422.660156c0-31.152344 25.21875-56.371094 56.371094-56.371094h153.105468c16.765626 0 32.785157 7.5625 43.613282 20.621094zm0 0" fill="#00efd1"/><path d="m640 160.816406v318.367188c0 31.152344-25.21875 56.371094-56.371094 56.371094h-507.816406v-374.738282c0-31.152344 25.21875-56.371094 56.371094-56.371094h451.445312c31.152344 0 56.371094 25.21875 56.371094 56.371094zm0 0" fill="#00acea"/><g fill="#083863"><path d="m487.640625 286.917969-18.691406-1.78125c-2.226563-7.125-5.046875-13.945313-8.605469-20.472657l11.867188-14.242187c4.898437-5.933594 4.449218-14.390625-.886719-19.878906l-27.300781-27.59375c-5.34375-5.488281-14.09375-5.933594-20.023438-1.039063l-14.394531 11.871094c-6.675781-3.5625-13.503907-6.382812-20.46875-8.605469l-1.785157-18.84375c-.742187-7.5625-7.117187-13.5-14.832031-13.5h-39.164062c-7.714844 0-14.097657 5.785157-14.839844 13.355469l-1.777344 18.691406c-7.125 2.226563-13.945312 5.191406-20.472656 8.601563l-14.242187-11.871094c-5.933594-4.890625-14.539063-4.445313-20.03125.894531l-27.59375 27.59375c-5.339844 5.339844-5.785157 14.089844-.886719 20.027344l11.871093 14.390625c-3.566406 6.675781-6.382812 13.5-8.609374 20.46875l-18.992188 1.78125c-7.5625.742187-13.644531 7.125-13.644531 14.835937v39.171876c0 7.5625 6.082031 14.089843 13.644531 14.832031l18.84375 1.78125c2.226562 7.121093 5.191406 13.941406 8.605469 20.46875l-11.871094 14.246093c-4.890625 5.929688-4.449219 14.539063.894531 20.027344l27.589844 27.59375c5.34375 5.339844 14.09375 5.785156 20.03125.886719l14.390625-11.863281c6.671875 3.558594 13.5 6.375 20.472656 8.601562l1.777344 18.839844c.742187 7.566406 7.125 13.351562 14.839844 13.351562h39.164062c7.714844 0 14.089844-5.785156 14.832031-13.5l1.785157-18.691406c7.117187-2.226562 13.945312-5.195312 20.46875-8.601562l14.242187 11.863281c5.933594 4.898437 14.542969 4.453125 20.027344-.886719l27.59375-27.59375c5.34375-5.339844 5.789062-14.097656.890625-19.882812l-11.867187-14.390625c3.5625-6.675781 6.378906-13.5 8.605468-20.46875l18.394532-1.78125c7.566406-.742188 13.351562-7.125 13.351562-14.832031v-39.171876c.148438-7.5625-5.640625-13.941406-13.203125-14.683593zm-16.316406 40.351562-15.136719 1.480469c-6.378906.59375-11.574219 5.34375-13.054688 11.570312-2.226562 10.539063-6.679687 20.921876-12.90625 30.714844-3.5625 5.488282-3.117187 12.460938 1.039063 17.503906l9.941406 12.015626-8.457031 8.460937-12.015625-9.945313c-5.046875-4.152343-12.171875-4.597656-17.65625-.886718-9.203125 6.082031-19.734375 10.53125-30.5625 12.90625-6.378906 1.335937-10.976563 6.675781-11.574219 13.054687l-1.480468 15.578125h-12.164063l-1.484375-15.578125c-.59375-6.378906-5.34375-11.71875-11.574219-13.054687-10.53125-2.226563-20.917969-6.675782-30.707031-13.058594-5.488281-3.558594-12.460938-3.113281-17.507812 1.039062l-12.015626 9.945313-8.457031-8.460937 9.941407-12.015626c4.152343-5.042968 4.59375-12.3125.890624-17.65625-6.085937-9.046874-10.53125-19.578124-12.90625-30.5625-1.335937-6.375-6.976562-10.976562-13.355468-11.570312l-15.871094-1.480469v-12.167969l15.871094-1.484374c6.378906-.589844 11.871094-5.339844 13.203125-11.570313 2.226562-10.53125 6.675781-20.917969 13.058593-30.710937 3.558594-5.484376 3.113282-12.460938-1.039062-17.503907l-9.9375-12.015625 8.453125-8.457031 12.019531 9.941406c5.042969 4.152344 12.308594 4.597657 17.652344.886719 9.046875-6.082031 19.730469-10.53125 30.5625-12.902344 6.375-1.339844 10.976562-6.679687 11.570312-13.058594l1.484376-15.574218h12.164062l1.484375 15.574218c.589844 6.378907 5.339844 11.71875 11.570313 13.058594 10.53125 2.222656 20.917968 6.675782 30.710937 13.050782 5.484375 3.5625 12.460937 3.117187 17.503906-1.035157l11.871094-9.792969 8.304687 8.453126-9.9375 12.019531c-4.15625 5.042969-4.601562 12.3125-.894531 17.65625 6.085938 9.046875 10.539063 19.582031 12.910157 30.558593 1.335937 6.378907 6.53125 10.976563 13.054687 11.574219l15.578125 1.484375v12.015625zm0 0"/><path d="m353.082031 242.414062c-43.46875 0-78.777343 35.304688-78.777343 78.773438 0 43.464844 35.308593 78.773438 78.777343 78.773438 43.472657 0 78.777344-35.308594 78.777344-78.773438 0-43.46875-35.457031-78.773438-78.777344-78.773438zm0 127.878907c-26.996093 0-49.101562-21.957031-49.101562-49.105469s21.953125-49.109375 49.101562-49.109375c27 0 49.105469 21.960937 49.105469 49.109375s-22.105469 49.105469-49.105469 49.105469zm0 0"/></g></svg>