<svg height="638pt" viewBox="0 -45 638.74973 638" width="638pt" xmlns="http://www.w3.org/2000/svg"><path d="m593.386719 141.355469v65.976562h-541.914063l-5.953125-146.320312c-1.53125-32.992188 24.890625-60.636719 58.039063-60.636719h125.09375c20.308594 0 39.253906 10.691406 49.789062 28.253906l15.886719 26.582032c10.535156 17.5625 29.324219 28.253906 49.789063 28.253906h191.078124c32.074219-.152344 58.191407 25.8125 58.191407 57.890625zm0 0" fill="#00efd1"/><path d="m608.207031 192.0625c18.480469 0 32.835938 16.34375 30.238281 34.671875l-37.417968 272.175781c-3.972656 28.71875-28.5625 50.105469-57.429688 50.105469h-447.832031c-29.019531 0-53.460937-21.386719-57.425781-50.105469l-38.035156-272.175781c-2.59375-18.328125 11.761718-34.824219 30.242187-34.824219h577.660156zm0 0" fill="#00acea"/><g fill="#083863"><path d="m458.214844 335.636719-19.398438-1.832031c-2.289062-7.335938-5.347656-14.355469-8.859375-21.078126l12.222657-14.664062c5.039062-6.109375 4.578124-14.8125-.917969-20.464844l-28.101563-28.414062c-5.5-5.652344-14.507812-6.105469-20.621094-1.066406l-14.816406 12.21875c-6.875-3.664063-13.902344-6.566407-21.078125-8.859376l-1.835937-19.398437c-.757813-7.785156-7.328125-13.898437-15.269532-13.898437h-40.324218c-7.941406 0-14.511719 5.957031-15.277344 13.75l-1.832031 19.242187c-7.328125 2.292969-14.355469 5.347656-21.078125 8.859375l-14.660156-12.21875c-6.109376-5.039062-14.96875-4.582031-20.621094.914062l-28.40625 28.410157c-5.5 5.5-5.960938 14.507812-.914063 20.621093l12.214844 14.8125c-3.664063 6.878907-6.570313 13.898438-8.859375 21.078126l-19.394531 1.832031c-7.792969.765625-13.898438 7.335937-13.898438 15.277343v40.324219c0 7.785157 6.105469 14.507813 13.898438 15.269531l19.394531 1.835938c2.289062 7.332031 5.347656 14.355469 8.859375 21.082031l-12.214844 14.65625c-5.046875 6.113281-4.585937 14.972657.914063 20.625l28.40625 28.40625c5.503906 5.5 14.511718 5.953125 20.621094.914063l14.816406-12.214844c6.871094 3.664062 13.898437 6.5625 21.078125 8.859375l1.984375 19.394531c.765625 7.789063 7.332031 13.75 15.273437 13.75h40.324219c7.945312 0 14.507812-5.957031 15.273438-13.902344l1.832031-19.242187c7.335937-2.296875 14.355469-5.347656 21.078125-8.859375l14.664062 12.214844c6.109375 5.039062 14.96875 4.582031 20.617188-.914063l28.410156-28.40625c5.5-5.503906 5.957031-14.511719.917969-20.46875l-12.21875-14.8125c3.667969-6.878906 6.566406-13.90625 8.855469-21.082031l19.09375-1.835938c7.792968-.761718 13.898437-7.328124 13.898437-15.269531v-40.324219c-.152344-7.792968-6.261719-14.355468-14.050781-15.121093zm-16.648438 41.546875-15.882812 1.523437c-6.570313.613281-12.066406 5.503907-13.441406 11.914063-2.289063 10.84375-6.875 21.535156-13.441407 31.621094-3.667969 5.644531-3.207031 12.824218 1.066407 18.019531l10.234374 12.375-8.707031 8.703125-12.367187-10.234375c-5.195313-4.273438-12.527344-4.734375-18.179688-.917969-9.46875 6.261719-20.316406 10.847656-31.460937 13.289062-6.570313 1.375-11.304688 6.878907-11.914063 13.441407l-1.53125 16.039062h-12.675781l-1.523437-16.039062c-.617188-6.5625-5.503907-12.066407-11.917969-13.441407-10.84375-2.289062-21.535157-6.871093-31.617188-13.4375-5.652343-3.667968-12.832031-3.207031-18.019531 1.066407l-12.375 10.234375-8.707031-8.703125 10.234375-12.375c4.277344-5.195313 4.734375-12.675781.914062-18.175781-6.261718-9.3125-10.84375-20.164063-13.285156-31.464844-1.375-6.566406-7.027344-11.300782-13.59375-11.914063l-16.191406-1.523437v-12.527344l16.191406-1.527344c6.566406-.609375 12.0625-5.5 13.4375-11.910156 2.292969-10.847656 6.878906-21.535156 13.441406-31.621094 3.667969-5.652344 3.210938-12.828125-1.066406-18.019531l-10.234375-12.375 8.707031-8.707031 12.371094 10.234375c5.195312 4.277343 12.679688 4.734375 18.175781.914062 9.316407-6.261719 20.316407-10.839843 31.46875-13.289062 6.5625-1.375 11.300781-6.871094 11.910157-13.4375l1.527343-16.039063h12.527344l1.523437 16.039063c.613282 6.566406 5.503907 12.0625 11.914063 13.4375 10.84375 2.296875 21.535156 6.878906 31.621094 13.445312 5.652343 3.664063 12.824219 3.207031 18.019531-1.070312l12.222656-10.078125 8.550782 8.703125-10.234376 12.375c-4.277343 5.195312-4.734374 12.675781-.914062 18.175781 6.261719 9.3125 10.84375 20.160156 13.289062 31.460938 1.375 6.570312 7.023438 11.300781 13.589844 11.917968l16.191406 1.523438v12.375zm0 0"/><path d="m319.375 289.8125c-44.75 0-81.105469 36.355469-81.105469 81.105469 0 44.753906 36.355469 81.101562 81.105469 81.101562 44.753906 0 81.101562-36.347656 81.101562-81.101562 0-44.75-36.347656-81.105469-81.101562-81.105469zm0 131.664062c-27.796875 0-50.554688-22.605468-50.554688-50.558593s22.601563-50.554688 50.554688-50.554688c27.949219 0 50.558594 22.601563 50.558594 50.554688s-22.757813 50.558593-50.558594 50.558593zm0 0"/></g></svg>