<svg height="640pt" viewBox="0 -52 640 640" width="640pt" xmlns="http://www.w3.org/2000/svg"><path d="m320.964844 59.28125-61.492188-59.28125h-211.214844l7.855469 219.214844h532.734375v-159.933594zm0 0" fill="#00efd1"/><path d="m536.460938 219.214844v.550781h-432.921876v-105.332031h432.921876zm0 0" fill="#fedb41"/><path d="m640 205.980469-58.042969 329.097656h-523.222656l-58.734375-329.097656zm0 0" fill="#00acea"/><g fill="#083863"><path d="m445.328125 338.75-17.511719-1.65625c-2.070312-6.617188-4.828125-12.957031-7.996094-19.023438l11.027344-13.238281c4.550782-5.511719 4.136719-13.507812-.824218-18.476562l-25.371094-25.777344c-4.960938-5.105469-13.09375-5.515625-18.613282-.964844l-13.375 11.03125c-6.199218-3.308593-12.542968-5.933593-19.023437-7.996093l-1.652344-17.375c-.691406-7.03125-6.617187-12.40625-13.789062-12.40625h-36.398438c-7.167969 0-13.09375 5.238281-13.789062 12.40625l-1.648438 17.375c-6.621093 2.0625-12.964843 4.6875-19.03125 7.996093l-13.234375-11.03125c-5.515625-4.550781-13.511718-4.136719-18.472656.824219l-25.644531 25.644531c-4.964844 5.105469-5.375 13.097657-.832031 18.613281l11.03125 13.375c-3.304688 6.203126-5.925782 12.542969-7.992188 19.023438l-17.511719 1.65625c-7.03125.6875-12.546875 6.617188-12.546875 13.789062v36.257813c0 7.03125 5.515625 13.097656 12.546875 13.785156l17.511719 1.65625c2.066406 6.621094 4.824219 12.957031 7.992188 19.027344l-11.03125 13.234375c-4.542969 5.515625-4.132813 13.515625.832031 18.613281l25.644531 25.644531c4.960938 4.964844 13.09375 5.375 18.472656.828126l13.371094-11.03125c6.207031 3.308593 12.550781 5.929687 19.03125 7.996093l1.652344 17.507813c.691406 7.03125 6.617187 12.550781 13.785156 12.550781h36.402344c7.167968 0 13.09375-5.515625 13.785156-12.550781l1.652344-17.507813c6.621094-2.066406 12.960937-4.824219 19.03125-7.996093l13.230468 11.03125c5.519532 4.546874 13.511719 4.136718 18.476563-.828126l25.644531-25.644531c4.960938-4.960937 5.375-13.097656.824219-18.472656l-11.027344-13.375c3.308594-6.207031 5.925781-12.546875 7.996094-19.027344l17.238281-1.65625c7.03125-.6875 12.542969-6.617187 12.542969-13.785156v-36.398437c.136719-7.03125-5.375-12.960938-12.40625-13.648438zm-15.03125 37.636719-14.339844 1.382812c-5.929687.550781-10.890625 4.960938-12.128906 10.75-2.070313 9.789063-6.207031 19.445313-12.132813 28.539063-3.3125 5.105468-2.898437 11.582031.960938 16.269531l9.238281 11.167969-7.855469 7.863281-11.167968-9.238281c-4.6875-3.863282-11.308594-4.273438-16.40625-.828125-8.414063 5.652343-18.339844 9.785156-28.402344 11.992187-5.929688 1.242188-10.203125 6.34375-10.757812 12.273438l-1.378907 14.613281h-11.4375l-1.382812-14.613281c-.550781-5.929688-4.960938-10.894532-10.753907-12.273438-9.789062-2.070312-19.4375-6.203125-28.539062-12.132812-5.101562-3.304688-11.582031-2.894532-16.269531.96875l-11.167969 9.238281-7.859375-7.863281 9.238281-11.167969c3.863282-4.6875 4.277344-11.445313.828125-16.40625-5.652343-8.40625-9.789062-18.195313-11.996093-28.402344-1.238282-5.925781-6.34375-10.199219-12.269532-10.75l-14.613281-1.382812v-11.304688l14.613281-1.375c5.925782-.554687 10.894532-4.96875 12.269532-10.757812 2.070312-9.785157 6.207031-19.4375 12.132812-28.539063 3.3125-5.097656 2.898438-11.578125-.964844-16.265625l-9.238281-11.171875 7.859375-7.855468 11.167969 9.238281c4.6875 3.855469 11.445312 4.269531 16.40625.824219 8.414062-5.65625 18.199219-9.789063 28.402343-11.996094 5.792969-1.242188 10.203126-6.066406 10.753907-11.992188l1.382812-14.339844h11.300781l1.378907 14.339844c.550781 5.925782 4.964843 10.890625 10.757812 12.132813 9.785157 2.066406 19.4375 6.199219 28.539063 11.992187 5.097656 3.308594 11.578125 2.894532 16.265625-.960937l11.027343-9.101563 7.726563 7.71875-9.238281 11.171875c-3.863282 4.6875-4.277344 11.441407-.832032 16.40625 5.65625 8.40625 9.792969 18.199219 12 28.398438 1.238282 5.925781 6.339844 10.203125 12.269532 10.757812l14.613281 1.375zm0 0"/><path d="m320 297.527344c-40.394531 0-73.207031 32.8125-73.207031 73.210937 0 40.394531 32.8125 73.207031 73.207031 73.207031s73.207031-32.8125 73.207031-73.207031c0-40.398437-32.8125-73.210937-73.207031-73.210937zm0 118.707031c-25.09375 0-45.636719-20.40625-45.636719-45.632813 0-25.234374 20.40625-45.640624 45.636719-45.640624s45.632812 20.40625 45.632812 45.640624c0 25.226563-20.539062 45.632813-45.632812 45.632813zm0 0"/></g></svg>