<svg height="638pt" viewBox="-57 0 638 638.75085" width="638pt" xmlns="http://www.w3.org/2000/svg"><path d="m317.5 238.539062-44.925781-121.921874h-214.023438c-32.199219 0-58.175781 26.507812-58.175781 58.707031v404.71875c0 32.203125 25.976562 58.707031 58.175781 58.707031h290.488281c32.203126 0 58.175782-26.503906 58.175782-58.707031v-321.496094zm0 0" fill="#00efd1"/><path d="m377.132812 180.230469-44.925781-121.921875h-214.019531c-32.203125 0-58.175781 26.507812-58.175781 58.707031v404.71875c0 32.203125 25.972656 58.707031 58.175781 58.707031h290.484375c32.203125 0 58.179687-26.503906 58.179687-58.707031v-321.496094zm0 0" fill="#fedb41"/><path d="m435.441406 121.917969-44.925781-121.917969h-214.019531c-32.203125 0-58.175782 26.503906-58.175782 58.707031v404.71875c0 32.203125 25.972657 58.707031 58.175782 58.707031h290.488281c32.199219 0 58.175781-26.503906 58.175781-58.707031v-321.496093zm0 0" fill="#00acea"/><path d="m390.515625.398438 134.777344 141.664062h-89.71875c-24.914063 0-45.058594-20.144531-45.058594-45.054688zm0 0" fill="#00efd1"/><g fill="#083863"><path d="m430.804688 424.066406h-218.128907c-7.292969 0-13.257812 5.960938-13.257812 13.253906 0 7.289063 5.964843 13.25 13.257812 13.25h218.257813c7.292968 0 13.25-5.960937 13.25-13.25 0-7.292968-5.957032-13.253906-13.378906-13.253906zm0 0"/><path d="m261.441406 306.789062 70.765625 32.464844c-.398437 2.519532-.664062 5.171875-.664062 7.820313 0 25.839843 21.074219 46.910156 46.917969 46.910156 25.835937 0 46.910156-21.070313 46.910156-46.910156 0-25.84375-21.074219-46.914063-46.910156-46.914063-13.652344 0-25.976563 5.832032-34.59375 15.238282l-68.25-31.269532c1.0625-3.980468 1.726562-8.21875 1.726562-12.457031 0-2.921875-.261719-5.703125-.792969-8.355469l69.4375-33.257812c8.484375 8.085937 19.878907 13.117187 32.472657 13.117187 25.835937 0 46.910156-21.070312 46.910156-46.910156 0-25.84375-21.070313-46.914063-46.910156-46.914063-25.84375 0-46.917969 21.070313-46.917969 46.914063 0 3.710937.402343 7.285156 1.195312 10.601563l-68.25 32.734374c-8.613281-9.148437-20.671875-14.847656-34.191406-14.847656-25.839844 0-46.910156 21.074219-46.910156 46.917969 0 25.835937 21.070312 46.910156 46.910156 46.910156 12.0625 0 22.929687-4.507812 31.144531-11.792969zm117.148438 19.875c11.261718 0 20.410156 9.144532 20.410156 20.40625 0 11.265626-9.148438 20.410157-20.410156 20.410157-11.265625 0-20.410156-9.144531-20.410156-20.410157 0-11.261718 9.144531-20.40625 20.410156-20.40625zm0-150.808593c11.261718 0 20.410156 9.144531 20.410156 20.40625 0 11.265625-9.148438 20.410156-20.410156 20.410156-11.265625 0-20.410156-9.144531-20.410156-20.410156 0-11.261719 9.144531-20.40625 20.410156-20.40625zm-168.433594 95.808593c0-11.261718 9.140625-20.402343 20.410156-20.402343 11.261719 0 20.40625 9.140625 20.40625 20.402343 0 11.269532-9.144531 20.410157-20.40625 20.410157-11.269531 0-20.410156-9.140625-20.410156-20.410157zm0 0"/></g></svg>