<svg height="640pt" viewBox="-30 0 640 640" width="640pt" xmlns="http://www.w3.org/2000/svg"><path d="m300.585938 101.449219-15.308594-101.449219h-224.601563c-33.820312 0-60.675781 27.554688-60.675781 61.371094v424.71875c0 33.816406 26.855469 60.8125 60.675781 60.8125h213.054688l153.492187-232.402344v-165.734375zm0 0" fill="#00acea"/><path d="m285.277344.140625 141.527344 148.625h-94.210938c-26.164062 0-47.316406-21.152344-47.316406-47.316406zm0 0" fill="#00efd1"/><g fill="#083863"><path d="m98.527344 346.507812h181.324218c7.652344 0 13.917969-6.257812 13.917969-13.914062 0-7.652344-6.265625-13.917969-13.917969-13.917969h-181.324218c-7.652344 0-13.917969 6.265625-13.917969 13.917969 0 7.65625 6.265625 13.914062 13.917969 13.914062zm0 0"/><path d="m98.527344 276.929688h140.96875c7.652344 0 13.917968-6.261719 13.917968-13.917969 0-7.652344-6.265624-13.914063-13.917968-13.914063h-140.96875c-7.652344 0-13.917969 6.261719-13.917969 13.914063 0 7.65625 6.265625 13.917969 13.917969 13.917969zm0 0"/><path d="m234.066406 389.648438h-135.539062c-7.652344 0-13.917969 6.265624-13.917969 13.914062 0 7.65625 6.265625 13.917969 13.917969 13.917969h135.539062c7.65625 0 13.917969-6.261719 13.917969-13.917969 0-7.648438-6.261719-13.914062-13.917969-13.914062zm0 0"/></g><path d="m426.804688 286.8125c86.28125 12.101562 152.65625 86.136719 152.65625 175.753906 0 97.96875-79.457032 177.433594-177.425782 177.433594-67.351562 0-126.078125-37.574219-156-92.960938-13.636718-25.1875-21.429687-53.992187-21.429687-84.609374 0-97.96875 79.460937-177.429688 177.429687-177.429688 8.351563.140625 16.558594.699219 24.769532 1.8125zm0 0" fill="#fedb41"/><path d="m461.453125 433.066406c27.140625 0 49.265625-22.125 49.265625-49.261718 0-27.136719-22.125-49.265626-49.265625-49.265626-27.132813 0-49.261719 22.128907-49.261719 49.265626 0 3.894531.421875 7.65625 1.253906 11.132812l-71.667968 34.375c-9.042969-9.605469-21.710938-15.585938-35.902344-15.585938-27.132812 0-49.261719 22.121094-49.261719 49.261719 0 27.132813 22.121094 49.261719 49.261719 49.261719 12.523438 0 23.933594-4.730469 32.5625-12.386719l74.3125 34.097657c-.417969 2.640624-.695312 5.421874-.695312 8.207031 0 27.136719 22.125 49.261719 49.261718 49.261719 27.136719 0 49.265625-22.125 49.265625-49.261719 0-27.132813-22.125-49.261719-49.265625-49.261719-14.335937 0-27.273437 6.121094-36.320312 16.003906l-71.53125-32.839844c1.113281-4.175781 1.8125-8.628906 1.8125-13.082031 0-3.0625-.277344-5.988281-.835938-8.769531l72.921875-34.925781c8.765625 8.484375 20.875 13.773437 34.089844 13.773437zm0 87.8125c11.832031 0 21.433594 9.597656 21.433594 21.429688 0 11.828125-9.601563 21.429687-21.433594 21.429687-11.824219 0-21.429687-9.601562-21.429687-21.429687 0-11.832032 9.605468-21.429688 21.429687-21.429688zm-155.4375-36.460937c-11.832031 0-21.429687-9.605469-21.429687-21.429688 0-11.832031 9.597656-21.429687 21.429687-21.429687 11.824219 0 21.429687 9.597656 21.429687 21.429687-.140624 11.824219-9.605468 21.429688-21.429687 21.429688zm155.4375-122.046875c11.832031 0 21.433594 9.605468 21.433594 21.433594 0 11.828124-9.601563 21.429687-21.433594 21.429687-11.824219 0-21.429687-9.601563-21.429687-21.429687 0-11.828126 9.605468-21.433594 21.429687-21.433594zm0 0" fill="#083863"/></svg>