<svg height="640pt" viewBox="0 -52 640 640" width="640pt" xmlns="http://www.w3.org/2000/svg"><path d="m253.089844 20.621094 68.394531 86.640625h-174.46875c-31.152344 0-56.371094 25.21875-56.371094 56.371093v371.777344h-34.273437c-31.152344 0-56.371094-25.21875-56.371094-56.378906v-422.660156c0-31.152344 25.21875-56.371094 56.371094-56.371094h153.105468c16.765626 0 32.785157 7.5625 43.613282 20.621094zm0 0" fill="#00efd1"/><path d="m640 160.816406v318.367188c0 31.152344-25.21875 56.371094-56.371094 56.371094h-507.816406v-374.738282c0-31.152344 25.21875-56.371094 56.371094-56.371094h451.445312c31.152344 0 56.371094 25.21875 56.371094 56.371094zm0 0" fill="#00acea"/><path d="m416.578125 289.292969c28.929687 0 52.519531-23.589844 52.519531-52.519531 0-28.929688-23.589844-52.519532-52.519531-52.519532s-52.515625 23.589844-52.515625 52.519532c0 4.15625.445312 8.15625 1.332031 11.867187l-76.402343 36.640625c-9.640626-10.234375-23.140626-16.613281-38.273438-16.613281-28.929688 0-52.519531 23.589843-52.519531 52.519531s23.589843 52.515625 52.519531 52.515625c13.351562 0 25.515625-5.046875 34.714844-13.203125l79.21875 36.34375c-.441406 2.820312-.742188 5.789062-.742188 8.757812 0 28.929688 23.589844 52.515626 52.519532 52.515626 28.929687 0 52.515624-23.585938 52.515624-52.515626 0-28.929687-23.589843-52.519531-52.515624-52.519531-15.28125 0-29.078126 6.527344-38.71875 17.058594l-76.402344-35.007813c1.1875-4.453124 1.929687-9.199218 1.929687-13.945312 0-3.261719-.300781-6.378906-.894531-9.347656l77.738281-37.234375c9.644531 9.046875 22.402344 14.6875 36.496094 14.6875zm0 93.460937c12.609375 0 22.84375 10.234375 22.84375 22.847656 0 12.605469-10.234375 22.84375-22.84375 22.84375s-22.847656-10.238281-22.847656-22.84375c0-12.613281 10.238281-22.847656 22.847656-22.847656zm-165.710937-38.722656c-12.609376 0-22.84375-10.234375-22.84375-22.84375s10.234374-22.847656 22.84375-22.847656c12.609374 0 22.847656 10.238281 22.847656 22.847656s-10.238282 22.84375-22.847656 22.84375zm165.710937-130.105469c12.609375 0 22.84375 10.238281 22.84375 22.847657 0 12.609374-10.234375 22.84375-22.84375 22.84375s-22.847656-10.234376-22.847656-22.84375c0-12.609376 10.238281-22.847657 22.847656-22.847657zm0 0" fill="#083863"/></svg>