<svg height="638pt" viewBox="0 -45 638.74973 638" width="638pt" xmlns="http://www.w3.org/2000/svg"><path d="m593.386719 141.355469v65.976562h-541.914063l-5.953125-146.320312c-1.53125-32.992188 24.890625-60.636719 58.039063-60.636719h125.09375c20.308594 0 39.253906 10.691406 49.789062 28.253906l15.886719 26.582032c10.535156 17.5625 29.324219 28.253906 49.789063 28.253906h191.078124c32.074219-.152344 58.191407 25.8125 58.191407 57.890625zm0 0" fill="#00efd1"/><path d="m608.207031 192.0625c18.480469 0 32.835938 16.34375 30.238281 34.671875l-37.417968 272.175781c-3.972656 28.71875-28.5625 50.105469-57.429688 50.105469h-447.832031c-29.019531 0-53.460937-21.386719-57.425781-50.105469l-38.035156-272.175781c-2.59375-18.328125 11.761718-34.824219 30.242187-34.824219h577.660156zm0 0" fill="#00acea"/><path d="m384.902344 338.078125c29.78125 0 54.070312-24.28125 54.070312-54.070313 0-29.777343-24.285156-54.066406-54.070312-54.066406s-54.070313 24.28125-54.070313 54.066406c0 4.28125.460938 8.402344 1.375 12.222657l-78.660156 37.726562c-9.929687-10.535156-23.828125-17.105469-39.410156-17.105469-29.777344 0-54.066407 24.28125-54.066407 54.066407 0 29.789062 24.289063 54.070312 54.066407 54.070312 13.75 0 26.273437-5.195312 35.746093-13.589843l81.714844 37.414062c-.460937 2.90625-.765625 5.957031-.765625 9.015625 0 29.78125 24.285157 54.066406 54.070313 54.066406 29.78125 0 54.070312-24.285156 54.070312-54.066406 0-29.785156-24.285156-54.066406-54.070312-54.066406-15.734375 0-29.9375 6.71875-39.867188 17.5625l-78.660156-36.046875c1.222656-4.582032 1.988281-9.46875 1.988281-14.359375 0-3.355469-.308593-6.566407-.917969-9.617188l80.035157-38.339843c9.621093 9.3125 22.757812 15.117187 37.421875 15.117187zm0 96.226563c12.984375 0 23.519531 10.539062 23.519531 23.523437s-10.535156 23.519531-23.519531 23.519531c-12.980469 0-23.523438-10.535156-23.523438-23.519531s10.535156-23.523437 23.523438-23.523437zm-170.765625-39.863282c-12.980469 0-23.523438-10.539062-23.523438-23.523437 0-12.980469 10.542969-23.519531 23.523438-23.519531 12.984375 0 23.523437 10.539062 23.523437 23.519531 0 12.984375-10.539062 23.523437-23.523437 23.523437zm170.765625-133.953125c12.984375 0 23.519531 10.539063 23.519531 23.519531 0 12.984376-10.535156 23.523438-23.519531 23.523438-12.980469 0-23.523438-10.539062-23.523438-23.523438 0-12.980468 10.535156-23.519531 23.523438-23.519531zm0 0" fill="#083863"/></svg>