<svg height="640pt" viewBox="0 -52 640 640" width="640pt" xmlns="http://www.w3.org/2000/svg"><path d="m320.964844 59.28125-61.492188-59.28125h-211.214844l7.855469 219.214844h532.734375v-159.933594zm0 0" fill="#00efd1"/><path d="m536.460938 219.214844v.550781h-432.921876v-105.332031h432.921876zm0 0" fill="#fedb41"/><path d="m640 205.980469-58.042969 329.097656h-523.222656l-58.734375-329.097656zm0 0" fill="#00acea"/><path d="m379.144531 340.957031c26.886719 0 48.808594-21.925781 48.808594-48.808593 0-26.882813-21.921875-48.804688-48.808594-48.804688-26.882812 0-48.804687 21.921875-48.804687 48.804688 0 3.863281.410156 7.582031 1.242187 11.03125l-71.007812 34.050781c-8.957031-9.511719-21.507813-15.4375-35.570313-15.4375-26.882812 0-48.804687 21.917969-48.804687 48.808593 0 26.882813 21.921875 48.800782 48.804687 48.800782 12.414063 0 23.714844-4.6875 32.265625-12.269532l73.625 33.78125c-.417969 2.617188-.695312 5.375-.695312 8.132813 0 26.886719 21.925781 48.808594 48.808593 48.808594 26.886719 0 48.808594-21.921875 48.808594-48.808594 0-26.882813-21.921875-48.808594-48.808594-48.808594-14.199218 0-27.019531 6.070313-35.984374 15.859375l-71.003907-32.539062c1.105469-4.136719 1.792969-8.550782 1.792969-12.957032 0-3.035156-.277344-5.929687-.828125-8.6875l72.246094-34.605468c8.820312 8.410156 20.683593 13.648437 33.914062 13.648437zm0 86.996094c11.71875 0 21.234375 9.511719 21.234375 21.230469s-9.515625 21.234375-21.234375 21.234375-21.230469-9.515625-21.230469-21.234375 9.511719-21.230469 21.230469-21.230469zm-154.140625-36.121094c-11.71875 0-21.230468-9.511719-21.230468-21.230469s9.511718-21.238281 21.230468-21.238281 21.234375 9.519531 21.234375 21.238281-9.515625 21.230469-21.234375 21.230469zm154.140625-120.914062c11.71875 0 21.234375 9.511719 21.234375 21.230469s-9.515625 21.234374-21.234375 21.234374-21.230469-9.515624-21.230469-21.234374 9.511719-21.230469 21.230469-21.230469zm0 0" fill="#083863"/></svg>