<svg height="638pt" viewBox="-57 0 638 638.75085" width="638pt" xmlns="http://www.w3.org/2000/svg"><path d="m317.5 238.539062-44.925781-121.921874h-214.023438c-32.199219 0-58.175781 26.507812-58.175781 58.707031v404.71875c0 32.203125 25.976562 58.707031 58.175781 58.707031h290.488281c32.203126 0 58.175782-26.503906 58.175782-58.707031v-321.496094zm0 0" fill="#00efd1"/><path d="m377.132812 180.230469-44.925781-121.921875h-214.019531c-32.203125 0-58.175781 26.507812-58.175781 58.707031v404.71875c0 32.203125 25.972656 58.707031 58.175781 58.707031h290.484375c32.203125 0 58.179687-26.503906 58.179687-58.707031v-321.496094zm0 0" fill="#fedb41"/><path d="m435.441406 121.917969-44.925781-121.917969h-214.019531c-32.203125 0-58.175782 26.503906-58.175782 58.707031v404.71875c0 32.203125 25.972657 58.707031 58.175782 58.707031h290.488281c32.199219 0 58.175781-26.503906 58.175781-58.707031v-321.496093zm0 0" fill="#00acea"/><path d="m390.515625.398438 134.777344 141.664062h-89.71875c-24.914063 0-45.058594-20.144531-45.058594-45.054688zm0 0" fill="#00efd1"/><g fill="#083863"><path d="m430.804688 424.066406h-218.128907c-7.292969 0-13.257812 5.960938-13.257812 13.253906 0 7.289063 5.964843 13.25 13.257812 13.25h218.257813c7.292968 0 13.25-5.960937 13.25-13.25 0-7.292968-5.957032-13.253906-13.378906-13.253906zm0 0"/><path d="m250.707031 361.78125 63.609375 43.335938c2.253906 1.585937 4.902344 2.25 7.421875 2.25s5.167969-.792969 7.421875-2.25l63.210938-43.335938c21.074218-14.3125 37.238281-45.589844 37.238281-71.03125v-94.75c0-5.039062-2.515625-9.675781-7.152344-11.929688l-95.152343-46.78125c-3.707032-1.855468-7.953126-1.855468-11.53125 0l-95.019532 46.648438c-4.5 2.257812-7.019531 6.890625-7.019531 11.929688v94.882812c0 7.289062 1.0625 15.238281 3.574219 23.324219 6.234375 19.484375 18.820312 37.765625 33.398437 47.707031zm152.53125-100.320312-163.398437 32.867187c-.132813-1.328125.398437-2.515625.398437-3.710937v-29.550782l163-32.863281zm-25.710937 78.457031-55.917969 38.296875-56.058594-38.296875c-6.359375-4.371094-12.855469-11.664063-17.628906-20.144531l155.316406-31.273438v2.117188c0 16.832031-11.796875 39.757812-25.710937 49.300781zm-55.523438-175.992188 77.789063 38.167969-159.554688 31.9375v-29.949219zm0 0"/></g></svg>