<svg height="640pt" viewBox="-30 0 640 640" width="640pt" xmlns="http://www.w3.org/2000/svg"><path d="m300.585938 101.449219-15.308594-101.449219h-224.601563c-33.820312 0-60.675781 27.554688-60.675781 61.371094v424.71875c0 33.816406 26.855469 60.8125 60.675781 60.8125h213.054688l153.492187-232.402344v-165.734375zm0 0" fill="#00acea"/><path d="m285.277344.140625 141.527344 148.625h-94.210938c-26.164062 0-47.316406-21.152344-47.316406-47.316406zm0 0" fill="#00efd1"/><g fill="#083863"><path d="m98.527344 346.507812h181.324218c7.652344 0 13.917969-6.257812 13.917969-13.914062 0-7.652344-6.265625-13.917969-13.917969-13.917969h-181.324218c-7.652344 0-13.917969 6.265625-13.917969 13.917969 0 7.65625 6.265625 13.914062 13.917969 13.914062zm0 0"/><path d="m98.527344 276.929688h140.96875c7.652344 0 13.917968-6.261719 13.917968-13.917969 0-7.652344-6.265624-13.914063-13.917968-13.914063h-140.96875c-7.652344 0-13.917969 6.261719-13.917969 13.914063 0 7.65625 6.265625 13.917969 13.917969 13.917969zm0 0"/><path d="m247.984375 403.5625c0-7.648438-6.261719-13.914062-13.917969-13.914062h-135.539062c-7.652344 0-13.917969 6.265624-13.917969 13.914062 0 7.65625 6.265625 13.917969 13.917969 13.917969h135.539062c7.65625 0 13.917969-6.261719 13.917969-13.917969zm0 0"/></g><path d="m426.804688 286.8125c86.28125 12.101562 152.65625 86.136719 152.65625 175.753906 0 97.96875-79.457032 177.433594-177.425782 177.433594-67.351562 0-126.078125-37.574219-156-92.960938-13.636718-25.1875-21.429687-53.992187-21.429687-84.609374 0-97.96875 79.460937-177.429688 177.429687-177.429688 8.351563.140625 16.558594.699219 24.769532 1.8125zm0 0" fill="#fedb41"/><path d="m508.355469 371-100.195313-49.121094c-3.898437-1.949218-8.492187-1.949218-12.246094 0l-100.058593 48.984375c-4.730469 2.363281-7.652344 7.238281-7.652344 12.523438v99.640625c0 26.71875 17.113281 59.558594 39.242187 74.589844l66.65625 45.503906c2.367188 1.667968 5.007813 2.367187 7.792969 2.367187 2.78125 0 5.429688-.835937 7.792969-2.367187l66.9375-45.503906c22.125-15.03125 39.660156-47.871094 39.660156-74.589844v-99.503906c0-5.285157-3.199218-10.15625-7.929687-12.523438zm-19.902344 81.410156-172.28125 34.511719c-.136719-1.253906-.277344-2.644531-.277344-3.894531v-31.035156l172.558594-34.511719zm-86.558594-102.5625 81.6875 40.078125-167.6875 33.675781v-31.449218zm59.003907 184.804688-59.003907 40.21875-59.003906-40.21875c-6.816406-4.589844-13.082031-12.382813-17.949219-21.152344l163.511719-32.699219v2.226563c0 17.535156-12.941406 41.746094-27.554687 51.625zm0 0" fill="#083863"/></svg>