<svg height="640pt" viewBox="0 -52 640 640" width="640pt" xmlns="http://www.w3.org/2000/svg"><path d="m253.089844 20.621094 68.394531 86.640625h-174.46875c-31.152344 0-56.371094 25.21875-56.371094 56.371093v371.777344h-34.273437c-31.152344 0-56.371094-25.21875-56.371094-56.378906v-422.660156c0-31.152344 25.21875-56.371094 56.371094-56.371094h153.105468c16.765626 0 32.785157 7.5625 43.613282 20.621094zm0 0" fill="#00efd1"/><path d="m640 160.816406v318.367188c0 31.152344-25.21875 56.371094-56.371094 56.371094h-507.816406v-374.738282c0-31.152344 25.21875-56.371094 56.371094-56.371094h451.445312c31.152344 0 56.371094 25.21875 56.371094 56.371094zm0 0" fill="#00acea"/><path d="m466.128906 223.125-106.667968-52.367188c-4.152344-2.082031-8.898438-2.082031-13.054688 0l-106.960938 52.21875c-5.046874 2.523438-8.460937 7.710938-8.460937 13.351563v106.21875c0 8.3125 1.632813 17.0625 4.601563 26.117187 6.972656 21.953126 21.515624 42.425782 37.832031 53.554688l71.210937 48.507812c2.519532 1.78125 5.488282 2.523438 8.453125 2.523438 2.96875 0 5.785157-.890625 8.308594-2.523438l71.0625-48.507812c23.585937-16.023438 41.835937-51.039062 41.835937-79.519531v-106.074219c0-5.785156-3.117187-10.980469-8.160156-13.5zm-21.511718 86.640625-183.660157 36.789063c-.152343-1.480469-.296875-2.820313-.296875-4.152344v-33.085938l183.957032-36.792968zm-91.828126-109.1875 86.785157 42.722656-178.914063 35.753907v-33.527344zm62.898438 197.007813-62.753906 42.878906-62.753906-42.878906c-7.117188-4.890626-14.242188-13.050782-19.433594-22.546876l173.871094-35.007812v2.371094c0 18.839844-13.5 44.507812-28.929688 55.183594zm0 0" fill="#083863"/></svg>