<svg height="638pt" viewBox="0 -45 638.74973 638" width="638pt" xmlns="http://www.w3.org/2000/svg"><path d="m593.386719 141.355469v65.976562h-541.914063l-5.953125-146.320312c-1.53125-32.992188 24.890625-60.636719 58.039063-60.636719h125.09375c20.308594 0 39.253906 10.691406 49.789062 28.253906l15.886719 26.582032c10.535156 17.5625 29.324219 28.253906 49.789063 28.253906h191.078124c32.074219-.152344 58.191407 25.8125 58.191407 57.890625zm0 0" fill="#00efd1"/><path d="m608.207031 192.0625c18.480469 0 32.835938 16.34375 30.238281 34.671875l-37.417968 272.175781c-3.972656 28.71875-28.5625 50.105469-57.429688 50.105469h-447.832031c-29.019531 0-53.460937-21.386719-57.425781-50.105469l-38.035156-272.175781c-2.59375-18.328125 11.761718-34.824219 30.242187-34.824219h577.660156zm0 0" fill="#00acea"/><path d="m436.066406 269.960938-109.96875-53.917969c-4.28125-2.140625-9.164062-2.140625-13.441406 0l-109.96875 53.761719c-5.195312 2.597656-8.558594 7.941406-8.558594 13.746093v109.363281c0 8.402344 1.53125 17.5625 4.585938 26.878907 7.179687 22.609375 22.144531 43.683593 38.796875 55.140625l73.3125 49.949218c2.59375 1.832032 5.648437 2.589844 8.550781 2.589844s5.957031-.914062 8.554688-2.589844l73.3125-49.949218c24.289062-16.496094 43.378906-52.542969 43.378906-81.871094v-109.203125c0-5.957031-3.359375-11.300781-8.554688-13.898437zm-21.992187 89.195312-189.089844 37.878906c-.152344-1.523437-.304687-2.898437-.304687-4.273437v-34.0625l189.394531-37.875zm-94.699219-112.414062 89.503906 43.988281-184.199218 36.8125v-34.519531zm64.761719 202.835937-64.761719 43.992187-64.757812-44.140624c-7.335938-5.039063-14.515626-13.441407-19.859376-23.21875l179.316407-35.890626v2.441407c0 19.394531-14.054688 45.820312-29.9375 56.816406zm0 0" fill="#083863"/></svg>