<svg height="640pt" viewBox="0 -52 640 640" width="640pt" xmlns="http://www.w3.org/2000/svg"><path d="m320.964844 59.28125-61.492188-59.28125h-211.214844l7.855469 219.214844h532.734375v-159.933594zm0 0" fill="#00efd1"/><path d="m536.460938 219.214844v.550781h-432.921876v-105.332031h432.921876zm0 0" fill="#fedb41"/><path d="m640 205.980469-58.042969 329.097656h-523.222656l-58.734375-329.097656zm0 0" fill="#00acea"/><path d="m425.332031 279.605469-99.269531-48.671875c-3.855469-1.929688-8.269531-1.929688-12.128906 0l-99.265625 48.527344c-4.6875 2.34375-7.726563 7.175781-7.726563 12.414062v98.574219c0 7.582031 1.382813 15.859375 4.136719 24.265625 6.484375 20.40625 19.996094 39.433594 35.019531 49.773437l66.183594 45.082031c2.34375 1.65625 5.101562 2.34375 7.71875 2.34375s5.375-.824218 7.71875-2.34375l66.183594-45.082031c21.917968-14.890625 39.152344-47.429687 39.152344-73.898437v-98.578125c0-5.375-3.035157-10.0625-7.722657-12.40625zm-19.855469 80.515625-170.683593 34.191406c-.136719-1.378906-.273438-2.617188-.273438-3.859375v-30.746094l170.957031-34.195312zm-85.476562-101.609375 80.789062 39.707031-166.269531 33.363281v-31.164062zm58.457031 183.089843-58.457031 39.84375-58.320312-39.84375c-6.617188-4.550781-13.097657-12.132812-17.925782-20.957031l161.722656-32.398437v2.207031c0 17.367187-12.679687 41.359375-27.019531 51.148437zm0 0" fill="#083863"/></svg>