<svg height="640pt" viewBox="-70 0 640 640" width="640pt" xmlns="http://www.w3.org/2000/svg"><path d="m334.457031 0h-262.332031c-39.472656 0-72.125 32.484375-72.125 71.957031v496.085938c0 39.472656 32.652344 71.957031 72.125 71.957031h356.058594c39.472656 0 72.117187-32.484375 72.117187-71.957031v-394.074219zm0 0" fill="#00acea"/><path d="m335.269531.488281 165.199219 173.640625h-109.972656c-30.535156 0-55.226563-24.6875-55.226563-55.222656zm0 0" fill="#00efd1"/><g fill="#083863"><path d="m383.835938 511.675781h-267.371094c-8.929688 0-16.238282 7.308594-16.238282 16.242188 0 8.9375 7.308594 16.246093 16.238282 16.246093h267.535156c8.933594 0 16.242188-7.308593 16.242188-16.246093 0-8.933594-7.308594-16.242188-16.40625-16.242188zm0 0"/><path d="m163.085938 443.453125 77.96875 53.113281c2.765624 1.949219 6.011718 2.765625 9.097656 2.765625 3.25 0 6.335937-.976562 9.097656-2.765625l77.964844-53.113281c25.832031-17.546875 46.132812-55.878906 46.132812-87.066406v-116.144531c0-6.171876-3.574218-11.859376-9.09375-14.617188l-116.953125-57.34375c-4.546875-2.269531-9.746093-2.269531-14.292969 0l-116.957031 57.183594c-5.523437 2.757812-9.097656 8.441406-9.097656 14.617187v116.304688c0 8.929687 1.625 18.675781 4.875 28.589843 7.636719 23.875 23.390625 46.292969 41.257813 58.476563zm187.777343-122.964844-201.097656 40.28125c-.160156-1.625-.320313-3.085937-.320313-4.542969v-36.226562l201.417969-40.285156zm-31.839843 96.160157-68.871094 46.785156-68.871094-46.945313c-7.800781-5.359375-15.429688-14.296875-21.121094-24.691406l190.703125-38.167969v2.597656c0 20.625-14.945312 48.730469-31.839843 60.421876zm-68.871094-215.714844 95.1875 46.78125-195.894532 39.148437v-36.710937zm0 0"/></g></svg>