<svg height="638pt" viewBox="-57 0 638 638.75085" width="638pt" xmlns="http://www.w3.org/2000/svg"><path d="m317.5 238.539062-44.925781-121.921874h-214.023438c-32.199219 0-58.175781 26.507812-58.175781 58.707031v404.71875c0 32.203125 25.976562 58.707031 58.175781 58.707031h290.488281c32.203126 0 58.175782-26.503906 58.175782-58.707031v-321.496094zm0 0" fill="#00efd1"/><path d="m377.132812 180.230469-44.925781-121.921875h-214.019531c-32.203125 0-58.175781 26.507812-58.175781 58.707031v404.71875c0 32.203125 25.972656 58.707031 58.175781 58.707031h290.484375c32.203125 0 58.179687-26.503906 58.179687-58.707031v-321.496094zm0 0" fill="#fedb41"/><path d="m435.441406 121.917969-44.925781-121.917969h-214.019531c-32.203125 0-58.175782 26.503906-58.175782 58.707031v404.71875c0 32.203125 25.972657 58.707031 58.175782 58.707031h290.488281c32.199219 0 58.175781-26.503906 58.175781-58.707031v-321.496093zm0 0" fill="#00acea"/><path d="m390.515625.398438 134.777344 141.664062h-89.71875c-24.914063 0-45.058594-20.144531-45.058594-45.054688zm0 0" fill="#00efd1"/><g fill="#083863"><path d="m430.804688 424.066406h-218.128907c-7.292969 0-13.257812 5.960938-13.257812 13.253906 0 7.289063 5.964843 13.25 13.257812 13.25h218.257813c7.292968 0 13.25-5.960937 13.25-13.25 0-7.292968-5.957032-13.253906-13.378906-13.253906zm0 0"/><path d="m373.289062 199.179688c-7.289062 0-13.25 5.960937-13.25 13.25 0 7.292968 5.960938 13.253906 13.25 13.253906 25.3125 0 45.984376 20.675781 45.984376 45.980468 0 12.328126-4.769532 23.988282-13.519532 32.734376-8.742187 8.75-20.273437 13.652343-32.597656 13.652343h-33.796875l18.820313-22.128906c4.773437-5.566406 4.109374-14.050781-1.457032-18.820313-5.5625-4.773437-13.910156-4.109374-18.683594 1.324219l-37.636718 43.863281s0 0-.136719.132813c-.128906.136719-.261719.265625-.394531.398437-.128906.132813-.265625.398438-.398438.53125-.132812.132813-.261718.261719-.261718.53125-.132813.132813-.269532.394532-.402344.53125-.128906.132813-.128906.394532-.261719.527344-.136719.136719-.136719.398438-.269531.53125-.128906.128906-.128906.398438-.261719.53125-.132813.265625-.132813.398438-.269531.660156 0 .132813-.128906.402344-.128906.53125 0 .265626-.132813.402344-.132813.664063 0 .132813-.132813.398437-.132813.53125 0 .261719-.128906.53125-.128906.792969v.53125c0 .394531-.136718.796875-.136718 1.058594l-.132813.136718c0 .394532.132813.792969.132813 1.1875 0 .132813.136718.269532.136718.53125 0 .265625.128906.53125.128906.796875 0 .132813.132813.398438.132813.53125 0 .261719.132813.398438.132813.660157 0 .132812.128906.402343.128906.53125.136718.265624.136718.402343.269531.664062.132813.132812.132813.398438.261719.53125.132812.132812.132812.394531.269531.53125.132813.132812.132813.394531.261719.527344.132812.136718.269531.398437.402344.53125.128906.132812.261718.265625.261718.53125.132813.128906.269532.398437.398438.53125.132812.128906.265625.261718.394531.398437 0 0 0 .132813.136719.132813l37.636718 43.59375c2.648438 3.050781 6.359376 4.640625 10.070313 4.640625 3.050781 0 6.09375-1.058594 8.613281-3.175781 5.566406-4.773438 6.097656-12.988282 1.328125-18.554688l-18.421875-21.46875h33.792969c19.351563 0 37.636719-7.6875 51.285156-21.46875 13.648438-13.648438 21.203125-31.941406 21.203125-51.417969-.132812-39.898437-32.601562-72.496093-72.621094-72.496093zm0 0"/><path d="m270.191406 344.15625c7.285156 0 13.25-5.964844 13.25-13.25 0-7.292969-5.964844-13.257812-13.25-13.257812-25.3125 0-45.992187-20.671876-45.992187-45.984376 0-12.324218 4.773437-23.984374 13.519531-32.726562 8.746094-8.746094 20.277344-13.652344 32.601562-13.652344h33.792969l-18.816406 22.132813c-4.769531 5.5625-4.109375 14.042969 1.457031 18.820312 2.515625 2.117188 5.566406 3.175781 8.609375 3.175781 3.714844 0 7.421875-1.589843 10.074219-4.640624l37.636719-43.863282s0 0 .132812-.132812c.128907-.128906.265625-.261719.398438-.398438.132812-.132812.261719-.394531.394531-.527344.136719-.132812.269531-.265624.269531-.53125.128907-.128906.261719-.398437.394531-.53125.136719-.128906.136719-.398437.265626-.53125.132812-.128906.132812-.398437.265624-.53125.136719-.128906.136719-.394531.265626-.527343.132812-.265625.132812-.398438.265624-.664063 0-.132812.128907-.394531.128907-.527344 0-.269531.136719-.398437.136719-.664062 0-.132812.132812-.398438.132812-.53125 0-.265625.132812-.53125.132812-.792969 0-.136719 0-.269531 0-.53125 0-.398437.128907-.792969.128907-1.0625l.132812-.132812c0-.398438-.132812-.792969-.132812-1.191407 0-.132812-.128907-.265624-.128907-.53125 0-.265624-.132812-.527343-.132812-.796874 0-.128907-.132812-.394532-.132812-.523438 0-.269531-.136719-.402344-.136719-.664062 0-.136719-.128907-.398438-.128907-.53125-.132812-.269532-.132812-.398438-.265624-.664063-.128907-.136719-.128907-.398437-.265626-.53125-.132812-.128906-.132812-.398437-.265624-.53125-.128907-.128906-.128907-.398437-.265626-.53125-.132812-.128906-.265624-.398437-.394531-.53125-.132812-.128906-.269531-.261719-.269531-.527344-.132812-.132812-.261719-.398437-.394531-.527343-.132813-.136719-.269531-.269532-.398438-.402344 0 0 0-.128906-.132812-.128906l-37.636719-43.601563c-4.769531-5.566406-13.117188-6.097656-18.683594-1.324219-5.566406 4.769532-6.097656 12.984375-1.324218 18.550782l18.417968 21.472656h-33.792968c-19.347657 0-37.636719 7.683594-51.28125 21.464844-13.652344 13.652343-21.207032 31.9375-21.207032 51.417968.132813 39.898438 32.597656 72.496094 72.625 72.496094zm0 0"/></g></svg>