<svg height="640pt" viewBox="0 -52 640 640" width="640pt" xmlns="http://www.w3.org/2000/svg"><path d="m253.089844 20.621094 68.394531 86.640625h-174.46875c-31.152344 0-56.371094 25.21875-56.371094 56.371093v371.777344h-34.273437c-31.152344 0-56.371094-25.21875-56.371094-56.378906v-422.660156c0-31.152344 25.21875-56.371094 56.371094-56.371094h153.105468c16.765626 0 32.785157 7.5625 43.613282 20.621094zm0 0" fill="#00efd1"/><path d="m640 160.816406v318.367188c0 31.152344-25.21875 56.371094-56.371094 56.371094h-507.816406v-374.738282c0-31.152344 25.21875-56.371094 56.371094-56.371094h451.445312c31.152344 0 56.371094 25.21875 56.371094 56.371094zm0 0" fill="#00acea"/><g fill="#083863"><path d="m410.789062 240.039062c-8.15625 0-14.832031 6.675782-14.832031 14.835938 0 8.15625 6.675781 14.832031 14.832031 14.832031 28.335938 0 51.480469 23.144531 51.480469 51.480469 0 13.796875-5.339843 26.851562-15.128906 36.644531-9.792969 9.789063-22.695313 15.277344-36.496094 15.277344h-37.832031l21.070312-24.773437c5.335938-6.230469 4.59375-15.722657-1.636718-21.066407-6.230469-5.339843-15.574219-4.597656-20.917969 1.480469l-42.128906 49.105469s0 0-.152344.152343c-.144531.148438-.296875.296876-.445313.445313-.144531.144531-.296874.445313-.441406.59375-.152344.148437-.300781.292969-.300781.59375-.144531.148437-.296875.441406-.441406.59375-.152344.148437-.152344.445313-.300781.589844-.144532.152343-.144532.449219-.296876.597656-.144531.144531-.144531.445313-.296874.59375-.148438.292969-.148438.445313-.292969.742187 0 .148438-.152344.445313-.152344.59375 0 .296876-.144531.441407-.144531.742188 0 .148438-.152344.441406-.152344.59375 0 .296875-.148438.589844-.148438.890625v1.78125l.148438.144531v1.929688c0 .296875 0 .597656.152344.886718 0 .152344.144531.445313.144531.597657 0 .296875.152344.445312.152344.742187 0 .144532.144531.445313.144531.589844.148438.296875.148438.449219.300781.742188.144531.152343.144531.449218.296875.597656.144532.144531.144532.441406.292969.59375.152344.148437.152344.445312.296875.589844.152344.152343.296875.445312.445312.597656.152344.144531.296876.296875.296876.589844.152343.152343.296874.449218.445312.597656.152344.144531.296875.296875.449219.441406 0 0 0 .152344.144531.152344l42.136719 48.808594c2.964843 3.414062 7.117187 5.191406 11.273437 5.191406 3.414063 0 6.824219-1.1875 9.644532-3.558594 6.230468-5.34375 6.820312-14.542969 1.484374-20.773438l-20.917968-24.03125h37.824218c21.664063 0 42.136719-8.605468 57.417969-24.035156 15.277344-15.277344 23.738281-35.75 23.738281-57.558594 0-44.664062-36.496093-81.15625-81.15625-81.15625zm0 0"/><path d="m334.6875 313.625 42.132812-49.109375s0-.148437.148438-.148437c.144531-.148438.296875-.296876.445312-.445313.148438-.148437.296876-.445313.445313-.59375s.296875-.296875.296875-.59375c.148438-.152344.296875-.445313.445312-.59375.148438-.148437.148438-.445313.296876-.59375.148437-.148437.148437-.449219.296874-.59375.148438-.148437.148438-.445313.296876-.597656.148437-.292969.148437-.441407.296874-.742188 0-.144531.148438-.441406.148438-.589843 0-.296876.148438-.445313.148438-.742188 0-.152344.148437-.445312.148437-.59375 0-.300781.148437-.59375.148437-.890625 0-.148437 0-.296875 0-.59375 0-.445313.296876-.890625.296876-1.1875l.296874-.148437c0-.445313-.296874-.886719-.296874-1.332032 0-.152344-.148438-.296875-.148438-.597656 0-.296875-.148438-.59375-.148438-.886719 0-.152343-.148437-.445312-.148437-.597656 0-.296875-.148437-.441406-.148437-.742187 0-.144532-.148438-.441407-.148438-.589844-.148438-.296875-.148438-.449219-.296875-.742188-.148437-.152344-.148437-.449218-.296875-.59375-.148438-.148437-.148438-.445312-.296875-.597656-.148437-.144531-.148437-.445312-.296875-.589844-.148438-.152344-.296875-.445312-.445312-.597656-.148438-.144531-.296876-.296875-.296876-.589844-.148437-.152344-.296874-.449218-.445312-.59375-.148438-.148437-.296875-.300781-.449219-.445312 0 0 0-.152344-.144531-.152344l-42.132812-48.808594c-5.34375-6.230468-14.6875-6.820312-20.921876-1.480468-6.226562 5.339843-6.820312 14.539062-1.476562 20.769531l20.917969 24.03125h-37.832031c-21.660157 0-42.132813 8.605469-57.414063 24.035156-15.28125 15.28125-23.738281 35.75-23.738281 57.5625 0 44.800781 36.347656 81.148437 81.152344 81.148437 8.15625 0 14.832031-6.675781 14.832031-14.835937 0-8.15625-6.675781-14.835937-14.832031-14.835937-28.335938 0-51.480469-23.140626-51.480469-51.476563 0-13.796875 5.339843-26.855469 15.132812-36.644531 9.792969-9.792969 22.699219-15.277344 36.492188-15.277344h37.832031l-21.0625 24.773438c-5.34375 6.230468-4.601562 15.722656 1.628906 21.0625 2.816406 2.375 6.230469 3.5625 9.644532 3.5625 3.851562.007812 8.007812-1.773438 10.976562-5.179688zm0 0"/></g></svg>