<svg height="638pt" viewBox="0 -45 638.74973 638" width="638pt" xmlns="http://www.w3.org/2000/svg"><path d="m593.386719 141.355469v65.976562h-541.914063l-5.953125-146.320312c-1.53125-32.992188 24.890625-60.636719 58.039063-60.636719h125.09375c20.308594 0 39.253906 10.691406 49.789062 28.253906l15.886719 26.582032c10.535156 17.5625 29.324219 28.253906 49.789063 28.253906h191.078124c32.074219-.152344 58.191407 25.8125 58.191407 57.890625zm0 0" fill="#00efd1"/><path d="m608.207031 192.0625c18.480469 0 32.835938 16.34375 30.238281 34.671875l-37.417968 272.175781c-3.972656 28.71875-28.5625 50.105469-57.429688 50.105469h-447.832031c-29.019531 0-53.460937-21.386719-57.425781-50.105469l-38.035156-272.175781c-2.59375-18.328125 11.761718-34.824219 30.242187-34.824219h577.660156zm0 0" fill="#00acea"/><g fill="#083863"><path d="m378.792969 287.371094c-8.402344 0-15.273438 6.871094-15.273438 15.273437 0 8.402344 6.871094 15.273438 15.273438 15.273438 29.171875 0 53 23.832031 53 53 0 14.207031-5.5 27.648437-15.578125 37.726562-10.082032 10.082031-23.375 15.734375-37.574219 15.734375h-38.953125l21.691406-25.511718c5.496094-6.414063 4.734375-16.1875-1.679687-21.683594-6.414063-5.503906-16.039063-4.738282-21.535157 1.523437l-43.226562 50.5625s0 0-.152344.148438c-.15625.152343-.304687.308593-.457031.457031-.15625.152344-.308594.460938-.457031.609375-.15625.15625-.308594.308594-.308594.617187-.15625.148438-.304688.457032-.457031.609376-.15625.152343-.15625.457031-.308594.613281-.148437.148437-.148437.457031-.304687.609375-.152344.15625-.152344.457031-.304688.613281-.15625.300781-.15625.457031-.304688.757813 0 .15625-.15625.464843-.15625.617187 0 .304687-.152343.457031-.152343.765625 0 .148438-.152344.457031-.152344.609375 0 .304687-.152344.613281-.152344.914063v.613281c0 .460937.152344.914062.152344 1.21875l.304687.15625c0 .457031-.304687.917969-.152343 1.375 0 .152343-.152344.300781 0 .609375v.914062c0 .152344 0 .460938.152343.609375 0 .308594.15625.464844.15625.765625 0 .15625.148438.457032.148438.613282.15625.304687.15625.460937.308594.765624.152344.152344.152344.457032.308594.609376.148437.152343.148437.457031.300781.609374.15625.15625.15625.457032.308593.613282.148438.152344.304688.460937.457032.609375.15625.15625.304687.308593.304687.613281.152344.152344.308594.460938.460938.609375.148437.15625.304687.308594.457031.460937 0 0 0 .15625.152344.15625l43.378906 50.246094c3.050781 3.515625 7.332031 5.347656 11.609375 5.347656 3.507813 0 7.023437-1.21875 9.925781-3.664062 6.414063-5.5 7.027344-14.972656 1.527344-21.386719l-21.535156-24.742187h38.945312c22.300782 0 43.378906-8.859375 59.113282-24.746094 15.730468-15.730469 24.4375-36.808594 24.4375-59.257812-.152344-45.984376-37.574219-83.558594-83.699219-83.558594zm0 0"/><path d="m300.433594 363.128906 43.382812-50.558594s0-.148437.152344-.148437c.148438-.15625.304688-.308594.457031-.460937.152344-.152344.308594-.457032.457031-.613282.152344-.148437.308594-.300781.308594-.609375.148438-.15625.304688-.457031.457032-.613281.152343-.152344.152343-.457031.308593-.609375.148438-.148437.148438-.457031.300781-.609375.15625-.15625.15625-.460938.308594-.613281.148438-.308594.148438-.457031.304688-.765625 0-.148438.152344-.457032.152344-.609375 0-.304688.15625-.457031.15625-.765625 0-.148438.148437-.457032.148437-.609375 0-.304688.152344-.613281.152344-.914063 0-.15625 0-.308594 0-.613281 0-.460937-.152344-.917969-.152344-1.222656l-.304687-.152344c0-.457031.304687-.917969.15625-1.375 0-.152344.148437-.308594 0-.609375 0-.304688 0-.613281 0-.914062 0-.15625 0-.460938-.15625-.617188 0-.300781-.152344-.457031-.152344-.761719 0-.152343-.15625-.460937-.15625-.609375-.148438-.308594-.148438-.460937-.300782-.765625-.15625-.152343-.15625-.460937-.308593-.609375-.148438-.15625-.148438-.457031-.304688-.613281-.152343-.152344-.152343-.460937-.304687-.609375-.15625-.15625-.304688-.460938-.460938-.617188-.152344-.148437-.300781-.300781-.300781-.605468-.15625-.152344-.308594-.460938-.460937-.609375-.15625-.15625-.304688-.308594-.457032-.464844 0 0 0-.152344-.15625-.152344l-43.375-50.25c-5.5-6.414062-15.125-7.023437-21.535156-1.527343-6.417969 5.496093-7.027344 14.972656-1.53125 21.382812l21.539062 24.742188h-38.953124c-22.300782 0-43.375 8.859374-59.105469 24.746093-15.734375 15.730469-24.441407 36.808594-24.441407 59.261719 0 46.128906 37.421876 83.546875 83.554688 83.546875 8.394531 0 15.269531-6.871094 15.269531-15.273437 0-8.402344-6.875-15.273438-15.269531-15.273438-29.179688 0-53.003906-23.824219-53.003906-53 0-14.203125 5.496094-27.644531 15.582031-37.726562 10.074219-10.082032 23.367187-15.730469 37.570313-15.730469h38.949218l-21.6875 25.507812c-5.5 6.414063-4.738281 16.1875 1.675782 21.6875 2.90625 2.445313 6.417968 3.667969 9.933593 3.667969 4.273438.003906 8.550781-1.828125 11.601563-5.339844zm0 0"/></g></svg>