<svg height="640pt" viewBox="-70 0 640 640" width="640pt" xmlns="http://www.w3.org/2000/svg"><path d="m334.457031 0h-262.332031c-39.472656 0-72.125 32.484375-72.125 71.957031v496.085938c0 39.472656 32.652344 71.957031 72.125 71.957031h356.058594c39.472656 0 72.117187-32.484375 72.117187-71.957031v-394.074219zm0 0" fill="#00acea"/><path d="m335.269531.488281 165.199219 173.640625h-109.972656c-30.535156 0-55.226563-24.6875-55.226563-55.222656zm0 0" fill="#00efd1"/><g fill="#083863"><path d="m383.835938 511.675781h-267.371094c-8.929688 0-16.238282 7.308594-16.238282 16.242188 0 8.9375 7.308594 16.246093 16.238282 16.246093h267.535156c8.933594 0 16.242188-7.308593 16.242188-16.246093 0-8.933594-7.308594-16.242188-16.40625-16.242188zm0 0"/><path d="m313.339844 244.140625c-8.9375 0-16.246094 7.308594-16.246094 16.246094 0 8.933593 7.308594 16.242187 16.246094 16.242187 31.023437 0 56.367187 25.34375 56.367187 56.363282 0 15.109374-5.851562 29.40625-16.574219 40.121093-10.714843 10.722657-24.847656 16.734375-39.953124 16.734375h-41.421876l23.066407-27.128906c5.84375-6.820312 5.035156-17.214844-1.789063-23.066406-6.820312-5.84375-17.054687-5.035156-22.902344 1.625l-45.96875 53.765625s0 0-.164062.167969c-.164062.160156-.324219.320312-.488281.488281-.160157.160156-.324219.480469-.484375.648437-.167969.160156-.328125.320313-.328125.648438-.160157.160156-.324219.488281-.488281.648437-.160157.164063-.160157.488281-.320313.652344-.167969.160156-.167969.488281-.328125.648437-.160156.164063-.160156.488282-.328125.648438-.160156.328125-.160156.488281-.320313.816406 0 .160156-.164062.488282-.164062.648438 0 .328125-.164062.488281-.164062.816406 0 .160156-.160157.484375-.160157.648438 0 .324218-.160156.648437-.160156.972656v.648437c0 .488281.160156.976563.160156 1.300781l.324219.164063c0 .488281-.324219.972656-.164062 1.460937 0 .160157-.160157.328126 0 .648438v.976562c0 .160157 0 .488282.164062.648438 0 .324219.164062.488281.164062.8125 0 .164062.160157.488281.160157.648438.160156.328124.160156.488281.328125.816406.160156.160156.160156.488281.320312.648437.167969.160157.167969.488281.328125.648438.160157.164062.160157.488281.324219.652343.164062.164063.324219.488282.484375.648438.167969.164062.328125.328125.328125.652344.164062.164062.324219.484375.488281.652344.160157.160156.324219.320312.488281.488281 0 0 0 .160156.164063.160156l46.132813 53.441406c3.246093 3.734375 7.796874 5.683594 12.339843 5.683594 3.738281 0 7.472657-1.296875 10.558594-3.894531 6.824219-5.851563 7.476563-15.917969 1.625-22.746094l-22.90625-26.3125h41.425781c23.71875 0 46.128906-9.417969 62.863282-26.3125 16.734374-16.734375 25.992187-39.148438 25.992187-63.027344-.167969-48.902344-39.960937-88.863281-89.019531-88.863281zm0 0"/><path d="m186.964844 421.851562c8.933594 0 16.242187-7.316406 16.242187-16.246093 0-8.9375-7.308593-16.246094-16.242187-16.246094-31.027344 0-56.363282-25.339844-56.363282-56.367187 0-15.101563 5.84375-29.398438 16.566407-40.117188 10.722656-10.722656 24.855469-16.734375 39.960937-16.734375h41.421875l-23.066406 27.128906c-5.851563 6.824219-5.035156 17.21875 1.785156 23.066407 3.085938 2.597656 6.824219 3.898437 10.558594 3.898437 4.546875 0 9.09375-1.949219 12.34375-5.683594l46.132813-53.769531s0 0 .164062-.160156c.164062-.164063.324219-.328125.484375-.488282.164063-.164062.328125-.488281.488281-.652343.167969-.160157.328125-.324219.328125-.648438.160157-.164062.320313-.488281.488281-.648437.160157-.167969.160157-.488282.320313-.65625.167969-.160156.167969-.480469.328125-.648438.160156-.160156.160156-.488281.320312-.648437.167969-.324219.167969-.488281.328126-.8125 0-.164063.164062-.488281.164062-.648438 0-.328125.164062-.488281.164062-.816406 0-.160156.160157-.488281.160157-.648437 0-.328126.160156-.648438.160156-.976563 0-.160156 0-.320313 0-.648437 0-.488282-.160156-.972657-.160156-1.300782l-.324219-.160156c0-.488281.324219-.976562.164062-1.460938 0-.164062.160157-.324218 0-.652343 0-.324219 0-.648438 0-.972657 0-.160156 0-.488281-.164062-.648437 0-.328125-.164062-.488281-.164062-.816406 0-.160157-.160157-.488281-.160157-.648438-.167969-.324219-.167969-.488281-.328125-.8125-.160156-.164062-.160156-.488281-.320312-.648437-.167969-.164063-.167969-.488282-.328125-.652344-.160157-.164062-.160157-.484375-.328125-.652344-.160156-.160156-.320313-.488281-.480469-.648437-.167969-.160157-.328125-.320313-.328125-.648438-.164062-.160156-.328125-.488281-.488281-.648437-.160157-.164063-.324219-.328125-.488281-.488282 0 0 0-.164062-.164063-.164062l-46.132813-53.441406c-5.847656-6.820313-16.078124-7.476563-22.902343-1.625-6.820313 5.847656-7.472657 15.917968-1.621094 22.738281l22.898437 26.320313h-41.417968c-23.71875 0-46.132813 9.417968-62.863282 26.3125-16.734374 16.734374-25.992187 39.144531-25.992187 63.023437 0 48.90625 39.800781 88.867187 88.855469 88.867187zm0 0"/></g></svg>