<svg height="640pt" viewBox="0 -52 640 640" width="640pt" xmlns="http://www.w3.org/2000/svg"><path d="m253.089844 20.621094 68.394531 86.640625h-174.46875c-31.152344 0-56.371094 25.21875-56.371094 56.371093v371.777344h-34.273437c-31.152344 0-56.371094-25.21875-56.371094-56.378906v-422.660156c0-31.152344 25.21875-56.371094 56.371094-56.371094h153.105468c16.765626 0 32.785157 7.5625 43.613282 20.621094zm0 0" fill="#00efd1"/><path d="m640 160.816406v318.367188c0 31.152344-25.21875 56.371094-56.371094 56.371094h-507.816406v-374.738282c0-31.152344 25.21875-56.371094 56.371094-56.371094h451.445312c31.152344 0 56.371094 25.21875 56.371094 56.371094zm0 0" fill="#00acea"/><path d="m447.734375 214.371094h-189.300781c-8.160156 0-15.578125 6.082031-15.578125 14.386718v33.234376c0 8.160156 6.675781 14.835937 14.835937 14.835937s14.839844-6.675781 14.839844-14.835937v-17.949219h65.273438v154.285156h-27.449219c-8.160157 0-14.832031 6.675781-14.832031 14.835937 0 8.160157 6.671874 14.839844 14.832031 14.839844h85.304687c8.164063 0 14.839844-6.679687 14.839844-14.839844 0-8.160156-6.675781-14.835937-14.839844-14.835937h-28.183594v-154.285156h65.273438v17.949219c0 8.160156 6.671875 14.839843 14.835938 14.839843 8.160156 0 14.835937-6.679687 14.835937-14.839843v-33.226563c0-8.3125-6.527344-14.394531-14.6875-14.394531zm0 0" fill="#083863"/></svg>