<svg height="638pt" viewBox="0 -45 638.74973 638" width="638pt" xmlns="http://www.w3.org/2000/svg"><path d="m593.386719 141.355469v65.976562h-541.914063l-5.953125-146.320312c-1.53125-32.992188 24.890625-60.636719 58.039063-60.636719h125.09375c20.308594 0 39.253906 10.691406 49.789062 28.253906l15.886719 26.582032c10.535156 17.5625 29.324219 28.253906 49.789063 28.253906h191.078124c32.074219-.152344 58.191407 25.8125 58.191407 57.890625zm0 0" fill="#00efd1"/><path d="m608.207031 192.0625c18.480469 0 32.835938 16.34375 30.238281 34.671875l-37.417968 272.175781c-3.972656 28.71875-28.5625 50.105469-57.429688 50.105469h-447.832031c-29.019531 0-53.460937-21.386719-57.425781-50.105469l-38.035156-272.175781c-2.59375-18.328125 11.761718-34.824219 30.242187-34.824219h577.660156zm0 0" fill="#00acea"/><path d="m416.824219 260.949219h-194.894531c-8.402344 0-15.578126 6.261719-15.578126 14.816406v34.207031c0 8.402344 6.871094 15.273438 15.273438 15.273438 8.398438 0 15.269531-6.871094 15.269531-15.273438v-18.476562h67.210938v158.847656h-28.5625c-8.402344 0-15.277344 6.871094-15.277344 15.273438 0 8.402343 6.875 15.273437 15.277344 15.273437h87.820312c8.402344 0 15.277344-6.871094 15.277344-15.273437 0-8.402344-6.875-15.273438-15.277344-15.273438h-28.714843v-158.847656h67.207031v18.476562c0 8.402344 6.871093 15.28125 15.273437 15.28125s15.273438-6.878906 15.273438-15.28125v-34.207031c0-8.554687-7.179688-14.816406-15.578125-14.816406zm0 0" fill="#083863"/></svg>