<svg height="640pt" viewBox="0 -52 640 640" width="640pt" xmlns="http://www.w3.org/2000/svg"><path d="m320.964844 59.28125-61.492188-59.28125h-211.214844l7.855469 219.214844h532.734375v-159.933594zm0 0" fill="#00efd1"/><path d="m536.460938 219.214844v.550781h-432.921876v-105.332031h432.921876zm0 0" fill="#fedb41"/><path d="m640 205.980469-58.042969 329.097656h-523.222656l-58.734375-329.097656zm0 0" fill="#00acea"/><path d="m407.964844 271.605469h-175.929688c-7.582031 0-14.0625 5.511719-14.0625 13.097656v30.882813c0 7.582031 6.207032 13.789062 13.789063 13.789062s13.789062-6.207031 13.789062-13.789062v-16.40625h60.664063v143.386718h-25.785156c-7.582032 0-13.785157 6.203125-13.785157 13.785156 0 7.582032 6.203125 13.789063 13.785157 13.789063h79.277343c7.582031 0 13.789063-6.207031 13.789063-13.789063 0-7.582031-6.207032-13.785156-13.789063-13.785156h-25.917969v-143.386718h60.664063v16.40625c0 7.582031 6.199219 13.789062 13.785156 13.789062 7.582031 0 13.789063-6.207031 13.789063-13.789062v-30.882813c0-7.585937-6.480469-13.097656-14.0625-13.097656zm0 0" fill="#083863"/></svg>