<svg height="640pt" viewBox="0 -52 640 640" width="640pt" xmlns="http://www.w3.org/2000/svg"><path d="m253.089844 20.621094 68.394531 86.640625h-174.46875c-31.152344 0-56.371094 25.21875-56.371094 56.371093v371.777344h-34.273437c-31.152344 0-56.371094-25.21875-56.371094-56.378906v-422.660156c0-31.152344 25.21875-56.371094 56.371094-56.371094h153.105468c16.765626 0 32.785157 7.5625 43.613282 20.621094zm0 0" fill="#00efd1"/><path d="m640 160.816406v318.367188c0 31.152344-25.21875 56.371094-56.371094 56.371094h-507.816406v-374.738282c0-31.152344 25.21875-56.371094 56.371094-56.371094h451.445312c31.152344 0 56.371094 25.21875 56.371094 56.371094zm0 0" fill="#00acea"/><path d="m434.082031 253.832031-112.152343 102.660157-54.894532-59.636719c-5.488281-6.078125-14.980468-6.378907-20.917968-.886719-6.078126 5.484375-6.375 14.984375-.886719 20.914062l64.980469 70.46875c2.96875 3.117188 6.972656 4.75 10.976562 4.75 3.558594 0 7.125-1.335937 10.085938-3.859374l122.988281-112.75c6.082031-5.488282 6.378906-14.984376.890625-20.917969-5.640625-5.785157-15.132813-6.230469-21.070313-.742188zm0 0" fill="#083863"/></svg>