<svg height="638pt" viewBox="0 -45 638.74973 638" width="638pt" xmlns="http://www.w3.org/2000/svg"><path d="m593.386719 141.355469v65.976562h-541.914063l-5.953125-146.320312c-1.53125-32.992188 24.890625-60.636719 58.039063-60.636719h125.09375c20.308594 0 39.253906 10.691406 49.789062 28.253906l15.886719 26.582032c10.535156 17.5625 29.324219 28.253906 49.789063 28.253906h191.078124c32.074219-.152344 58.191407 25.8125 58.191407 57.890625zm0 0" fill="#00efd1"/><path d="m608.207031 192.0625c18.480469 0 32.835938 16.34375 30.238281 34.671875l-37.417968 272.175781c-3.972656 28.71875-28.5625 50.105469-57.429688 50.105469h-447.832031c-29.019531 0-53.460937-21.386719-57.425781-50.105469l-38.035156-272.175781c-2.59375-18.328125 11.761718-34.824219 30.242187-34.824219h577.660156zm0 0" fill="#00acea"/><path d="m402.773438 301.578125-115.472657 105.847656-56.515625-61.402343c-5.648437-6.261719-15.421875-6.570313-21.535156-.917969-6.261719 5.652343-6.5625 15.429687-.914062 21.535156l66.898437 72.554687c3.054687 3.207032 7.179687 4.886719 11.300781 4.886719 3.671875 0 7.335938-1.375 10.390625-3.972656l126.617188-116.082031c6.261719-5.652344 6.570312-15.425782.917969-21.535156-5.804688-6.109376-15.425782-6.566407-21.6875-.914063zm0 0" fill="#083863"/></svg>