<svg height="640pt" viewBox="0 -52 640 640" width="640pt" xmlns="http://www.w3.org/2000/svg"><path d="m320.964844 59.28125-61.492188-59.28125h-211.214844l7.855469 219.214844h532.734375v-159.933594zm0 0" fill="#00efd1"/><path d="m536.460938 219.214844v.550781h-432.921876v-105.332031h432.921876zm0 0" fill="#fedb41"/><path d="m640 205.980469-58.042969 329.097656h-523.222656l-58.734375-329.097656zm0 0" fill="#00acea"/><path d="m395.277344 308.144531-104.234375 95.40625-51.007813-55.425781c-5.105468-5.65625-13.925781-5.929688-19.441406-.824219-5.652344 5.101563-5.925781 13.925781-.828125 19.4375l60.390625 65.488281c2.757812 2.894532 6.480469 4.414063 10.199219 4.414063 3.3125 0 6.621093-1.242187 9.375-3.589844l114.296875-104.78125c5.65625-5.101562 6.070312-13.925781.824218-19.4375-5.238281-5.375-13.917968-5.789062-19.574218-.6875zm0 0" fill="#083863"/></svg>