<svg height="638pt" viewBox="-57 0 638 638.75085" width="638pt" xmlns="http://www.w3.org/2000/svg"><path d="m317.5 238.539062-44.925781-121.921874h-214.023438c-32.199219 0-58.175781 26.507812-58.175781 58.707031v404.71875c0 32.203125 25.976562 58.707031 58.175781 58.707031h290.488281c32.203126 0 58.175782-26.503906 58.175782-58.707031v-321.496094zm0 0" fill="#00efd1"/><path d="m377.132812 180.230469-44.925781-121.921875h-214.019531c-32.203125 0-58.175781 26.507812-58.175781 58.707031v404.71875c0 32.203125 25.972656 58.707031 58.175781 58.707031h290.484375c32.203125 0 58.179687-26.503906 58.179687-58.707031v-321.496094zm0 0" fill="#fedb41"/><path d="m435.441406 121.917969-44.925781-121.917969h-214.019531c-32.203125 0-58.175782 26.503906-58.175782 58.707031v404.71875c0 32.203125 25.972657 58.707031 58.175782 58.707031h290.488281c32.199219 0 58.175781-26.503906 58.175781-58.707031v-321.496093zm0 0" fill="#00acea"/><path d="m390.515625.398438 134.777344 141.664062h-89.71875c-24.914063 0-45.058594-20.144531-45.058594-45.054688zm0 0" fill="#00efd1"/><g fill="#083863"><path d="m430.804688 424.066406h-218.128907c-7.292969 0-13.257812 5.960938-13.257812 13.253906 0 7.289063 5.964843 13.25 13.257812 13.25h218.257813c7.292968 0 13.25-5.960937 13.25-13.25 0-7.292968-5.957032-13.253906-13.378906-13.253906zm0 0"/><path d="m245.539062 348.132812v30.878907h-4.90625c-7.285156 0-13.25 5.964843-13.25 13.25 0 7.289062 5.964844 13.253906 13.25 13.253906h162.207032c7.289062 0 13.25-5.964844 13.25-13.253906 0-7.285157-5.960938-13.25-13.25-13.25h-4.902344v-30.878907c0-20.410156-7.820312-39.625-22.265625-54.070312-3.445313-3.445312-7.023437-6.488281-11-9.140625 14.976563-10.207031 26.105469-25.582031 30.878906-44.132813 1.59375-6.226562 2.253907-12.585937 2.253907-19.082031v-30.878906h4.902343c7.289063 0 13.253907-5.960937 13.253907-13.25 0-7.292969-5.964844-13.25-13.253907-13.25h-162.070312c-7.289063 0-13.253907 5.957031-13.253907 13.25 0 7.289063 5.964844 13.25 13.253907 13.25h4.902343v30.878906c0 6.363281.664063 12.589844 2.121094 18.6875 3.3125 13.382813 10.203125 25.574219 20.011719 35.378907 3.445313 3.445312 7.289063 6.496093 11.128906 9.148437-20.140625 13.78125-33.261719 36.972656-33.261719 63.210937zm60.691407 30.878907 8.882812-8.882813c1.585938-1.585937 3.707031-2.382812 5.964844-2.382812 2.25 0 4.371094.796875 5.964844 2.382812l8.878906 9.011719h-29.691406zm65.203125-188.183594v30.882813c0 .792968.265625 1.457031.265625 2.25h-99.789063c0-.792969.269532-1.457032.269532-2.25v-30.882813zm-85.078125 66.261719c-1.988281-1.988282-3.839844-4.238282-5.566407-6.621094h81.765626c-9.144532 12.980469-24.25 21.195312-40.953126 21.195312-13.25 0-25.835937-5.164062-35.246093-14.574218zm35.515625 41.082031c13.382812 0 25.707031 5.171875 35.117187 14.574219 9.410157 9.410156 14.445313 22.003906 14.445313 35.386718v29.417969l-25.707032-26.105469c-6.628906-6.625-15.375-10.335937-24.78125-10.335937-9.410156 0-18.027343 3.710937-24.648437 10.335937l-24.253906 24.914063v-28.226563c0-27.5625 22.265625-49.960937 49.828125-49.960937zm0 0"/></g></svg>