<svg height="640pt" viewBox="-30 0 640 640" width="640pt" xmlns="http://www.w3.org/2000/svg"><path d="m300.585938 101.449219-15.308594-101.449219h-224.601563c-33.820312 0-60.675781 27.554688-60.675781 61.371094v424.71875c0 33.816406 26.855469 60.8125 60.675781 60.8125h213.054688l153.492187-232.402344v-165.734375zm0 0" fill="#00acea"/><path d="m285.277344.140625 141.527344 148.625h-94.210938c-26.164062 0-47.316406-21.152344-47.316406-47.316406zm0 0" fill="#00efd1"/><g fill="#083863"><path d="m279.992188 318.675781h-181.464844c-7.652344 0-13.917969 6.265625-13.917969 13.917969 0 7.65625 6.265625 13.914062 13.917969 13.914062h181.324218c7.652344 0 13.917969-6.257812 13.917969-13.914062 0-7.652344-6.121093-13.917969-13.777343-13.917969zm0 0"/><path d="m98.527344 276.929688h140.96875c7.652344 0 13.917968-6.261719 13.917968-13.917969 0-7.652344-6.265624-13.914063-13.917968-13.914063h-140.96875c-7.652344 0-13.917969 6.261719-13.917969 13.914063 0 7.65625 6.265625 13.917969 13.917969 13.917969zm0 0"/><path d="m234.066406 389.648438h-135.539062c-7.652344 0-13.917969 6.265624-13.917969 13.914062 0 7.65625 6.265625 13.917969 13.917969 13.917969h135.539062c7.65625 0 13.917969-6.261719 13.917969-13.917969 0-7.648438-6.261719-13.914062-13.917969-13.914062zm0 0"/></g><path d="m426.804688 286.8125c86.28125 12.101562 152.65625 86.136719 152.65625 175.753906 0 97.96875-79.457032 177.433594-177.425782 177.433594-67.351562 0-126.078125-37.574219-156-92.960938-13.636718-25.1875-21.429687-53.992187-21.429687-84.609374 0-97.96875 79.460937-177.429688 177.429687-177.429688 8.351563.140625 16.558594.699219 24.769532 1.8125zm0 0" fill="#fedb41"/><path d="m479.265625 416.785156c1.671875-6.542968 2.226563-13.359375 2.226563-20.179687v-32.007813h5.429687c7.652344 0 13.917969-6.257812 13.917969-13.914062 0-7.652344-6.265625-13.917969-13.917969-13.917969h-170.332031c-7.65625 0-13.917969 6.265625-13.917969 13.917969 0 7.65625 6.261719 13.914062 13.917969 13.914062h4.871094v32.007813c0 6.820312.832031 13.636719 2.503906 20.179687 3.617187 13.917969 10.855468 26.578125 21.011718 36.738282 3.621094 3.621093 7.511719 6.816406 11.550782 9.605468-21.152344 14.472656-35.066406 38.6875-35.066406 66.242188v32.839844h-4.875c-7.652344 0-13.914063 6.261718-13.914063 13.917968 0 7.648438 6.261719 13.914063 13.914063 13.914063h170.335937c7.652344 0 13.917969-6.265625 13.917969-13.914063 0-7.65625-6.265625-13.917968-13.917969-13.917968h-5.429687v-32.839844c0-21.433594-8.070313-41.613282-23.234376-56.785156-3.625-3.617188-7.515624-6.816407-11.554687-9.597657 15.726563-10.71875 27.554687-26.859375 32.5625-46.203125zm-25.605469-52.1875v32.007813c0 .976562.558594 1.8125.558594 2.785156h-104.785156c0-.972656-.140625-1.808594-.140625-2.785156v-32.007813zm-68.1875 197.609375 9.328125-9.601562c1.667969-1.667969 3.894531-2.644531 6.257813-2.644531 2.367187 0 4.59375.976562 6.265625 2.644531l9.320312 9.601562zm53.160156-69.996093c9.882813 9.878906 15.027344 23.101562 15.027344 37.152343v30.894531l-26.71875-27.273437c-6.957031-6.960937-16-10.855469-25.882812-10.855469-9.878906 0-19.0625 3.894532-26.019532 10.855469l-25.746093 26.160156v-29.636719c0-28.945312 23.378906-52.46875 52.324219-52.46875 14.054687-.136718 27.136718 5.289063 37.015624 15.171876zm-74.035156-58.445313c-2.082031-2.089844-3.894531-4.175781-5.566406-6.542969h85.445312c-9.597656 13.359375-25.328124 21.847656-42.71875 21.847656-14.058593 0-27.277343-5.429687-37.160156-15.304687zm0 0" fill="#083863"/></svg>