<svg height="640pt" viewBox="0 -52 640 640" width="640pt" xmlns="http://www.w3.org/2000/svg"><path d="m253.089844 20.621094 68.394531 86.640625h-174.46875c-31.152344 0-56.371094 25.21875-56.371094 56.371093v371.777344h-34.273437c-31.152344 0-56.371094-25.21875-56.371094-56.378906v-422.660156c0-31.152344 25.21875-56.371094 56.371094-56.371094h153.105468c16.765626 0 32.785157 7.5625 43.613282 20.621094zm0 0" fill="#00efd1"/><path d="m640 160.816406v318.367188c0 31.152344-25.21875 56.371094-56.371094 56.371094h-507.816406v-374.738282c0-31.152344 25.21875-56.371094 56.371094-56.371094h451.445312c31.152344 0 56.371094 25.21875 56.371094 56.371094zm0 0" fill="#00acea"/><path d="m436.011719 271.636719c1.78125-6.824219 2.667969-14.09375 2.667969-21.214844v-34.566406h5.195312c8.160156 0 14.835938-6.675781 14.835938-14.835938 0-8.160156-6.675782-14.839843-14.835938-14.839843h-181.585938c-8.15625 0-14.832031 6.679687-14.832031 14.839843 0 8.160157 6.675781 14.835938 14.832031 14.835938h5.789063v34.566406c0 7.121094.589844 14.09375 2.226563 20.914063 3.703124 14.988281 11.273437 28.632812 22.25 39.617187 3.855468 3.855469 8.304687 7.265625 12.605468 10.234375-22.546875 15.429688-37.234375 41.390625-37.234375 70.765625v34.566406h-5.785156c-8.160156 0-14.835937 6.675781-14.835937 14.832031 0 8.164063 6.675781 14.839844 14.835937 14.839844h181.585937c8.15625 0 14.835938-6.675781 14.835938-14.839844 0-8.15625-6.679688-14.832031-14.835938-14.832031h-5.046874v-34.566406c0-22.847656-8.898438-44.359375-25.066407-60.53125-3.855469-3.859375-8.011719-7.265625-12.316406-10.234375 16.765625-11.421875 29.523437-28.78125 34.714844-49.550781zm-26.996094-55.78125v34.566406c0 .890625-.152344 1.632813-.152344 2.523437h-111.710937c0-.890624.597656-1.632812.597656-2.523437v-34.566406zm-73.289063 210.664062 9.9375-9.941406c1.78125-1.777344 4.15625-2.671875 6.675782-2.671875 2.523437 0 4.894531.894531 6.679687 2.671875l9.933594 10.085937h-33.226563zm56.96875-74.179687c10.53125 10.535156 16.320313 24.628906 16.320313 39.613281v32.933594l-28.933594-29.226563c-7.417969-7.417968-17.207031-11.566406-27.742187-11.566406s-20.027344 4.148438-27.441406 11.566406l-27.148438 27.894532v-31.601563c0-30.859375 24.773438-55.929687 55.628906-55.929687 14.984375-.003907 28.785156 5.78125 39.316406 16.316406zm-79.222656-62.304688c-2.226562-2.226562-4.300781-4.753906-6.230468-7.421875h91.53125c-10.234376 14.539063-27.148438 23.738281-45.839844 23.738281-14.832032 0-28.929688-5.785156-39.460938-16.316406zm0 0" fill="#083863"/></svg>