<svg height="638pt" viewBox="0 -45 638.74973 638" width="638pt" xmlns="http://www.w3.org/2000/svg"><path d="m593.386719 141.355469v65.976562h-541.914063l-5.953125-146.320312c-1.53125-32.992188 24.890625-60.636719 58.039063-60.636719h125.09375c20.308594 0 39.253906 10.691406 49.789062 28.253906l15.886719 26.582032c10.535156 17.5625 29.324219 28.253906 49.789063 28.253906h191.078124c32.074219-.152344 58.191407 25.8125 58.191407 57.890625zm0 0" fill="#00efd1"/><path d="m608.207031 192.0625c18.480469 0 32.835938 16.34375 30.238281 34.671875l-37.417968 272.175781c-3.972656 28.71875-28.5625 50.105469-57.429688 50.105469h-447.832031c-29.019531 0-53.460937-21.386719-57.425781-50.105469l-38.035156-272.175781c-2.59375-18.328125 11.761718-34.824219 30.242187-34.824219h577.660156zm0 0" fill="#00acea"/><path d="m405.0625 319.75c1.832031-7.023438 2.902344-14.355469 2.902344-21.6875v-35.585938h4.886718c8.402344 0 15.273438-6.875 15.273438-15.273437 0-8.402344-6.871094-15.277344-15.273438-15.277344h-186.949218c-8.402344 0-15.277344 6.875-15.277344 15.277344 0 8.398437 6.875 15.273437 15.277344 15.273437h4.882812v35.585938c0 7.332031 1.074219 14.507812 2.90625 21.535156 3.820313 15.429688 11.914063 29.480469 23.214844 40.78125 3.972656 3.972656 8.09375 7.484375 12.523438 10.539063-23.214844 15.890625-38.644532 42.613281-38.644532 72.859375v35.585937h-4.886718c-8.398438 0-15.273438 6.875-15.273438 15.273438 0 8.402343 6.875 15.273437 15.273438 15.273437h186.953124c8.402344 0 15.273438-6.871094 15.273438-15.273437 0-8.398438-6.871094-15.273438-15.273438-15.273438h-4.886718v-35.585937c0-23.523438-9.320313-45.667969-25.964844-62.316406-3.972656-3.972657-8.246094-7.484376-12.675781-10.542969 17.253906-11.761719 30.394531-29.628907 35.738281-51.167969zm-27.644531-57.273438v35.585938c0 .917969-.457031 1.679688-.457031 2.59375h-115.015626c0-.914062-.457031-1.675781-.457031-2.59375v-35.585938zm-75.910157 216.886719 10.234376-10.230469c1.832031-1.835937 4.273437-2.75 6.871093-2.75 2.597657 0 5.042969.914063 6.875 2.75l10.234375 10.382813h-34.214844zm58.800782-76.367187c10.847656 10.84375 17.109375 25.355468 17.109375 40.78125v33.90625l-29.9375-30.085938c-7.636719-7.636718-17.871094-11.917968-28.71875-11.917968-10.84375 0-21.226563 4.28125-28.863281 11.917968l-28.5625 28.710938v-32.53125c0-31.769532 26.117187-57.585938 57.886718-57.585938 15.425782 0 30.242188 5.957032 41.085938 16.804688zm-81.714844-64.152344c-2.292969-2.289062-4.425781-4.886719-6.414062-7.636719h94.238281c-10.539063 14.964844-27.949219 24.441407-47.195313 24.441407-15.273437 0-29.78125-5.960938-40.628906-16.804688zm0 0" fill="#083863"/></svg>