<svg height="640pt" viewBox="0 -52 640 640" width="640pt" xmlns="http://www.w3.org/2000/svg"><path d="m320.964844 59.28125-61.492188-59.28125h-211.214844l7.855469 219.214844h532.734375v-159.933594zm0 0" fill="#00efd1"/><path d="m536.460938 219.214844v.550781h-432.921876v-105.332031h432.921876zm0 0" fill="#fedb41"/><path d="m640 205.980469-58.042969 329.097656h-523.222656l-58.734375-329.097656zm0 0" fill="#00acea"/><path d="m397.347656 324.6875c1.652344-6.480469 2.617188-13.101562 2.617188-19.855469v-31.847656h4.414062c7.582032 0 13.785156-6.203125 13.785156-13.785156s-6.203124-13.789063-13.785156-13.789063h-168.757812c-7.585938 0-13.785156 6.207032-13.785156 13.789063s6.199218 13.785156 13.785156 13.785156h4.414062v31.847656c0 6.753907.964844 13.375 2.617188 19.71875 3.445312 13.785157 10.753906 26.46875 20.957031 36.53125 3.585937 3.589844 7.308594 6.757813 11.308594 9.519531-20.957031 14.335938-34.882813 38.464844-34.882813 65.761719v32.402344h-4.414062c-7.585938 0-13.785156 6.199219-13.785156 13.78125 0 7.585937 6.199218 13.789063 13.785156 13.789063h168.753906c7.582031 0 13.789062-6.203126 13.789062-13.789063 0-7.582031-6.207031-13.78125-13.789062-13.78125h-4.410156v-32.261719c0-21.371094-8.414063-41.363281-23.4375-56.253906-3.582032-3.585938-7.445313-6.753906-11.445313-9.511719 15.582031-10.757812 27.300781-26.75 32.265625-46.050781zm-24.957031-51.703125v31.847656c0 .828125-.414063 1.65625-.414063 2.617188h-103.816406c0-.824219-.417968-1.648438-.417968-2.617188v-31.847656zm-68.523437 195.78125 9.238281-9.375c1.65625-1.65625 3.863281-2.625 6.207031-2.625s4.550781.96875 6.203125 2.625l9.234375 9.375zm53.082031-69.078125c9.789062 9.789062 15.441406 22.890625 15.441406 36.816406v30.605469l-27.023437-27.160156c-6.890626-6.894531-16.128907-10.753907-25.917969-10.753907-9.792969 0-19.167969 3.859376-26.0625 10.753907l-25.78125 25.917969v-29.363282c0-28.675781 23.574219-51.976562 52.257812-51.976562 13.925781-.007813 27.300781 5.375 37.085938 15.160156zm-73.761719-58.042969c-2.070312-2.070312-3.863281-4.273437-5.652344-6.617187h84.792969c-9.515625 13.371094-25.09375 21.921875-42.464844 21.921875-13.789062 0-26.886719-5.515625-36.675781-15.304688zm0 0" fill="#083863"/></svg>