<svg height="640pt" viewBox="-70 0 640 640" width="640pt" xmlns="http://www.w3.org/2000/svg"><path d="m334.457031 0h-262.332031c-39.472656 0-72.125 32.484375-72.125 71.957031v496.085938c0 39.472656 32.652344 71.957031 72.125 71.957031h356.058594c39.472656 0 72.117187-32.484375 72.117187-71.957031v-394.074219zm0 0" fill="#00acea"/><path d="m335.269531.488281 165.199219 173.640625h-109.972656c-30.535156 0-55.226563-24.6875-55.226563-55.222656zm0 0" fill="#00efd1"/><g fill="#083863"><path d="m383.835938 511.675781h-267.371094c-8.929688 0-16.238282 7.308594-16.238282 16.242188 0 8.9375 7.308594 16.246093 16.238282 16.246093h267.535156c8.933594 0 16.242188-7.308593 16.242188-16.246093 0-8.933594-7.308594-16.242188-16.40625-16.242188zm0 0"/><path d="m155.9375 426.722656v37.847656h-5.195312c-8.933594 0-16.246094 7.308594-16.246094 16.246094 0 8.929688 7.3125 16.238282 16.246094 16.238282h198.824218c8.929688 0 16.238282-7.308594 16.238282-16.238282 0-8.9375-7.308594-16.246094-16.238282-16.246094h-5.203125v-37.847656c0-25.019531-9.90625-48.570312-27.609375-66.277344-4.226562-4.226562-8.769531-7.960937-13.644531-11.207031 18.355469-12.511719 32.484375-31.515625 38.167969-54.414062 1.949218-7.476563 3.085937-15.269531 3.085937-23.066407v-37.851562h5.203125c8.929688 0 16.238282-7.308594 16.238282-16.242188 0-8.933593-7.308594-16.242187-16.238282-16.242187h-198.824218c-8.933594 0-16.246094 7.308594-16.246094 16.242187 0 8.933594 7.3125 16.242188 16.246094 16.242188h5.195312v37.851562c0 7.796876 1.136719 15.429688 3.085938 22.898438 4.0625 16.40625 12.671874 31.355469 24.691406 43.371094 4.226562 4.222656 8.609375 7.957031 13.320312 11.210937-24.691406 16.894531-41.097656 45.320313-41.097656 77.484375zm75.210938 37.847656 10.882812-10.882812c1.949219-1.949219 4.546875-2.925781 7.308594-2.925781 2.765625 0 5.363281.976562 7.308594 2.925781l10.886718 11.042969h-36.386718zm80.730468-230.660156v37.847656c0 .972657-.488281 1.785157-.488281 2.757813h-122.3125c0-.972656-.488281-1.785156-.488281-2.757813v-37.847656zm-105.097656 81.214844c-2.433594-2.433594-4.710938-5.195312-6.820312-8.117188h100.21875c-11.207032 15.917969-29.71875 25.984376-50.1875 25.984376-16.246094 0-31.675782-6.332032-43.210938-17.867188zm43.210938 50.359375c16.40625 0 32.160156 6.332031 43.695312 17.863281 11.53125 11.535156 18.191406 26.96875 18.191406 43.375v36.058594l-31.839844-32c-8.121093-8.121094-19.003906-12.667969-30.539062-12.667969-11.53125 0-22.578125 4.546875-30.695312 12.667969l-30.375 30.542969v-34.601563c0-33.789062 27.773437-61.238281 61.5625-61.238281zm0 0"/></g></svg>