<svg height="638pt" viewBox="-57 0 638 638.75085" width="638pt" xmlns="http://www.w3.org/2000/svg"><path d="m317.5 238.539062-44.925781-121.921874h-214.023438c-32.199219 0-58.175781 26.507812-58.175781 58.707031v404.71875c0 32.203125 25.976562 58.707031 58.175781 58.707031h290.488281c32.203126 0 58.175782-26.503906 58.175782-58.707031v-321.496094zm0 0" fill="#00efd1"/><path d="m377.132812 180.230469-44.925781-121.921875h-214.019531c-32.203125 0-58.175781 26.507812-58.175781 58.707031v404.71875c0 32.203125 25.972656 58.707031 58.175781 58.707031h290.484375c32.203125 0 58.179687-26.503906 58.179687-58.707031v-321.496094zm0 0" fill="#fedb41"/><path d="m435.441406 121.917969-44.925781-121.917969h-214.019531c-32.203125 0-58.175782 26.503906-58.175782 58.707031v404.71875c0 32.203125 25.972657 58.707031 58.175782 58.707031h290.488281c32.199219 0 58.175781-26.503906 58.175781-58.707031v-321.496093zm0 0" fill="#00acea"/><path d="m390.515625.398438 134.777344 141.664062h-89.71875c-24.914063 0-45.058594-20.144531-45.058594-45.054688zm0 0" fill="#00efd1"/><g fill="#083863"><path d="m430.804688 424.066406h-218.128907c-7.292969 0-13.257812 5.960938-13.257812 13.253906 0 7.289063 5.964843 13.25 13.257812 13.25h218.257813c7.292968 0 13.25-5.960937 13.25-13.25 0-7.292968-5.957032-13.253906-13.378906-13.253906zm0 0"/><path d="m321.078125 342.035156c7.285156 0 13.25-5.964844 13.25-13.25v-21.335937c0-7.289063-5.964844-13.253907-13.25-13.253907-7.292969 0-13.257813 5.964844-13.257813 13.253907v21.335937c0 7.285156 5.964844 13.25 13.257813 13.25zm0 0"/><path d="m321.738281 401.269531c24.78125 0 48.105469-9.671875 65.601563-27.164062 17.488281-17.492188 27.03125-40.816407 27.03125-65.464844 0-24.78125-9.28125-47.972656-26.769532-65.464844-.664062-.660156-1.71875-1.191406-1.71875-1.855469v-35.253906c0-16.957031-6.890624-32.996094-18.953124-45.054687-12.0625-12.058594-28.226563-18.6875-45.191407-18.6875-26.375 0-50.359375 16.570312-59.765625 41.351562-2.519531 6.890625.792969 14.441407 7.6875 17.09375 6.890625 2.515625 14.441406-.929687 17.09375-7.691406 5.433594-14.441406 19.476563-24.117187 34.855469-24.117187 9.933594 0 19.476563 3.84375 26.636719 10.867187 7.019531 7.023437 11.128906 16.433594 11.128906 26.371094v17.757812c-11.929688-5.035156-24.515625-7.6875-37.503906-7.6875-24.78125 0-48.105469 9.675781-65.601563 27.039063-17.488281 17.488281-27.296875 40.8125-27.296875 65.59375.136719 50.761718 41.613282 92.367187 92.765625 92.367187zm-46.777343-139.671875c12.457031-12.457031 29.152343-19.351562 46.777343-19.351562 17.757813 0 34.453125 6.890625 46.910157 19.484375 12.457031 12.453125 19.351562 29.152343 19.351562 46.777343s-6.890625 34.324219-19.351562 46.785157c-12.457032 12.453125-29.152344 19.476562-46.910157 19.476562-36.578125 0-66.261719-29.683593-66.261719-66.261719 0-17.757812 6.890626-34.453124 19.484376-46.910156zm0 0"/></g></svg>