<svg height="640pt" viewBox="-30 0 640 640" width="640pt" xmlns="http://www.w3.org/2000/svg"><path d="m300.585938 101.449219-15.308594-101.449219h-224.601563c-33.820312 0-60.675781 27.554688-60.675781 61.371094v424.71875c0 33.816406 26.855469 60.8125 60.675781 60.8125h213.054688l153.492187-232.402344v-165.734375zm0 0" fill="#00acea"/><path d="m285.277344.140625 141.527344 148.625h-94.210938c-26.164062 0-47.316406-21.152344-47.316406-47.316406zm0 0" fill="#00efd1"/><g fill="#083863"><path d="m279.992188 318.675781h-181.464844c-7.652344 0-13.917969 6.265625-13.917969 13.917969 0 7.65625 6.265625 13.914062 13.917969 13.914062h181.324218c7.652344 0 13.917969-6.257812 13.917969-13.914062 0-7.652344-6.121093-13.917969-13.777343-13.917969zm0 0"/><path d="m98.527344 276.929688h140.96875c7.652344 0 13.917968-6.261719 13.917968-13.917969 0-7.652344-6.265624-13.914063-13.917968-13.914063h-140.96875c-7.652344 0-13.917969 6.261719-13.917969 13.914063 0 7.65625 6.265625 13.917969 13.917969 13.917969zm0 0"/><path d="m234.066406 389.648438h-135.539062c-7.652344 0-13.917969 6.265624-13.917969 13.914062 0 7.65625 6.265625 13.917969 13.917969 13.917969h135.539062c7.65625 0 13.917969-6.261719 13.917969-13.917969 0-7.648438-6.261719-13.914062-13.917969-13.914062zm0 0"/></g><path d="m426.804688 286.8125c86.28125 12.101562 152.65625 86.136719 152.65625 175.753906 0 97.96875-79.457032 177.433594-177.425782 177.433594-67.351562 0-126.078125-37.574219-156-92.960938-13.636718-25.1875-21.429687-53.992187-21.429687-84.609374 0-97.96875 79.460937-177.429688 177.429687-177.429688 8.351563.140625 16.558594.699219 24.769532 1.8125zm0 0" fill="#fedb41"/><path d="m402.171875 486.644531c-7.652344 0-13.914063 6.261719-13.914063 13.917969v22.402344c0 7.65625 6.261719 13.914062 13.914063 13.914062 7.65625 0 13.917969-6.257812 13.917969-13.914062v-22.402344c0-7.792969-6.261719-13.917969-13.917969-13.917969zm0 0" fill="#083863"/><path d="m468.96875 430.980469v-37.15625c0-17.8125-7.09375-34.648438-19.761719-47.316407-12.660156-12.660156-29.5-19.617187-47.3125-19.617187-27.691406 0-52.882812 17.390625-62.621093 43.417969-2.644532 7.234375.96875 15.164062 8.070312 17.949218 7.234375 2.644532 15.171875-.972656 17.953125-8.074218 5.703125-15.164063 20.453125-25.324219 36.597656-25.324219 10.4375 0 20.316407 4.035156 27.695313 11.410156 7.371094 7.371094 11.546875 17.253907 11.546875 27.695313v18.648437c-12.523438-5.289062-25.464844-8.074219-39.242188-8.074219-26.019531 0-50.511719 10.15625-68.886719 28.390626-18.371093 18.367187-28.667968 42.859374-28.667968 68.882812 0 53.714844 43.695312 97.410156 97.277344 97.410156 26.023437 0 50.515624-10.15625 68.886718-28.523437 18.367188-18.371094 28.386719-42.863281 28.386719-68.746094 0-26.027344-10.019531-50.375-28.25-68.746094-.417969-.976562-1.671875-1.667969-1.671875-2.226562zm-17.949219 119.816406c-13.082031 13.078125-30.613281 20.457031-49.261719 20.457031-38.273437 0-69.582031-31.171875-69.582031-69.578125 0-18.648437 7.238281-36.183593 20.457031-49.265625 13.078126-13.078125 30.613282-20.316406 49.125-20.316406 18.648438 0 36.179688 7.238281 49.261719 20.460938 13.082031 13.078124 20.316407 30.613281 20.316407 49.121093 0 18.644531-7.234376 36.039063-20.316407 49.121094zm0 0" fill="#083863"/></svg>