<svg height="640pt" viewBox="0 -52 640 640" width="640pt" xmlns="http://www.w3.org/2000/svg"><path d="m253.089844 20.621094 68.394531 86.640625h-174.46875c-31.152344 0-56.371094 25.21875-56.371094 56.371093v371.777344h-34.273437c-31.152344 0-56.371094-25.21875-56.371094-56.378906v-422.660156c0-31.152344 25.21875-56.371094 56.371094-56.371094h153.105468c16.765626 0 32.785157 7.5625 43.613282 20.621094zm0 0" fill="#00efd1"/><path d="m640 160.816406v318.367188c0 31.152344-25.21875 56.371094-56.371094 56.371094h-507.816406v-374.738282c0-31.152344 25.21875-56.371094 56.371094-56.371094h451.445312c31.152344 0 56.371094 25.21875 56.371094 56.371094zm0 0" fill="#00acea"/><g fill="#083863"><path d="m352.636719 346.257812c-8.160157 0-14.832031 6.675782-14.832031 14.835938v23.886719c0 8.160156 6.671874 14.832031 14.832031 14.832031 8.160156 0 14.839843-6.671875 14.839843-14.832031v-23.886719c0-8.160156-6.679687-14.835938-14.839843-14.835938zm0 0"/><path d="m423.847656 287.066406v-39.464844c0-18.988281-7.121094-36.9375-20.621094-50.4375s-31.304687-20.917968-50.292968-20.917968c-29.519532 0-56.371094 18.542968-66.757813 46.285156-2.820312 7.710938 1.035157 16.171875 8.75 19.140625 7.714844 2.816406 16.171875-1.042969 19.140625-8.609375 6.082032-16.167969 21.808594-27 39.015625-27 11.128907 0 21.367188 4.304688 29.226563 12.164062 7.863281 7.863282 12.019531 18.394532 12.019531 29.523438v19.882812c-11.871094-5.640624-26.851563-8.609374-41.394531-8.609374-27.738282 0-53.699219 10.828124-73.285156 30.265624-19.585938 19.582032-30.410157 45.691407-30.410157 73.4375 0 57.265626 46.582031 103.84375 103.847657 103.84375 27.738281 0 53.851562-10.828124 73.433593-30.40625 19.582031-19.585937 30.261719-45.695312 30.261719-73.292968 0-27.738282-10.976562-53.699219-30.554688-73.285156-.597656-1.1875-.894531-1.925782-2.378906-2.519532zm-18.394531 127.734375c-13.945313 13.945313-32.640625 21.804688-52.519531 21.804688-40.945313 0-74.179688-33.230469-74.179688-74.175781 0-19.882813 7.714844-38.425782 21.8125-52.515626 13.945313-13.945312 32.636719-21.664062 52.367188-21.664062 19.878906 0 38.574218 7.71875 52.519531 21.808594 13.945313 13.945312 21.660156 32.640625 21.660156 52.371094 0 19.726562-7.714843 38.425781-21.660156 52.371093zm0 0"/></g></svg>