<svg height="638pt" viewBox="0 -45 638.74973 638" width="638pt" xmlns="http://www.w3.org/2000/svg"><path d="m593.386719 141.355469v65.976562h-541.914063l-5.953125-146.320312c-1.53125-32.992188 24.890625-60.636719 58.039063-60.636719h125.09375c20.308594 0 39.253906 10.691406 49.789062 28.253906l15.886719 26.582032c10.535156 17.5625 29.324219 28.253906 49.789063 28.253906h191.078124c32.074219-.152344 58.191407 25.8125 58.191407 57.890625zm0 0" fill="#00efd1"/><path d="m608.207031 192.0625c18.480469 0 32.835938 16.34375 30.238281 34.671875l-37.417968 272.175781c-3.972656 28.71875-28.5625 50.105469-57.429688 50.105469h-447.832031c-29.019531 0-53.460937-21.386719-57.425781-50.105469l-38.035156-272.175781c-2.59375-18.328125 11.761718-34.824219 30.242187-34.824219h577.660156zm0 0" fill="#00acea"/><g fill="#083863"><path d="m319.375 396.734375c-8.398438 0-15.269531 6.871094-15.269531 15.273437v24.589844c0 8.402344 6.871093 15.273438 15.269531 15.273438 8.402344 0 15.273438-6.871094 15.273438-15.273438v-24.589844c0-8.402343-6.871094-15.273437-15.273438-15.273437zm0 0"/><path d="m394.980469 337.925781c-.765625-.761719-.765625-1.371093-2.289063-2.136719v-40.628906c0-19.546875-7.636718-38.03125-21.535156-51.929687-13.90625-13.898438-32.234375-21.535157-51.933594-21.535157-30.398437 0-58.042968 19.09375-68.734375 47.652344-2.898437 7.941406 1.070313 16.648438 8.859375 19.699219 7.945313 2.90625 16.652344-1.066406 19.703125-8.851563 6.261719-16.652343 22.457031-27.804687 40.171875-27.804687 11.457032 0 22.148438 4.429687 30.242188 12.527344 8.09375 8.09375 12.523437 18.941406 12.523437 30.394531v20.464844c-13.746093-5.804688-27.796875-8.859375-42.761719-8.859375-28.5625 0-55.292968 11.152343-75.457031 31.160156-20.164062 20.160156-31.3125 47.046875-31.3125 75.609375 0 58.957031 47.960938 106.914062 106.917969 106.914062 28.5625 0 55.445312-11.148437 75.605469-31.308593 20.160156-20.160157 31.160156-47.042969 31.160156-75.453125 0-29.019532-11-55.75-31.160156-75.914063zm-21.535157 129.371094c-14.355468 14.359375-33.601562 22.453125-54.070312 22.453125-42.15625 0-76.367188-34.210938-76.367188-76.371094 0-20.464844 7.941407-39.558594 22.449219-54.066406 14.359375-14.359375 33.609375-22.300781 53.917969-22.300781 20.46875 0 39.714844 7.941406 54.070312 22.449219 14.355469 14.359374 22.300782 33.609374 22.300782 53.917968 0 20.3125-7.945313 39.5625-22.300782 53.917969zm0 0"/></g></svg>