<svg height="640pt" viewBox="0 -52 640 640" width="640pt" xmlns="http://www.w3.org/2000/svg"><path d="m320.964844 59.28125-61.492188-59.28125h-211.214844l7.855469 219.214844h532.734375v-159.933594zm0 0" fill="#00efd1"/><path d="m536.460938 219.214844v.550781h-432.921876v-105.332031h432.921876zm0 0" fill="#fedb41"/><path d="m640 205.980469-58.042969 329.097656h-523.222656l-58.734375-329.097656zm0 0" fill="#00acea"/><g fill="#083863"><path d="m320 394.039062c-7.582031 0-13.789062 6.199219-13.789062 13.78125v22.339844c0 7.582032 6.207031 13.785156 13.789062 13.785156s13.789062-6.203124 13.789062-13.785156v-22.339844c0-7.582031-6.207031-13.78125-13.789062-13.78125zm0 0"/><path d="m386.175781 338.886719v-36.675781c0-17.644532-6.890625-34.324219-19.4375-46.875-12.542969-12.542969-29.09375-19.4375-46.875-19.4375-27.4375 0-52.394531 17.230468-62.046875 43.011718-2.617187 7.171875.96875 15.03125 8 17.789063 7.167969 2.617187 15.027344-.96875 17.785156-8 5.652344-15.027344 20.265626-25.089844 36.261719-25.089844 10.335938 0 19.988281 4 27.300781 11.304687 7.304688 7.308594 11.300782 17.097657 11.300782 27.296876v18.476562c-12.40625-5.238281-25.089844-7.996094-38.601563-7.996094-25.78125 0-49.914062 10.0625-68.109375 28.125-18.199218 18.195313-28.261718 42.464844-28.261718 68.246094 0 53.21875 43.289062 96.511719 96.507812 96.511719 25.78125 0 50.046875-10.066407 68.246094-28.265625 18.199218-18.199219 28.125-42.464844 28.125-68.109375 0-25.78125-10.0625-49.90625-28.261719-68.105469-.550781-.96875-.550781-1.515625-1.933594-2.207031zm-17.371093 118.847656c-12.960938 12.957031-30.328126 20.261719-48.804688 20.261719-38.050781 0-68.9375-30.878906-68.9375-68.933594 0-18.472656 7.167969-35.84375 20.269531-48.804688 12.960938-12.957031 30.332031-20.132812 48.667969-20.132812 18.476562 0 35.84375 7.175781 48.804688 20.269531 12.960937 12.960938 20.128906 30.332031 20.128906 48.671875 0 18.335938-7.167969 35.566406-20.128906 48.667969zm0 0"/></g></svg>