<svg height="640pt" viewBox="-70 0 640 640" width="640pt" xmlns="http://www.w3.org/2000/svg"><path d="m334.457031 0h-262.332031c-39.472656 0-72.125 32.484375-72.125 71.957031v496.085938c0 39.472656 32.652344 71.957031 72.125 71.957031h356.058594c39.472656 0 72.117187-32.484375 72.117187-71.957031v-394.074219zm0 0" fill="#00acea"/><path d="m335.269531.488281 165.199219 173.640625h-109.972656c-30.535156 0-55.226563-24.6875-55.226563-55.222656zm0 0" fill="#00efd1"/><g fill="#083863"><path d="m383.835938 511.675781h-267.371094c-8.929688 0-16.238282 7.308594-16.238282 16.242188 0 8.9375 7.308594 16.246093 16.238282 16.246093h267.535156c8.933594 0 16.242188-7.308593 16.242188-16.246093 0-8.933594-7.308594-16.242188-16.40625-16.242188zm0 0"/><path d="m250.152344 419.246094c8.933594 0 16.246094-7.308594 16.246094-16.242188v-26.152344c0-8.933593-7.3125-16.242187-16.246094-16.242187s-16.242188 7.308594-16.242188 16.242187v26.152344c0 8.933594 7.308594 16.242188 16.242188 16.242188zm0 0"/><path d="m250.152344 491.859375c30.375 0 58.964844-11.859375 80.410156-33.300781 21.4375-21.441406 33.132812-50.027344 33.132812-80.242188 0-30.378906-11.855468-58.804687-33.300781-80.246094-.808593-.816406-.808593-1.460937-2.4375-2.273437v-43.210937c0-20.789063-8.117187-40.449219-22.898437-55.226563-14.785156-14.78125-34.277344-22.90625-55.230469-22.90625-32.324219 0-61.726563 20.308594-73.097656 50.683594-3.085938 8.445312 1.136719 17.703125 9.421875 20.953125 8.449218 3.085937 17.707031-1.140625 20.953125-9.421875 6.660156-17.707031 23.878906-29.5625 42.722656-29.5625 12.183594 0 23.554687 4.710937 32.164063 13.320312 8.609374 8.605469 13.320312 20.140625 13.320312 32.324219v21.765625c-14.617188-6.171875-29.566406-9.421875-45.484375-9.421875-30.375 0-58.800781 11.859375-80.242187 33.136719-21.441407 21.441406-33.300782 50.03125-33.300782 80.40625.160156 62.21875 51.167969 113.222656 113.867188 113.222656zm-57.339844-171.210937c15.269531-15.269532 35.738281-23.714844 57.339844-23.714844 21.765625 0 42.234375 8.445312 57.503906 23.875 15.269531 15.269531 23.714844 35.738281 23.714844 57.34375 0 21.601562-8.445313 42.070312-23.714844 57.339844-15.269531 15.269531-35.738281 23.878906-57.503906 23.878906-44.828125 0-81.214844-36.382813-81.214844-81.21875 0-21.765625 8.445312-42.234375 23.875-57.503906zm0 0"/></g></svg>