<svg height="640pt" viewBox="0 -52 640 640" width="640pt" xmlns="http://www.w3.org/2000/svg"><path d="m320.964844 59.28125-61.492188-59.28125h-211.214844l7.855469 219.214844h532.734375v-159.933594zm0 0" fill="#00efd1"/><path d="m536.460938 219.214844v.550781h-432.921876v-105.332031h432.921876zm0 0" fill="#fedb41"/><path d="m640 205.980469-58.042969 329.097656h-523.222656l-58.734375-329.097656zm0 0" fill="#00acea"/><path d="m330.0625 268.4375c-2.617188-2.757812-6.199219-4.414062-10.0625-4.414062s-7.445312 1.65625-10.0625 4.414062l-80.65625 86.71875c-5.238281 5.511719-4.828125 14.339844.6875 19.4375 5.515625 5.101562 14.335938 4.828125 19.441406-.6875l56.804688-60.9375v150.554688c0 7.585937 6.203125 13.785156 13.785156 13.785156s13.789062-6.199219 13.789062-13.785156v-150.554688l56.800782 61.074219c2.757812 2.894531 6.34375 4.414062 10.0625 4.414062 3.3125 0 6.757812-1.242187 9.375-3.726562 5.519531-5.238281 5.929687-13.921875.695312-19.4375zm0 0" fill="#083863"/></svg>