<svg height="638pt" viewBox="-57 0 638 638.75085" width="638pt" xmlns="http://www.w3.org/2000/svg"><path d="m317.5 238.539062-44.925781-121.921874h-214.023438c-32.199219 0-58.175781 26.507812-58.175781 58.707031v404.71875c0 32.203125 25.976562 58.707031 58.175781 58.707031h290.488281c32.203126 0 58.175782-26.503906 58.175782-58.707031v-321.496094zm0 0" fill="#00efd1"/><path d="m377.132812 180.230469-44.925781-121.921875h-214.019531c-32.203125 0-58.175781 26.507812-58.175781 58.707031v404.71875c0 32.203125 25.972656 58.707031 58.175781 58.707031h290.484375c32.203125 0 58.179687-26.503906 58.179687-58.707031v-321.496094zm0 0" fill="#fedb41"/><path d="m435.441406 121.917969-44.925781-121.917969h-214.019531c-32.203125 0-58.175782 26.503906-58.175782 58.707031v404.71875c0 32.203125 25.972657 58.707031 58.175782 58.707031h290.488281c32.199219 0 58.175781-26.503906 58.175781-58.707031v-321.496093zm0 0" fill="#00acea"/><path d="m390.515625.398438 134.777344 141.664062h-89.71875c-24.914063 0-45.058594-20.144531-45.058594-45.054688zm0 0" fill="#00efd1"/><g fill="#083863"><path d="m430.804688 424.066406h-218.128907c-7.292969 0-13.257812 5.960938-13.257812 13.253906 0 7.289063 5.964843 13.25 13.257812 13.25h218.257813c7.292968 0 13.25-5.960937 13.25-13.25 0-7.292968-5.957032-13.253906-13.378906-13.253906zm0 0"/><path d="m214.132812 347.207031h140.339844c7.285156 0 12.988282-6.097656 12.988282-13.386719v-22.398437l54.726562 33.796875c2.125 1.324219 4.640625 1.988281 7.027344 1.988281 2.25 0 4.632812-.53125 6.753906-1.726562 4.246094-2.382813 7.027344-6.757813 7.027344-11.527344v-124.574219c0-4.632812-2.652344-9.007812-6.628906-11.390625-3.976563-2.390625-9.140626-2.519531-13.25-.402343l-55.65625 29.15625v-17.363282c0-7.285156-5.703126-13.25-12.988282-13.25h-140.339844c-7.292968 0-13.652343 5.835938-13.652343 13.25v124.441406c0 7.289063 6.359375 13.386719 13.652343 13.386719zm202.359376-115.824219v78.851563l-49.03125-29.953125v-23.453125zm-189.503907-8.746093h113.964844v98.0625h-113.964844zm0 0"/></g></svg>