<svg height="638pt" viewBox="0 -45 638.74973 638" width="638pt" xmlns="http://www.w3.org/2000/svg"><path d="m593.386719 141.355469v65.976562h-541.914063l-5.953125-146.320312c-1.53125-32.992188 24.890625-60.636719 58.039063-60.636719h125.09375c20.308594 0 39.253906 10.691406 49.789062 28.253906l15.886719 26.582032c10.535156 17.5625 29.324219 28.253906 49.789063 28.253906h191.078124c32.074219-.152344 58.191407 25.8125 58.191407 57.890625zm0 0" fill="#00efd1"/><path d="m608.207031 192.0625c18.480469 0 32.835938 16.34375 30.238281 34.671875l-37.417968 272.175781c-3.972656 28.71875-28.5625 50.105469-57.429688 50.105469h-447.832031c-29.019531 0-53.460937-21.386719-57.425781-50.105469l-38.035156-272.175781c-2.59375-18.328125 11.761718-34.824219 30.242187-34.824219h577.660156zm0 0" fill="#00acea"/><path d="m451.1875 286.148438c-4.578125-2.746094-9.925781-2.898438-14.660156-.457032l-63.539063 33.601563v-20.160157c0-8.402343-7.328125-15.273437-15.730469-15.273437h-161.90625c-8.402343 0-14.964843 6.71875-14.964843 15.273437v143.417969c0 8.402344 6.5625 15.429688 14.964843 15.429688h161.75c8.402344 0 15.734376-7.027344 15.734376-15.429688v-25.808593l62.773437 38.949218c2.445313 1.523438 5.195313 2.289063 7.945313 2.289063 2.59375 0 4.886718-.609375 7.175781-1.984375 4.890625-2.746094 7.636719-7.789063 7.636719-13.289063v-143.574219c0-5.195312-2.597657-10.234374-7.179688-12.984374zm-108.902344 141.28125h-131.355468v-113.023438h131.355468zm85.535156-12.066407-54.984374-34.515625v-27.039062l54.984374-29.320313zm0 0" fill="#083863"/></svg>