<svg height="640pt" viewBox="0 -52 640 640" width="640pt" xmlns="http://www.w3.org/2000/svg"><path d="m320.964844 59.28125-61.492188-59.28125h-211.214844l7.855469 219.214844h532.734375v-159.933594zm0 0" fill="#00efd1"/><path d="m536.460938 219.214844v.550781h-432.921876v-105.332031h432.921876zm0 0" fill="#fedb41"/><path d="m640 205.980469-58.042969 329.097656h-523.222656l-58.734375-329.097656zm0 0" fill="#00acea"/><path d="m438.984375 294.082031c-4.136719-2.484375-8.964844-2.621093-13.238281-.414062l-57.351563 30.332031v-18.339844c0-7.585937-6.617187-13.511718-14.199219-13.511718h-146.148437c-7.582031 0-13.511719 5.925781-13.511719 13.511718v129.460938c0 7.582031 5.929688 14.199218 13.511719 14.199218h146.003906c7.585938 0 14.207031-6.617187 14.207031-14.199218v-23.300782l56.664063 35.160157c2.207031 1.378906 4.6875 2.066406 7.167969 2.066406 2.34375 0 4.414062-.550781 6.480468-1.792969 4.414063-2.480468 6.894532-7.03125 6.894532-11.992187v-129.601563c0-4.546875-2.34375-8.960937-6.480469-11.578125zm-98.304687 127.800781h-118.570313v-102.019531h118.570313zm77.210937-11.164062-49.632813-31.160156v-24.402344l49.632813-26.46875zm0 0" fill="#083863"/></svg>