<svg height="640pt" viewBox="-70 0 640 640" width="640pt" xmlns="http://www.w3.org/2000/svg"><path d="m334.457031 0h-262.332031c-39.472656 0-72.125 32.484375-72.125 71.957031v496.085938c0 39.472656 32.652344 71.957031 72.125 71.957031h356.058594c39.472656 0 72.117187-32.484375 72.117187-71.957031v-394.074219zm0 0" fill="#00acea"/><path d="m335.269531.488281 165.199219 173.640625h-109.972656c-30.535156 0-55.226563-24.6875-55.226563-55.222656zm0 0" fill="#00efd1"/><g fill="#083863"><path d="m383.835938 511.675781h-267.371094c-8.929688 0-16.238282 7.308594-16.238282 16.242188 0 8.9375 7.308594 16.246093 16.238282 16.246093h267.535156c8.933594 0 16.242188-7.308593 16.242188-16.246093 0-8.933594-7.308594-16.242188-16.40625-16.242188zm0 0"/><path d="m118.253906 425.585938h172.019532c8.933593 0 16.734374-7.476563 16.734374-16.40625v-27.453126l66.757813 41.421876c2.601563 1.621093 5.527344 2.4375 8.445313 2.4375 2.765624 0 5.199218-.648438 7.636718-2.113282 5.195313-2.921875 8.121094-8.28125 8.121094-14.132812v-152.691406c0-5.683594-2.757812-11.042969-7.632812-13.96875-4.871094-2.925782-10.5625-3.085938-15.59375-.488282l-67.574219 35.738282v-21.28125c0-8.933594-7.796875-16.242188-16.734375-16.242188h-172.179688c-8.933594 0-15.917968 7.148438-15.917968 16.242188v152.53125c0 8.929687 6.984374 16.40625 15.917968 16.40625zm247.230469-141.972657v96.648438l-58.476563-36.707031v-28.753907zm-230.660156-10.71875h139.691406v120.199219h-139.691406zm0 0"/></g></svg>