<svg height="640pt" viewBox="0 -52 640 640" width="640pt" xmlns="http://www.w3.org/2000/svg"><path d="m253.089844 20.621094 68.394531 86.640625h-174.46875c-31.152344 0-56.371094 25.21875-56.371094 56.371093v371.777344h-34.273437c-31.152344 0-56.371094-25.21875-56.371094-56.378906v-422.660156c0-31.152344 25.21875-56.371094 56.371094-56.371094h153.105468c16.765626 0 32.785157 7.5625 43.613282 20.621094zm0 0" fill="#00efd1"/><path d="m640 160.816406v318.367188c0 31.152344-25.21875 56.371094-56.371094 56.371094h-507.816406v-374.738282c0-31.152344 25.21875-56.371094 56.371094-56.371094h451.445312c31.152344 0 56.371094 25.21875 56.371094 56.371094zm0 0" fill="#00acea"/><g fill="#083863"><path d="m353.082031 214.070312c-89.898437 0-159.777343 94.359376-162.746093 98.359376-3.855469 5.195312-3.855469 12.316406 0 17.507812 2.96875 4.007812 72.847656 98.359375 162.746093 98.359375 89.902344 0 159.777344-94.351563 162.746094-98.359375 3.859375-5.191406 3.859375-12.3125 0-17.507812-2.96875-4-72.992187-98.359376-162.746094-98.359376zm0 184.558594c-60.230469 0-113.195312-55.484375-131.738281-77.441406 18.542969-21.960938 71.359375-77.441406 131.738281-77.441406 60.234375 0 113.199219 55.480468 131.742188 77.441406-18.542969 21.957031-71.363281 77.441406-131.742188 77.441406zm0 0"/><path d="m353.082031 249.976562c-39.167969 0-71.207031 31.894532-71.207031 71.210938s31.894531 71.210938 71.207031 71.210938c39.316407 0 71.210938-31.894532 71.210938-71.210938s-32.046875-71.210938-71.210938-71.210938zm0 112.75c-22.847656 0-41.539062-18.546874-41.539062-41.539062s18.542969-41.539062 41.539062-41.539062c22.996094 0 41.542969 18.546874 41.542969 41.539062s-18.695312 41.539062-41.542969 41.539062zm0 0"/></g></svg>