<svg height="638pt" viewBox="0 -45 638.74973 638" width="638pt" xmlns="http://www.w3.org/2000/svg"><path d="m593.386719 141.355469v65.976562h-541.914063l-5.953125-146.320312c-1.53125-32.992188 24.890625-60.636719 58.039063-60.636719h125.09375c20.308594 0 39.253906 10.691406 49.789062 28.253906l15.886719 26.582032c10.535156 17.5625 29.324219 28.253906 49.789063 28.253906h191.078124c32.074219-.152344 58.191407 25.8125 58.191407 57.890625zm0 0" fill="#00efd1"/><path d="m608.207031 192.0625c18.480469 0 32.835938 16.34375 30.238281 34.671875l-37.417968 272.175781c-3.972656 28.71875-28.5625 50.105469-57.429688 50.105469h-447.832031c-29.019531 0-53.460937-21.386719-57.425781-50.105469l-38.035156-272.175781c-2.59375-18.328125 11.761718-34.824219 30.242187-34.824219h577.660156zm0 0" fill="#00acea"/><g fill="#083863"><path d="m319.375 260.640625c-92.554688 0-164.496094 97.140625-167.550781 101.269531-3.972657 5.34375-3.972657 12.675782 0 18.019532 3.054687 4.125 74.996093 101.269531 167.550781 101.269531 92.558594 0 164.5-97.144531 167.554688-101.269531 3.972656-5.34375 3.972656-12.675782 0-18.019532-3.054688-4.128906-74.996094-101.269531-167.554688-101.269531zm0 190.007813c-62.011719 0-116.539062-57.125-135.632812-79.730469 19.09375-22.605469 73.472656-79.730469 135.632812-79.730469 62.015625 0 116.542969 57.125 135.636719 79.730469-19.09375 22.609375-73.472657 79.730469-135.636719 79.730469zm0 0"/><path d="m319.375 297.605469c-40.320312 0-73.3125 32.835937-73.3125 73.3125 0 40.480469 32.835938 73.316406 73.3125 73.316406 40.480469 0 73.316406-32.835937 73.316406-73.316406 0-40.476563-32.992187-73.3125-73.316406-73.3125zm0 116.082031c-23.523438 0-42.765625-19.09375-42.765625-42.769531 0-23.671875 19.09375-42.765625 42.765625-42.765625 23.675781 0 42.769531 19.09375 42.769531 42.765625 0 23.675781-19.246093 42.769531-42.769531 42.769531zm0 0"/></g></svg>