<svg height="638pt" viewBox="-57 0 638 638.75085" width="638pt" xmlns="http://www.w3.org/2000/svg"><path d="m317.5 238.539062-44.925781-121.921874h-214.023438c-32.199219 0-58.175781 26.507812-58.175781 58.707031v404.71875c0 32.203125 25.976562 58.707031 58.175781 58.707031h290.488281c32.203126 0 58.175782-26.503906 58.175782-58.707031v-321.496094zm0 0" fill="#00efd1"/><path d="m377.132812 180.230469-44.925781-121.921875h-214.019531c-32.203125 0-58.175781 26.507812-58.175781 58.707031v404.71875c0 32.203125 25.972656 58.707031 58.175781 58.707031h290.484375c32.203125 0 58.179687-26.503906 58.179687-58.707031v-321.496094zm0 0" fill="#fedb41"/><path d="m435.441406 121.917969-44.925781-121.917969h-214.019531c-32.203125 0-58.175782 26.503906-58.175782 58.707031v404.71875c0 32.203125 25.972657 58.707031 58.175782 58.707031h290.488281c32.199219 0 58.175781-26.503906 58.175781-58.707031v-321.496093zm0 0" fill="#00acea"/><path d="m390.515625.398438 134.777344 141.664062h-89.71875c-24.914063 0-45.058594-20.144531-45.058594-45.054688zm0 0" fill="#00efd1"/><g fill="#083863"><path d="m430.804688 424.066406h-218.128907c-7.292969 0-13.257812 5.960938-13.257812 13.253906 0 7.289063 5.964843 13.25 13.257812 13.25h218.257813c7.292968 0 13.25-5.960937 13.25-13.25 0-7.292968-5.957032-13.253906-13.378906-13.253906zm0 0"/><path d="m325.054688 142.328125c-2.257813 0-4.507813 0-6.628907 0 0 0 0 0-.132812 0-35.253907.925781-69.042969 16.433594-92.765625 42.671875-21.46875 23.847656-33.394532 54.59375-33.394532 86.796875s11.792969 62.949219 33.394532 86.804687c23.722656 26.238282 57.511718 41.742188 92.765625 42.667969h6.890625c35.648437-.925781 68.382812-15.898437 92.371094-42.269531 21.726562-23.855469 33.65625-54.730469 33.65625-87.070312 0-32.335938-11.929688-63.210938-33.65625-87.066407-24.125-26.632812-56.855469-41.738281-92.5-42.535156zm81.5 187.78125c-3.847657-3.3125-7.824219-6.496094-12.0625-9.277344 3.3125-11.398437 5.433593-23.324219 6.359374-35.777343h22.929688c-2.121094 16.164062-7.953125 31.539062-17.226562 45.054687zm-186.855469-45.1875h22.921875c.929687 12.324219 2.917968 24.25 6.226562 35.511719-4.238281 2.917968-8.347656 5.964844-12.1875 9.277344-9.007812-13.382813-14.972656-28.625-16.960937-44.789063zm17.09375-71.296875c3.839843 3.3125 7.949219 6.359375 12.191406 9.273438-3.3125 11.269531-5.433594 23.191406-6.226563 35.515624h-22.929687c1.859375-16.167968 7.824219-31.40625 16.964844-44.789062zm97.535156-36.179688c11.929687 8.480469 19.746094 19.746094 26.503906 33.128907-8.480469 3.582031-17.226562 5.964843-26.503906 7.160156zm-26.507813 40.289063c-7.949218-1.195313-18.019531-3.582031-26.5-7.027344 6.621094-13.515625 15.902344-24.648437 26.5-33.261719zm-35.246093 17.890625c11.398437 4.5 23.320312 7.550781 35.25 8.746094v14.042968h-38.566407c.664063-7.945312 1.59375-15.503906 3.316407-22.789062zm-3.316407 49.296875h38.5625v14.042969c-11.925781 1.195312-23.847656 4.242187-35.246093 8.75-1.722657-7.292969-2.652344-14.84375-3.316407-22.792969zm38.5625 40.679687v40.289063c-10.597656-8.480469-19.871093-19.746094-26.5-33.265625 8.480469-3.445312 18.550782-5.828125 26.5-7.023438zm26.507813.132813c9.277344 1.195313 18.023437 3.578125 26.503906 7.160156-6.628906 13.382813-14.574219 24.648438-26.503906 33.128907zm35.914063-17.890625c-11.265626-4.636719-22.660157-7.550781-35.914063-8.878906v-14.042969h39.886719c-.664063 7.949219-2.25 15.5-3.972656 22.921875zm-35.914063-49.429688v-14.042968c13.253906-1.195313 24.515625-4.246094 35.914063-8.878906 1.851562 7.285156 3.445312 14.976562 4.109374 22.921874zm50.089844-61.222656c-2.117188-4.242187-4.5-8.351562-7.019531-12.191406 3.976562 2.515625 7.816406 5.433594 11.398437 8.609375-1.464844 1.195313-2.921875 2.390625-4.378906 3.582031zm-125.496094.265625c-1.589844-1.195312-3.046875-2.382812-4.503906-3.578125 3.710937-3.183594 7.554687-6.226562 11.664062-8.746094-2.519531 3.84375-4.902343 7.953126-7.160156 12.324219zm0 148.425781c2.253906 4.371094 4.640625 8.476563 7.160156 12.453126-4.109375-2.648438-7.953125-5.5625-11.664062-8.746094 1.457031-1.324219 3.046875-2.519532 4.503906-3.707032zm125.496094.261719c1.457031 1.195313 2.914062 2.382813 4.378906 3.578125-3.582031 3.179688-7.421875 5.964844-11.398437 8.613282 2.519531-3.84375 4.769531-7.953126 7.019531-12.191407zm16.433593-87.730469c-.925781-12.453124-3.046874-24.382812-6.359374-35.777343 4.238281-2.914063 8.214843-5.964844 12.0625-9.28125 9.273437 13.519531 15.238281 28.890625 17.359374 45.191406h-23.0625zm0 0"/></g></svg>