<svg height="640pt" viewBox="-30 0 640 640" width="640pt" xmlns="http://www.w3.org/2000/svg"><path d="m300.585938 101.449219-15.308594-101.449219h-224.601563c-33.820312 0-60.675781 27.554688-60.675781 61.371094v424.71875c0 33.816406 26.855469 60.8125 60.675781 60.8125h213.054688l153.492187-232.402344v-165.734375zm0 0" fill="#00acea"/><path d="m285.277344.140625 141.527344 148.625h-94.210938c-26.164062 0-47.316406-21.152344-47.316406-47.316406zm0 0" fill="#00efd1"/><g fill="#083863"><path d="m98.527344 346.507812h181.324218c7.652344 0 13.917969-6.257812 13.917969-13.914062 0-7.652344-6.265625-13.917969-13.917969-13.917969h-181.324218c-7.652344 0-13.917969 6.265625-13.917969 13.917969 0 7.65625 6.265625 13.914062 13.917969 13.914062zm0 0"/><path d="m98.527344 276.929688h140.96875c7.652344 0 13.917968-6.261719 13.917968-13.917969 0-7.652344-6.265624-13.914063-13.917968-13.914063h-140.96875c-7.652344 0-13.917969 6.261719-13.917969 13.914063 0 7.65625 6.265625 13.917969 13.917969 13.917969zm0 0"/><path d="m234.066406 389.648438h-135.539062c-7.652344 0-13.917969 6.265624-13.917969 13.914062 0 7.65625 6.265625 13.917969 13.917969 13.917969h135.539062c7.65625 0 13.917969-6.261719 13.917969-13.917969 0-7.648438-6.261719-13.914062-13.917969-13.914062zm0 0"/></g><path d="m426.804688 286.8125c86.28125 12.101562 152.65625 86.136719 152.65625 175.753906 0 97.96875-79.457032 177.433594-177.425782 177.433594-67.351562 0-126.078125-37.574219-156-92.960938-13.636718-25.1875-21.429687-53.992187-21.429687-84.609374 0-97.96875 79.460937-177.429688 177.429687-177.429688 8.351563.140625 16.558594.699219 24.769532 1.8125zm0 0" fill="#fedb41"/><path d="m405.375 327.167969c-2.367188 0-4.59375 0-6.957031 0 0 0 0 0-.140625 0-37.019532.972656-72.5 17.253906-97.414063 44.808593-22.542969 25.050782-35.066406 57.335938-35.066406 91.148438 0 33.675781 12.386719 66.101562 35.066406 91.152344 24.914063 27.554687 60.394531 43.832031 97.414063 44.808594h7.097656c37.433594-.976563 71.808594-16.699219 96.992188-44.394532 22.824218-25.046875 35.351562-57.46875 35.351562-91.425781 0-33.960937-12.527344-66.382813-35.351562-91.429687-25.183594-27.96875-59.695313-43.695313-96.992188-44.667969zm85.445312 197.328125c-4.039062-3.480469-8.214843-6.679688-12.667968-9.742188 3.484375-11.964844 5.710937-25.046875 6.679687-37.570312h24.078125c-2.089844 16.835937-8.347656 33.253906-18.089844 47.3125zm-196.214843-47.175782h24.070312c.976563 12.523438 3.0625 25.324219 6.542969 37.15625-4.453125 3.0625-8.769531 6.402344-12.800781 9.878907-9.464844-14.054688-15.585938-30.335938-17.8125-47.035157zm17.949219-75.148437c4.035156 3.480469 8.347656 6.820313 12.800781 9.882813-3.476563 11.828124-5.703125 23.515624-6.539063 37.433593h-24.074218c2.089843-16.699219 8.210937-33.257812 17.8125-47.316406zm103.535156-38.128906c11.132812 8.90625 20.871094 20.738281 27.832031 34.789062-8.90625 3.761719-18.09375 6.265625-27.832031 7.515625zm-27.832032 42.304687c-9.742187-1.25-18.925781-3.753906-27.832031-7.375 6.957031-14.191406 15.304688-25.882812 27.832031-34.929687zm-37.574218 18.925782c11.96875 4.730468 23.65625 7.65625 37.574218 9.046874v15.167969h-41.609374c.695312-8.351562 2.226562-16.421875 4.035156-24.214843zm-4.035156 52.046874h41.609374v14.472657c-13.917968 1.253906-25.605468 4.59375-37.574218 9.324219-1.808594-7.65625-3.339844-15.449219-4.035156-23.796876zm41.609374 42.445313v42.304687c-12.527343-8.90625-20.875-20.738281-27.832031-34.933593 8.90625-3.753907 18.089844-6.121094 27.832031-7.371094zm27.832032 0c9.738281 1.25 18.925781 3.753906 27.832031 7.515625-6.960937 14.191406-16.699219 25.882812-27.832031 34.789062zm37.15625-18.511719c-11.832032-4.867187-24.632813-8.070312-37.15625-9.460937v-14.472657h40.910156c-.691406 8.347657-1.945312 16.140626-3.753906 23.933594zm-37.15625-51.765625v-15.167969c12.523437-1.253906 25.1875-4.175781 37.15625-9.046874 1.949218 7.65625 3.0625 15.867187 3.753906 24.214843zm51.488281-64.707031c-2.226563-4.453125-4.730469-8.628906-7.375-12.804688 4.175781 2.640626 8.210937 5.703126 11.96875 9.042969-1.53125 1.253907-3.0625 2.503907-4.59375 3.761719zm-131.78125.277344c-1.671875-1.253906-3.203125-2.503906-4.734375-3.761719 3.898438-3.339844 7.929688-6.398437 12.246094-9.183594-2.644532 4.039063-5.148438 8.351563-7.511719 12.945313zm0 155.859375c2.363281 4.589843 4.867187 8.90625 7.511719 13.082031-4.316406-2.785156-8.347656-5.847656-12.246094-9.1875 1.53125-1.390625 3.199219-2.644531 4.734375-3.894531zm131.78125.414062c1.53125 1.253907 3.0625 2.503907 4.59375 3.761719-3.757813 3.339844-7.792969 6.261719-11.96875 9.046875 2.644531-4.179687 5.148437-8.492187 7.375-12.808594zm17.253906-91.84375c-.96875-13.917969-3.058593-25.886719-6.679687-37.851562 4.453125-3.0625 8.628906-6.125 12.667968-9.742188 9.742188 14.195313 16 29.363281 18.226563 47.457031h-24.214844zm0 0" fill="#083863"/></svg>