<svg height="640pt" viewBox="0 -52 640 640" width="640pt" xmlns="http://www.w3.org/2000/svg"><path d="m253.089844 20.621094 68.394531 86.640625h-174.46875c-31.152344 0-56.371094 25.21875-56.371094 56.371093v371.777344h-34.273437c-31.152344 0-56.371094-25.21875-56.371094-56.378906v-422.660156c0-31.152344 25.21875-56.371094 56.371094-56.371094h153.105468c16.765626 0 32.785157 7.5625 43.613282 20.621094zm0 0" fill="#00efd1"/><path d="m640 160.816406v318.367188c0 31.152344-25.21875 56.371094-56.371094 56.371094h-507.816406v-374.738282c0-31.152344 25.21875-56.371094 56.371094-56.371094h451.445312c31.152344 0 56.371094 25.21875 56.371094 56.371094zm0 0" fill="#00acea"/><path d="m356.792969 176.390625c-2.527344 0-5.042969 0-7.417969 0 0 0 0 0-.152344 0-39.457031 1.039063-77.289062 18.398437-103.847656 47.773437-24.03125 26.699219-37.382812 61.117188-37.382812 97.167969 0 36.054688 13.203124 70.46875 37.382812 97.175781 26.558594 29.375 64.390625 46.730469 103.847656 47.765626h7.722656c39.898438-1.035157 76.546876-17.796876 103.398438-47.324219 24.328125-26.703125 37.683594-61.269531 37.683594-97.464844 0-36.203125-13.355469-70.765625-37.683594-97.46875-27-29.820313-63.789062-46.730469-103.550781-47.625zm91.089843 210.21875c-4.304687-3.710937-8.757812-7.269531-13.503906-10.382813 3.710938-12.757812 6.085938-26.109374 7.125-40.054687h25.664063c-2.226563 18.09375-8.902344 35.308594-19.285157 50.4375zm-209.179687-50.589844h25.664063c1.039062 13.800781 3.265624 27.148438 6.96875 39.761719-4.742188 3.261719-9.34375 6.675781-13.644532 10.386719-10.089844-14.988281-16.617187-32.046875-18.988281-50.148438zm19.132813-79.8125c4.304687 3.710938 8.902343 7.121094 13.652343 10.386719-3.710937 12.609375-6.082031 25.960938-6.972656 39.757812h-25.667969c2.226563-18.101562 8.753906-35.160156 18.988282-50.144531zm109.640624-40.5c11.863282 9.492188 22.101563 22.105469 29.667969 37.085938-9.492187 4.007812-19.285156 6.679687-29.667969 8.011719zm-29.671874 45.097657c-10.386719-1.332032-20.179688-4.003907-29.675782-7.859376 7.417969-15.132812 17.804688-27.59375 29.675782-37.238281zm-39.609376 20.03125c12.757813 5.042968 26.257813 8.457031 39.609376 9.789062v15.726562h-43.617188c.738281-8.898437 1.925781-17.359374 4.007812-25.515624zm-4.011718 55.183593h43.621094v15.730469c-13.355469 1.332031-26.851563 4.742188-39.609376 9.789062-2.082031-8.160156-3.269531-16.617187-4.011718-25.519531zm43.621094 45.546875v45.097656c-11.871094-9.492187-22.253907-22.101562-29.675782-37.234374 9.496094-3.859376 19.289063-6.53125 29.675782-7.863282zm29.671874.148438c10.382813 1.335937 20.175782 4.007812 29.667969 8.011718-7.417969 14.984376-17.804687 27.59375-29.667969 37.089844zm39.90625-20.027344c-12.613281-5.195312-26.558593-8.453125-39.90625-9.9375v-15.730469h44.355469c-.742187 8.902344-2.375 17.359375-4.449219 25.667969zm-39.90625-55.335938v-15.726562c13.347657-1.332031 27.292969-4.746094 39.90625-9.941406 2.074219 8.164062 3.707032 16.769531 4.449219 25.667968zm55.628907-68.539062c-2.371094-4.746094-5.042969-9.34375-7.863281-13.648438 4.449218 2.820313 8.757812 6.078126 12.761718 9.640626-1.484375 1.335937-3.117187 2.671874-4.898437 4.007812zm-140.339844.292969c-1.785156-1.332031-3.414063-2.667969-5.046875-4.003907 4.152344-3.558593 8.457031-6.972656 13.058594-9.789062-2.96875 4.300781-5.640625 8.898438-8.011719 13.792969zm0 166.160156c2.515625 4.894531 5.1875 9.492187 8.011719 13.941406-4.601563-2.964843-8.902344-6.230469-13.058594-9.789062 1.632812-1.484375 3.261719-2.816407 5.046875-4.152344zm140.339844.296875c1.628906 1.335938 3.265625 2.667969 4.898437 4.007812-4.011718 3.558594-8.3125 6.671876-12.761718 9.636719 2.964843-4.300781 5.492187-8.902343 7.863281-13.644531zm18.398437-98.210938c-1.039062-13.945312-3.414062-27.296874-7.125-40.058593 4.746094-3.261719 9.199219-6.675781 13.503906-10.386719 10.382813 15.140625 17.058594 32.34375 19.429688 50.59375h-25.808594zm0 0" fill="#083863"/></svg>