<svg height="638pt" viewBox="0 -45 638.74973 638" width="638pt" xmlns="http://www.w3.org/2000/svg"><path d="m593.386719 141.355469v65.976562h-541.914063l-5.953125-146.320312c-1.53125-32.992188 24.890625-60.636719 58.039063-60.636719h125.09375c20.308594 0 39.253906 10.691406 49.789062 28.253906l15.886719 26.582032c10.535156 17.5625 29.324219 28.253906 49.789063 28.253906h191.078124c32.074219-.152344 58.191407 25.8125 58.191407 57.890625zm0 0" fill="#00efd1"/><path d="m608.207031 192.0625c18.480469 0 32.835938 16.34375 30.238281 34.671875l-37.417968 272.175781c-3.972656 28.71875-28.5625 50.105469-57.429688 50.105469h-447.832031c-29.019531 0-53.460937-21.386719-57.425781-50.105469l-38.035156-272.175781c-2.59375-18.328125 11.761718-34.824219 30.242187-34.824219h577.660156zm0 0" fill="#00acea"/><path d="m323.199219 221.847656c-2.597657 0-5.195313 0-7.644531 0 0 0 0 0-.148438 0-40.628906 1.066406-79.578125 18.941406-106.917969 49.179688-24.746093 27.496094-38.492187 62.929687-38.492187 100.042968 0 37.117188 13.597656 72.554688 38.492187 100.042969 27.339844 30.246094 66.289063 48.113281 106.917969 49.183594h7.941406c41.085938-1.070313 78.816406-18.328125 106.457032-48.722656 25.054687-27.492188 38.796874-63.082031 38.796874-100.351563 0-37.265625-13.742187-72.855468-38.796874-100.347656-27.796876-30.699219-65.527344-48.113281-106.605469-49.027344zm93.929687 216.429688c-4.429687-3.820313-9.015625-7.484375-13.898437-10.691406 3.816406-13.136719 6.261719-26.878907 7.332031-41.242188h26.421875c-2.441406 18.636719-9.164063 36.355469-19.855469 51.933594zm-215.359375-52.085938h26.421875c1.070313 14.207032 3.359375 27.953125 7.179688 40.9375-4.886719 3.355469-9.625 6.871094-14.054688 10.691406-10.386718-15.429687-17.257812-32.992187-19.546875-51.628906zm19.703125-82.171875c4.429688 3.820313 9.160156 7.328125 14.050782 10.691407-3.816407 12.984374-6.261719 26.730468-7.179688 40.9375h-26.574219c2.289063-18.636719 9.160157-36.199219 19.703125-51.628907zm113.175782-41.695312c12.527343 9.769531 22.757812 22.753906 30.550781 38.179687-9.773438 4.125-20.007813 6.878906-30.550781 8.253906zm-30.542969 46.433593c-10.542969-1.375-20.777344-4.128906-30.550781-8.101562 7.636718-15.578125 18.023437-28.40625 30.550781-38.332031zm-40.9375 20.617188c13.132812 5.191406 26.882812 8.703125 40.9375 10.078125v16.195313h-45.214844c.765625-9.167969 2.136719-17.871094 4.277344-26.273438zm-4.277344 56.816406h45.214844v16.191406c-14.054688 1.375-27.953125 4.886719-40.9375 10.082032-2.140625-8.402344-3.511719-17.105469-4.277344-26.273438zm45.214844 46.890625v46.433594c-12.527344-9.773437-22.914063-22.757813-30.550781-38.335937 9.773437-3.972657 20.007812-6.722657 30.550781-8.097657zm30.542969.152344c10.542968 1.378906 20.777343 4.128906 30.550781 8.25-7.636719 15.429687-18.023438 28.410156-30.550781 38.183594zm40.9375-20.617187c-12.984376-5.347657-26.886719-8.707032-40.9375-10.234376v-16.191406h45.210937c-.761719 9.167969-2.136719 17.871094-4.273437 26.425782zm-40.9375-56.96875v-16.195313c14.054687-1.375 27.953124-4.886719 40.9375-10.234375 2.136718 8.402344 3.511718 17.261719 4.273437 26.429688zm56.976562-70.566407c-2.449219-4.886719-5.195312-9.625-8.101562-14.054687 4.585937 2.90625 9.015624 6.261718 13.140624 9.925781-1.683593 1.375-3.363281 2.75-5.039062 4.128906zm-144.644531.300781c-1.832031-1.375-3.515625-2.746093-5.195313-4.121093 4.277344-3.664063 8.707032-7.179688 13.441406-10.082031-2.902343 4.429687-5.648437 9.164062-8.246093 14.203124zm0 171.066407c2.589843 5.046875 5.34375 9.777343 8.246093 14.363281-4.734374-3.054688-9.164062-6.417969-13.441406-10.082031 1.679688-1.527344 3.511719-2.902344 5.195313-4.28125zm144.644531.308593c1.675781 1.375 3.355469 2.75 5.039062 4.128907-4.125 3.664062-8.554687 6.871093-13.140624 9.925781 2.90625-4.429688 5.503906-9.167969 8.101562-14.054688zm18.9375-101.109374c-1.070312-14.359376-3.515625-28.105469-7.332031-41.242188 4.882812-3.359375 9.46875-6.875 13.898437-10.695312 10.691406 15.582031 17.5625 33.300781 19.855469 52.085937h-26.421875zm0 0" fill="#083863"/></svg>