<svg height="640pt" viewBox="0 -52 640 640" width="640pt" xmlns="http://www.w3.org/2000/svg"><path d="m320.964844 59.28125-61.492188-59.28125h-211.214844l7.855469 219.214844h532.734375v-159.933594zm0 0" fill="#00efd1"/><path d="m536.460938 219.214844v.550781h-432.921876v-105.332031h432.921876zm0 0" fill="#fedb41"/><path d="m640 205.980469-58.042969 329.097656h-523.222656l-58.734375-329.097656zm0 0" fill="#00acea"/><path d="m323.445312 236.035156c-2.34375 0-4.550781 0-6.894531 0 0 0 0 0-.136719 0-36.671874.96875-71.828124 17.09375-96.507812 44.394532-22.339844 24.8125-34.746094 56.800781-34.746094 90.164062 0 33.371094 12.269532 65.488281 34.746094 90.171875 24.679688 27.300781 59.835938 43.429687 96.507812 44.394531h7.167969c37.089844-.964844 71.144531-16.546875 96.101563-43.984375 22.609375-24.8125 35.019531-56.9375 35.019531-90.582031 0-33.636719-12.410156-65.761719-35.019531-90.578125-24.957032-27.4375-59.152344-43.011719-96.238282-43.980469zm84.792969 195.503906c-4-3.449218-8.136719-6.621093-12.546875-9.65625 3.445313-11.855468 5.652344-24.8125 6.617188-37.21875h23.851562c-2.207031 16.542969-8.269531 32.8125-17.921875 46.875zm-194.402343-46.875h23.855468c.964844 12.40625 3.03125 25.089844 6.476563 36.945313-4.40625 3.035156-8.683594 6.207031-12.683594 9.65625-9.375-13.925781-15.578125-30.058594-17.648437-46.601563zm17.789062-74.316406c3.996094 3.445313 8.273438 6.757813 12.679688 9.652344-3.441407 11.71875-5.648438 24.675781-6.476563 37.085938h-23.992187c2.070312-16.542969 8.273437-32.8125 17.789062-46.738282zm102.164062-37.773437c11.304688 8.824219 20.542969 20.539062 27.574219 34.464843-8.824219 3.722657-18.0625 6.203126-27.574219 7.441407zm-27.578124 41.90625c-9.511719-1.238281-18.75-3.71875-27.574219-7.304688 6.894531-14.0625 16.269531-25.644531 27.574219-34.601562zm-36.949219 18.757812c11.855469 4.6875 24.269531 7.71875 36.949219 8.957031v14.890626h-40.8125c.695312-8.273438 1.933593-16.265626 3.863281-23.847657zm-3.863281 51.425781h40.8125v14.472657c-12.679688 1.242187-25.230469 4.414062-36.949219 9.238281-1.929688-7.722656-3.167969-15.441406-3.863281-23.710938zm40.8125 42.1875v41.914063c-11.304688-8.828125-20.679688-20.546875-27.574219-34.609375 8.824219-3.585938 18.0625-6.066406 27.574219-7.304688zm27.578124 0c9.511719 1.238282 18.75 3.71875 27.574219 7.445313-6.894531 13.921875-16.269531 25.640625-27.574219 34.46875zm36.949219-18.476562c-11.71875-4.824219-24.269531-7.996094-36.949219-9.238281v-14.472657h40.808594c-.691406 8.269532-1.933594 16.125-3.859375 23.710938zm-36.949219-51.289062v-14.890626c12.679688-1.238281 25.230469-4.269531 36.949219-9.101562 1.925781 7.585938 3.167969 15.71875 3.855469 23.992188zm51.425782-63.972657c-2.207032-4.414062-4.6875-8.683593-7.308594-12.683593 4.132812 2.617187 8.132812 5.652343 11.859375 8.960937-1.519531 1.378906-3.039063 2.621094-4.550781 3.722656zm-130.566406.273438c-1.65625-1.238281-3.167969-2.480469-4.6875-3.71875 3.863281-3.3125 7.859374-6.480469 12.132812-9.101563-2.621094 4-5.101562 8.414063-7.445312 12.820313zm0 154.558593c2.34375 4.550782 4.824218 8.820313 7.445312 12.957032-4.273438-2.757813-8.269531-5.789063-12.132812-9.101563 1.519531-1.375 3.171874-2.617187 4.6875-3.855469zm130.566406.273438c1.511718 1.242188 3.03125 2.484375 4.550781 3.722656-3.726563 3.3125-7.726563 6.207032-11.859375 8.960938 2.621094-4.136719 4.964844-8.269532 7.308594-12.683594zm17.09375-91.132812c-.964844-13.785157-3.171875-25.503907-6.617188-37.363282 4.410156-3.035156 8.546875-6.203125 12.546875-9.648437 9.652344 14.0625 15.851563 30.46875 18.058594 47.011719zm0 0" fill="#083863"/></svg>