<svg height="640pt" viewBox="-70 0 640 640" width="640pt" xmlns="http://www.w3.org/2000/svg"><path d="m334.457031 0h-262.332031c-39.472656 0-72.125 32.484375-72.125 71.957031v496.085938c0 39.472656 32.652344 71.957031 72.125 71.957031h356.058594c39.472656 0 72.117187-32.484375 72.117187-71.957031v-394.074219zm0 0" fill="#00acea"/><path d="m335.269531.488281 165.199219 173.640625h-109.972656c-30.535156 0-55.226563-24.6875-55.226563-55.222656zm0 0" fill="#00efd1"/><g fill="#083863"><path d="m383.835938 511.675781h-267.371094c-8.929688 0-16.238282 7.308594-16.238282 16.242188 0 8.9375 7.308594 16.246093 16.238282 16.246093h267.535156c8.933594 0 16.242188-7.308593 16.242188-16.246093 0-8.933594-7.308594-16.242188-16.40625-16.242188zm0 0"/><path d="m254.214844 174.457031c-2.765625 0-5.523438 0-8.121094 0 0 0 0 0-.164062 0-43.210938 1.132813-84.628907 20.140625-113.707032 52.304688-26.3125 29.238281-40.933594 66.925781-40.933594 106.398437 0 39.464844 14.457032 77.152344 40.933594 106.390625 29.078125 32.164063 70.496094 51.171875 113.707032 52.304688h8.445312c43.695312-1.132813 83.816406-19.492188 113.21875-51.816407 26.640625-29.238281 41.257812-67.085937 41.257812-106.71875 0-39.640624-14.617187-77.484374-41.257812-106.722656-29.5625-32.648437-69.683594-51.167968-113.378906-52.140625zm99.894531 230.171875c-4.710937-4.0625-9.582031-7.960937-14.777344-11.371094 4.054688-13.972656 6.660157-28.589843 7.796875-43.859374h28.101563c-2.597657 19.820312-9.746094 38.664062-21.121094 55.230468zm-229.03125-55.390625h28.101563c1.136718 15.105469 3.574218 29.726563 7.632812 43.535157-5.195312 3.574218-10.230469 7.308593-14.941406 11.367187-11.046875-16.40625-18.355469-35.082031-20.792969-54.902344zm20.953125-87.394531c4.710938 4.0625 9.746094 7.800781 14.945312 11.375-4.0625 13.808594-6.660156 28.425781-7.636718 43.535156h-28.261719c2.4375-19.820312 9.746094-38.503906 20.953125-54.910156zm120.367188-44.339844c13.320312 10.394532 24.203124 24.199219 32.488281 40.605469-10.402344 4.390625-21.277344 7.308594-32.488281 8.773437zm-32.488282 49.378906c-11.210937-1.464843-22.09375-4.386718-32.488281-8.605468 8.121094-16.574219 19.167969-30.214844 32.488281-40.773438zm-43.535156 21.929688c13.972656 5.523438 28.589844 9.257812 43.535156 10.71875v17.222656h-48.085937c.816406-9.746094 2.277343-19.003906 4.550781-27.941406zm-4.550781 60.425781h48.085937v17.214844c-14.945312 1.464844-29.726562 5.203125-43.535156 10.722656-2.273438-8.933593-3.734375-18.191406-4.550781-27.9375zm48.085937 49.867188v49.378906c-13.320312-10.394531-24.363281-24.199219-32.488281-40.769531 10.394531-4.222656 21.277344-7.144532 32.488281-8.609375zm32.488282.160156c11.210937 1.464844 22.085937 4.390625 32.488281 8.777344-8.125 16.40625-19.167969 30.207031-32.488281 40.605469zm43.53125-21.925781c-13.808594-5.683594-28.59375-9.257813-43.53125-10.886719v-17.214844h48.078124c-.808593 9.746094-2.273437 19.003907-4.546874 28.101563zm-43.53125-60.585938v-17.222656c14.945312-1.460938 29.722656-5.195312 43.53125-10.878906 2.273437 8.929687 3.738281 18.355468 4.546874 28.101562zm60.582031-75.050781c-2.597657-5.195313-5.519531-10.234375-8.605469-14.941406 4.871094 3.085937 9.582031 6.65625 13.96875 10.558593-1.789062 1.464844-3.574219 2.921876-5.363281 4.382813zm-153.820313.328125c-1.953125-1.464844-3.742187-2.925781-5.523437-4.386719 4.546875-3.898437 9.257812-7.636719 14.292969-10.722656-3.085938 4.714844-6.011719 9.746094-8.769532 15.109375zm0 181.929688c2.757813 5.359374 5.683594 10.394531 8.769532 15.265624-5.035157-3.246093-9.746094-6.820312-14.292969-10.722656 1.78125-1.621094 3.734375-3.085937 5.523437-4.542968zm153.820313.320312c1.789062 1.464844 3.574219 2.925781 5.363281 4.390625-4.386719 3.894531-9.097656 7.308594-13.96875 10.554687 3.085938-4.710937 5.847656-9.746093 8.605469-14.945312zm20.148437-107.527344c-1.136718-15.269531-3.742187-29.890625-7.796875-43.859375 5.195313-3.574219 10.066407-7.308593 14.777344-11.371093 11.375 16.566406 18.683594 35.410156 21.28125 55.390624h-28.261719zm0 0"/></g></svg>