<svg height="638pt" viewBox="-57 0 638 638.75085" width="638pt" xmlns="http://www.w3.org/2000/svg"><path d="m430.804688 424.066406h-218.128907c-7.292969 0-13.257812 5.960938-13.257812 13.253906 0 7.289063 5.964843 13.25 13.257812 13.25h218.257813c7.292968 0 13.25-5.960937 13.25-13.25 0-7.292968-5.957032-13.253906-13.378906-13.253906zm0 0" fill="#083863"/><path d="m317.5 238.539062-44.925781-121.921874h-214.023438c-32.199219 0-58.175781 26.507812-58.175781 58.707031v404.71875c0 32.203125 25.976562 58.707031 58.175781 58.707031h290.488281c32.203126 0 58.175782-26.503906 58.175782-58.707031v-321.496094zm0 0" fill="#00efd1"/><path d="m377.132812 180.230469-44.925781-121.921875h-214.019531c-32.203125 0-58.175781 26.507812-58.175781 58.707031v404.71875c0 32.203125 25.972656 58.707031 58.175781 58.707031h290.484375c32.203125 0 58.179687-26.503906 58.179687-58.707031v-321.496094zm0 0" fill="#fedb41"/><path d="m435.441406 121.917969-44.925781-121.917969h-214.019531c-32.203125 0-58.175782 26.503906-58.175782 58.707031v404.71875c0 32.203125 25.972657 58.707031 58.175782 58.707031h290.488281c32.199219 0 58.175781-26.503906 58.175781-58.707031v-321.496093zm0 0" fill="#00acea"/><path d="m390.515625.398438 134.777344 141.664062h-89.71875c-24.914063 0-45.058594-20.144531-45.058594-45.054688zm0 0" fill="#00efd1"/><path d="m307.027344 270.339844h-34.984375c-7.285157 0-13.253907 5.964844-13.253907 13.257812 0 7.285156 5.96875 13.25 13.253907 13.25h35.777343v6.625h-35.777343c-7.285157 0-13.253907 5.964844-13.253907 13.25 0 7.292969 5.96875 13.257813 13.253907 13.257813h35.777343v34.453125c0 7.285156 5.964844 13.25 13.257813 13.25 7.285156 0 13.25-5.964844 13.25-13.25v-34.453125h35.777344c7.292969 0 13.257812-5.964844 13.257812-13.257813 0-7.285156-5.964843-13.25-13.257812-13.25h-35.777344v-6.625h35.777344c7.292969 0 13.257812-5.964844 13.257812-13.25 0-7.292968-5.964843-13.257812-13.257812-13.257812h-33.660157l60.035157-84.808594c4.238281-5.964844 2.78125-14.183594-3.183594-18.421875s-14.179687-2.78125-18.417969 3.183594l-53.140625 75.136719-53.140625-75.136719c-4.242187-5.964844-12.457031-7.421875-18.421875-3.183594-5.960937 4.238281-7.417969 12.457031-3.179687 18.421875zm0 0" fill="#083863"/></svg>