<svg height="640pt" viewBox="0 -52 640 640" width="640pt" xmlns="http://www.w3.org/2000/svg"><path d="m253.089844 20.621094 68.394531 86.640625h-174.46875c-31.152344 0-56.371094 25.21875-56.371094 56.371093v371.777344h-34.273437c-31.152344 0-56.371094-25.21875-56.371094-56.378906v-422.660156c0-31.152344 25.21875-56.371094 56.371094-56.371094h153.105468c16.765626 0 32.785157 7.5625 43.613282 20.621094zm0 0" fill="#00efd1"/><path d="m640 160.816406v318.367188c0 31.152344-25.21875 56.371094-56.371094 56.371094h-507.816406v-374.738282c0-31.152344 25.21875-56.371094 56.371094-56.371094h451.445312c31.152344 0 56.371094 25.21875 56.371094 56.371094zm0 0" fill="#00acea"/><path d="m433.195312 203.988281c-6.675781-4.75-15.875-3.113281-20.621093 3.558594l-59.492188 84.117187-59.488281-84.117187c-4.746094-6.671875-13.945312-8.308594-20.621094-3.558594-6.675781 4.746094-8.308594 13.945313-3.558594 20.621094l67.203126 94.945313h-38.867188c-8.160156 0-14.839844 6.675781-14.839844 14.835937 0 8.15625 6.679688 14.832031 14.839844 14.832031h40.054688v7.421875h-40.054688c-8.160156 0-14.839844 6.675781-14.839844 14.835938 0 8.160156 6.679688 14.832031 14.839844 14.832031h40.054688v38.574219c0 8.160156 6.671874 14.835937 14.832031 14.835937 8.160156 0 14.839843-6.675781 14.839843-14.835937v-38.574219h40.054688c8.15625 0 14.832031-6.671875 14.832031-14.832031 0-8.160157-6.675781-14.835938-14.832031-14.835938h-40.054688v-7.421875h40.054688c8.15625 0 14.832031-6.675781 14.832031-14.832031 0-8.160156-6.675781-14.835937-14.832031-14.835937h-37.980469l67.203125-94.945313c4.75-6.527344 3.113282-15.875-3.558594-20.621094zm0 0" fill="#083863"/></svg>