<svg height="638pt" viewBox="0 -45 638.74973 638" width="638pt" xmlns="http://www.w3.org/2000/svg"><path d="m593.386719 141.355469v65.976562h-541.914063l-5.953125-146.320312c-1.53125-32.992188 24.890625-60.636719 58.039063-60.636719h125.09375c20.308594 0 39.253906 10.691406 49.789062 28.253906l15.886719 26.582032c10.535156 17.5625 29.324219 28.253906 49.789063 28.253906h191.078124c32.074219-.152344 58.191407 25.8125 58.191407 57.890625zm0 0" fill="#00efd1"/><path d="m608.207031 192.0625c18.480469 0 32.835938 16.34375 30.238281 34.671875l-37.417968 272.175781c-3.972656 28.71875-28.5625 50.105469-57.429688 50.105469h-447.832031c-29.019531 0-53.460937-21.386719-57.425781-50.105469l-38.035156-272.175781c-2.59375-18.328125 11.761718-34.824219 30.242187-34.824219h577.660156zm0 0" fill="#00acea"/><path d="m402.007812 250.257812c-6.875-4.886718-16.34375-3.207031-21.234374 3.664063l-61.398438 86.601563-61.246094-86.601563c-4.886718-6.871094-14.355468-8.550781-21.234375-3.664063-6.871093 4.886719-8.550781 14.355469-3.664062 21.226563l69.191406 97.753906h-39.5625c-8.394531 0-15.269531 6.871094-15.269531 15.273438 0 8.402343 6.875 15.277343 15.269531 15.277343h41.246094v7.636719h-41.246094c-8.394531 0-15.269531 6.871094-15.269531 15.273438 0 8.402343 6.875 15.273437 15.269531 15.273437h41.246094v39.710938c0 8.402344 6.871093 15.273437 15.269531 15.273437 8.402344 0 15.273438-6.871093 15.273438-15.273437v-39.710938h41.238281c8.402343 0 15.277343-6.871094 15.277343-15.273437 0-8.402344-6.875-15.273438-15.277343-15.273438h-41.238281v-7.636719h41.238281c8.402343 0 15.277343-6.875 15.277343-15.277343 0-8.402344-6.875-15.273438-15.277343-15.273438h-39.554688l69.191407-97.753906c4.886718-6.71875 3.355468-16.339844-3.515626-21.226563zm0 0" fill="#083863"/></svg>