<svg height="640pt" viewBox="0 -52 640 640" width="640pt" xmlns="http://www.w3.org/2000/svg"><path d="m320.964844 59.28125-61.492188-59.28125h-211.214844l7.855469 219.214844h532.734375v-159.933594zm0 0" fill="#00efd1"/><path d="m536.460938 219.214844v.550781h-432.921876v-105.332031h432.921876zm0 0" fill="#fedb41"/><path d="m640 205.980469-58.042969 329.097656h-523.222656l-58.734375-329.097656zm0 0" fill="#00acea"/><path d="m394.589844 261.816406c-6.207032-4.410156-14.757813-2.894531-19.164063 3.308594l-55.425781 78.039062-55.289062-78.171874c-4.410157-6.207032-12.957032-7.726563-19.160157-3.3125-6.207031 4.414062-7.722656 12.960937-3.308593 19.164062l62.589843 88.652344h-35.84375c-7.582031 0-13.789062 6.203125-13.789062 13.785156s6.207031 13.789062 13.789062 13.789062h37.222657v6.894532h-37.222657c-7.582031 0-13.789062 6.199218-13.789062 13.785156 0 7.582031 6.207031 13.789062 13.789062 13.789062h37.222657v35.84375c0 7.582032 6.207031 13.789063 13.789062 13.789063s13.789062-6.207031 13.789062-13.789063v-35.84375h37.222657c7.582031 0 13.789062-6.207031 13.789062-13.789062 0-7.585938-6.207031-13.785156-13.789062-13.785156h-37.222657v-6.894532h37.222657c7.582031 0 13.789062-6.207031 13.789062-13.789062s-6.207031-13.785156-13.789062-13.785156h-35.847657l62.59375-88.515625c4.414063-6.199219 3.03125-14.75-3.167968-19.164063zm0 0" fill="#083863"/></svg>